<svg xmlns="http://www.w3.org/2000/svg" viewBox="0 0 512 512"><rect width="100%" height="100%" fill="#71e6cb"/><g fill="none" stroke-width="2"><path stroke="#ba6395" d="m171.22 243.24-.2.74" vector-effect="non-scaling-stroke"/><path stroke="#79145e" d="M171.02 243.98q-1.59.71-3.07.27-.48-.14-.94.04-1.98.78-2.11-.48" vector-effect="non-scaling-stroke"/><path stroke="#ba7aa0" d="M164.9 243.81q3.67-23.13 14.01-43.8 2.99-5.97 9.03-16.83c6.81-12.24 14.36-23.33 25.21-31.92q16.61-13.16 36.53-22.17 26.61-12.02 59.79-21.97 29.57-8.86 63.29-15.62.84-.17.03-.45-30.43-10.34-53.74-14.44-28.29-4.98-63-1.59-16.11 1.57-38.16 5.64c-33.72 6.21-66.54 19.99-94.39 37.92q-12.32 7.94-22.81 20.22c-16.13 18.91-25.42 41.12-25.84 65.49-.61 36.01 13.21 67.9 38.77 92.52q3.62 3.49 8.18 6.44c2.3 1.48 4.15 3.29 6.2 5.11a.76.76 0 0 0 1.27-.58q-.02-1.22.92-1.91.53-.39.67-1.02l.31-1.38a1.22 1.21-1.3 0 1 .88-.91q.57-.14 1.11.26a.92.9-66.5 0 1 .35.92q-3.3 15.81 4.61 28.25 1.47 2.31 2.19 4.61.58 1.81 1.84 3.41 1.58 1.99 1.61 5.29 0 .57-.54.39l-1.91-.61a1.65 1.64-69.9 0 0-2.02.94q-3.76 9-1.5 17.89a1.43 1.42 78.8 0 0 1.57 1.06q10.15-1.41 19.1-3.23 1.12-.23 2.12-.82a1.02 1.01 56.4 0 0 .29-1.48l-3.23-4.34a.72.71 51.2 0 1 .1-.96l.23-.21q.32-.29.61.04 2.46 2.78 5.66 3.87c4.83 1.64 9.43 4.4 14.01 6.65" vector-effect="non-scaling-stroke"/><path stroke="#79145e" d="M178.25 364.49q-.41 2.47-2.31 2.94" vector-effect="non-scaling-stroke"/><path stroke="#ba6395" d="M175.94 367.43c-5.64-2.19-9.03-4.31-15.95-2.29q-3.34.98-6.61 1.37-3.02.36-5.89 1.29-4.66 1.5-9.4 1.41-3.71-.07-5.42-3.96-1.08-2.46-1.19-4.61-.16-3.08.24-6.52.32-2.83 1.57-6.7 1.87-5.73 3-11.51M134.69 334.01q-4.44-6.49-6.32-13.55-.53-1.98-.34-3.84.21-2.12.49-4.19a.58.57 9 0 0-.47-.64q-.25-.05-.64-.05" vector-effect="non-scaling-stroke"/><path stroke="#bd6aa1" d="M351.17 395.21q1.18-1.05 2.84-.6 2.69.72 3.99.74 7.34.14 14.5.5 5.43.26 10.77-.42c8.76-1.13 15.69-5.96 15.32-15.55q-.17-4.48-3.34-9.1-3.32-4.83-6.95-8.49c-.87-.87-1.24-2-.73-3.17q1.98-4.6 4.73-9.23c1.37-2.29 2.58-4.74 3.13-7.4q1.62-7.87.14-16.12-2.85-15.94-10.73-27.47-3.55-5.2-6.47-9.57c-2.25-3.37-6.31-5.88-7.51-9.67-1.41-4.44-2.7-9.14-4.71-13.31q-3.22-6.69-5.87-13.11c-1.11-2.67-3.14-4.27-4.69-6.59q-1.55-2.32-3.64-4.38-2.42-2.39-4.98-5.41-3.92-4.63-9.73-9.07-2.18-1.67-4.89-2.31c-1.03-.25-2.04-1.07-2.91-1.68q-.42-.29-.84-.02-4.94 3.24-6 6.38-1.71 5.09-2.88 11.52-.42 2.32-2.46 3.19-.49.21-.99 0c-1.22-.51-2.29-1.22-3.61-1.49-3.33-.69-6.01-2.48-9.27-3.42q-5.13-1.47-9.96-2.25-1.98-.31-3.85-.7-1.7-.35-3.41-.52-3.22-.3-6.53-.72-5.6-.69-12.42-.39c-3.4.15-6.49.91-9.88 1.27q-4.64.49-9.18 1.72-6.5 1.75-8.98 2.22-3.16.61-6.45 1.17c-5.34.92-9.48 3.44-13.89 6.3q-2.49 1.62-7.85 3.47-.49.17-.99.04-14.3-3.78-19.88-4.91-6.65-1.35-19.1-2.68M348.78 395.38q-1.42-.3-2.04-.12c-3.98 1.15-8.02 1.98-11.99 3.13q-2.82.82-5.3 1-.93.07-1.8.48c-1.21.57-2.54.22-3.84.61q-6.63 2-14.1 3.83-3.99.98-8.7.93-18.85-.18-35.58-.12a1.97 1.97 0 0 0-1.86 1.32c-.56 1.6-.63 3.09-1.54 4.56-2.79 4.47-5.19 8.98-8.67 13.12q-4.09 4.87-8.38 9.57-2.51 2.76-5 4.33c-3.89 2.45-7.36 4.76-11.94 6.09-3.66 1.07-6.37-1.38-9.27-3.16q-1.77-1.08-3.22-2.91-2.03-2.58-3.88-4.97-2.93-3.8-5.27-10.49c-.83-2.37-.81-4.75-1.44-7.11-.87-3.26-.45-6.45-.52-9.74q-.05-2.06.41-4.8.47-2.79.52-5.63.04-2.21.54-3.96.59-2.09.88-4.15.08-.53.41-.94.6-.74.33-1.64-.08-.24-.33-.27-.18-.02-.22.11M203.51 381.98q-.82-1.16-2.32 1.31M188.02 389.7l-6.9-.28M178.67 382.93q.64-2.03.4-4.17-.27-2.52-.05-4.35.25-2.15.03-4.44-.03-.34-.38-.34-.25 0-.27-.04M177.47 368.9q-.19-.73-1.53-1.47" vector-effect="non-scaling-stroke"/><path stroke="#79145e" d="m157.71 271.95-.76-2.39q-.15-.49-.66-.57-.26-.04-.21-.24.15-.59-.41-.83l-.56-.24" vector-effect="non-scaling-stroke"/><path stroke="#bd81ab" d="M164.9 243.81q-1.6.5-3.48.81c-2.15.36-4.38 2.76-5.69 4.56q-3.61 4.98-.63 11.59.83 1.87.98 3.47.25 2.76-.97 3.44" vector-effect="non-scaling-stroke"/><path stroke="#ba7aa0" d="M155.11 267.68q-7.12 5.45-11.43 15.33" vector-effect="non-scaling-stroke"/><path stroke="#fed0e3" d="M143.68 283.01q-.45-4.08-.05-7.89.33-3.09-.05-5.23-.58-3.32-.19-6.11 1.49-10.49 3.33-20.28 2.04-10.78 5.32-20.59c2.3-6.86 1.93-14.09 4.2-20.82q1.28-3.79 1.6-7.69c.97-11.8 8.02-23.62 15.57-32.76 2.68-3.26 6.67-3.81 8.89-7.35q2.69-4.3 7.52-6.04a1.46 1.42-84.8 0 0 .74-.63q2.75-4.76 5.53-6.34 5.18-2.96 10.41-6.06c6.33-3.76 12.8-5.26 19.8-7.06q4.44-1.15 9-3.04 9.33-3.88 18.03-7.84 2.55-1.17 5.25-2.8 3.36-2.03 5.18-2.2 3.76-.35 6.2-2.13 10.3-7.5 21.26-14.01 3.22-1.91 6.38-4.41a.92.9 53.3 0 0 .17-1.24c-.66-.93-1.92-1.11-2.99-.86q-8.79 2.04-16.43 4.25c-3.26.94-6.57.67-9.85 1.74q-4.29 1.39-8.47 3.1-2.03.83-4.24.83c-3.79.01-7.58.87-11.39 1.04q-4.86.22-9.97 1.07-4.66.78-9.85 1-5.39.23-12.3 1.72-18.63 4.03-33.53 9.61-15.25 5.71-29.3 16.23c-2.34 1.75-4.8 2.52-7.33 3.77q-7.79 3.85-12.95 10.34c-3.47 4.38-8.11 7.36-11.69 11.64-6.56 7.85-13.05 18.32-15.12 28.8q-1.65 8.32-2.09 15.16-.84 12.87-.35 27.57.08 2.41.99 4.24c1.79 3.6 4.3 6.36 5.31 10.45 1.63 6.59 5.28 11 8.25 16.64q1.59 3.02 3.31 7.91 1.68 4.78 3.51 9.7 1.03 2.75 9.34 15.03a1.92 1.92 0 0 0 1.14.78c4.4 1.01 8.04-.3 9.9-4.3q.31-.66 1.01-.89 1.77-.56.57-.68" vector-effect="non-scaling-stroke"/><path stroke="#ba7aa0" d="m143.25 286.38 1.03-.58" vector-effect="non-scaling-stroke"/><path stroke="#fed0e3" d="m144.28 285.8 7.95-8.26M152.23 277.54q2.39-.98 3.03-2.85" vector-effect="non-scaling-stroke"/><path stroke="#ba7aa0" d="M155.26 274.69q2.71-1.48 2.45-2.74" vector-effect="non-scaling-stroke"/><path stroke="#bd81ab" d="M157.71 271.95q1.85.4 2.38 3.04 1.07 5.32 4.8 9.81c2.03 2.44 3.29 5.08 5.17 7.59 5.34 7.14 10.62 14.34 17.84 19.6a1.11 1.1 45.1 0 1 0 1.79c-9.1 6.57-18.45 15.17-24.99 24.74-3.53 5.17-8.57 12.8-.31 16.65q7.27 3.4 18.28 4.19a.92.92 0 0 1 .82 1.16l-1.32 4.68q-.14.49-.57.23l-1.56-.94" vector-effect="non-scaling-stroke"/><path stroke="#ba6395" d="M155.26 274.69q-2.02 1.2-3.03 2.85M152.23 277.54q-.58.24-1.14.69-3.95 3.18-6.81 7.57M143.68 283.01l-1.07 1.97q-.24.44.05.85.21.3.59.55" vector-effect="non-scaling-stroke"/><path stroke="#bd6aa1" d="M360.99 269.1q-5.53-15.48-17.86-28.58c-3.96-4.2-8.57-6.51-12.89-9.98a1.28 1.26-36 0 0-1.26-.19q-1.46.58-2.04 2.29-2.24 6.65-2.72 13.07a2.09 2.08 18.1 0 0 .99 1.94q6 3.68 12.82 6.29 1.53.58 3.79 2.71 1.94 1.82 3.58 2.93 6.73 4.55 13.36 10.17c1.64 1.38 2.35 3.35 3.91 4.74q.65.58.44-.27c-.47-1.84-1.51-3.39-2.12-5.12M216.24 261.04q-8.23-3.22-16.61-5.92c-2.59-.83-5.41-.59-8.1-1.29q-8.45-2.19-16-2.3-6.16-.09-13.15.01a.9.9 0 0 0-.88 1.02q.73 5.73 2.54 11.19c5.84 17.58 15.34 31.87 29.22 45.08" vector-effect="non-scaling-stroke"/><path stroke="#bd81ab" d="m193.26 308.83.6 2.07q.13.48.62.55l2.28.32" vector-effect="non-scaling-stroke"/><path stroke="#bd6aa1" d="M196.76 311.77q2.44 1.49 1.59 3.23-.61 1.25-2.5 3.24c-2.3 2.41-6.01 3.53-7.94 5.37q-2.89 2.76-5.88 5.24c-3.74 3.11-5.69 6.87-8.93 10.25-2.23 2.33-3.26 5.36-4.08 8.38a1.07 1.07 0 0 0 .56 1.25q2.79 1.36 5.91 1.86 15.05 2.44 29.68-.92" vector-effect="non-scaling-stroke"/><path stroke="#bd81ab" d="M205.17 349.67q1.35 2.55 1.62 5.76.1 1.24-1.08 1.62l-2.56.81" vector-effect="non-scaling-stroke"/><path stroke="#bd6aa1" d="M203.15 357.86q-7.37.97-14.9 2.02c-2.49.34-2.19 1.93-2.4 3.87q-.93 8.84-.2 17.29.18 2.08 2.13 1.32 8.92-3.49 17.45-10.45" vector-effect="non-scaling-stroke"/><path stroke="#bd81ab" d="m205.23 371.91.62 3.84a1.07 1 26.4 0 0 .16.43c.79 1.25 1.07 2.46 2.37 3.29 3.14 1.99 5.2 4.81 8.39 6.97q4.96 3.35 10.71 6.13" vector-effect="non-scaling-stroke"/><path stroke="#bc89ae" d="M227.48 392.57q6.31 3.7 13.25 7.67.21.13.27.29.07.2-.01.39a.68.68 0 0 1-.66.43q-5.99-.21-10.11-2.06-7.1-3.18-16.42-8.24a1.02 1.02 0 0 0-1.47.62q-.89 3.12-1.04 6.64-.15 3.37-.49 6.84-.46 4.7.14 9.98.95 8.35 5.81 15.86c1.83 2.83 4.06 4.31 6.7 6.4q1.82 1.45 3.78.7c9.18-3.51 15.99-10.25 23.06-18.55 2.62-3.08 5.03-7.41 7.62-10.88q.34-.46.33-1.04-.01-.87.26-1.64.19-.55.77-.6 1.91-.17 3.88-.78 1.61-.5 3.79-.35 3.17.21 5.89.05 2.98-.17 5.86-.22c6.11-.09 13.02.35 19.39-.61q3.65-.55 7.21-.71c1.68-.08 3.3-.61 4.99-.92q2.27-.41 4.32-1 18.3-5.33 26.32-8.72 13.51-5.72 26.71-16.75 5.69-4.76 8.96-8.78 4.66-5.72 10.48-16.1" vector-effect="non-scaling-stroke"/><path stroke="#b6657c" d="M387.07 350.49q2.04-3.88 3.85-9.89c.94-3.11 1.04-6.34 1.31-9.59q.25-3.06-1.88-6.32" vector-effect="non-scaling-stroke"/><path stroke="#bd81ab" d="M390.35 324.69q-3.44-10.82-5.89-15.65-2.9-5.71-10.21-15.19c-2.12-2.76-6.05-5.68-8.1-9.23-1.15-1.99-3.24-2.53-4.86-4.01-4.44-4.08-8.75-8.21-13.81-11.61q-4.22-2.84-8.03-5.97-1.21-.99-2.64-1.72c-2.81-1.42-4.72-3.51-7.73-4.76q-6.76-2.79-13.92-5.69-27.17-11.02-55.69-7.93-5.21.57-9.37 1.6-4.47 1.12-9.12 1.95c-3.16.57-6.01 2.23-9.2 2.84q-2.13.4-3.98 1.68-3.47 2.41-7.27 3.07a.73.73 0 0 0-.37 1.25q3.04 2.83 6.79 5.24 2.09 1.35 1.06 3.61l-.18.41q-.71 1.57-2.27.84l-9.32-4.38" vector-effect="non-scaling-stroke"/><path stroke="#f7cbbe" d="M390.35 324.69q-4.01.64-8.1 0-2.28-.36-5.73 1.82" vector-effect="non-scaling-stroke"/><path stroke="#fdeff0" d="M376.52 326.51q-.6-2.23-5.68-1.66-.49.06-.88.35l-2.34 1.73" vector-effect="non-scaling-stroke"/><path stroke="#9f91a6" d="M367.62 326.93q5.12-9.2-.33-18.91c-2.52-4.51-7.2-9.22-12.63-8.89-4.67.29-6.62 5.08-6.6 9.24.05 7.34 2.86 12.22 7.37 17.48" vector-effect="non-scaling-stroke"/><path stroke="#fdeff0" d="M355.43 325.85q-2.31 1.41-6.69 5.65-4.8 4.64-6.97 9.07" vector-effect="non-scaling-stroke"/><path stroke="#bb9786" d="M341.77 340.57c-5.86-4.99-5.71 7.78-12.2 4.82q-2.88-1.31-5.47-2.97c-2.96-1.91-6.12.44-8.51 2.03q-.47.31-1.03.3h-2.17q-.71-.01-.93.67c-.48 1.54-.67 3.47-1.86 4.62q-1.78 1.74-4.15.3-5.17-3.13-9.83-3.81" vector-effect="non-scaling-stroke"/><path stroke="#fdeff0" d="M295.62 346.53q-3.6-1.1-4.88-1.03-3.41.16-6.99-.52-3.56-.68-7.6.31-2.51.62-5.55.23-3.58-.45-7.3-.86" vector-effect="non-scaling-stroke"/><path stroke="#9f91a6" d="M263.3 344.66q5.45-7.86 2.87-17.44-1.83-6.76-7.26-10.27-6.54-4.24-11.31 1.17-4.99 5.65-5.18 15.28-.01.64.35 1.16.74 1.05.31 2.35-.17.53 0 1.06 1.94 5.94 5.95 9.64" vector-effect="non-scaling-stroke"/><path stroke="#fdeff0" d="m249.03 347.61-4.15 6.46" vector-effect="non-scaling-stroke"/><path stroke="#f7cbbe" d="M244.88 354.07c-9.54-2.19-20.23 1.93-23.04 11.95-1.97 7.06 3.52 11.15 9.44 13.03" vector-effect="non-scaling-stroke"/><path stroke="#fdeff0" d="M231.28 379.05q-3.89 6.2-3.8 13.52" vector-effect="non-scaling-stroke"/><path stroke="#fed0e3" d="m205.23 371.91-2.08-14.05M205.17 349.67q.2-5 .08-6.42-1.14-13.09-1.04-23.19.03-4.1-.97-5.91-1.97-3.56-6.48-2.38M193.26 308.83c.62-.22 1.2-.71 1.24-1.4q.91-13.72 7.3-25.89c3.44-6.56 6.46-12.16 12.52-16.72q.9-.67 1.92-3.78" vector-effect="non-scaling-stroke"/><path stroke="#9e98a8" d="M263.3 344.66q-1.94 2.2-5.13 3.73-4.19 2.02-9.14-.78" vector-effect="non-scaling-stroke"/><path stroke="#f6d3c0" d="M231.28 379.05q8.35 1.66 15.48-2.58c5.89-3.5 9.23-11.81 4.91-17.74q-2.39-3.27-6.79-4.66" vector-effect="non-scaling-stroke"/><path stroke="#ba9e89" d="M295.62 346.53c-2.25 7.3-2.85 12.13-.86 19.24 1.82 6.48 10.03 12.63 16.83 12.13q1.68-.12 3.23.34 2.99.88 5.57-.69a1.85 1.82 28.9 0 1 .96-.27q2.05.01 4.01-.86c9.91-4.38 17.91-16.66 14.69-27.74q-.15-.5.22-.85 2.33-2.25 2.79-4.57.32-1.62-1.29-2.69" vector-effect="non-scaling-stroke"/><path stroke="#f6d3c0" d="M387.07 350.49q-11.53 4.56-16.8-2.96-3.34-4.74-1.4-10.34 2.1-6.03 7.65-10.68" vector-effect="non-scaling-stroke"/><path stroke="#9e98a8" d="M367.62 326.93q-3.47 4.08-7.81 1.99-1.74-.84-4.38-3.07" vector-effect="non-scaling-stroke"/><path stroke="#bd81ab" d="M351.2 391.33a.19.19 0 0 0-.01.35q1.64.71 3.55.85 17.52 1.27 32.18-1.84 3.85-.82 6.63-4.26c4.93-6.11-2.72-16.29-7.23-19.96a2.06 2.06 0 0 0-2.92.33c-4.41 5.63-10.42 9.88-15.32 14.71-2.33 2.3-5.73 3.21-8.37 5.24q-3.88 2.98-8.51 4.58" vector-effect="non-scaling-stroke"/><path stroke="#9e98a8" d="M358.686 311.65a3.94 3.63 70.8 0 0 2.132-4.914 3.94 3.63 70.8 0 0-4.724-2.527 3.94 3.63 70.8 0 0-2.132 4.915 3.94 3.63 70.8 0 0 4.724 2.527M260.586 326.937a4.27 3.94 22.1 0 0-2.474-5.257 4.27 3.94 22.1 0 0-5.438 2.043 4.27 3.94 22.1 0 0 2.474 5.257 4.27 3.94 22.1 0 0 5.438-2.043" vector-effect="non-scaling-stroke"/><path stroke="#a87540" d="M330.7 352.73a1.98 1.92 75.1 0 1-1.03-.62q-1.08-1.24-2.19-1.86-1-.55-1.8-1.16-.84-.64-1.58-1.41-.39-.41-.96-.4-4.04.08-5.88 2.69-3.12 4.43-6.47 8.57a1.16 1.15-68.3 0 1-1.02.44q-4.31-.42-8.01-2.44a1.36 1.35-65.1 0 0-1.92.71c-2.1 5.55 1.36 12.35 5.65 15.67 1.58 1.22 3.79 3.41 5.76 3.73 2.28.37 5.13 1.1 7.41.46 2.05-.57 4.21-.24 5.58-2.28q1.63-2.43 3.36-4.8c2.26-3.08 5.3-4.75 5.5-9.06q.22-4.51.51-8.7.08-1.04-.23-.04-.31 1.03-2.68.5" vector-effect="non-scaling-stroke"/></g><path fill="#760d52" d="m171.22 243.24-.2.74q-1.59.71-3.07.27-.48-.14-.94.04-1.98.78-2.11-.48 3.67-23.13 14.01-43.8 2.99-5.97 9.03-16.83c6.81-12.24 14.36-23.33 25.21-31.92q16.61-13.16 36.53-22.17 26.61-12.02 59.79-21.97 29.57-8.86 63.29-15.62.84-.17.03-.45-30.43-10.34-53.74-14.44-28.29-4.98-63-1.59-16.11 1.57-38.16 5.64c-33.72 6.21-66.54 19.99-94.39 37.92q-12.32 7.94-22.81 20.22c-16.13 18.91-25.42 41.12-25.84 65.49-.61 36.01 13.21 67.9 38.77 92.52q3.62 3.49 8.18 6.44c2.3 1.48 4.15 3.29 6.2 5.11a.76.76 0 0 0 1.27-.58q-.02-1.22.92-1.91.53-.39.67-1.02l.31-1.38a1.22 1.21-1.3 0 1 .88-.91q.57-.14 1.11.26a.92.9-66.5 0 1 .35.92q-3.3 15.81 4.61 28.25 1.47 2.31 2.19 4.61.58 1.81 1.84 3.41 1.58 1.99 1.61 5.29 0 .57-.54.39l-1.91-.61a1.65 1.64-69.9 0 0-2.02.94q-3.76 9-1.5 17.89a1.43 1.42 78.8 0 0 1.57 1.06q10.15-1.41 19.1-3.23 1.12-.23 2.12-.82a1.02 1.01 56.4 0 0 .29-1.48l-3.23-4.34a.72.71 51.2 0 1 .1-.96l.23-.21q.32-.29.61.04 2.46 2.78 5.66 3.87c4.83 1.64 9.43 4.4 14.01 6.65q-.41 2.47-2.31 2.94c-5.64-2.19-9.03-4.31-15.95-2.29q-3.34.98-6.61 1.37-3.02.36-5.89 1.29-4.66 1.5-9.4 1.41-3.71-.07-5.42-3.96-1.08-2.46-1.19-4.61-.16-3.08.24-6.52.32-2.83 1.57-6.7 1.87-5.73 3-11.51-1.6-1.01-1.6-1.9-4.44-6.49-6.32-13.55-.53-1.98-.34-3.84.21-2.12.49-4.19a.58.57 9 0 0-.47-.64q-.25-.05-.64-.05-6.84-1.87-13.01-6.9-6.44-5.25-11.72-11.23c-16.1-18.23-26.99-38.94-31.46-63.02q-.89-4.77-1.6-12.67c-2.78-30.72 6.28-58.71 26.76-82.71q11.02-12.93 23.69-21.1c25.38-16.37 56.27-30.21 85.59-36.67q24.64-5.42 50.29-8.06 17.31-1.78 33.33-1.32 10.52.31 21.07 1.52 9.32 1.08 19.59 3.41 27.58 6.28 53.95 15.97c3.5 1.28 3.66 5.22-.13 5.97q-29.89 5.97-55.18 12.64-29.55 7.8-59.08 19.22c-19.21 7.42-37.79 16.65-53.55 29.49-11.54 9.42-19.12 22-26.25 35.02q-5.45 9.96-8.88 17.52-7.11 15.69-10.01 33.7-.11.71.41.72"/><path fill="#fee7ed" d="M164.9 243.81q-1.6.5-3.48.81c-2.15.36-4.38 2.76-5.69 4.56q-3.61 4.98-.63 11.59.83 1.87.98 3.47.25 2.76-.97 3.44-7.12 5.45-11.43 15.33-.45-4.08-.05-7.89.33-3.09-.05-5.23-.58-3.32-.19-6.11 1.49-10.49 3.33-20.28 2.04-10.78 5.32-20.59c2.3-6.86 1.93-14.09 4.2-20.82q1.28-3.79 1.6-7.69c.97-11.8 8.02-23.62 15.57-32.76 2.68-3.26 6.67-3.81 8.89-7.35q2.69-4.3 7.52-6.04a1.46 1.42-84.8 0 0 .74-.63q2.75-4.76 5.53-6.34 5.18-2.96 10.41-6.06c6.33-3.76 12.8-5.26 19.8-7.06q4.44-1.15 9-3.04 9.33-3.88 18.03-7.84 2.55-1.17 5.25-2.8 3.36-2.03 5.18-2.2 3.76-.35 6.2-2.13 10.3-7.5 21.26-14.01 3.22-1.91 6.38-4.41a.92.9 53.3 0 0 .17-1.24c-.66-.93-1.92-1.11-2.99-.86q-8.79 2.04-16.43 4.25c-3.26.94-6.57.67-9.85 1.74q-4.29 1.39-8.47 3.1-2.03.83-4.24.83c-3.79.01-7.58.87-11.39 1.04q-4.86.22-9.97 1.07-4.66.78-9.85 1-5.39.23-12.3 1.72-18.63 4.03-33.53 9.61-15.25 5.71-29.3 16.23c-2.34 1.75-4.8 2.52-7.33 3.77q-7.79 3.85-12.95 10.34c-3.47 4.38-8.11 7.36-11.69 11.64-6.56 7.85-13.05 18.32-15.12 28.8q-1.65 8.32-2.09 15.16-.84 12.87-.35 27.57.08 2.41.99 4.24c1.79 3.6 4.3 6.36 5.31 10.45 1.63 6.59 5.28 11 8.25 16.64q1.59 3.02 3.31 7.91 1.68 4.78 3.51 9.7 1.03 2.75 9.34 15.03a1.92 1.92 0 0 0 1.14.78c4.4 1.01 8.04-.3 9.9-4.3q.31-.66 1.01-.89 1.77-.56.57-.68l1.03-.58 7.95-8.26q2.39-.98 3.03-2.85 2.71-1.48 2.45-2.74 1.85.4 2.38 3.04 1.07 5.32 4.8 9.81c2.03 2.44 3.29 5.08 5.17 7.59 5.34 7.14 10.62 14.34 17.84 19.6a1.11 1.1 45.1 0 1 0 1.79c-9.1 6.57-18.45 15.17-24.99 24.74-3.53 5.17-8.57 12.8-.31 16.65q7.27 3.4 18.28 4.19a.92.92 0 0 1 .82 1.16l-1.32 4.68q-.14.49-.57.23l-1.56-.94c-4.58-2.25-9.18-5.01-14.01-6.65q-3.2-1.09-5.66-3.87-.29-.33-.61-.04l-.23.21a.72.71 51.2 0 0-.1.96l3.23 4.34a1.02 1.01 56.4 0 1-.29 1.48q-1 .59-2.12.82-8.95 1.82-19.1 3.23a1.43 1.42 78.8 0 1-1.57-1.06q-2.26-8.89 1.5-17.89a1.65 1.64-69.9 0 1 2.02-.94l1.91.61q.54.18.54-.39-.03-3.3-1.61-5.29-1.26-1.6-1.84-3.41-.72-2.3-2.19-4.61-7.91-12.44-4.61-28.25a.92.9-66.5 0 0-.35-.92q-.54-.4-1.11-.26a1.22 1.21-1.3 0 0-.88.91l-.31 1.38q-.14.63-.67 1.02-.94.69-.92 1.91a.76.76 0 0 1-1.27.58c-2.05-1.82-3.9-3.63-6.2-5.11q-4.56-2.95-8.18-6.44c-25.56-24.62-39.38-56.51-38.77-92.52.42-24.37 9.71-46.58 25.84-65.49q10.49-12.28 22.81-20.22c27.85-17.93 60.67-31.71 94.39-37.92q22.05-4.07 38.16-5.64 34.71-3.39 63 1.59 23.31 4.1 53.74 14.44.81.28-.03.45-33.72 6.76-63.29 15.62-33.18 9.95-59.79 21.97-19.92 9.01-36.53 22.17c-10.85 8.59-18.4 19.68-25.21 31.92q-6.04 10.86-9.03 16.83-10.34 20.67-14.01 43.8"/><path fill="#feb9d8" d="m143.68 283.01-1.07 1.97q-.24.44.05.85.21.3.59.55 1.2.12-.57.68-.7.23-1.01.89c-1.86 4-5.5 5.31-9.9 4.3a1.92 1.92 0 0 1-1.14-.78q-8.31-12.28-9.34-15.03-1.83-4.92-3.51-9.7-1.72-4.89-3.31-7.91c-2.97-5.64-6.62-10.05-8.25-16.64-1.01-4.09-3.52-6.85-5.31-10.45q-.91-1.83-.99-4.24-.49-14.7.35-27.57.44-6.84 2.09-15.16c2.07-10.48 8.56-20.95 15.12-28.8 3.58-4.28 8.22-7.26 11.69-11.64q5.16-6.49 12.95-10.34c2.53-1.25 4.99-2.02 7.33-3.77q14.05-10.52 29.3-16.23 14.9-5.58 33.53-9.61 6.91-1.49 12.3-1.72 5.19-.22 9.85-1 5.11-.85 9.97-1.07c3.81-.17 7.6-1.03 11.39-1.04q2.21 0 4.24-.83 4.18-1.71 8.47-3.1c3.28-1.07 6.59-.8 9.85-1.74q7.64-2.21 16.43-4.25c1.07-.25 2.33-.07 2.99.86a.92.9 53.3 0 1-.17 1.24q-3.16 2.5-6.38 4.41-10.96 6.51-21.26 14.01-2.44 1.78-6.2 2.13-1.82.17-5.18 2.2-2.7 1.63-5.25 2.8-8.7 3.96-18.03 7.84-4.56 1.89-9 3.04c-7 1.8-13.47 3.3-19.8 7.06q-5.23 3.1-10.41 6.06-2.78 1.58-5.53 6.34a1.46 1.42-84.8 0 1-.74.63q-4.83 1.74-7.52 6.04c-2.22 3.54-6.21 4.09-8.89 7.35-7.55 9.14-14.6 20.96-15.57 32.76q-.32 3.9-1.6 7.69c-2.27 6.73-1.9 13.96-4.2 20.82q-3.28 9.81-5.32 20.59-1.84 9.79-3.33 20.28-.39 2.79.19 6.11.38 2.14.05 5.23-.4 3.81.05 7.89"/><path d="M29.02 256.01q.06.54.56.77c17.93 8.37 24.75 27.09 24.66 46.17q-.11 21.79.05 44.74c.05 7.03 2.09 17.12 8.79 20.43q3.23 1.6 8.17 1.45 5.4-.17 9.79-.04.5.01.5.51v17.16q0 .51-.51.52-16.7.42-20.96-.1c-21-2.54-28.65-19.51-28.72-38.85q-.09-22.44-.09-43.01c.01-15.49-4.64-36.37-22.06-39.87q-.7-.14-.7-.86v-17.02q0-.62.61-.7c18.5-2.46 22.23-26.31 22.19-40.89q-.06-22.54.02-44.58c.06-16.67 5.86-32.6 23.41-37.54q5.11-1.44 12.94-1.24 7.25.18 13.45.03a.42.41-.7 0 1 .43.41l-.01 17.48a.41.41 0 0 1-.39.41q-5.01.21-10.71.01c-12.59-.43-16.12 10.84-16.16 21.14q-.11 27.01-.12 50.65-.01 7.54-2.62 16.49-5.47 18.72-22.12 25.66a.66.65-14.5 0 0-.4.67M480.9 256.18q.19-.59-.38-.83c-17.86-7.1-24.84-23.9-24.78-42.33q.07-23-.05-47.16c-.05-10.5-2.84-24.95-16.21-24.46q-5.06.18-9.38.02-.6-.03-.6-.62v-17.05q0-.7.7-.68 6.11.16 12.03 0c27.19-.73 36.59 19.62 36.44 43.25q-.13 21.47-.01 42.69c.08 15.31 3.92 37.03 23.26 38.32q.62.04.62.67v17.02q0 .74-.72.82c-18.79 2.33-23.22 20.37-23.19 36.63q.04 20.87-.01 45.59c-.04 16.88-6.7 33.05-23.76 38.33-7.46 2.31-16.87 1.27-24.75 1.43q-.61.01-.61-.59v-17.19q0-.48.49-.51c4.55-.19 10.79.78 14.89-.92 8.48-3.52 10.75-16.24 10.79-24.02q.11-20.91.09-45.72 0-10.27 4.09-20.84 5.75-14.83 20.62-21.38.32-.15.43-.47"/><path fill="#feb9d8" d="M351.17 395.21q1.18-1.05 2.84-.6 2.69.72 3.99.74 7.34.14 14.5.5 5.43.26 10.77-.42c8.76-1.13 15.69-5.96 15.32-15.55q-.17-4.48-3.34-9.1-3.32-4.83-6.95-8.49c-.87-.87-1.24-2-.73-3.17q1.98-4.6 4.73-9.23c1.37-2.29 2.58-4.74 3.13-7.4q1.62-7.87.14-16.12-2.85-15.94-10.73-27.47-3.55-5.2-6.47-9.57c-2.25-3.37-6.31-5.88-7.51-9.67-1.41-4.44-2.7-9.14-4.71-13.31q-3.22-6.69-5.87-13.11c-1.11-2.67-3.14-4.27-4.69-6.59q-1.55-2.32-3.64-4.38-2.42-2.39-4.98-5.41-3.92-4.63-9.73-9.07-2.18-1.67-4.89-2.31c-1.03-.25-2.04-1.07-2.91-1.68q-.42-.29-.84-.02-4.94 3.24-6 6.38-1.71 5.09-2.88 11.52-.42 2.32-2.46 3.19-.49.21-.99 0c-1.22-.51-2.29-1.22-3.61-1.49-3.33-.69-6.01-2.48-9.27-3.42q-5.13-1.47-9.96-2.25-1.98-.31-3.85-.7-1.7-.35-3.41-.52-3.22-.3-6.53-.72-5.6-.69-12.42-.39c-3.4.15-6.49.91-9.88 1.27q-4.64.49-9.18 1.72-6.5 1.75-8.98 2.22-3.16.61-6.45 1.17c-5.34.92-9.48 3.44-13.89 6.3q-2.49 1.62-7.85 3.47-.49.17-.99.04-14.3-3.78-19.88-4.91-6.65-1.35-19.1-2.68l.2-.74q.61-.42.66-.99.01-.12.12-.13h.06q.09-.01.04.06-.48.61-.1 1.15.2.28.64.31 15.33 1.17 29.54 5.3c2.49.73 5.15.76 7.42 1.91q.4.2.83.08 5.69-1.6 11.03-5.36c6.32-4.46 13.7-4.7 20.89-6.5q10.6-2.65 19.22-3.78 9.08-1.19 19.11-.13 11.42 1.21 22.64 4.09c2.29.59 4.09 1.53 6.16 2.5 2.22 1.05 4.35.93 6.52 2.39q.48.33 1.02.12 1.67-.65 1.98-2.51 1.23-7.21 3.27-12.56 1.07-2.79 5.96-5.94.59-.38 1.19-.02c2.78 1.65 5.78 2.21 8.41 4.18q5.17 3.86 8.47 7.66 3.37 3.89 6.2 6.8c2.27 2.34 3.76 4.78 5.82 7.12 2.98 3.39 3.65 7.38 5.66 11.22q4.83 9.17 7.31 18.64c.48 1.85 1.63 3.56 3.01 4.84q3.29 3.05 5.38 6.27c3.01 4.66 6.31 9.07 8.99 13.98q6.6 12.12 8.17 26.89c.74 6.93-.41 13.68-4.03 19.66q-2.19 3.62-4.19 7.91-.44.93-.59 1.88-.08.51.28.88 5.14 5.35 8.74 11.33c2.8 4.64 3.15 11.31.09 15.88-4.74 7.1-13.11 8.01-21.14 8.33q-5.76.23-24.83-1.49"/><path fill="#7c1b69" d="M351.17 395.21q-.71.64-2.39.17-1.42-.3-2.04-.12c-3.98 1.15-8.02 1.98-11.99 3.13q-2.82.82-5.3 1-.93.07-1.8.48c-1.21.57-2.54.22-3.84.61q-6.63 2-14.1 3.83-3.99.98-8.7.93-18.85-.18-35.58-.12a1.97 1.97 0 0 0-1.86 1.32c-.56 1.6-.63 3.09-1.54 4.56-2.79 4.47-5.19 8.98-8.67 13.12q-4.09 4.87-8.38 9.57-2.51 2.76-5 4.33c-3.89 2.45-7.36 4.76-11.94 6.09-3.66 1.07-6.37-1.38-9.27-3.16q-1.77-1.08-3.22-2.91-2.03-2.58-3.88-4.97-2.93-3.8-5.27-10.49c-.83-2.37-.81-4.75-1.44-7.11-.87-3.26-.45-6.45-.52-9.74q-.05-2.06.41-4.8.47-2.79.52-5.63.04-2.21.54-3.96.59-2.09.88-4.15.08-.53.41-.94.6-.74.33-1.64-.08-.24-.33-.27-.18-.02-.22.11-1.15-1.59-3.47-2.47-.82-1.16-2.32 1.31c-.83.28-1.49.44-2.22 1.01q-3.92 3.04-5.59 3.34-2.93.53-5.36 2.06l-6.9-.28q-.88-.55-1.18-1.92-.75-3.33-1.27-4.57.64-2.03.4-4.17-.27-2.52-.05-4.35.25-2.15.03-4.44-.03-.34-.38-.34-.25 0-.27-.04-.85-.23-.93-.69-.19-.73-1.53-1.47 1.9-.47 2.31-2.94l1.56.94q.43.26.57-.23l1.32-4.68a.92.92 0 0 0-.82-1.16q-11.01-.79-18.28-4.19c-8.26-3.85-3.22-11.48.31-16.65 6.54-9.57 15.89-18.17 24.99-24.74a1.11 1.1 45.1 0 0 0-1.79c-7.22-5.26-12.5-12.46-17.84-19.6-1.88-2.51-3.14-5.15-5.17-7.59q-3.73-4.49-4.8-9.81-.53-2.64-2.38-3.04l-.76-2.39q-.15-.49-.66-.57-.26-.04-.21-.24.15-.59-.41-.83l-.56-.24q1.22-.68.97-3.44-.15-1.6-.98-3.47-2.98-6.61.63-11.59c1.31-1.8 3.54-4.2 5.69-4.56q1.88-.31 3.48-.81.13 1.26 2.11.48.46-.18.94-.04 1.48.44 3.07-.27 12.45 1.33 19.1 2.68 5.58 1.13 19.88 4.91.5.13.99-.04 5.36-1.85 7.85-3.47c4.41-2.86 8.55-5.38 13.89-6.3q3.29-.56 6.45-1.17 2.48-.47 8.98-2.22 4.54-1.23 9.18-1.72c3.39-.36 6.48-1.12 9.88-1.27q6.82-.3 12.42.39 3.31.42 6.53.72 1.71.17 3.41.52 1.87.39 3.85.7 4.83.78 9.96 2.25c3.26.94 5.94 2.73 9.27 3.42 1.32.27 2.39.98 3.61 1.49q.5.21.99 0 2.04-.87 2.46-3.19 1.17-6.43 2.88-11.52 1.06-3.14 6-6.38.42-.27.84.02c.87.61 1.88 1.43 2.91 1.68q2.71.64 4.89 2.31 5.81 4.44 9.73 9.07 2.56 3.02 4.98 5.41 2.09 2.06 3.64 4.38c1.55 2.32 3.58 3.92 4.69 6.59q2.65 6.42 5.87 13.11c2.01 4.17 3.3 8.87 4.71 13.31 1.2 3.79 5.26 6.3 7.51 9.67q2.92 4.37 6.47 9.57 7.88 11.53 10.73 27.47 1.48 8.25-.14 16.12c-.55 2.66-1.76 5.11-3.13 7.4q-2.75 4.63-4.73 9.23c-.51 1.17-.14 2.3.73 3.17q3.63 3.66 6.95 8.49 3.17 4.62 3.34 9.1c.37 9.59-6.56 14.42-15.32 15.55q-5.34.68-10.77.42-7.16-.36-14.5-.5-1.3-.02-3.99-.74-1.66-.45-2.84.6m9.82-126.11q-5.53-15.48-17.86-28.58c-3.96-4.2-8.57-6.51-12.89-9.98a1.28 1.26-36 0 0-1.26-.19q-1.46.58-2.04 2.29-2.24 6.65-2.72 13.07a2.09 2.08 18.1 0 0 .99 1.94q6 3.68 12.82 6.29 1.53.58 3.79 2.71 1.94 1.82 3.58 2.93 6.73 4.55 13.36 10.17c1.64 1.38 2.35 3.35 3.91 4.74q.65.58.44-.27c-.47-1.84-1.51-3.39-2.12-5.12m-144.75-8.06q-8.23-3.22-16.61-5.92c-2.59-.83-5.41-.59-8.1-1.29q-8.45-2.19-16-2.3-6.16-.09-13.15.01a.9.9 0 0 0-.88 1.02q.73 5.73 2.54 11.19c5.84 17.58 15.34 31.87 29.22 45.08l.6 2.07q.13.48.62.55l2.28.32q2.44 1.49 1.59 3.23-.61 1.25-2.5 3.24c-2.3 2.41-6.01 3.53-7.94 5.37q-2.89 2.76-5.88 5.24c-3.74 3.11-5.69 6.87-8.93 10.25-2.23 2.33-3.26 5.36-4.08 8.38a1.07 1.07 0 0 0 .56 1.25q2.79 1.36 5.91 1.86 15.05 2.44 29.68-.92 1.35 2.55 1.62 5.76.1 1.24-1.08 1.62l-2.56.81q-7.37.97-14.9 2.02c-2.49.34-2.19 1.93-2.4 3.87q-.93 8.84-.2 17.29.18 2.08 2.13 1.32 8.92-3.49 17.45-10.45l.62 3.84a1.07 1 26.4 0 0 .16.43c.79 1.25 1.07 2.46 2.37 3.29 3.14 1.99 5.2 4.81 8.39 6.97q4.96 3.35 10.71 6.13 6.31 3.7 13.25 7.67.21.13.27.29.07.2-.01.39a.68.68 0 0 1-.66.43q-5.99-.21-10.11-2.06-7.1-3.18-16.42-8.24a1.02 1.02 0 0 0-1.47.62q-.89 3.12-1.04 6.64-.15 3.37-.49 6.84-.46 4.7.14 9.98.95 8.35 5.81 15.86c1.83 2.83 4.06 4.31 6.7 6.4q1.82 1.45 3.78.7c9.18-3.51 15.99-10.25 23.06-18.55 2.62-3.08 5.03-7.41 7.62-10.88q.34-.46.33-1.04-.01-.87.26-1.64.19-.55.77-.6 1.91-.17 3.88-.78 1.61-.5 3.79-.35 3.17.21 5.89.05 2.98-.17 5.86-.22c6.11-.09 13.02.35 19.39-.61q3.65-.55 7.21-.71c1.68-.08 3.3-.61 4.99-.92q2.27-.41 4.32-1 18.3-5.33 26.32-8.72 13.51-5.72 26.71-16.75 5.69-4.76 8.96-8.78 4.66-5.72 10.48-16.1 2.04-3.88 3.85-9.89c.94-3.11 1.04-6.34 1.31-9.59q.25-3.06-1.88-6.32-3.44-10.82-5.89-15.65-2.9-5.71-10.21-15.19c-2.12-2.76-6.05-5.68-8.1-9.23-1.15-1.99-3.24-2.53-4.86-4.01-4.44-4.08-8.75-8.21-13.81-11.61q-4.22-2.84-8.03-5.97-1.21-.99-2.64-1.72c-2.81-1.42-4.72-3.51-7.73-4.76q-6.76-2.79-13.92-5.69-27.17-11.02-55.69-7.93-5.21.57-9.37 1.6-4.47 1.12-9.12 1.95c-3.16.57-6.01 2.23-9.2 2.84q-2.13.4-3.98 1.68-3.47 2.41-7.27 3.07a.73.73 0 0 0-.37 1.25q3.04 2.83 6.79 5.24 2.09 1.35 1.06 3.61l-.18.41q-.71 1.57-2.27.84zM351.2 391.33a.19.19 0 0 0-.01.35q1.64.71 3.55.85 17.52 1.27 32.18-1.84 3.85-.82 6.63-4.26c4.93-6.11-2.72-16.29-7.23-19.96a2.06 2.06 0 0 0-2.92.33c-4.41 5.63-10.42 9.88-15.32 14.71-2.33 2.3-5.73 3.21-8.37 5.24q-3.88 2.98-8.51 4.58"/><path fill="#feb9d8" d="M360.99 269.1c.61 1.73 1.65 3.28 2.12 5.12q.21.85-.44.27c-1.56-1.39-2.27-3.36-3.91-4.74q-6.63-5.62-13.36-10.17-1.64-1.11-3.58-2.93-2.26-2.13-3.79-2.71-6.82-2.61-12.82-6.29a2.09 2.08 18.1 0 1-.99-1.94q.48-6.42 2.72-13.07.58-1.71 2.04-2.29a1.28 1.26-36 0 1 1.26.19c4.32 3.47 8.93 5.78 12.89 9.98q12.33 13.1 17.86 28.58"/><path fill="#fee7ed" d="M390.35 324.69q-4.01.64-8.1 0-2.28-.36-5.73 1.82-.6-2.23-5.68-1.66-.49.06-.88.35l-2.34 1.73q5.12-9.2-.33-18.91c-2.52-4.51-7.2-9.22-12.63-8.89-4.67.29-6.62 5.08-6.6 9.24.05 7.34 2.86 12.22 7.37 17.48q-2.31 1.41-6.69 5.65-4.8 4.64-6.97 9.07c-5.86-4.99-5.71 7.78-12.2 4.82q-2.88-1.31-5.47-2.97c-2.96-1.91-6.12.44-8.51 2.03q-.47.31-1.03.3h-2.17q-.71-.01-.93.67c-.48 1.54-.67 3.47-1.86 4.62q-1.78 1.74-4.15.3-5.17-3.13-9.83-3.81-3.6-1.1-4.88-1.03-3.41.16-6.99-.52-3.56-.68-7.6.31-2.51.62-5.55.23-3.58-.45-7.3-.86 5.45-7.86 2.87-17.44-1.83-6.76-7.26-10.27-6.54-4.24-11.31 1.17-4.99 5.65-5.18 15.28-.01.64.35 1.16.74 1.05.31 2.35-.17.53 0 1.06 1.94 5.94 5.95 9.64l-4.15 6.46c-9.54-2.19-20.23 1.93-23.04 11.95-1.97 7.06 3.52 11.15 9.44 13.03q-3.89 6.2-3.8 13.52-5.75-2.78-10.71-6.13c-3.19-2.16-5.25-4.98-8.39-6.97-1.3-.83-1.58-2.04-2.37-3.29a1.07 1 26.4 0 1-.16-.43l-.62-3.84-2.08-14.05 2.56-.81q1.18-.38 1.08-1.62-.27-3.21-1.62-5.76.2-5 .08-6.42-1.14-13.09-1.04-23.19.03-4.1-.97-5.91-1.97-3.56-6.48-2.38l-2.28-.32q-.49-.07-.62-.55l-.6-2.07c.62-.22 1.2-.71 1.24-1.4q.91-13.72 7.3-25.89c3.44-6.56 6.46-12.16 12.52-16.72q.9-.67 1.92-3.78l9.32 4.38q1.56.73 2.27-.84l.18-.41q1.03-2.26-1.06-3.61-3.75-2.41-6.79-5.24a.73.73 0 0 1 .37-1.25q3.8-.66 7.27-3.07 1.85-1.28 3.98-1.68c3.19-.61 6.04-2.27 9.2-2.84q4.65-.83 9.12-1.95 4.16-1.03 9.37-1.6 28.52-3.09 55.69 7.93 7.16 2.9 13.92 5.69c3.01 1.25 4.92 3.34 7.73 4.76q1.43.73 2.64 1.72 3.81 3.13 8.03 5.97c5.06 3.4 9.37 7.53 13.81 11.61 1.62 1.48 3.71 2.02 4.86 4.01 2.05 3.55 5.98 6.47 8.1 9.23q7.31 9.48 10.21 15.19 2.45 4.83 5.89 15.65"/><path fill="#feb9d8" d="M216.24 261.04q-1.02 3.11-1.92 3.78c-6.06 4.56-9.08 10.16-12.52 16.72q-6.39 12.17-7.3 25.89c-.04.69-.62 1.18-1.24 1.4-13.88-13.21-23.38-27.5-29.22-45.08q-1.81-5.46-2.54-11.19a.9.9 0 0 1 .88-1.02q6.99-.1 13.15-.01 7.55.11 16 2.3c2.69.7 5.51.46 8.1 1.29q8.38 2.7 16.61 5.92"/><path fill="#760d52" d="m155.11 267.68.56.24q.56.24.41.83-.05.2.21.24.51.08.66.57l.76 2.39q.26 1.26-2.45 2.74-2.02 1.2-3.03 2.85-.58.24-1.14.69-3.95 3.18-6.81 7.57l-1.03.58q-.38-.25-.59-.55-.29-.41-.05-.85l1.07-1.97q4.31-9.88 11.43-15.33"/><path fill="#feb9d8" d="M155.26 274.69q-.64 1.87-3.03 2.85 1.01-1.65 3.03-2.85M152.23 277.54l-7.95 8.26q2.86-4.39 6.81-7.57.56-.45 1.14-.69"/><path fill="#403a5e" d="M367.62 326.93q-3.47 4.08-7.81 1.99-1.74-.84-4.38-3.07c-4.51-5.26-7.32-10.14-7.37-17.48-.02-4.16 1.93-8.95 6.6-9.24 5.43-.33 10.11 4.38 12.63 8.89q5.45 9.71.33 18.91m-8.934-15.28a3.94 3.63 70.8 0 0 2.132-4.914 3.94 3.63 70.8 0 0-4.724-2.527 3.94 3.63 70.8 0 0-2.132 4.915 3.94 3.63 70.8 0 0 4.724 2.527"/><ellipse fill="#fcf6f2" rx="3.94" ry="3.63" transform="rotate(70.8 -37.955 405.413)"/><path fill="#feb9d8" d="M205.17 349.67q-14.63 3.36-29.68.92-3.12-.5-5.91-1.86a1.07 1.07 0 0 1-.56-1.25c.82-3.02 1.85-6.05 4.08-8.38 3.24-3.38 5.19-7.14 8.93-10.25q2.99-2.48 5.88-5.24c1.93-1.84 5.64-2.96 7.94-5.37q1.89-1.99 2.5-3.24.85-1.74-1.59-3.23 4.51-1.18 6.48 2.38 1 1.81.97 5.91-.1 10.1 1.04 23.19.12 1.42-.08 6.42M127.41 311.74q.39 0 .64.05a.58.57 9 0 1 .47.64q-.28 2.07-.49 4.19-.19 1.86.34 3.84 1.88 7.06 6.32 13.55-8.55-9.57-7.28-22.27"/><path fill="#403a5e" d="M263.3 344.66q-1.94 2.2-5.13 3.73-4.19 2.02-9.14-.78-4.01-3.7-5.95-9.64-.17-.53 0-1.06.43-1.3-.31-2.35-.36-.52-.35-1.16.19-9.63 5.18-15.28 4.77-5.41 11.31-1.17 5.43 3.51 7.26 10.27 2.58 9.58-2.87 17.44m-2.714-17.723a4.27 3.94 22.1 0 0-2.474-5.257 4.27 3.94 22.1 0 0-5.438 2.043 4.27 3.94 22.1 0 0 2.474 5.257 4.27 3.94 22.1 0 0 5.438-2.043"/><ellipse fill="#fcf6f2" rx="4.27" ry="3.94" transform="rotate(22.1 -704.642 819.727)"/><path fill="#f0af8e" d="M390.35 324.69q2.13 3.26 1.88 6.32c-.27 3.25-.37 6.48-1.31 9.59q-1.81 6.01-3.85 9.89-11.53 4.56-16.8-2.96-3.34-4.74-1.4-10.34 2.1-6.03 7.65-10.68 3.45-2.18 5.73-1.82 4.09.64 8.1 0"/><path fill="#fcf6f2" d="M376.52 326.51q-5.55 4.65-7.65 10.68-1.94 5.6 1.4 10.34 5.27 7.52 16.8 2.96-5.82 10.38-10.48 16.1-3.27 4.02-8.96 8.78-13.2 11.03-26.71 16.75-8.02 3.39-26.32 8.72-2.05.59-4.32 1c-1.69.31-3.31.84-4.99.92q-3.56.16-7.21.71c-6.37.96-13.28.52-19.39.61q-2.88.05-5.86.22-2.72.16-5.89-.05-2.18-.15-3.79.35-1.97.61-3.88.78-.58.05-.77.6-.27.77-.26 1.64.01.58-.33 1.04c-2.59 3.47-5 7.8-7.62 10.88-7.07 8.3-13.88 15.04-23.06 18.55q-1.96.75-3.78-.7c-2.64-2.09-4.87-3.57-6.7-6.4q-4.86-7.51-5.81-15.86-.6-5.28-.14-9.98.34-3.47.49-6.84.15-3.52 1.04-6.64a1.02 1.02 0 0 1 1.47-.62q9.32 5.06 16.42 8.24 4.12 1.85 10.11 2.06a.68.68 0 0 0 .66-.43q.08-.19.01-.39-.06-.16-.27-.29-6.94-3.97-13.25-7.67-.09-7.32 3.8-13.52 8.35 1.66 15.48-2.58c5.89-3.5 9.23-11.81 4.91-17.74q-2.39-3.27-6.79-4.66l4.15-6.46q4.95 2.8 9.14.78 3.19-1.53 5.13-3.73 3.72.41 7.3.86 3.04.39 5.55-.23 4.04-.99 7.6-.31 3.58.68 6.99.52 1.28-.07 4.88 1.03c-2.25 7.3-2.85 12.13-.86 19.24 1.82 6.48 10.03 12.63 16.83 12.13q1.68-.12 3.23.34 2.99.88 5.57-.69a1.85 1.82 28.9 0 1 .96-.27q2.05.01 4.01-.86c9.91-4.38 17.91-16.66 14.69-27.74q-.15-.5.22-.85 2.33-2.25 2.79-4.57.32-1.62-1.29-2.69 2.17-4.43 6.97-9.07 4.38-4.24 6.69-5.65 2.64 2.23 4.38 3.07 4.34 2.09 7.81-1.99l2.34-1.73q.39-.29.88-.35 5.08-.57 5.68 1.66"/><path fill="#feb9d8" d="M136.29 335.91q-1.13 5.78-3 11.51-1.25 3.87-1.57 6.7-.4 3.44-.24 6.52.11 2.15 1.19 4.61 1.71 3.89 5.42 3.96 4.74.09 9.4-1.41 2.87-.93 5.89-1.29 3.27-.39 6.61-1.37c6.92-2.02 10.31.1 15.95 2.29q1.34.74 1.53 1.47c-5.9-2.54-10.59-5.17-16.08-3.44q-4.23 1.34-8.1 1.75-3.03.33-6.25 1.38-4.8 1.56-10.17 1c-3.74-.39-5.64-5.04-5.93-8.19q-.33-3.67.29-8.22.49-3.54 1.75-7.43 1.6-4.93 3.31-9.84"/><path fill="#78461f" d="M341.77 340.57q1.61 1.07 1.29 2.69-.46 2.32-2.79 4.57-.37.35-.22.85c3.22 11.08-4.78 23.36-14.69 27.74q-1.96.87-4.01.86a1.85 1.82 28.9 0 0-.96.27q-2.58 1.57-5.57.69-1.55-.46-3.23-.34c-6.8.5-15.01-5.65-16.83-12.13-1.99-7.11-1.39-11.94.86-19.24q4.66.68 9.83 3.81 2.37 1.44 4.15-.3c1.19-1.15 1.38-3.08 1.86-4.62q.22-.68.93-.67h2.17q.56.01 1.03-.3c2.39-1.59 5.55-3.94 8.51-2.03q2.59 1.66 5.47 2.97c6.49 2.96 6.34-9.81 12.2-4.82m-11.07 12.16a1.98 1.92 75.1 0 1-1.03-.62q-1.08-1.24-2.19-1.86-1-.55-1.8-1.16-.84-.64-1.58-1.41-.39-.41-.96-.4-4.04.08-5.88 2.69-3.12 4.43-6.47 8.57a1.16 1.15-68.3 0 1-1.02.44q-4.31-.42-8.01-2.44a1.36 1.35-65.1 0 0-1.92.71c-2.1 5.55 1.36 12.35 5.65 15.67 1.58 1.22 3.79 3.41 5.76 3.73 2.28.37 5.13 1.1 7.41.46 2.05-.57 4.21-.24 5.58-2.28q1.63-2.43 3.36-4.8c2.26-3.08 5.3-4.75 5.5-9.06q.22-4.51.51-8.7.08-1.04-.23-.04-.31 1.03-2.68.5"/><path fill="#d8a361" d="M330.7 352.73q2.37.53 2.68-.5.31-1 .23.04-.29 4.19-.51 8.7c-.2 4.31-3.24 5.98-5.5 9.06q-1.73 2.37-3.36 4.8c-1.37 2.04-3.53 1.71-5.58 2.28-2.28.64-5.13-.09-7.41-.46-1.97-.32-4.18-2.51-5.76-3.73-4.29-3.32-7.75-10.12-5.65-15.67a1.36 1.35-65.1 0 1 1.92-.71q3.7 2.02 8.01 2.44a1.16 1.15-68.3 0 0 1.02-.44q3.35-4.14 6.47-8.57 1.84-2.61 5.88-2.69.57-.01.96.4.74.77 1.58 1.41.8.61 1.8 1.16 1.11.62 2.19 1.86a1.98 1.92 75.1 0 0 1.03.62"/><path fill="#f0af8e" d="M244.88 354.07q4.4 1.39 6.79 4.66c4.32 5.93.98 14.24-4.91 17.74q-7.13 4.24-15.48 2.58c-5.92-1.88-11.41-5.97-9.44-13.03 2.81-10.02 13.5-14.14 23.04-11.95"/><path fill="#feb9d8" d="m203.15 357.86 2.08 14.05q-8.53 6.96-17.45 10.45-1.95.76-2.13-1.32-.73-8.45.2-17.29c.21-1.94-.09-3.53 2.4-3.87q7.53-1.05 14.9-2.02"/><path fill="#fee7ed" d="M351.2 391.33q4.63-1.6 8.51-4.58c2.64-2.03 6.04-2.94 8.37-5.24 4.9-4.83 10.91-9.08 15.32-14.71a2.06 2.06 0 0 1 2.92-.33c4.51 3.67 12.16 13.85 7.23 19.96q-2.78 3.44-6.63 4.26-14.66 3.11-32.18 1.84-1.91-.14-3.55-.85a.19.19 0 0 1 .01-.35"/><path fill="#feb9d8" d="M178.4 369.59q.02.04.27.04.35 0 .38.34.22 2.29-.03 4.44-.22 1.83.05 4.35.24 2.14-.4 4.17zM203.51 381.98q-.91.76-2.32 1.31 1.5-2.47 2.32-1.31M348.78 395.38q-9.39 2.71-18.93 4.65-6.81 1.39-12.46 3.04-4.12 1.19-8.39 2.14-3.78.83-7.79.81-17.88-.06-36.03-.02a.98.97 12.2 0 0-.89.57c-.65 1.41-.71 2.86-1.48 4.27q-5.08 9.22-8.94 13.81-3.88 4.6-7.9 9.05-2.74 3.04-5.42 4.75c-4.15 2.63-12.62 8.68-17.74 5.69-2.94-1.71-5.71-3.08-7.96-5.93-3.13-3.96-6.08-7.48-8.04-12.63q-1.17-3.08-1.86-6.27-1.71-7.99-1.11-16.17c.12-1.58.66-2.96.7-4.58q.16-6.9 2.46-13.31.08-.21-.02-.8.04-.13.22-.11.25.03.33.27.27.9-.33 1.64-.33.41-.41.94-.29 2.06-.88 4.15-.5 1.75-.54 3.96-.05 2.84-.52 5.63-.46 2.74-.41 4.8c.07 3.29-.35 6.48.52 9.74.63 2.36.61 4.74 1.44 7.11q2.34 6.69 5.27 10.49 1.85 2.39 3.88 4.97 1.45 1.83 3.22 2.91c2.9 1.78 5.61 4.23 9.27 3.16 4.58-1.33 8.05-3.64 11.94-6.09q2.49-1.57 5-4.33 4.29-4.7 8.38-9.57c3.48-4.14 5.88-8.65 8.67-13.12.91-1.47.98-2.96 1.54-4.56a1.97 1.97 0 0 1 1.86-1.32q16.73-.06 35.58.12 4.71.05 8.7-.93 7.47-1.83 14.1-3.83c1.3-.39 2.63-.04 3.84-.61q.87-.41 1.8-.48 2.48-.18 5.3-1c3.97-1.15 8.01-1.98 11.99-3.13q.62-.18 2.04.12M188.02 389.7q-3.07 1.15-6.9-.28z"/></svg>