<svg xmlns="http://www.w3.org/2000/svg" fill="none" viewBox="0 0 48 48" stroke-width="3"><g id="arrow-roadmap"><path id="Rectangle 129" fill="#ffffff" d="M35.269 44.408c.08.494.555.727 1.017.535.817-.338 2.273-.997 4.479-2.188 1.477-.798 2.45-1.436 3.085-1.916.793-.598.794-1.57 0-2.169-.635-.48-1.608-1.118-3.085-1.915-2.206-1.19-3.662-1.85-4.479-2.188-.462-.192-.936.041-1.017.535-.128.776-.269 2.19-.269 4.653 0 2.463.141 3.877.269 4.653Z"/><path id="Ellipse 442" fill="#E8F3F1" d="M25 24a5 5 0 1 0 10 0 5 5 0 1 0-10 0"/><path id="Ellipse 441" fill="#E8F3F1" d="M13 40a5 5 0 1 0 10 0 5 5 0 1 0-10 0"/><path id="Ellipse 440" fill="#E8F3F1" d="M10 8a5 5 0 1 0 10 0 5 5 0 1 0-10 0"/><path id="Vector 994" stroke="#71e6cb" stroke-linecap="round" stroke-linejoin="round" d="M3 8h7m25 16a8 8 0 1 0 0-16H20m-7 32a8 8 0 1 1 0-16h12m-2 16h12"/><path id="Ellipse 437" stroke="#71e6cb" stroke-linecap="round" stroke-linejoin="round" d="M10 8a5 5 0 1 0 10 0 5 5 0 1 0-10 0"/><path id="Ellipse 439" stroke="#71e6cb" stroke-linecap="round" stroke-linejoin="round" d="M13 40a5 5 0 1 0 10 0 5 5 0 1 0-10 0"/><path id="Ellipse 438" stroke="#71e6cb" stroke-linecap="round" stroke-linejoin="round" d="M25 24a5 5 0 1 0 10 0 5 5 0 1 0-10 0"/><path id="Rectangle 128" stroke="#71e6cb" stroke-linecap="round" stroke-linejoin="round" d="M35.269 44.408c.08.494.555.727 1.017.535.817-.338 2.273-.997 4.479-2.188 1.477-.798 2.45-1.436 3.085-1.916.793-.598.794-1.57 0-2.169-.635-.48-1.608-1.118-3.085-1.915-2.206-1.19-3.662-1.85-4.479-2.188-.462-.192-.936.041-1.017.535-.128.776-.269 2.19-.269 4.653 0 2.463.141 3.877.269 4.653Z"/></g></svg>
