<svg viewBox="0 0 512 512" xmlns="http://www.w3.org/2000/svg"><path d="M155.1 353.6s-.8-.2-1-.3c-13.2-3.5-26.6-8.1-40-13.6-1.8-.7-3.3-1.4-4.4-2.1 1.8-3.8 2.2-7.7 1.2-11.7-1.3-5.6-4.6-9.6-9.9-12.7-5.3-3.2-10.6-6.3-15.5-9.9-3.7-2.8-7.3-5.3-10.7-8.5-5.1-4.8-9.4-9.9-13.1-15.3-4.1-6-7.6-13-10.6-20.9-2.8-7.3-4.4-15.1-5-23.2-.6-9.2-.2-17.4 1.3-24.7.9-4.5 2.5-9.8 4.8-15.8 1.9-5.1 4.3-9.8 7-14 4.8-7.4 10.5-14.2 17.1-20.5 2.8-2.6 5.8-4.5 8.7-6.9 1.2-.9 2.3-1.7 3.5-2.3 4.5-2.4 8.7-5.1 13.4-6.9 3.4-1.3 6.5-2.9 10-3.8 4.2-1.1 8-2.3 12.4-2.9 33.67-5.17 29.946-10.772 39.3-32.4 7.1-13.7 17-26.3 29.1-35.8 8.2-6.5 16.6-11.7 24.9-15.8 8-3.8 16.4-6.7 25.2-8.6 7.7-1.7 15.6-2.6 23.5-2.7 10.3-.2 20.8 1 31.5 3.6 9.2 2.2 17.9 5.5 26.3 9.8 5.3 2.7 10.6 6.1 15.8 10.2 5.1 3.9 9.7 7.9 14 12.1 3.4 3.4 6.9 7.6 10.7 12.6 3.7 5 6.8 9.9 9.3 14.8 6.1 11.9 10.5 25.6 11.9 39.2.4 3.9 1.1 7.2 2.3 9.9 2.6 6.2 6.9 10.8 12.9 13.7 4.1 2 9.1 3.1 13.5 4.5 3.8 1.2 7.3 2.9 10.9 4.5 1.4.6 2.8 1.4 4.2 2.3 6.6 4.4 11.9 8.6 15.7 12.8 4.7 5.1 8.9 10.9 12.4 17.3 2.2 3.9 4 8.4 5.5 13.4 1.4 4.7 2.3 9.2 2.6 13.6.7 9.3-.1 18.5-2.4 27.5-1.8 6.9-4.5 13.2-8 18.9-4.6 7.3-10.1 13.6-16.4 18.8-4.2 3.4-8.3 6.8-12.8 9.6-3.2 2-6.4 4.1-9.6 5.9-3.1 1.7-6.3 3.3-9.4 4.9-3.2 1.6-5.7 3.5-7.5 5.6-4.2 5.1-5.2 11.2-2.9 18.2-5.9 2.1-11.9 4.1-17.9 6-5.1 1.6-10.2 3-15.3 4.3-.3.1-.6 0-1.1-.1-.1-.1-.1-.1-207.4-2.6z" style="display:inline;fill:#E8F3F1"/><path d="M396.7 345.9c-2.2-7.1-1.3-13.2 2.9-18.2 1.8-2.2 4.3-4 7.5-5.6 3.2-1.6 6.3-3.2 9.4-4.9 3.3-1.8 6.4-3.9 9.6-5.9 4.5-2.8 8.6-6.2 12.8-9.6 6.4-5.2 11.9-11.5 16.4-18.8 3.6-5.7 6.3-12 8-18.9 2.3-9 3.1-18.1 2.4-27.5-.3-4.4-1.2-8.9-2.6-13.6-1.5-5-3.3-9.4-5.5-13.4-3.5-6.4-7.6-12.1-12.4-17.3-3.9-4.2-9.1-8.4-15.7-12.8-1.4-.9-2.8-1.7-4.2-2.3-3.6-1.6-7.1-3.3-10.9-4.5-4.5-1.4-9.5-2.5-13.5-4.5-6-2.9-10.3-7.5-12.9-13.7-1.1-2.7-1.9-6-2.3-9.9-1.3-13.5-5.8-27.2-11.9-39.2-2.5-4.9-5.6-9.9-9.3-14.8-3.7-5-7.3-9.2-10.7-12.6-4.2-4.2-8.9-8.2-14-12.1-5.3-4-10.6-7.4-15.8-10.2-8.4-4.4-17.2-7.6-26.3-9.8-10.7-2.6-21.2-3.8-31.5-3.6-7.9.1-15.7 1-23.5 2.7-8.8 1.9-17.2 4.7-25.2 8.6-8.4 4-16.7 9.3-24.9 15.8-12.1 9.5-22 22.1-29.1 35.8-.1.3 0 .6.2.7h.1c5.3 1.6 10.8 3.7 16.5 6.2 6.8 3.1 14.2 7.5 22.1 13 9.5 6.6 17.7 14.2 24.7 22.7 3.4 4.2 6.7 9.3 9.9 15.3 1.6 3.1 2.5 5.9 2.8 8.4.7 7.3-3.1 14.5-9.7 17.9-5 2.5-10.2 2.7-15.8.6-6.6-2.5-9.9-10-13-15.4-1.5-2.5-3.4-4.3-5.2-6.6-1.1-1.5-2.5-3-4.2-4.5-2.6-2.4-5.1-4.5-7.5-6.3-3.3-2.5-7.2-5.1-11.5-7.6-3.5-2-6.8-3.7-9.9-5-4.2-1.8-7.7-3.1-10.6-4-4.5-1.3-9-2.4-13.6-3.1-4.7-.7-9.6-.7-14.7 0-4.3.6-8.2 1.8-12.4 2.9-3.6.9-6.7 2.5-10 3.8-4.7 1.8-8.9 4.5-13.4 6.9-1.2.6-2.4 1.4-3.5 2.3-2.9 2.3-5.9 4.3-8.7 6.9-6.6 6.3-12.3 13.1-17.1 20.5-2.8 4.3-5.1 9-7 14.1-2.3 6-3.8 11.3-4.8 15.8-1.5 7.3-1.9 15.6-1.3 24.7.5 8.1 2.2 15.9 5 23.2 3 7.9 6.5 14.9 10.6 20.9 3.7 5.3 8 10.4 13.1 15.3 3.4 3.2 7 5.7 10.7 8.5 4.8 3.7 10.1 6.8 15.5 9.9 5.2 3.1 8.6 7.1 9.9 12.7.9 4 .5 7.9-1.2 11.7-2.4 4.8-6.1 8-11.1 9.6-4.9 1.6-9.6 1.2-13.8-1.1-11-5.9-21.3-13-30.7-21-6.3-5.4-11.8-11-16.3-16.7-19.8-24.9-29.2-53.2-28.2-84.7.7-22 6.9-42.6 18.7-62 3.5-5.7 7.5-11.1 12-16.3 12.5-14.3 27.5-25.5 45-33.6 11.2-5.2 23-8.2 35.4-10.6 1.6-.3 3.2-.6 4.8-1 .3-.1.6-.3.8-.6 1.5-2.9 2.4-6.1 3.9-8.9 1.7-3.1 3.4-6.2 5.1-9.4 1.7-3.2 3.7-6.3 5.9-9.2 3-3.9 5.6-8.1 8.9-11.7 4-4.4 8-8.8 12.4-12.7 4.4-3.9 8.8-8.2 13.6-11.5 2.3-1.6 4.5-3.2 6.7-4.7 2.9-2.1 5.9-4 9.2-5.7 4.2-2.2 8.4-4.8 12.9-6.6 3.1-1.2 6.2-2.5 9.4-3.8 3.2-1.3 6.6-2.4 10.1-3.3 2.6-.7 5.2-1.3 7.8-2.1 5.2-1.5 10.8-2 16.2-2.9 5.8-1 12-1 18.1-1.5 5.6-.4 11.4.4 17.1.8 6.1.4 12.5 1.8 18.5 2.8 5 .9 10 2.6 15.1 4 3.4.9 6.7 2.1 10 3.6 4.5 2 9.1 3.6 13.3 5.9 5.1 2.9 10.5 5.6 15.3 9 2.5 1.7 4.9 3.4 7.3 5.1 2.5 1.7 4.7 3.5 6.8 5.4 2.5 2.3 5 4.6 7.6 6.9 3.8 3.3 6.7 7.3 10.1 11 2.5 2.7 4.9 5.6 7 8.8 1.4 2.2 2.9 4.2 4.2 6.2 1.4 2.1 2.7 4.1 3.8 6.1 3.2 5.9 6.6 11.7 9.1 18.2 1.8 4.5 3.8 8.8 5.1 13.4 1.5 5.6 3.3 11.3 4.2 17.1.3 2 .6 3.9.8 5.8 0 .3.2.5.5.6 6.2 1.8 12 4.2 17.6 7 16.1 8.1 29.8 19.4 41.1 33.8 1.6 2.1 3.1 4.2 4.4 6.5.8 1.4 1.7 2.9 2.6 4.2.9 1.4 1.7 2.8 2.4 4.2 2.2 4.6 4.5 9.2 6.2 14 3 8.7 4.9 16.3 5.8 22.9 1 7.4 1.1 16 .4 25.6-.6 7.8-2.5 16.7-5.9 26.6-1.3 3.8-3 7.1-4.6 10.8-1.1 2.5-2.4 5-3.9 7.4-1.8 3-3.5 6.1-5.5 8.9-8.4 11.6-18.6 21.5-30.4 29.7-9.7 6.7-19.9 12.7-30.5 17.8-4.2 2-8.6 2.3-13.4.9-5.4-1.4-9.2-5-11.7-10.6z" style="fill:#71e6cb;display:inline"/><path d="M362.4 356.1c.3 1 .7 1.8 1.2 2.5.9 1.2 1.4 1.9 1.6 2.2 2.2 4.4 3.7 9.2 4.5 14.3 1.6 10.7 2.7 18 3.1 21.9.8 6.4 1.3 12.3 1.6 17.8.3 6.1.3 12.2-.2 18.1-.7 9.2-1.8 18.9-3.3 29-.8 5.5-1.7 10.2-2.6 14.2-1.4 6.3-4.8 12.2-10.3 17.7-1.6 1.7-3.7 2.3-5.1 4.3-.3.4-.6.5-1 .4-.4-.1-.8.1-1 .5-.2.3-.5.6-.8.7-4.7 2.3-9.4 3.7-13.9 4.1-13.2 1.2-29.6 2.4-49.2 3.6-17.7 1.1-35.4 1.2-53 .3-16.8-.9-33.5-2-50.1-3.3-3.6-.3-7.2-.8-10.7-1.5-.9-.2-1.7-.5-2.4-.9-1.2-.7-2.2-.6-3.5-1.2-7.8-3.9-13.7-9.7-17.8-17.2-.1-.1-.1-.3 0-.5.1-.1 0-.3 0-.4-1.5-2.7-2.5-5.6-3-8.6-1.5-8.4-2.8-16.6-3.8-24.6-1.6-12.4-2.2-23.1-1.8-31.9.4-9.5 1.3-18.9 2.7-28.2.8-5.5 1.7-10.9 2.5-16.2.2-1 .4-2 .7-2.8.3-.8.4-1.6.4-2.4 0-.3.1-.7.3-.9 1.3-2 1.4-4 2.6-5.9 1.6-2.5 3.2-4.9 4.9-7.3.3.1.5 0 .7-.2 2.4-2.9 5.1-5.1 8.3-6.8.5-.2.9-.5 1.2-.9.2-.3.5-.4.9-.3.4.1.7-.1.9-.5.2-.3.4-.5.8-.6 1.5-.4 3-.9 4.6-1.4 2.6-.9 5.4-1.5 8.1-1.5.5 0 .8-.4.8-.8-.1-9.4 0-15.8.4-19.2 1.9-18.6 9.6-34.5 22.9-47.6 1.9-1.8 4.2-3.8 7-6 7.8-6.1 17-10.3 26.5-12.9 14.6-3.9 29-3.5 43.2 1.2 16.8 5.5 30.2 15.7 40.2 30.4.7 1 1.3 2 1.8 3.1.7 1.4 1.8 2.4 2.4 3.9 1 2.5 2.1 4.9 3.1 7.4 1.1 2.5 2 5 2.6 7.7 2.7 10.2 2.9 20.9 2.8 31.8 0 .6.5 1.1 1.1 1.2 10.7.9 19.4 5.5 26 13.9.3-.1.6.2 1.1.3zm-87.1-62.8c-.7-.8-1.7-1.3-2.8-1.7-7.3-2.4-14.4-3.1-21.2-2.1-2.5.3-4.6 1.2-7 1.9-1.7.5-3.5 1.3-5.2 2.3-4.4 2.6-7.7 5-9.9 7.2-3.6 3.5-6.5 8.4-9 14.8-.4 1-.7 2-1.1 3.1-.4 1.1-.6 2.2-.7 3.3-.7 5.6-.9 11-.7 16.1 0 .3.2.5.5.5 8.6-.3 17.3-.9 25.9-1.2 16-.6 31.8 0 52.7 1.4.3 0 .5-.1.5-.5.2-7.1 0-12.5-.6-16.4-.3-1.7-.7-3.6-1.3-5.6-.5-1.7-1.2-3.3-2-4.7-1.3-2.3-2.3-4.6-4.1-6.7-3.1-3.8-6.5-6.9-10-9.3-.9-.6-2.3-.9-2.8-1.8-.1-.2-.3-.3-.5-.3l-.4.1c0-.2-.2-.3-.3-.4zm-94.7 95.6c-1.6 9.8-2.7 19.4-3.2 28.8-.3 4.7-.1 9.6.3 14.2.9 11 2.5 22.6 4.6 34.9.1.4.3.5.6.6 21.2 1.9 41.9 3.3 62.2 4.1 6.6.3 13.3.3 20.1.1 22.5-.7 44.9-2.1 67.2-4.1.4 0 .6-.2.7-.6 2.8-15.8 4.4-28.8 4.9-39 .3-5.8.1-11.9-.6-18.5-.9-9.3-2.3-19.4-4.2-30.2-.1-.8-.6-1.3-1.5-1.3-10.6-.6-21.7-1.4-33.3-2.3-12.8-1-23.2-1.5-31.2-1.7-13-.3-26.9.1-41.5 1-13.7.9-27.9 1.9-42.6 3-.5 0-.9.4-.9.9-.4 3.1-1 6.5-1.6 10.1z" style="fill:#71e6cb;display:inline"/><path d="M180.6 388.9c.6-3.7 1.1-7.1 1.5-10.2.1-.5.5-.8.9-.9 14.7-1.1 28.9-2.1 42.6-3 14.6-1 28.4-1.3 41.5-1 8 .2 18.4.7 31.2 1.7 11.6.9 22.8 1.6 33.3 2.3.8.1 1.3.5 1.5 1.3 1.9 10.8 3.3 20.9 4.2 30.2.6 6.5.8 12.7.6 18.5-.5 10.2-2.1 23.2-4.9 39-.1.4-.3.6-.7.6-22.3 2.1-44.7 3.5-67.2 4.1-6.8.2-13.5.2-20.1-.1-20.3-.8-41.1-2.1-62.2-4.1-.4 0-.6-.2-.6-.6-2.2-12.3-3.7-23.9-4.6-34.9-.4-4.6-.6-9.6-.3-14.2.7-9.3 1.7-18.9 3.3-28.7z" style="display:inline;fill:#fff"/></svg>
