<svg xmlns="http://www.w3.org/2000/svg" viewBox="0 0 48 48"><style>.st0{fill:#f0f0f0}</style><path class="st0" d="M41 10H25v28h16c.6 0 1-.4 1-1V11c0-.6-.4-1-1-1z"/><path d="M33.5 15h4c.8 0 1.5.7 1.5 1.5s-.7 1.5-1.5 1.5h-4c-.8 0-1.5-.7-1.5-1.5s.7-1.5 1.5-1.5zm0 10h4c.8 0 1.5.7 1.5 1.5s-.7 1.5-1.5 1.5h-4c-.8 0-1.5-.7-1.5-1.5s.7-1.5 1.5-1.5zm0 5h4c.8 0 1.5.7 1.5 1.5s-.7 1.5-1.5 1.5h-4c-.8 0-1.5-.7-1.5-1.5s.7-1.5 1.5-1.5zm0-10h4c.8 0 1.5.7 1.5 1.5s-.7 1.5-1.5 1.5h-4c-.8 0-1.5-.7-1.5-1.5s.7-1.5 1.5-1.5zm-7-5h2c.8 0 1.5.7 1.5 1.5s-.7 1.5-1.5 1.5h-2c-.8 0-1.5-.7-1.5-1.5s.7-1.5 1.5-1.5zm0 10h2c.8 0 1.5.7 1.5 1.5s-.7 1.5-1.5 1.5h-2c-.8 0-1.5-.7-1.5-1.5s.7-1.5 1.5-1.5zm0 5h2c.8 0 1.5.7 1.5 1.5s-.7 1.5-1.5 1.5h-2c-.8 0-1.5-.7-1.5-1.5s.7-1.5 1.5-1.5zm0-10h2c.8 0 1.5.7 1.5 1.5s-.7 1.5-1.5 1.5h-2c-.8 0-1.5-.7-1.5-1.5s.7-1.5 1.5-1.5z" style="fill:#5bbc60"/><path d="m25.2 41.7-18-3.4c-.7-.2-1.2-.8-1.2-1.5V11.2c0-.7.5-1.3 1.2-1.5l18-3.4c.9-.1 1.8.6 1.8 1.5v32.4c0 .9-.9 1.6-1.8 1.5z" fill="#4eaa54"/><path class="st0" d="m21.8 30.1-.2.2-.4-.1-.5-.4-.4-.4-.3-.3-.2-.4-.2-.3-.2-.2.1-.3-.3-.4-.3-.4-.4-.2-.1-.4-.3-.5-.4-.4v-.4l-.4-.3-.5-.2-.3.1-.1.2-.2.4-.4.5-.1.3-.2.3-.2.1-.2.4h-.2l-.2.4-.2.4-.4.4-.1.3-.2.3-.4.3-.4.2-.1.4-.1.4-.2.3-.1.4-.5.2h-.4v-.3l.1-.4.2-.4.1-.2v-.3l.4-.4.2-.3.1-.4.1-.3.1-.4.2-.3.2-.3h.5l.3-.2.2-.2.3-.1.2-.2.2-.3.3-.3.2-.3.2-.4.2-.3.3-.2.3-.2-.1-.3-.1-.3-.2-.3-.4-.3-.4-.5-.6-.3-.5-.3-.3-.4-.3-.6-.2-.3-.1-.3-.3-.2-.2-.3-.1-.2-.1-.4-.3-.2-.2-.2v-.2l-.2-.3-.1-.2-.4-.2H11l-.4-.2-.1-.3v-.3l.1-.2.1-.5.5-.3.4.2.3.3.3.3.2.1.5.1.3.3.3.6.5.5.6.4.4.5v.5l.3.4v.6l.1.5.5.6.3.4.2.5.4.5.4-.5.4-.6.1-.5.3-.4.1-.3v-.5l.1-.4.1-.3.3-.3.3-.1.1-.3.3-.4.3-.3.3-.6.2-.4v-.5l-.1-.4.1-.4.3-.1h.4l.2.3.3.2.2.2.2.2v.2l-.2.1-.1.3-.2.4-.4.5-.3.5-.1.3-.4.6-.1.2-.3.2-.3.6-.3.3-.1.5-.3.5-.3.3-.3.2-.3.4-.2.4-.1.4v.4l.4.2.1.2.2.1.1.4.2.3.3.3.2.4.5.4.4.5.2.4.3.2.3.5.4.4.6.8.2.6zm-7.2-4.5-.2.1-.2-.2.2-.3.2.2v.2zm1.9-6.8-.2.2-.1-.2.2-.3.1.3zm.3 11.9h-.2l-.2-.1.2-.2.2.2v.1z"/></svg>
