<svg xmlns="http://www.w3.org/2000/svg" fill="none" viewBox="0 0 48 48" stroke-width="3"><g id="memes-comment-reply"><path id="Union" fill="#E8F3F1" d="M38.755 3.075c.88-.098 1.782.194 2.32.898C44 7.803 44 16.81 44 23c0 .439-.022.863-.066 1.27A20.513 20.513 0 0 1 45 30.79C45 33.36 45 45 24 45S3 33.36 3 30.79c0-2.283.381-4.47 1.066-6.52A11.769 11.769 0 0 1 4 23C4 16.809 4 7.802 6.925 3.973c.538-.704 1.44-.996 2.32-.898 4.297.48 7.638 3.2 10.045 6.595A17.477 17.477 0 0 1 24 9a17.5 17.5 0 0 1 4.71.67c2.407-3.395 5.748-6.114 10.045-6.595Z"/><path id="Rectangle 1097" fill="#ffffff" d="M33.191 16.093c-1.688.073-3.016 1.304-3.114 2.992-.045.79-.077 1.756-.077 2.915s.032 2.126.077 2.915c.098 1.688 1.426 2.92 3.114 2.992C34.381 27.96 35.97 28 38 28c2.03 0 3.62-.041 4.809-.093 1.688-.073 3.016-1.304 3.114-2.992.045-.79.077-1.756.077-2.915s-.032-2.126-.077-2.915c-.098-1.688-1.426-2.92-3.114-2.992C41.619 16.04 40.03 16 38 16c-2.03 0-3.62.041-4.809.093Z"/><path id="Rectangle 1098" fill="#ffffff" d="M12.191 16.093c-1.688.073-3.016 1.304-3.114 2.992A50.88 50.88 0 0 0 9 22c0 1.159.032 2.126.077 2.915.098 1.688 1.426 2.92 3.114 2.992C13.381 27.96 14.97 28 17 28c2.03 0 3.62-.041 4.808-.093 1.69-.073 3.017-1.304 3.115-2.992.045-.79.077-1.756.077-2.915s-.032-2.126-.077-2.915c-.098-1.688-1.426-2.92-3.114-2.992A109.533 109.533 0 0 0 17 16c-2.03 0-3.62.041-4.809.093Z"/><path id="Ellipse 18" stroke="#71e6cb" stroke-linecap="round" stroke-linejoin="round" d="M10.958 35c1.523 1.694 4.23 3.24 9.042 3.789"/><path id="Vector 2112" stroke="#71e6cb" stroke-linecap="round" stroke-linejoin="round" d="M30 22h-5"/><path id="Vector 2113" stroke="#71e6cb" stroke-linecap="round" stroke-linejoin="round" d="M9 22H4"/><path id="Rectangle 1099" stroke="#71e6cb" stroke-linecap="round" stroke-linejoin="round" d="M33.191 16.093c-1.688.073-3.016 1.304-3.114 2.992-.045.79-.077 1.756-.077 2.915s.032 2.126.077 2.915c.098 1.688 1.426 2.92 3.114 2.992C34.381 27.96 35.97 28 38 28c2.03 0 3.62-.041 4.809-.093 1.688-.073 3.016-1.304 3.114-2.992.045-.79.077-1.756.077-2.915s-.032-2.126-.077-2.915c-.098-1.688-1.426-2.92-3.114-2.992C41.619 16.04 40.03 16 38 16c-2.03 0-3.62.041-4.809.093Z"/><path id="Subtract" stroke="#71e6cb" stroke-linecap="round" stroke-linejoin="round" d="M44.69 27.247c.203 1.15.31 2.333.31 3.542C45 33.361 45 45 24 45S3 33.362 3 30.79c0-2.282.381-4.47 1.066-6.519A11.769 11.769 0 0 1 4 23C4 16.809 4 7.802 6.925 3.973c.538-.704 1.44-.996 2.32-.898 4.297.48 7.638 3.2 10.045 6.595A17.477 17.477 0 0 1 24 9a17.5 17.5 0 0 1 4.71.67c2.407-3.395 5.748-6.114 10.045-6.595.88-.098 1.782.194 2.32.898 1.97 2.58 2.613 7.508 2.823 12.342"/><path id="Rectangle 1100" stroke="#71e6cb" stroke-linecap="round" stroke-linejoin="round" d="M12.191 16.093c-1.688.073-3.016 1.304-3.114 2.992A50.88 50.88 0 0 0 9 22c0 1.159.032 2.126.077 2.915.098 1.688 1.426 2.92 3.114 2.992C13.381 27.96 14.97 28 17 28c2.03 0 3.62-.041 4.808-.093 1.69-.073 3.017-1.304 3.115-2.992.045-.79.077-1.756.077-2.915s-.032-2.126-.077-2.915c-.098-1.688-1.426-2.92-3.114-2.992A109.533 109.533 0 0 0 17 16c-2.03 0-3.62.041-4.809.093Z"/></g></svg>
