<svg xmlns="http://www.w3.org/2000/svg" viewBox="0 0 48 48"><style>.st0{fill:#f0f0f0}</style><path class="st0" d="M41 10H25v28h16c.6 0 1-.4 1-1V11c0-.6-.4-1-1-1z"/><path d="M21 38.2c-.3 0-.7-.1-.9-.3-1-.8-1.2-1.6-1.1-2.2.2-1.6 2.1-3.2 5.8-4.9 1.5-3.2 2.9-7.2 3.7-10.5-1-2.1-1.9-4.9-1.2-6.5.2-.6.5-1 1.1-1.2.2-.1.8-.2 1-.2.5 0 .9.6 1.2 1 .3.4.9 1.1-.4 6.6 1.3 2.7 3.2 5.5 5 7.4 1.3-.2 2.4-.3 3.3-.3 1.5 0 2.4.4 2.8 1.1.3.6.2 1.3-.4 2.1-.5.8-1.3 1.2-2.2 1.2-1.2 0-2.6-.8-4.1-2.2-2.8.6-6 1.6-8.6 2.7-.8 1.7-1.6 3.1-2.3 4.1-1 1.5-1.8 2.1-2.7 2.1zm2.6-5c-2.1 1.2-2.9 2.1-3 2.7 0 .1 0 .3.4.7.2-.1 1-.5 2.6-3.4zm13.3-4.3c.8.6 1 .9 1.5.9.2 0 .9 0 1.2-.4.1-.2.2-.3.2-.4-.1-.1-.3-.2-1.1-.2-.5 0-1.2 0-1.8.1zm-7.3-6.4c-.7 2.4-1.6 5-2.6 7.4 2-.8 4.2-1.5 6.3-2-1.3-1.5-2.6-3.4-3.7-5.4zm-.6-8.3c-.1 0-1.3 1.7.1 3.1.9-2 0-3.1-.1-3.1z" fill="#cc6a65"/><path d="m25.2 41.7-18-3.4c-.7-.2-1.2-.8-1.2-1.5V11.2c0-.7.5-1.3 1.2-1.5l18-3.4c.9-.1 1.8.6 1.8 1.5v32.4c0 .9-.9 1.6-1.8 1.5z" fill="#cc4b4c"/><path class="st0" d="M10.6 29.7h-.2v-.1h.2v.1zm10.9 2.1-.1.1-.2.1-.1-.1-.1-.2-.2-.3-.2-.4-.3-.6-.3-.6-.1-.4-.2-.2-.3-.8-.2-.3-.2-.4-.3-.4-.1-.3-.5-.5-.1-.3-.4-.3-.6-.1-.5.1-.5.1-.4.2-.4.4-.4.2-.1.2-.3.2-.7.4-.1.1-.1.5v.3l-.2.2v.4l-.1.4.1.7-.1.5-.2.6-.2.4-.2.3-.4.4-.4.1h-.4l-.1-.1H11l-.2-.2-.1-.1v-.2l-.1-.2v-.5l.1-.3v-.3l.1-.2.1-.1v-.2l.2-.1.1-.2.1-.3.2-.1.2-.4.1-.5.1-.1v-.3l.1-.5v-.3l-.2-.5-.1-.4v-.8l.1-.1v-.3l.4-.4v-.1l.2-.2.3-.4.3-.5.1-.3v-.4l.1-.6.1-.6.2-.7v-.4l.1-.2v-1.7l.2-.4.2-.3.2-.2.1-.3.2-.2.1-.2-.5-.1v-.3l-.1-.4v-.4l-.1-.2.1-.3h.2l.3-.2h.1l.1-.2h.4l.3.1.3.4.1.1.2.4.2.4.1.4.2.5.3.4v.2l.2.2.1.2.2.3v.3l.2.4v.2l.1.2.1.4.2.3.1.6.1.4.1.6v.2l.1.3.2.6.2.5v.4l.1.3.3.2.4.1h.9l.4.1.1.1.1.1-.1.1-.1.1-.2.2h-.2l-.1.1-.4.1-.4.2-.2.2v.3l.1.3.2.3.2.3.2.5.1.3.2.5.2.4.2.5.2.4.1.7.1.1.2.3.2.3v.2l.1.1-.1.4zm-10.5 1-.2.1-.1-.2h.3v.1zm1.1-9v.1l-.2.1-.1-.1v-.1l.1-.1h.1v.1zm5 .4-.1-.3-.2-.4v-.4l-.1-.2-.1-.2-.1-.2v-.6l-.3-.4.1-.2-.1-.3-.2-.8-.2-.4v-.3l-.4-.5-.1-.2-.2-.5-.5.5v.3l-.2.3v.5l-.1.5v.5l-.1.1v1.3l-.2.3.1.3-.1.4.2.3.6.2.6.2.5.3.3.2.5.1.3-.1.1-.1v-.2zm-1.1 0h-.1l-.1-.1V24h.2v.2zm5.3.7-.1.1h-.1v-.2l.2.1zm.2 7.7h-.2v-.1l.1-.1.1.2z"/></svg>