<svg xmlns="http://www.w3.org/2000/svg" fill="none" viewBox="0 0 48 48" stroke-width="3"><g id="piggy-bank--institution-saving-bank-payment-finance"><path id="Union" fill="#E8F3F1" d="M29.64 3.03C30.36 3.012 31.144 3 32 3c0 0 1 2 1 8 0 .245-.002.484-.005.716 3.113 1.594 5.495 4.241 6.823 7.537a28.165 28.165 0 0 1 2.687-.241c1.27-.046 2.27.91 2.367 2.179.07.93.128 2.189.128 3.809s-.058 2.878-.128 3.81c-.096 1.267-1.097 2.224-2.367 2.178a26.13 26.13 0 0 1-2.054-.162c-.573 2.195-1.578 4.168-2.938 5.822a115.78 115.78 0 0 1 1.696 3.874c.486 1.167.164 2.514-.844 3.276-.42.317-.854.623-1.219.832-.372.213-.872.439-1.37.644-1.154.476-2.462.088-3.228-.899-.63-.813-1.434-1.87-2.272-3.025a16.142 16.142 0 0 1-3.958.594C24.995 41.98 23.558 42 22 42c-1.558 0-2.995-.02-4.318-.056a16.142 16.142 0 0 1-3.958-.594 118.394 118.394 0 0 1-2.272 3.025c-.766.987-2.074 1.375-3.228.9a12.71 12.71 0 0 1-1.37-.645 12.37 12.37 0 0 1-1.22-.832c-1.008-.762-1.33-2.109-.843-3.276.438-1.051 1.03-2.428 1.696-3.874-2.197-2.672-3.47-6.178-3.486-10.109a131.863 131.863 0 0 1 0-1.079c.036-8.599 6.085-15.169 14.681-15.404C19.005 10.02 20.442 10 22 10l.055 0c.437-3.959 3.464-6.858 7.584-6.97Z"/><path id="Union_2" stroke="#71e6cb" stroke-linecap="round" stroke-linejoin="round" d="M29.64 3.03C30.36 3.012 31.144 3 32 3c0 0 1 2 1 8 0 .245-.002.484-.005.716 3.113 1.594 5.495 4.241 6.823 7.537a28.165 28.165 0 0 1 2.687-.241c1.27-.046 2.27.91 2.367 2.179.07.93.128 2.189.128 3.809s-.058 2.878-.128 3.81c-.096 1.267-1.097 2.224-2.367 2.178a26.13 26.13 0 0 1-2.054-.162c-.573 2.195-1.578 4.168-2.938 5.822a115.78 115.78 0 0 1 1.696 3.874c.486 1.167.164 2.514-.844 3.276-.42.317-.854.623-1.219.832-.372.213-.872.439-1.37.644-1.154.476-2.462.088-3.228-.899-.63-.813-1.434-1.87-2.272-3.025a16.142 16.142 0 0 1-3.958.594C24.995 41.98 23.558 42 22 42c-1.558 0-2.995-.02-4.318-.056a16.142 16.142 0 0 1-3.958-.594 118.394 118.394 0 0 1-2.272 3.025c-.766.987-2.074 1.375-3.228.9a12.71 12.71 0 0 1-1.37-.645 12.37 12.37 0 0 1-1.22-.832c-1.008-.762-1.33-2.109-.843-3.276.438-1.051 1.03-2.428 1.696-3.874-2.197-2.672-3.47-6.178-3.486-10.109a131.863 131.863 0 0 1 0-1.079c.036-8.599 6.085-15.169 14.681-15.404C19.005 10.02 20.442 10 22 10l.055 0c.437-3.959 3.464-6.858 7.584-6.97Z"/><path id="Vector 2497" stroke="#71e6cb" stroke-linecap="round" stroke-linejoin="round" d="m31 18 0 1"/><path id="Vector" stroke="#71e6cb" stroke-linecap="round" stroke-linejoin="round" d="M7.143 14C4.426 14 2 11.745 2 8.963s2.426-5.037 5.143-5.037C9.715 3.926 11 5.299 11 6.673"/><path id="Union_3" stroke="#71e6cb" stroke-linecap="round" stroke-linejoin="round" d="M11.5 18.491c1.774-1.783 4.283-2.887 7.23-2.963a90.48 90.48 0 0 1 1.454-.028"/></g></svg>
