<svg xmlns="http://www.w3.org/2000/svg" viewBox="0 0 48 48"><style>.st0{fill:#f0f0f0}.st1{fill:#ff9f00}</style><path class="st0" d="M41 10H25v28h16c.6 0 1-.4 1-1V11c0-.6-.4-1-1-1z"/><path class="st1" d="M24 29h14v2H24zm0 4h14v2H24zm6-18c-3.3 0-6 2.7-6 6s2.7 6 6 6 6-2.7 6-6h-6v-6z"/><path class="st1" d="M32 13v6h6c0-3.3-2.7-6-6-6z"/><path d="m25.2 41.7-18-3.4c-.7-.2-1.2-.8-1.2-1.5V11.2c0-.7.5-1.3 1.2-1.5l18-3.4c.9-.1 1.8.6 1.8 1.5v32.4c0 .9-.9 1.6-1.8 1.5z" fill="#ff8c00"/><path class="st0" d="M20.1 20.8v.5l-.1.6-.1.5-.2.3v.3l-.2.4-.3.2-.2.3-.3.3-.3.1-.4.3-1.2.1-.6-.1h-.4l-.5-.2-.1-.1V24l.1-.1h.3l.3.1.4.1h1.3l.4-.1.2-.3.2-.4.3-.5.1-.3.2-.3.1-.5v-.9l-.1-.5v-.5l-.2-.4-.4-.7-.1-.3-.2-.1-.2-.4-.5-.2-.4-.1-.6-.1H15l-.2.2.1.4.1.4-.2.6-.2.6-.1.6-.1.4v.5l-.1.5-.1.6-.1.5v.5l-.1.6v.4l-.1.5-.2.6-.1.5-.2.6-.1.6-.2.7-.2.7-.6 1.1v.4l-.2.4-.1.4v1.3l.1.6.2.3.1.3-.1.1H12l-.1-.1-.2-.4v-.6l.1-.7.1-.6v-1.1l.2-.1.1-.3v-.6l-.2-.6.2-.4.2-1 .1-.6.1-.5-.1-.5v-.4l.1-.8v-.8l.1-.7V22l.1-.6.2-.8V20l.1-.9-.1-.6.2-.5-.1-.4.1-.6.3-.3.5-.1.5.2h.3l.6-.3.6-.1.6.1.5-.1.6.1.6.2.5.3.4.5.4.7.2.2v.4l.2.3.1.5.1.4v.4l-.1.4zm-7.5.1v.1l-.2.1-.2-.2.2-.1.2.1z"/></svg>
