<svg xmlns="http://www.w3.org/2000/svg" viewBox="0 0 512 512"><path style="fill:#71e6cb" d="M54.3 69.4C66.2 50.2 78.9 34 92.5 21c3.4-3.2 7.7-4.9 13-4.9 100.2-.1 200.5-.1 300.7 0 4.3 0 7.9 1 10.8 3 1.8 1.3 4.5 3.8 8 7.5 10.3 11 19 21.8 26.1 32.4 2.7 4 5.7 8.8 8.9 14.4 4.6 7.9 9.1 16.9 13.5 27 2.7 6.1 5.1 12.3 7.2 18.4 8.6 24.6 14.4 50 17.3 76.1 1.9 17.2 2.9 34.7 2.9 52.4 0 6-.2 11.9-.6 17.7-1.4 19-5.1 37.2-11 54.7-3.2 9.5-7.4 19.4-12.6 29.8-1.8 3.7-3.8 7.1-5.8 10.4-1.5 2.4-2.9 4.7-4.3 6.8-3.1 5-6.7 9.7-10.2 14.6-1.9 2.6-3.9 5.2-6.2 7.7-4.2 4.7-7.8 8.7-10.9 11.9-9.4 9.9-18.9 18.4-28.4 25.6-4.1 3.1-8.4 6.3-12.9 9.6-3.3 2.4-6.7 4.7-10.1 6.8-6.7 4.1-13.4 8.3-20.6 12.1-4.7 2.4-9.3 5.1-14 7.3-4.2 2-8.2 3.9-12.2 5.8-4.7 2.2-9.2 4.2-13.6 5.9-4.6 1.8-9.2 3.6-13.9 5.3-5.8 2.1-11.6 4.2-17.4 6.2-5.4 1.9-10.7 3.5-15.8 4.8-5.7 1.5-11.5 3.1-17.4 4.8-3.3.9-6.2 1-9 .3-15-3.9-30-8.3-44.9-13.3-7.3-2.5-14.6-5.4-21.8-8.2-7.8-3-15.9-6.9-23.9-10.5-13.1-6.1-26.9-13.8-41.3-23-4.9-3.2-10.4-7-16.4-11.4-2.8-2.1-5.6-4.3-8.4-6.6-3.6-3-7.3-5.8-10.8-9-5.6-5.1-10.4-9.8-14.4-13.9-9.9-10.3-18.3-20.4-25-30.5-7.3-10.8-13.3-21.5-17.9-32-1.6-3.6-3.2-7.2-4.7-11-1.4-3.3-2.6-6.8-3.6-10.4-.7-2.3-1.4-4.7-2.1-7.2-.7-2.5-1.4-4.9-1.9-7.3-2.1-9.4-3.8-19.1-5.1-29.2-.5-4.1-.8-8.2-1-12.2-.2-5.4-.5-10.9-.4-16.3.2-6.6.4-13.3.7-20 .8-17 2.5-33.4 5.3-49.3 3.2-18.5 8-37 14.4-55.5 2.3-6.5 4.7-12.7 7.3-18.6 4.6-10.4 9.3-19.7 14.2-28 1-1 1.5-1.8 2-2.6zm25 30c-1 1.9-1.9 3.7-2.8 5.6-6.9 14.6-12.7 29.9-17.2 45.8-1.6 5.8-3.1 12.1-4.5 18.9-2.5 12.4-4.2 23.9-5.2 34.4-1.4 14-2 28.1-2 42.2 0 10.3.7 20.5 2.1 30.5.5 3.4 1.1 6.6 1.8 9.7 1.3 5.5 2.3 11.1 4.2 16.4 2 5.6 3.8 11.2 6.3 16.7 4 8.7 8.4 17.1 13.4 25.2 1.2 1.9 3.6 5.4 7.2 10.3 2.3 3.1 4.7 6.1 7.3 9.1 2.6 2.9 5.2 5.8 7.9 8.6 8.5 8.9 18.1 17.5 28.8 25.6 2.3 1.8 7.5 5.4 15.6 10.8 2.5 1.7 5.2 3.4 8 5 6.9 4.1 13.7 8.1 20.8 11.6 7.3 3.6 14.6 7.3 22.2 10.4 3.1 1.3 6.3 2.6 9.5 4 4.7 2 9.5 3.8 14.4 5.5 8.1 2.8 16.2 5.7 24.4 8 5.1 1.5 10.3 3 15.4 4.5.7.2 1.4.2 2.2 0 15.3-4.1 29.9-8.8 43.8-14.2 12.7-4.9 20.6-8.1 23.7-9.6 7.2-3.5 14.3-7.1 21.5-11 3-1.6 6.1-3.3 9.2-5.2 5.5-3.3 11-6.4 16.2-10.1 2.4-1.7 4.8-3.3 7-4.9 3.4-2.3 6.8-4.9 10.3-7.7 8.6-7.1 16.5-14.3 23.8-21.6 1.7-1.7 4.4-4.8 8.2-9.2 2.5-3 5-6.2 7.3-9.5 1.7-2.5 3.4-4.9 5.1-7.2 2.7-3.8 4.8-8 7.1-12.1 1.7-3 3.3-6 4.7-9.2 2.3-5 4.6-10.1 6.5-15.4 1.6-4.5 2.9-8.8 4-12.7 2.4-8.7 4.2-18.1 5.4-28.3.4-3.9.8-7.8 1-11.8.2-4.2.4-8.4.4-12.3.1-15.7-.7-30.9-2.4-45.8-1.7-15.1-4.1-29.1-7.3-42-2.9-11.6-6.6-23.3-11.2-35.1-4.1-10.6-8.5-20.1-13-28.3-8.1-14.7-18.3-28.7-30.6-41.9-.2-.2-.5-.4-.8-.4H113c-.4 0-.7.1-.9.4-12.8 14-24.1 29.4-32.8 46.3z"/><path d="M79.3 99.4c8.8-16.9 20.1-32.3 32.8-46.2.2-.3.6-.4.9-.4h286c.3 0 .6.1.8.4 12.3 13.2 22.4 27.2 30.6 41.9 4.5 8.2 8.9 17.7 13 28.3 4.6 11.8 8.3 23.5 11.2 35.1 3.2 12.9 5.6 26.9 7.3 42 1.7 14.8 2.5 30.1 2.4 45.8 0 4-.1 8.1-.4 12.3-.2 3.9-.5 7.9-1 11.8-1.1 10.1-2.9 19.6-5.4 28.3-1.1 4-2.5 8.2-4 12.7-1.9 5.3-4.2 10.4-6.5 15.4-1.4 3.1-3 6.2-4.7 9.2-2.4 4.1-4.5 8.3-7.1 12.1-1.6 2.4-3.3 4.8-5.1 7.2-2.4 3.3-4.8 6.5-7.3 9.5-3.7 4.4-6.5 7.5-8.2 9.2-7.3 7.4-15.2 14.6-23.8 21.6-3.4 2.8-6.8 5.4-10.3 7.7-2.3 1.6-4.6 3.2-7 4.9-5.2 3.7-10.7 6.8-16.2 10.1-3.2 1.9-6.2 3.7-9.2 5.2-7.2 3.8-14.4 7.5-21.5 11-3.1 1.5-11 4.7-23.7 9.6-13.9 5.3-28.5 10.1-43.8 14.2-.7.2-1.4.2-2.2 0-5.2-1.5-10.3-3-15.4-4.5-8.2-2.4-16.3-5.3-24.4-8-4.9-1.7-9.7-3.5-14.4-5.5-3.2-1.4-6.4-2.7-9.5-4-7.6-3.1-14.9-6.8-22.2-10.4-7.1-3.5-13.9-7.6-20.8-11.6-2.9-1.7-5.5-3.3-8-5-8.1-5.5-13.3-9.1-15.6-10.8-10.7-8.2-20.4-16.7-28.8-25.6-2.7-2.8-5.3-5.7-7.9-8.6-2.6-3-5.1-6-7.3-9.1-3.7-5-6.1-8.4-7.2-10.3-5-8.1-9.4-16.5-13.4-25.2-2.5-5.5-4.2-11.1-6.3-16.7-1.9-5.3-3-10.9-4.2-16.4-.7-3.1-1.3-6.3-1.8-9.7-1.4-10-2.1-20.1-2.1-30.5 0-14.1.6-28.2 2-42.2 1-10.6 2.8-22.1 5.2-34.4 1.4-6.8 2.9-13.1 4.5-18.9 4.5-16 10.3-31.2 17.2-45.8.9-2 1.8-3.9 2.8-5.7z" style="fill:#E8F3F1"/><path style="fill:#71e6cb" d="M220.8 303.4c39.4-52.5 78.9-105.2 118.4-157.9 2.9-3.9 5.8-7.6 10.3-9.5 5.1-2.1 9.9-2 14.6.1 4.1 1.9 7.1 4.8 9 8.7 2 4.1 2.3 8.6.9 13.4-.4 1.4-1.1 2.8-2 4.2-.9 1.3-1.8 2.6-2.8 3.9-42.9 57.2-86 114.6-129.2 172.4-3.5 4.6-6.2 7.5-8.3 8.6-7.9 4.4-16.9 2.6-23.1-3.7-21.9-22.1-43.9-44-65.9-65.9-5.8-5.8-7.2-14.2-3.6-21.5 1.9-3.9 5.9-8.2 10.2-8.9 1-.1 1.5-.8 2.6-.9 6.7-.9 12.3 1 17 5.7 16.4 16.4 33.5 33.5 51.3 51.2.2.3.4.3.6.1z"/></svg>
