<svg xmlns="http://www.w3.org/2000/svg" viewBox="0 0 512 512"><path d="M367.5 280.7c6.5 26.1 12.2 51.9 17.1 77.5.1.3-.1.6-.4.7l-86.5 39.8c-.6.3-1.3.1-1.6-.4-2.7-4-5.8-8.2-9.2-12.6-2.9-3.7-6.3-5.5-10.6-6.6-5.8-1.5-10.9.4-15.6 3.6-7.1 4.9-14.5 10-22.3 15.4-5.4 3.7-10.9 7.3-16.7 10.9-6.6 4-13.2 8.2-19.9 12.4-12.9 8.1-26 15.4-39.2 22.1-7.8 3.9-16.3 7.9-24.8 8.6-7.2.6-15.6-2.2-21.8-5.5-5.1-2.7-9.8-6-14-9.9-3.1-2.9-6.1-6.1-8.9-9.7-6.7-8.6-10.8-18-12.2-28.3-.5-3.8-.2-7.4-.1-11.2 0-2.4.3-4.7.8-7 .7-3.1 1.1-6.2 2.2-9.4 4-12.2 9.6-23.3 16.9-33.2 2.9-4 6.2-8.2 9.8-12.6 3.2-3.9 6.7-7.9 10.6-12 7.5-7.8 15.4-15.7 23.7-23.7 14.6-13.9 29.9-27.8 43.1-42.7 3.1-3.6 4.7-7.7 4.6-12.4 0-2.4-.8-5.7-2.4-9.7-14-37.5-27.8-74.5-41.3-110.9-.1-.3 0-.6.2-.8 4-3.5 7.9-7.3 12.1-10.4 6.2-4.6 12.4-8.5 18.5-11.7 13.3-7 27.7-12.7 43.3-17.1 27-7.7 54.7-12.3 83.1-14 .4 0 .6.1.7.5l2.6 8.6 58.2 211.7z" style="fill:#E8F3F1"/><path d="M430.4 143.1c-2 17.6-6.5 33.9-13.6 48.9-6.4 13.5-15.8 26.8-27.6 35.7-10.1 7.6-21.7 13.1-33.7 17.6-14.7 5.4-29.8 9.8-45.1 13.1-7.9 1.7-14.1-.7-18.7-7.3-1.3-1.9-2-4.2-2.3-7.1-1.3-14.7-1.4-29.9-.5-45.8.7-12.1 2.5-23.9 5.3-35.4 1.9-7.9 4.6-15.6 7.9-23 .5-1 .5-2 1.1-3 1.7-3.3 3.5-6.4 5.2-9.4 8.4-14.2 18.7-26.1 31-35.6 10.7-8.3 22.7-15.3 35.8-20.9 10.1-4.4 21.4-8.5 34-12.4 2.9-.9 5.4-1.2 7.6-.8 4.3.7 7.7 2.8 10.2 6.4 1 1.5 1.7 3.5 2 6.2.2 1.8.4 3.5.7 5.2 1.2 8.6 2 17.2 2.4 25.7l-1.7 41.9z" style="fill:#fff"/><path d="M268 422.1c-8 5.4-16.1 11-24.4 16.3-7.6 4.8-15 9.5-22.3 14.1-9.2 5.8-19.7 11.8-31.4 18-11.7 6.2-24.1 12.1-37 15.9-5.9 1.8-11.7 2.6-17.2 2.5-6.5-.2-12.4-1-17.9-2.4-6.5-1.7-13-4.4-19.6-7.9-6.9-3.7-13.7-8.5-20.4-14.6-12.6-11.3-22.1-24.8-28.3-40.6-1.1-2.9-2.1-5.9-2.9-9.2-.9-3.7-1.5-6.9-1.8-9.6-.8-7.9-1-14.5-.6-19.9.7-8.6 2.4-17.5 5.2-26.7.6-2.1 1.8-5.3 3.6-9.8 1.4-3.3 2.8-6.4 4.2-9.2 1-2 2.1-4 3.2-6.1 1.1-2 2.2-4 3.5-6 6.6-10.3 14-20.1 22.2-29.4 20.1-22.8 45.4-45.2 66.6-66.3.2-.2.3-.6.2-.9-13.7-36.8-27.8-74.5-42.1-113.1-1.4-3.8-1.6-7.5-.7-11.1.7-2.9 2.5-6 5.4-9.5 6.4-7.8 12.2-13.9 17.4-18.2 2.8-2.3 5.8-4.6 9-6.9 2.3-1.6 4.5-3.1 6.7-4.5 5.5-3.4 10.8-6.7 16.7-9.6 4.3-2.2 8.7-4.3 13.3-6.3 4.4-1.9 8.7-3.6 13-5.2 10.4-3.9 22.3-7.5 35.6-10.8 29.5-7.3 59.8-11.3 90.9-12 3.1-.1 6.7.4 9.5 1.9 3.6 1.9 6 4 7.5 6.4 2 3.3 3.8 8.4 5.3 15.1.1.4.3.5.7.3 10.9-5.7 21.8-10.7 32.7-14.9 1.7-.7 3.5-1.3 5.2-1.9 4.4-1.6 9.1-3.2 14.3-5 5-1.7 9.3-2.8 13.1-3.5 14.3-2.5 27.5.9 39.7 10.2 3.5 2.7 6.5 5.6 9 8.8 1.3 1.7 2.7 3.7 4.1 5.9.7 1.1 1.1 2.1 1.2 3 0 .2.2.4.4.5.4.2.6.5.5 1 1.6 3.8 2.6 7.4 3.2 10.8 2.3 13.1 3.7 27.1 4.2 42.2.5 15.6-.3 31.1-2.4 46.4-1.7 12.5-4.6 24.8-8.5 36.9l-.3 1.2c-.1.7-.7 1.4-.9 2.1-4.4 13-10.4 25.2-18 36.6-2 2.9-4.2 5.6-6.3 8.4-1.6 2.1-3.2 4-4.9 5.8-1.2 1.3-2.4 2.5-3.4 3.8-1 1.2-2.2 2.4-3.5 3.6-2.6 2.4-5.1 4.6-7.6 6.6-1.3 1-2.6 2.1-4.1 3.1-2.4 1.7-4.9 3.4-7.4 5.1-.2.2-.3.4-.3.7 8.7 35 16 68.5 21.8 100.5.8 4.2.3 8.3-1.2 12.2-.8 2-3.1 5.1-5 6.2-1.7 1-3 2.2-4.7 3-35.5 16.3-72.5 33.4-110.9 51.1-7 3.2-13.3 4-20.1-.1-2.1-1.3-4.4-3.7-6.9-7.2-1.9-2.6-3.7-5.2-5.5-7.8-.1-.2-.3-.2-.6 0zm129.6-304.5c1.7-.7 3.3-1.5 4.8-2.2 8.8-4.3 18.3-8.5 28.5-12.5.8-.3 1.2-.9 1.1-1.8-.4-8.5-1.2-17.1-2.4-25.7-.2-1.7-.5-3.5-.7-5.2-.3-2.6-.9-4.7-2-6.2-2.5-3.6-5.9-5.7-10.2-6.4-2.2-.4-4.8-.1-7.6.8-12.5 3.9-23.8 8.1-34 12.4-13.1 5.7-25.1 12.7-35.8 20.9-12.3 9.5-22.6 21.3-31 35.6-1.8 3-3.5 6.2-5.2 9.4-.5 1-.6 2-1.1 3-3.3 7.4-6 15-7.9 23-2.8 11.5-4.6 23.3-5.3 35.4-1 15.9-.8 31.1.5 45.8.2 2.9 1 5.2 2.3 7.1 4.5 6.6 10.8 9 18.7 7.3 15.4-3.3 30.4-7.7 45.1-13.1 12-4.4 23.6-10 33.7-17.6 11.8-8.9 21.3-22.2 27.6-35.7 7.1-15 11.7-31.3 13.6-48.9.1-.4-.1-.6-.5-.4-5.4 3-11.1 5-16.5 7.8-11.9 6.2-22.5 12.6-32.7 20.4-6.7 5.1-14.4 6.9-21.8 2.8-3.6-2-6.2-4.9-7.9-8.9-1.8-4.1-1.9-8.4-.5-13 1.2-4 4.6-7.4 7.7-9.8 11.7-8.9 24.4-16.8 38.3-23.6.5-.1.7-.5 1.2-.7zm-39.2 165.5c-3.1 1.1-6.2 2-9.1 2.9-8.6 2.6-17.9 5.2-28 7.5-7.3 1.7-13.2 2.5-17.7 2.2-10.8-.5-20.7-4.1-29.6-10.7-3.4-2.5-6.3-5.1-8.5-7.7-1.5-1.7-2.9-3.6-4.4-5.7-1.4-2-2.6-4.1-3.6-6.4-3-6.5-4.7-14.1-5-22.8-.7-15-.8-27.7-.5-38.2.5-14.8 2.2-29.2 5.2-43.2 7-33.3 21.9-61.7 44.9-85 2.2-2.2 4.5-4.2 6.9-6.1.3-.2.4-.5.3-.8l-2.6-8.6c-.1-.3-.3-.5-.7-.5-28.4 1.7-56.1 6.4-83.1 14-15.6 4.4-30.1 10.1-43.3 17.1-6.1 3.2-12.2 7.1-18.5 11.7-4.2 3.1-8 6.9-12.1 10.4-.2.2-.3.5-.2.8 13.5 36.4 27.3 73.4 41.3 110.9 1.5 4.1 2.3 7.3 2.4 9.7.1 4.7-1.4 8.8-4.6 12.4-13.2 14.9-28.5 28.8-43.1 42.7-8.3 7.9-16.3 15.8-23.7 23.7-3.9 4.1-7.5 8.1-10.6 12-3.6 4.4-6.9 8.6-9.8 12.6-7.2 9.9-12.8 21-16.9 33.2-1 3.1-1.4 6.2-2.2 9.4-.5 2.3-.8 4.6-.8 7-.1 3.8-.4 7.4.1 11.2 1.4 10.3 5.5 19.7 12.2 28.3 2.8 3.6 5.8 6.8 8.9 9.7 4.2 3.9 8.9 7.2 14 9.9 6.2 3.3 14.6 6.1 21.8 5.5 8.5-.7 17-4.7 24.8-8.6 13.3-6.7 26.4-14 39.2-22.1 6.7-4.2 13.4-8.3 19.9-12.4 5.8-3.6 11.3-7.2 16.7-10.9 7.8-5.4 15.3-10.5 22.3-15.4 4.7-3.2 9.8-5.1 15.6-3.6 4.3 1.1 7.7 2.9 10.6 6.6 3.4 4.4 6.5 8.6 9.2 12.6.4.5 1 .7 1.6.4l86.5-39.8c.3-.1.4-.4.4-.7-4.9-25.6-10.6-51.5-17.1-77.5-.1-.3-.3-.4-.6-.4-1.4.3-2.7.7-4 1.2-1.5.5-2.9 1-4.5 1.5z" style="fill:#71e6cb"/></svg>
