<svg xmlns="http://www.w3.org/2000/svg" viewBox="0 0 48 48"><style>.st0{fill:#f0f0f0}</style><path class="st0" d="M41 10H25v28h16c.6 0 1-.4 1-1V11c0-.6-.4-1-1-1z"/><path d="M26 15h12c.6 0 1 .4 1 1s-.4 1-1 1H26c-.6 0-1-.4-1-1s.4-1 1-1zm0 4h12c.6 0 1 .4 1 1s-.4 1-1 1H26c-.6 0-1-.4-1-1s.4-1 1-1zm0 4h12c.6 0 1 .4 1 1s-.4 1-1 1H26c-.6 0-1-.4-1-1s.4-1 1-1zm0 4h12c.6 0 1 .4 1 1s-.4 1-1 1H26c-.6 0-1-.4-1-1s.4-1 1-1zm0 4h12c.6 0 1 .4 1 1s-.4 1-1 1H26c-.6 0-1-.4-1-1s.4-1 1-1z" style="fill:#13a1f1"/><path d="m25.2 41.7-18-3.4c-.7-.2-1.2-.8-1.2-1.5V11.2c0-.7.5-1.3 1.2-1.5l18-3.4c.9-.1 1.8.6 1.8 1.5v32.4c0 .9-.9 1.6-1.8 1.5z" fill="#0f91e3"/><path class="st0" d="M23 17.3v.3l-.1.3v.3l-.1.2-.1.3-.1.4-.2.5v.4l-.2.7-.3.6.1.3-.2.4-.1.4-.1.3v.4l-.1.5v.3l-.2.5-.2.6v.6l-.1.4-.1.4-.2.5-.3.5-.1.5-.2.4v.3l-.2.1-.2.5-.3.2-.1.3-.3.2-.4.2h-.5l-.5-.1-.2-.2-.1-.2-.3-.3-.2-.4-.3-.4-.3-.5-.2-.4-.1-.6-.3-.6-.1-.4-.2-.3v-.6l-.1-.4H15l-.2-.3h-.2l-.2.3-.2.5-.2.6-.2.4-.2.6-.5 1.1-.1.4-.2.4-.2.4-.4.4-.2.4-.2.3-.2.3-.2.2-.2.1H11l-.2-.2v-.7l.1-.5V28l-.1-.5v-1l-.1-.5v-.5l-.1-.2V25l-.1-.5-.1-.5v-.5l-.1-.6-.1-.5v-.6l-.1-.4V21l-.1-.3-.2-.3v-.5l.2-.2.1-.2.2-.1.5.1.1.2.2.3.1.3-.2.4-.1.5.1.4.1.3V24l.1.5v1.1l.1.5v1l.1.5v1.5l.1.2h.2l.2-.3.2-.2.2-.5.3-.5.3-.6.1-.3.2-.4.2-.4.3-.5v-.4l.2-.3.2-.6.2-.5v-.3l.2-.5.2-.6.2-.5.1-.3.2-.1h.2l.2.1.2.4.5.5v.4l.1.5.1.5.1.4.2.3.2.4.2.3.2.5.2.3.3.8.2.3v.2l.2.1.1-.1v-.7l.3-.4.3-.5.1-.6.1-.7v-1.1l.2-.4.2-.2.3-.3.1-.3-.2-.5v-.9l.1-.6.1-.3.2-.2.3-.2.2-.2.3-.3.2-.5.3-.5.2-.3.2-.3.4-.4h.3l.3.1.1.2zm-.8-.5-.1.2-.1-.1-.1-.2.2-.1.1.1v.1z"/></svg>
