<svg xmlns="http://www.w3.org/2000/svg" baseProfile="full" width="212" height="211" style="position:absolute;left:0;top:0;user-select:none"><path fill="none" d="M0 0h212v211H0z"/><path d="M58.748 161.5H201.4M58.748 133.5H201.4M58.748 105.5H201.4M58.748 77.5H201.4M58.748 49.5H201.4M58.748 21.5H201.4" fill="none" stroke="#E0E6F1"/><path d="M58.748 161.5H201.4" fill="none" stroke="#6E7079" stroke-linecap="round"/><text dominant-baseline="central" text-anchor="end" style="font-size:12px" transform="translate(50.748 160.757)" fill="#6E7079">￥0</text><text dominant-baseline="central" text-anchor="end" style="font-size:12px" transform="translate(50.748 132.825)" fill="#6E7079">￥1000</text><text dominant-baseline="central" text-anchor="end" style="font-size:12px" transform="translate(50.748 104.894)" fill="#6E7079">￥2000</text><text dominant-baseline="central" text-anchor="end" style="font-size:12px" transform="translate(50.748 76.963)" fill="#6E7079">￥3000</text><text dominant-baseline="central" text-anchor="end" style="font-size:12px" transform="translate(50.748 49.031)" fill="#6E7079">￥4000</text><text dominant-baseline="central" text-anchor="end" style="font-size:12px" transform="translate(50.748 21.1)" fill="#6E7079">￥5000</text><text dominant-baseline="central" text-anchor="middle" style="font-size:12px" transform="rotate(-20 528.195 -130.817)" fill="#6E7079">输单</text><text dominant-baseline="central" text-anchor="middle" style="font-size:12px" transform="rotate(-20 563.848 -333.087)" fill="#6E7079">赢单</text><path d="M64.276 160.757h24.608v-8.91H64.276ZM99.94 160.757h24.606V39.255H99.94Z" fill="#5470c6"/><path d="M135.602 160.757h24.607v-12.15h-24.607ZM171.265 160.757h24.607v-13.072h-24.607Z" fill="#5470C6"/><text dominant-baseline="central" style="font:16px Microsoft YaHei" transform="rotate(-60 168.853 9.06)" fill="#eee" stroke="#5470c6" stroke-width="2" paint-order="stroke" stroke-miterlimit="2">￥319</text><text dominant-baseline="central" style="font:16px Microsoft YaHei" transform="rotate(-60 186.685 -21.825)" fill="#eee" stroke="#5470c6" stroke-width="2" paint-order="stroke" stroke-miterlimit="2">￥4350</text><text dominant-baseline="central" style="font:16px Microsoft YaHei" transform="rotate(-60 204.517 -52.71)" fill="#eee" stroke="#5470C6" stroke-width="2" paint-order="stroke" stroke-miterlimit="2">￥435</text><text dominant-baseline="central" style="font:16px Microsoft YaHei" transform="rotate(-60 222.35 -83.596)" fill="#eee" stroke="#5470C6" stroke-width="2" paint-order="stroke" stroke-miterlimit="2">￥468</text><path d="M101 196h10v10h-10Z" fill="none"/></svg>
