<svg xmlns="http://www.w3.org/2000/svg" baseProfile="full" width="212" height="211" style="position:absolute;left:0;top:0;user-select:none"><path fill="none" d="M0 0h212v211H0z"/><path d="M21.2 10.55h169.6L139.92 69H72.08Z" fill="#5470C6" stroke="#fff" stroke-linejoin="round"/><path d="M72.08 71h67.84l-16.96 58.45H89.04Z" fill="#91CC75" stroke="#fff" stroke-linejoin="round"/><path d="M89.04 131.45h33.92L106 189.9Z" fill="#fac858" stroke="#fff" stroke-linejoin="round"/><text dominant-baseline="central" text-anchor="middle" style="font-size:12px" x="106" y="39.775" fill="#eee" stroke="#5470c6" stroke-width="2" paint-order="stroke" stroke-miterlimit="2">需求发现</text><text dominant-baseline="central" text-anchor="middle" style="font-size:12px" x="106" y="100.225" fill="#333" stroke="#91cc75" stroke-width="2" paint-order="stroke" stroke-miterlimit="2">需求确认</text><text dominant-baseline="central" text-anchor="middle" style="font-size:12px" x="106" y="160.675" fill="#333" stroke="#fac858" stroke-width="2" paint-order="stroke" stroke-miterlimit="2">赢单</text><path d="M17 154h178v52H17Z" fill="none"/><path d="M26.5 160h18a3.5 3.5 0 0 1 3.5 3.5v7a3.5 3.5 0 0 1-3.5 3.5h-18a3.5 3.5 0 0 1-3.5-3.5v-7a3.5 3.5 0 0 1 3.5-3.5" fill="#5470c6" stroke="#fff" stroke-width="2" stroke-miterlimit="10"/><text dominant-baseline="central" style="font-size:12px" x="30" y="7" transform="translate(23 160)" fill="#333">需求发现</text><path d="M115.5 160h18a3.5 3.5 0 0 1 3.5 3.5v7a3.5 3.5 0 0 1-3.5 3.5h-18a3.5 3.5 0 0 1-3.5-3.5v-7a3.5 3.5 0 0 1 3.5-3.5" fill="#91cc75" stroke="#fff" stroke-width="2" stroke-miterlimit="10"/><text dominant-baseline="central" style="font-size:12px" x="30" y="7" transform="translate(112 160)" fill="#333">需求确认</text><path d="M26.5 186h18a3.5 3.5 0 0 1 3.5 3.5v7a3.5 3.5 0 0 1-3.5 3.5h-18a3.5 3.5 0 0 1-3.5-3.5v-7a3.5 3.5 0 0 1 3.5-3.5" fill="#fac858" stroke="#fff" stroke-width="2" stroke-miterlimit="10"/><text dominant-baseline="central" style="font-size:12px" x="30" y="7" transform="translate(23 186)" fill="#333">赢单</text></svg>
