<svg xmlns="http://www.w3.org/2000/svg" baseProfile="full" width="212" height="211" style="position:absolute;left:0;top:0;user-select:none"><path fill="none" d="M0 0h212v211H0z"/><path d="M11.82 146.109a100.225 100.225 0 1 1 188.36 0l-9.396-3.42a90.225 90.225 0 1 0-169.568 0Z" fill="#E6EBF8"/><path d="m24.035 141.663 9.397-3.42" fill="none" stroke="#63677A" stroke-width="3"/><text dominant-baseline="central" style="font-size:12px" x="33.432" y="138.243" fill="#464646">20</text><path d="m24.035 141.663 5.639-2.052M21.988 135.286l5.78-1.613M20.436 128.772l5.886-1.165M19.389 122.158l5.957-.71M18.852 115.483l5.994-.252M18.828 108.786l5.997.21" fill="none" stroke="#63677A"/><path d="m18.828 108.786 9.994.349" fill="none" stroke="#63677A" stroke-width="3"/><text dominant-baseline="central" style="font-size:12px" x="28.822" y="109.135" fill="#464646">20.5</text><path d="m18.828 108.786 5.997.21M19.319 102.107l5.962.669M20.32 95.486l5.894 1.124M21.826 88.96l5.79 1.574M23.829 82.57l5.652 2.013M26.316 76.352l5.481 2.44" fill="none" stroke="#63677A"/><path d="m26.316 76.352 9.136 4.068" fill="none" stroke="#63677A" stroke-width="3"/><text dominant-baseline="central" style="font-size:12px" x="35.451" y="80.42" fill="#464646">21</text><path d="m26.316 76.352 5.481 2.44M29.273 70.344l5.277 2.853M32.682 64.58l5.043 3.25M36.523 59.094l4.779 3.627M40.773 53.919l4.487 3.984M45.408 49.086l4.168 4.316" fill="none" stroke="#63677A"/><path d="m45.408 49.086 6.947 7.193" fill="none" stroke="#63677A" stroke-width="3"/><text dominant-baseline="central" style="font-size:12px" x="52.355" y="56.279" fill="#464646">21.5</text><path d="m45.408 49.086 4.168 4.316M50.4 44.622l3.825 4.623M55.72 40.554l3.46 4.903M61.337 36.907l3.072 5.154M67.217 33.702l2.668 5.374M73.325 30.956l2.248 5.564" fill="none" stroke="#63677A"/><path d="m73.325 30.956 3.746 9.272" fill="none" stroke="#63677A" stroke-width="3"/><text dominant-baseline="central" text-anchor="middle" style="font-size:12px" x="77.071" y="46.228" fill="#464646">22</text><path d="m73.325 30.956 2.248 5.564M79.626 28.688l1.814 5.72M86.082 26.91l1.37 5.841M92.656 25.632l.918 5.93M99.308 24.862l.46 5.982M106 24.605v6" fill="none" stroke="#63677A"/><path d="M106 24.605v10" fill="none" stroke="#63677A" stroke-width="3"/><text dominant-baseline="central" text-anchor="middle" style="font-size:12px" x="106" y="40.605" fill="#464646">22.5</text><path d="M106 24.605v6M112.692 24.862l-.46 5.982M119.344 25.632l-.918 5.93M125.918 26.91l-1.37 5.841M132.374 28.688l-1.814 5.72M138.675 30.956l-2.248 5.564" fill="none" stroke="#63677A"/><path d="m138.675 30.956-3.746 9.272" fill="none" stroke="#63677A" stroke-width="3"/><text dominant-baseline="central" text-anchor="middle" style="font-size:12px" x="134.929" y="46.228" fill="#464646">23</text><path d="m138.675 30.956-2.248 5.564M144.783 33.702l-2.667 5.374M150.663 36.907l-3.072 5.154M156.28 40.554l-3.46 4.903M161.6 44.622l-3.825 4.623M166.592 49.086l-4.168 4.316" fill="none" stroke="#63677A"/><path d="m166.592 49.086-6.947 7.193" fill="none" stroke="#63677A" stroke-width="3"/><text dominant-baseline="central" text-anchor="end" style="font-size:12px" x="159.645" y="56.279" fill="#464646">23.5</text><path d="m166.592 49.086-4.168 4.316M171.227 53.919l-4.487 3.984M175.477 59.094l-4.779 3.627M179.318 64.58l-5.043 3.25M182.727 70.344l-5.278 2.853M185.684 76.352l-5.481 2.44" fill="none" stroke="#63677A"/><path d="m185.684 76.352-9.136 4.068" fill="none" stroke="#63677A" stroke-width="3"/><text dominant-baseline="central" text-anchor="end" style="font-size:12px" x="176.549" y="80.42" fill="#464646">24</text><path d="m185.684 76.352-5.481 2.44M188.171 82.57l-5.652 2.013M190.174 88.96l-5.79 1.574M191.68 95.486l-5.894 1.124M192.681 102.107l-5.962.669M193.172 108.786l-5.996.21" fill="none" stroke="#63677A"/><path d="m193.172 108.786-9.994.349" fill="none" stroke="#63677A" stroke-width="3"/><text dominant-baseline="central" text-anchor="end" style="font-size:12px" x="183.178" y="109.135" fill="#464646">24.5</text><path d="m193.172 108.786-5.996.21M193.149 115.483l-5.995-.252M192.611 122.158l-5.957-.71M191.564 128.772l-5.886-1.165M190.012 135.286l-5.78-1.613M187.965 141.663l-5.638-2.052" fill="none" stroke="#63677A"/><path d="m187.965 141.663-9.397-3.42" fill="none" stroke="#63677A" stroke-width="3"/><text dominant-baseline="central" text-anchor="end" style="font-size:12px" x="178.568" y="138.243" fill="#464646">25</text><text dominant-baseline="central" text-anchor="middle" style="font-size:14px" x="106" y="133.83" fill="#464646">平均值</text><path d="M73.944 142.83h64.112a3 3 0 0 1 3 3v12a3 3 0 0 1-3 3H73.944a3 3 0 0 1-3-3v-12a3 3 0 0 1 3-3" fill="#5470c6"/><text dominant-baseline="central" text-anchor="middle" style="font-size:12px;font-weight:700" x="106" y="151.83" fill="#fff">23.33</text><path d="m98.836 121.454 2.352-13.206 40.713-44.646-31.089 51.81-11.976 6.042" fill="#5470c6"/><text dominant-baseline="central" text-anchor="middle" style="font-size:14px" x="74.35" y="172.05" fill="#464646">计数</text><path d="M47.569 181.05h53.562a3 3 0 0 1 3 3v12a3 3 0 0 1-3 3H47.57a3 3 0 0 1-3-3v-12a3 3 0 0 1 3-3" fill="green"/><text dominant-baseline="central" text-anchor="middle" style="font-size:12px;font-weight:700" x="74.35" y="190.05" fill="#fff">3</text><text dominant-baseline="central" text-anchor="middle" style="font-size:14px" x="137.65" y="172.05" fill="#464646">合计</text><path d="M110.869 181.05h53.562a3 3 0 0 1 3 3v12a3 3 0 0 1-3 3H110.87a3 3 0 0 1-3-3v-12a3 3 0 0 1 3-3" fill="orange"/><text dominant-baseline="central" text-anchor="middle" style="font-size:12px;font-weight:700" x="137.65" y="190.05" fill="#fff">70</text><path d="M116 111.83a10 10 0 1 1 0-.001" fill="#fff" stroke="#5470c6" stroke-width="10"/><path d="M11.82 146.109A100.225 100.225 0 0 1 165.85 31.437l-5.971 8.021a90.225 90.225 0 0 0-138.663 103.23Z" fill="#5470c6"/></svg>
