<svg xmlns="http://www.w3.org/2000/svg" width="212" height="211" viewBox="0 -10 212 211"><path fill="none" d="M0 0h212v211H0z"/><path d="M32.674 152.5H201.4m-168.726-26H201.4m-168.726-26H201.4m-168.726-27H201.4m-168.726-26H201.4m-168.726-26H201.4" fill="none" stroke="#E0E6F1"/><text dominant-baseline="central" text-anchor="middle" style="font-size:12px" y="-6" transform="translate(32.674 6.1)" fill="#6E7079">价格（元）
  </text><path d="M32.674 152.5H201.4" fill="none" stroke="#6E7079" stroke-linecap="round"/><path d="M32.5 152.548v5m85-5v5m84-5v5" fill="none" stroke="#6E7079"/><text dominant-baseline="central" text-anchor="end" style="font-size:12px" transform="translate(24.674 152.548)" fill="#6E7079">0
  </text><text dominant-baseline="central" text-anchor="end" style="font-size:12px" transform="translate(24.674 126.259)" fill="#6E7079">5
  </text><text dominant-baseline="central" text-anchor="end" style="font-size:12px" transform="translate(24.674 99.969)" fill="#6E7079">10
  </text><text dominant-baseline="central" text-anchor="end" style="font-size:12px" transform="translate(24.674 73.68)" fill="#6E7079">15
  </text><text dominant-baseline="central" text-anchor="end" style="font-size:12px" transform="translate(24.674 47.39)" fill="#6E7079">20
  </text><text dominant-baseline="central" text-anchor="end" style="font-size:12px" transform="translate(24.674 21.1)" fill="#6E7079">25
  </text><text dominant-baseline="central" text-anchor="middle" style="font-size:12px" transform="rotate(-20 482.97 -10.409)" fill="#6E7079">黑椒牛仔骨
  </text><text dominant-baseline="central" text-anchor="middle" style="font-size:12px" transform="rotate(-20 525.14 -249.651)" fill="#6E7079">高美水晶虾饺
  </text><text dominant-baseline="central" text-anchor="middle" style="font-size:12px" xml:space="preserve" transform="rotate(-20 567.309 -488.893)" fill="#6E7079"> 清蒸排骨</text><g clip-path="url(#a)"><path d="M32.674 21.1h84.363L201.4 47.39" fill="none" stroke="#5470C6" stroke-width="2" stroke-linejoin="bevel"/></g><path d="M101 196h10v10h-10Z" fill="none"/><defs><clipPath id="a"><path d="M31 20.1h171v133.448H31Z"/></clipPath></defs></svg>
