<svg xmlns="http://www.w3.org/2000/svg" baseProfile="full" width="212" height="211" style="position:absolute;left:0;top:0;user-select:none"><path fill="none" d="M0 0h212v211H0z"/><path d="M106 11.183a92.207 92.207 0 1 1-79.854 138.31l75.651-43.676a4.853 4.853 0 1 0 4.203-7.28Z" fill="#5470c6" stroke="#fff" stroke-linejoin="round"/><path d="M26.146 149.494a92.207 92.207 0 0 1 0-92.208l75.651 43.677a4.853 4.853 0 0 0 0 4.854Z" fill="#91cc75" stroke="#fff" stroke-linejoin="round"/><path d="M26.146 57.286A92.207 92.207 0 0 1 106 11.183v87.354a4.853 4.853 0 0 0-4.203 2.426Z" fill="#fac858" stroke="#fff" stroke-linejoin="round"/><text dominant-baseline="central" text-anchor="middle" style="font-size:12px" y="-12" transform="translate(150.626 129.155)" fill="#eee" stroke="#5470c6" stroke-width="2" paint-order="stroke" stroke-miterlimit="2">进行中</text><text dominant-baseline="central" text-anchor="middle" style="font-size:12px" transform="translate(150.626 129.155)" fill="#eee" stroke="#5470c6" stroke-width="2" paint-order="stroke" stroke-miterlimit="2">(66.66%)</text><text dominant-baseline="central" text-anchor="middle" style="font-size:12px" y="12" transform="translate(150.626 129.155)" fill="#eee" stroke="#5470c6" stroke-width="2" paint-order="stroke" stroke-miterlimit="2">4</text><text dominant-baseline="central" text-anchor="middle" style="font-size:12px" y="-12" transform="translate(54.47 103.39)" fill="#333">赢单</text><text dominant-baseline="central" text-anchor="middle" style="font-size:12px" transform="translate(54.47 103.39)" fill="#333">(16.67%)</text><text dominant-baseline="central" text-anchor="middle" style="font-size:12px" y="12" transform="translate(54.47 103.39)" fill="#333">1</text><text dominant-baseline="central" text-anchor="middle" style="font-size:12px" y="-12" transform="translate(80.235 58.764)" fill="#333">输单</text><text dominant-baseline="central" text-anchor="middle" style="font-size:12px" transform="translate(80.235 58.764)" fill="#333">(16.67%)</text><text dominant-baseline="central" text-anchor="middle" style="font-size:12px" y="12" transform="translate(80.235 58.764)" fill="#333">1</text><path d="M2.5 180h207v26H2.5Z" fill="none"/><path d="M12 186h18a3.5 3.5 0 0 1 3.5 3.5v7A3.5 3.5 0 0 1 30 200H12a3.5 3.5 0 0 1-3.5-3.5v-7A3.5 3.5 0 0 1 12 186" fill="#5470c6" stroke="#fff" stroke-width="2" stroke-miterlimit="10" stroke-linejoin="round"/><text dominant-baseline="central" style="font-size:12px" x="30" y="7" transform="translate(8.5 186)" fill="#333">进行中</text><path d="M89 186h18a3.5 3.5 0 0 1 3.5 3.5v7a3.5 3.5 0 0 1-3.5 3.5H89a3.5 3.5 0 0 1-3.5-3.5v-7A3.5 3.5 0 0 1 89 186" fill="#91cc75" stroke="#fff" stroke-width="2" stroke-miterlimit="10" stroke-linejoin="round"/><text dominant-baseline="central" style="font-size:12px" x="30" y="7" transform="translate(85.5 186)" fill="#333">赢单</text><path d="M154 186h18a3.5 3.5 0 0 1 3.5 3.5v7a3.5 3.5 0 0 1-3.5 3.5h-18a3.5 3.5 0 0 1-3.5-3.5v-7a3.5 3.5 0 0 1 3.5-3.5" fill="#fac858" stroke="#fff" stroke-width="2" stroke-miterlimit="10" stroke-linejoin="round"/><text dominant-baseline="central" style="font-size:12px" x="30" y="7" transform="translate(150.5 186)" fill="#333">输单</text></svg>
