<svg version="1.1" xmlns="http://www.w3.org/2000/svg" viewBox="0 0 677 597" width="677" height="597">
  <!-- svg-source:excalidraw -->
  
  <defs>
    <style class="style-fonts">
      @font-face {
        font-family: "Virgil";
        src: url("https://excalidraw.com/Virgil.woff2");
      }
      @font-face {
        font-family: "Cascadia";
        src: url("https://excalidraw.com/Cascadia.woff2");
      }
    </style>
    
  </defs>
  <rect x="0" y="0" width="677" height="597" fill="#ffffff"></rect><g transform="translate(98 78) rotate(0 42.48998260498047 12.5)"><text x="0" y="0" font-family="Virgil, Segoe UI Emoji" font-size="20px" fill="#1e1e1e" text-anchor="start" style="white-space: pre;" direction="ltr" dominant-baseline="text-before-edge">APP应用1</text></g><g stroke-linecap="round" transform="translate(57 27) rotate(0 83.5 62)"><path d="M31 0 M31 0 C54.7 0.09, 75.95 0, 136 0 M31 0 C69.12 1.14, 109.11 0.3, 136 0 M136 0 C156.96 0.7, 165.23 8.78, 167 31 M136 0 C154.39 0.72, 165.91 10.65, 167 31 M167 31 C167.85 47.19, 168.01 61.83, 167 93 M167 31 C167.52 50.55, 167.46 70.79, 167 93 M167 93 C168.42 113.85, 156.5 124.11, 136 124 M167 93 C167.16 115, 155.08 124.32, 136 124 M136 124 C97.39 122.76, 63.16 123.87, 31 124 M136 124 C111.65 122.62, 87.78 123.76, 31 124 M31 124 C9.77 125.97, 0.86 113.87, 0 93 M31 124 C9.97 123.67, -2.05 111.64, 0 93 M0 93 C-0.98 77.22, -0.53 58.54, 0 31 M0 93 C1.02 76.33, 0.63 59.11, 0 31 M0 31 C-1.54 9.06, 11.76 1.71, 31 0 M0 31 C1.31 9.44, 9.24 -1.53, 31 0" stroke="#1e1e1e" stroke-width="1" fill="none"></path></g><g transform="translate(281.5 77) rotate(0 46.89997863769531 12.5)"><text x="0" y="0" font-family="Virgil, Segoe UI Emoji" font-size="20px" fill="#1e1e1e" text-anchor="start" style="white-space: pre;" direction="ltr" dominant-baseline="text-before-edge">APP应用2</text></g><g stroke-linecap="round" transform="translate(244.5 26) rotate(0 83.5 62)"><path d="M31 0 M31 0 C70.76 1.63, 109.17 1.2, 136 0 M31 0 C63.9 -0.02, 95.98 0.13, 136 0 M136 0 C155.73 -1.31, 168.01 9.24, 167 31 M136 0 C157.34 1.03, 165.12 10.59, 167 31 M167 31 C168.74 51.14, 168.47 74.44, 167 93 M167 31 C167.59 43.16, 166.13 56.43, 167 93 M167 93 C167.85 114.14, 156.13 125.38, 136 124 M167 93 C165.56 115.76, 156.45 122.86, 136 124 M136 124 C103.16 123.53, 68.09 124.38, 31 124 M136 124 C95.93 125.07, 56.91 125.16, 31 124 M31 124 C11.24 124.17, 0.6 114.21, 0 93 M31 124 C8.42 126.23, 0.76 114.05, 0 93 M0 93 C-1.54 68.42, 2.25 45.08, 0 31 M0 93 C0.13 75.19, -0.75 57.53, 0 31 M0 31 C1.17 8.67, 10.62 -0.3, 31 0 M0 31 C-1.38 9.93, 12.14 -2.21, 31 0" stroke="#1e1e1e" stroke-width="1" fill="none"></path></g><g transform="translate(477.5 74) rotate(0 40 12.5)"><text x="0" y="0" font-family="Virgil, Segoe UI Emoji" font-size="20px" fill="#1e1e1e" text-anchor="start" style="white-space: pre;" direction="ltr" dominant-baseline="text-before-edge">开发后台</text></g><g stroke-linecap="round" transform="translate(434.5 25) rotate(0 83.5 62)"><path d="M31 0 M31 0 C57.32 1.97, 87.78 1.82, 136 0 M31 0 C69.36 -0.5, 106.5 0.66, 136 0 M136 0 C155.28 0.1, 168.52 9.24, 167 31 M136 0 C155.05 2.26, 168.36 12.47, 167 31 M167 31 C165.03 49.35, 166.7 65.33, 167 93 M167 31 C168.09 50.5, 167.36 69.33, 167 93 M167 93 C167.48 112.04, 155.26 122.67, 136 124 M167 93 C168.8 113.4, 157.42 123.01, 136 124 M136 124 C95.59 121.85, 56.53 125.01, 31 124 M136 124 C103.09 122.65, 72.01 124.06, 31 124 M31 124 C8.69 123.84, 0.43 112.72, 0 93 M31 124 C8.64 121.76, 1.06 113.8, 0 93 M0 93 C0.61 67.15, -0.08 43.78, 0 31 M0 93 C-0.23 75.93, -1.04 59.78, 0 31 M0 31 C-0.23 10.61, 11.88 -0.89, 31 0 M0 31 C-0.74 11.3, 9.89 -0.7, 31 0" stroke="#1e1e1e" stroke-width="1" fill="none"></path></g><g stroke-linecap="round" transform="translate(10 10) rotate(0 319 79.5)"><path d="M32 0 M32 0 C208.14 1.89, 383.36 0.84, 606 0 M606 0 C627.62 0.76, 639.5 10.1, 638 32 M638 32 C636.45 67.89, 636.26 103.36, 638 127 M638 127 C638.91 147.64, 626.47 157.36, 606 159 M606 159 C438.79 159.47, 271.53 159.73, 32 159 M32 159 C10.26 159.04, 0.18 146.97, 0 127 M0 127 C-0.07 102.19, 0.31 78.94, 0 32 M0 32 C0.96 10.87, 11.38 -1.58, 32 0" stroke="#1e1e1e" stroke-width="1.5" fill="none" stroke-dasharray="8 9"></path></g><g stroke-linecap="round" transform="translate(232.5 285) rotate(0 92 62)"><path d="M7.6 7.93 C7.6 7.93, 7.6 7.93, 7.6 7.93 M7.6 7.93 C7.6 7.93, 7.6 7.93, 7.6 7.93 M7.33 14.33 C10.04 11.33, 14.38 5.98, 17.83 2.25 M7.33 14.33 C11.55 10.24, 13.83 6.66, 17.83 2.25 M2.48 26.01 C8.69 20.02, 14.75 13.35, 24.13 1.1 M2.48 26.01 C9.39 17.91, 16.52 10.76, 24.13 1.1 M2.87 31.65 C14.34 20.06, 21.58 5.62, 29.77 0.71 M2.87 31.65 C11.23 22.31, 19.1 12.62, 29.77 0.71 M2.61 38.05 C9.41 29.62, 19.36 20.17, 33.45 2.58 M2.61 38.05 C9.39 28.65, 17.67 21.01, 33.45 2.58 M3.01 43.69 C14.01 33.06, 23.38 18.66, 39.09 2.18 M3.01 43.69 C12.94 32.47, 23.93 20.66, 39.09 2.18 M2.75 50.09 C13.68 37.66, 26.05 22.12, 44.08 2.54 M2.75 50.09 C12.34 40.51, 21.36 29.55, 44.08 2.54 M2.49 56.49 C13.2 42.67, 22.03 30.43, 49.72 2.15 M2.49 56.49 C13.53 44.69, 23.6 31.58, 49.72 2.15 M2.88 62.13 C17.48 47.11, 29.59 32.34, 54.71 2.51 M2.88 62.13 C16.99 46.55, 30.17 30.9, 54.71 2.51 M2.62 68.53 C17.76 50.77, 34.94 31.08, 60.35 2.11 M2.62 68.53 C17.74 50.68, 33.78 33.23, 60.35 2.11 M3.01 74.17 C25.82 45.05, 52.29 19.2, 65.34 2.47 M3.01 74.17 C21.3 53.63, 40.22 32.01, 65.34 2.47 M2.75 80.57 C23.25 53.55, 45.38 30.46, 70.98 2.08 M2.75 80.57 C19.33 60.82, 36.29 40.7, 70.98 2.08 M2.49 86.97 C22.07 65.81, 40.17 42.99, 75.97 2.44 M2.49 86.97 C21.79 66.57, 40.82 45.22, 75.97 2.44 M2.88 92.61 C32.91 55.97, 64.37 21.57, 81.61 2.04 M2.88 92.61 C31.33 59.58, 60.23 26.05, 81.61 2.04 M1.31 100.52 C25.55 74.46, 49.07 44.56, 86.6 2.4 M1.31 100.52 C31.67 67.41, 61.57 31.7, 86.6 2.4 M2.36 105.4 C37.06 64.74, 69.49 25.86, 92.24 2.01 M2.36 105.4 C38.25 65.46, 71.47 26.85, 92.24 2.01 M4.07 109.54 C25.21 87.49, 46.31 61.48, 97.23 2.37 M4.07 109.54 C25.06 85.6, 46.58 59.32, 97.23 2.37 M5.77 113.67 C41.79 73.33, 72.97 34.72, 102.87 1.97 M5.77 113.67 C42.47 72.14, 80.74 29.53, 102.87 1.97 M8.79 116.3 C40.18 80.64, 70.81 42.7, 107.86 2.33 M8.79 116.3 C45.94 72.17, 84.34 29.55, 107.86 2.33 M11.81 118.92 C52.28 75.78, 89.18 28.33, 112.85 2.69 M11.81 118.92 C33.23 96.68, 54.33 72.27, 112.85 2.69 M14.83 121.54 C46.39 82.13, 81.77 45.12, 118.49 2.3 M14.83 121.54 C50.76 79.26, 86.74 37.33, 118.49 2.3 M18.51 123.41 C55.24 77.26, 93.41 37.37, 123.48 2.66 M18.51 123.41 C44.18 93.55, 70.03 65.15, 123.48 2.66 M22.84 124.53 C55.64 84.77, 87.84 48.51, 129.12 2.27 M22.84 124.53 C56.75 84.79, 91.99 44.76, 129.12 2.27 M26.51 126.4 C62.53 79.73, 102.63 38.03, 134.11 2.63 M26.51 126.4 C51.99 97.65, 77.01 68.28, 134.11 2.63 M32.81 125.25 C57.86 98.84, 80.69 70.59, 139.75 2.23 M32.81 125.25 C67.61 84.01, 104.23 41.83, 139.75 2.23 M37.8 125.61 C66 92.38, 95.15 59.46, 144.74 2.59 M37.8 125.61 C64.25 93.58, 93.11 62.56, 144.74 2.59 M43.44 125.21 C76.89 83.79, 108.94 46.24, 150.38 2.2 M43.44 125.21 C70.89 95.27, 98.37 63.11, 150.38 2.2 M48.43 125.57 C88.57 80.32, 127.48 32.83, 155.37 2.56 M48.43 125.57 C86.11 84.34, 122.66 42.96, 155.37 2.56 M54.07 125.18 C93.96 78, 135.47 32.41, 161.67 1.41 M54.07 125.18 C78.26 98.62, 102.71 69.64, 161.67 1.41 M59.06 125.54 C98.4 79.83, 137.63 34.09, 165.34 3.28 M59.06 125.54 C89.02 93.2, 116.94 62.3, 165.34 3.28 M64.7 125.14 C93.59 93.84, 117.75 63.31, 169.67 4.39 M64.7 125.14 C87.21 98.87, 110.77 74.51, 169.67 4.39 M69.69 125.51 C106.95 83.66, 144.06 40.02, 173.35 6.26 M69.69 125.51 C105.47 84.22, 141.46 42.27, 173.35 6.26 M75.33 125.11 C107.73 86.41, 142.04 46.23, 176.36 8.89 M75.33 125.11 C100.16 98.78, 124.17 70.67, 176.36 8.89 M80.32 125.47 C102.07 99.9, 124.05 75.27, 179.38 11.51 M80.32 125.47 C105.33 95.28, 131.74 66.05, 179.38 11.51 M85.96 125.08 C110.73 93.46, 141.36 61.78, 182.4 14.13 M85.96 125.08 C120.53 81.85, 158.1 40.6, 182.4 14.13 M90.95 125.44 C114.96 97.6, 140.36 69.28, 183.45 19.02 M90.95 125.44 C111.55 101.23, 132.7 76.82, 183.45 19.02 M95.94 125.8 C118.09 95.17, 142.69 68.6, 183.85 24.67 M95.94 125.8 C125.24 91.65, 155.28 56.23, 183.85 24.67 M101.58 125.4 C134.11 87.76, 168.31 48.59, 184.24 30.31 M101.58 125.4 C119.7 104.94, 135.95 85.78, 184.24 30.31 M106.57 125.76 C123.7 108.33, 138.43 86.9, 183.98 36.71 M106.57 125.76 C128.17 98.98, 150.92 74.05, 183.98 36.71 M112.21 125.37 C133.53 95.66, 159.77 68.64, 184.38 42.35 M112.21 125.37 C134.74 99.66, 155.95 75.15, 184.38 42.35 M117.2 125.73 C131.78 109.12, 150.2 89.74, 184.11 48.75 M117.2 125.73 C132.5 107.78, 148.61 91.12, 184.11 48.75 M122.84 125.33 C146.61 99.89, 169.17 71.6, 184.51 54.39 M122.84 125.33 C147.83 98.02, 171.47 71.61, 184.51 54.39 M127.83 125.69 C144.27 106.66, 158.26 89.86, 184.25 60.79 M127.83 125.69 C140.67 111.28, 153.7 96.99, 184.25 60.79 M133.47 125.3 C144.31 112.44, 154.76 97.4, 184.64 66.43 M133.47 125.3 C146.42 111.85, 159.69 96.38, 184.64 66.43 M138.46 125.66 C152.9 110.96, 168.2 92.04, 184.38 72.83 M138.46 125.66 C154.54 107.27, 171.77 87, 184.38 72.83 M144.1 125.26 C151.76 116.57, 163.48 105.17, 184.77 78.47 M144.1 125.26 C153.68 114.26, 162.99 101.97, 184.77 78.47 M149.09 125.62 C155.97 118.31, 163.08 108.76, 184.51 84.87 M149.09 125.62 C156.79 116.64, 164.32 108.12, 184.51 84.87 M154.73 125.23 C162.88 115.15, 171.84 104.73, 184.91 90.51 M154.73 125.23 C163.09 115.09, 170.63 105.28, 184.91 90.51 M160.37 124.83 C165 118.25, 173.57 113.65, 186.61 94.65 M160.37 124.83 C169.89 114.06, 179.14 103.74, 186.61 94.65 M167.33 122.93 C174.53 117.95, 180.23 111.35, 185.7 101.8 M167.33 122.93 C174.79 115.41, 182.21 107.77, 185.7 101.8" stroke="#b2f2bb" stroke-width="0.5" fill="none"></path><path d="M31 0 M31 0 C78.97 -0.28, 126.72 0.53, 153 0 M31 0 C62.8 0.36, 93.31 -1.21, 153 0 M153 0 C172.53 -1.58, 182.72 8.42, 184 31 M153 0 C174.45 0.3, 185.37 11.56, 184 31 M184 31 C184.97 49.93, 184.77 69.36, 184 93 M184 31 C183.43 52.14, 182.68 73.96, 184 93 M184 93 C185.94 113.35, 174.74 123.67, 153 124 M184 93 C184.35 114.95, 171.76 124.03, 153 124 M153 124 C118.03 125.73, 81.42 124.5, 31 124 M153 124 C111.99 122.74, 72.74 122.76, 31 124 M31 124 C9.08 122.98, -1.78 112.46, 0 93 M31 124 C11.89 123.4, -2.23 111.45, 0 93 M0 93 C0.37 79.15, 0.78 64.73, 0 31 M0 93 C0.24 72.81, -0.87 54.85, 0 31 M0 31 C1.11 8.44, 10 0.24, 31 0 M0 31 C0.79 9.77, 8.17 -1.06, 31 0" stroke="#1e1e1e" stroke-width="1" fill="none"></path></g><g transform="translate(245.5 336) rotate(0 80 12.5)"><text x="0" y="0" font-family="Virgil, Segoe UI Emoji" font-size="20px" fill="#1e1e1e" text-anchor="start" style="white-space: pre;" direction="ltr" dominant-baseline="text-before-edge">统一用户登录系统</text></g><g stroke-linecap="round" transform="translate(40.5 284) rotate(0 83.5 62)"><path d="M7.6 7.93 C7.6 7.93, 7.6 7.93, 7.6 7.93 M7.6 7.93 C7.6 7.93, 7.6 7.93, 7.6 7.93 M7.33 14.33 C9.99 11.22, 15.1 6.19, 17.83 2.25 M7.33 14.33 C10.28 11.84, 12.19 8.7, 17.83 2.25 M2.48 26.01 C5.59 19.44, 12.36 13.26, 24.13 1.1 M2.48 26.01 C10.14 17.07, 17.39 7.35, 24.13 1.1 M2.87 31.65 C11.06 22.92, 17.6 11.87, 29.77 0.71 M2.87 31.65 C11.13 23.87, 18.59 15.52, 29.77 0.71 M2.61 38.05 C11.73 26.26, 23.38 14.79, 33.45 2.58 M2.61 38.05 C13.27 25.48, 23.75 13.96, 33.45 2.58 M3.01 43.69 C17.37 29.04, 28.16 13.73, 39.09 2.18 M3.01 43.69 C13.55 32.71, 21.82 22.67, 39.09 2.18 M2.75 50.09 C12.5 35.74, 24.2 25.07, 44.08 2.54 M2.75 50.09 C11.97 38.04, 22.78 26.37, 44.08 2.54 M2.49 56.49 C15.26 44.45, 23.96 28.58, 49.72 2.15 M2.49 56.49 C17.32 40.06, 29.81 24.95, 49.72 2.15 M2.88 62.13 C13.77 46.21, 26.47 35.49, 54.71 2.51 M2.88 62.13 C18.25 46.63, 32.55 29.43, 54.71 2.51 M2.62 68.53 C24.45 43.91, 43.91 20.67, 60.35 2.11 M2.62 68.53 C23.69 44.12, 46.31 20.26, 60.35 2.11 M3.01 74.17 C20.83 54.05, 34.54 34.27, 65.34 2.47 M3.01 74.17 C21.76 54.73, 38.57 33.99, 65.34 2.47 M2.75 80.57 C26.25 53.11, 52.37 27.01, 70.98 2.08 M2.75 80.57 C28.63 50.17, 54.77 21.53, 70.98 2.08 M2.49 86.97 C19.22 64.12, 42.11 42.39, 75.97 2.44 M2.49 86.97 C21.56 64.6, 42.18 42.18, 75.97 2.44 M2.88 92.61 C27.13 62.04, 54.82 33.03, 81.61 2.04 M2.88 92.61 C28.38 64.01, 53.49 35.04, 81.61 2.04 M1.31 100.52 C31.08 64.23, 65.74 27.04, 86.6 2.4 M1.31 100.52 C24.03 74.45, 46.11 47.86, 86.6 2.4 M2.36 105.4 C21 84.16, 37.8 64.55, 92.24 2.01 M2.36 105.4 C29.34 75.01, 55.34 42.84, 92.24 2.01 M4.07 109.54 C39.95 68.75, 76.14 25.65, 97.23 2.37 M4.07 109.54 C31.76 78.5, 60.46 45.73, 97.23 2.37 M5.77 113.67 C42.39 67.17, 82.91 23.85, 102.87 1.97 M5.77 113.67 C39.3 77.04, 70.57 40.56, 102.87 1.97 M8.14 117.05 C43.13 76.91, 75.85 39.38, 107.86 2.33 M8.14 117.05 C30.22 92.6, 52.12 68.74, 107.86 2.33 M11.81 118.92 C42.63 83.59, 74.98 45.95, 112.85 2.69 M11.81 118.92 C44.05 83.6, 73.82 48.32, 112.85 2.69 M15.49 120.79 C48.16 82.62, 80.84 44.16, 118.49 2.3 M15.49 120.79 C39.61 92.96, 65.06 64.24, 118.49 2.3 M18.51 123.41 C46.48 88.87, 75.16 56.59, 123.48 2.66 M18.51 123.41 C43.97 94.7, 71.33 64.27, 123.48 2.66 M23.49 123.77 C50.51 93.53, 75.76 62.84, 129.12 2.27 M23.49 123.77 C66.18 75, 108.08 26.48, 129.12 2.27 M27.82 124.89 C65.76 81.32, 102.44 37.06, 136.07 0.36 M27.82 124.89 C58.97 90.85, 88.12 56.27, 136.07 0.36 M32.81 125.25 C66.69 86.1, 101.46 44.18, 141.06 0.72 M32.81 125.25 C71.33 81.28, 110.75 37.74, 141.06 0.72 M37.8 125.61 C79.13 80.62, 120.22 32.73, 145.39 1.84 M37.8 125.61 C78.34 78.36, 121.1 29.02, 145.39 1.84 M43.44 125.21 C80.38 83.79, 117.05 38.66, 150.38 2.2 M43.44 125.21 C80.42 82.87, 117.21 40.91, 150.38 2.2 M48.43 125.57 C81.87 83.23, 119.6 44.11, 153.4 4.82 M48.43 125.57 C83.22 85.71, 116.92 46.2, 153.4 4.82 M54.07 125.18 C95.57 79.37, 135.43 28.52, 157.07 6.69 M54.07 125.18 C75.07 99.01, 97.57 73.28, 157.07 6.69 M59.06 125.54 C94.78 84.67, 126.89 42.69, 160.75 8.56 M59.06 125.54 C89.68 88.98, 122.51 51.58, 160.75 8.56 M64.7 125.14 C101.28 81.77, 140.71 36.3, 162.45 12.69 M64.7 125.14 C85.57 99.85, 107.67 75.65, 162.45 12.69 M69.69 125.51 C96.73 97.92, 121.04 67.03, 164.82 16.07 M69.69 125.51 C95.47 96.16, 122.58 65.66, 164.82 16.07 M75.33 125.11 C104.82 92.63, 131.29 60.37, 167.18 19.45 M75.33 125.11 C94.53 103.07, 114.5 79.87, 167.18 19.45 M80.32 125.47 C106.21 93.29, 134.34 61.86, 168.23 24.34 M80.32 125.47 C101.13 102.04, 122.01 76.49, 168.23 24.34 M85.96 125.08 C114.37 91.05, 141.01 58.9, 167.31 31.49 M85.96 125.08 C107.24 102.84, 126.17 78.91, 167.31 31.49 M90.95 125.44 C109.8 106.33, 124.72 86.33, 167.05 37.89 M90.95 125.44 C117.76 96.24, 142.46 66, 167.05 37.89 M95.94 125.8 C124.25 97.53, 149.57 64.31, 167.45 43.53 M95.94 125.8 C123.66 93.42, 150.41 60.89, 167.45 43.53 M101.58 125.4 C126.08 97.79, 148.49 71.14, 167.18 49.93 M101.58 125.4 C115.42 109.34, 129.47 93.51, 167.18 49.93 M106.57 125.76 C122.58 107.05, 138.42 86.62, 166.92 56.33 M106.57 125.76 C123.56 104.4, 141.24 83.06, 166.92 56.33 M112.21 125.37 C129.17 107.61, 148.44 86.87, 167.32 61.97 M112.21 125.37 C134.48 99.91, 157.11 74.67, 167.32 61.97 M117.2 125.73 C130.41 113.78, 141.67 100.65, 167.06 68.37 M117.2 125.73 C129.71 112.22, 142.41 97.93, 167.06 68.37 M122.84 125.33 C137.38 109.53, 152.69 90.95, 166.8 74.77 M122.84 125.33 C138.58 107.65, 152.2 89.51, 166.8 74.77 M127.83 125.69 C137.51 116.32, 146.72 107.1, 167.19 80.41 M127.83 125.69 C140.28 112.05, 152.07 98.72, 167.19 80.41 M133.47 125.3 C144.94 112.63, 154.81 101.01, 166.93 86.81 M133.47 125.3 C146.65 109.99, 160.65 93.73, 166.93 86.81 M138.46 125.66 C146.64 117.22, 157.4 107.01, 166.67 93.21 M138.46 125.66 C147.27 114.42, 156.66 104.88, 166.67 93.21 M144.1 125.26 C148.03 117.8, 156.71 112.11, 167.06 98.85 M144.1 125.26 C149.77 119.41, 154.09 115.27, 167.06 98.85 M151.05 123.36 C156.5 119.09, 162.07 109.64, 165.49 106.76 M151.05 123.36 C153.25 119.39, 157.55 116.19, 165.49 106.76" stroke="#ffc9c9" stroke-width="0.5" fill="none"></path><path d="M31 0 M31 0 C61.09 -0.1, 86.98 0.94, 136 0 M31 0 C63.26 -1.02, 96.83 -1.99, 136 0 M136 0 C157.56 -1.78, 167.99 11.24, 167 31 M136 0 C157.06 0.99, 165.18 9.12, 167 31 M167 31 C165.17 45.44, 166.14 61.18, 167 93 M167 31 C166.52 53.12, 167.42 75.69, 167 93 M167 93 C166.31 115.46, 158.42 122.7, 136 124 M167 93 C166.83 113.49, 155.19 125.42, 136 124 M136 124 C108.41 124.73, 80.88 125.58, 31 124 M136 124 C99.3 124.51, 61.55 124.88, 31 124 M31 124 C8.69 125.38, -1.19 114.06, 0 93 M31 124 C9.22 126.09, -1.28 115.63, 0 93 M0 93 C1.48 69.36, 1.06 46.89, 0 31 M0 93 C-0.8 78.48, -0.51 64.89, 0 31 M0 31 C0.22 11.57, 11.42 1.81, 31 0 M0 31 C2.2 10.11, 8.57 0.25, 31 0" stroke="#1e1e1e" stroke-width="1" fill="none"></path></g><g transform="translate(83.5 335) rotate(0 40 12.5)"><text x="0" y="0" font-family="Virgil, Segoe UI Emoji" font-size="20px" fill="#1e1e1e" text-anchor="start" style="white-space: pre;" direction="ltr" dominant-baseline="text-before-edge">日志服务</text></g><g stroke-linecap="round" transform="translate(441.5 282.75) rotate(0 83.5 62)"><path d="M7.6 7.93 C7.6 7.93, 7.6 7.93, 7.6 7.93 M7.6 7.93 C7.6 7.93, 7.6 7.93, 7.6 7.93 M7.33 14.33 C11.53 9.51, 15.33 5.72, 17.83 2.25 M7.33 14.33 C10.12 9.57, 14.37 6.41, 17.83 2.25 M2.48 26.01 C10.56 18.29, 15.25 11.41, 24.13 1.1 M2.48 26.01 C11.22 16.87, 19.24 5.15, 24.13 1.1 M2.87 31.65 C7.78 23.8, 14.47 16.41, 29.77 0.71 M2.87 31.65 C12.66 21.04, 20.36 9.66, 29.77 0.71 M2.61 38.05 C10.64 27.7, 21.32 16.14, 33.45 2.58 M2.61 38.05 C13.79 24.49, 26.31 10.04, 33.45 2.58 M3.01 43.69 C10.12 32.86, 19.56 24.46, 39.09 2.18 M3.01 43.69 C13.51 33.29, 22.63 21.33, 39.09 2.18 M2.75 50.09 C13.27 38.76, 26.27 25.16, 44.08 2.54 M2.75 50.09 C16.04 35.52, 27.84 21.04, 44.08 2.54 M2.49 56.49 C11.84 46.38, 23.17 32.91, 49.72 2.15 M2.49 56.49 C16.43 39.23, 31.49 22.36, 49.72 2.15 M2.88 62.13 C14.82 49.33, 27.05 32.21, 54.71 2.51 M2.88 62.13 C20.85 40.67, 38.05 20.13, 54.71 2.51 M2.62 68.53 C18.4 53.97, 30.39 35.86, 60.35 2.11 M2.62 68.53 C16.42 53.75, 28.43 38.52, 60.35 2.11 M3.01 74.17 C25.76 50.19, 44.86 24.56, 65.34 2.47 M3.01 74.17 C27.18 48.9, 49.63 21.03, 65.34 2.47 M2.75 80.57 C29.78 49.43, 54.21 17.81, 70.98 2.08 M2.75 80.57 C27.26 52.64, 50.85 25.06, 70.98 2.08 M2.49 86.97 C17.59 68.67, 33.53 51.02, 75.97 2.44 M2.49 86.97 C22.32 63.81, 42.27 39.75, 75.97 2.44 M2.88 92.61 C24.7 64.49, 47.45 36.32, 81.61 2.04 M2.88 92.61 C27 65.39, 52.79 36.44, 81.61 2.04 M1.31 100.52 C35.84 61.11, 71.16 22.08, 86.6 2.4 M1.31 100.52 C22.32 78.22, 41.76 55.76, 86.6 2.4 M2.36 105.4 C25.04 81.23, 47.99 55.47, 92.24 2.01 M2.36 105.4 C31.66 71.53, 61.71 36.48, 92.24 2.01 M4.07 109.54 C37.34 72.04, 66.4 33.68, 97.23 2.37 M4.07 109.54 C25.7 86.86, 46.56 63.55, 97.23 2.37 M5.77 113.67 C36.26 79.98, 65.39 46.94, 102.87 1.97 M5.77 113.67 C39.54 76.62, 71.8 39.37, 102.87 1.97 M8.14 117.05 C47.58 71.27, 88.62 23.77, 107.86 2.33 M8.14 117.05 C38.06 83.6, 69.23 48.82, 107.86 2.33 M11.81 118.92 C44.23 79.36, 77.97 43.07, 112.85 2.69 M11.81 118.92 C36.04 90.77, 62 63.06, 112.85 2.69 M15.49 120.79 C39.05 96.09, 59.27 74.48, 118.49 2.3 M15.49 120.79 C51.94 78.6, 89.44 33.94, 118.49 2.3 M18.51 123.41 C39.44 95.46, 65.08 69.45, 123.48 2.66 M18.51 123.41 C49.14 90.33, 76.55 57.57, 123.48 2.66 M23.49 123.77 C55.24 84.37, 89.4 44.03, 129.12 2.27 M23.49 123.77 C61.45 81.52, 97.86 38.65, 129.12 2.27 M27.82 124.89 C55.96 93.95, 80.6 64.14, 136.07 0.36 M27.82 124.89 C52.33 96.02, 77.45 68.13, 136.07 0.36 M32.81 125.25 C77.45 74.14, 118.02 26.43, 141.06 0.72 M32.81 125.25 C57.31 96.44, 82.98 67.29, 141.06 0.72 M37.8 125.61 C68.03 91, 99.36 53.1, 145.39 1.84 M37.8 125.61 C64.65 95.74, 90.37 65.69, 145.39 1.84 M43.44 125.21 C87.33 75.62, 126.67 29.47, 150.38 2.2 M43.44 125.21 C70.87 93.04, 100.93 58.88, 150.38 2.2 M48.43 125.57 C72.95 99.31, 98.12 71.91, 153.4 4.82 M48.43 125.57 C90.17 79.15, 132.53 31.21, 153.4 4.82 M54.07 125.18 C92.26 81.07, 130.18 37.39, 157.07 6.69 M54.07 125.18 C86.82 88.15, 119.38 48.93, 157.07 6.69 M59.06 125.54 C96.71 81.94, 134.69 39.67, 160.75 8.56 M59.06 125.54 C90.02 88.84, 123.35 52.53, 160.75 8.56 M64.7 125.14 C92.85 90.42, 124.78 55.38, 162.45 12.69 M64.7 125.14 C96.19 87.67, 128.69 50.84, 162.45 12.69 M69.69 125.51 C107.1 83.98, 142.86 40.99, 164.82 16.07 M69.69 125.51 C106.3 85.02, 141.24 43.57, 164.82 16.07 M75.33 125.11 C97.24 96.16, 122.38 71.55, 167.18 19.45 M75.33 125.11 C100.57 97.85, 124.68 70.6, 167.18 19.45 M80.32 125.47 C115.28 88.42, 146.28 49.18, 168.23 24.34 M80.32 125.47 C107.08 93.23, 135.1 60.75, 168.23 24.34 M85.96 125.08 C118.27 86.49, 150.95 49.55, 167.31 31.49 M85.96 125.08 C114.96 92.76, 141.94 59.57, 167.31 31.49 M90.95 125.44 C110.41 104.05, 128.73 80.23, 167.05 37.89 M90.95 125.44 C121.12 92.54, 148.89 58.21, 167.05 37.89 M95.94 125.8 C111.33 107.43, 124.5 91.52, 167.45 43.53 M95.94 125.8 C111.66 105.6, 129.94 87.51, 167.45 43.53 M101.58 125.4 C122.63 102.7, 143.51 79.39, 167.18 49.93 M101.58 125.4 C113.81 110.1, 127.6 95.39, 167.18 49.93 M106.57 125.76 C123.34 108.26, 137.27 89.14, 166.92 56.33 M106.57 125.76 C121.95 107.01, 138.96 90.16, 166.92 56.33 M112.21 125.37 C125.04 111.07, 140.63 96.33, 167.32 61.97 M112.21 125.37 C130.69 102.36, 151.29 80.2, 167.32 61.97 M117.2 125.73 C127.72 115.06, 139.84 103.35, 167.06 68.37 M117.2 125.73 C135.9 104.43, 155.14 83.45, 167.06 68.37 M122.84 125.33 C140.38 107.11, 153.3 88.45, 166.8 74.77 M122.84 125.33 C138.11 109.92, 151.34 92.77, 166.8 74.77 M127.83 125.69 C140.67 112.07, 152.24 97.59, 167.19 80.41 M127.83 125.69 C143.31 107.72, 158.3 90.56, 167.19 80.41 M133.47 125.3 C145.2 109.81, 157.96 97.65, 166.93 86.81 M133.47 125.3 C145.54 111.67, 157.9 96.87, 166.93 86.81 M138.46 125.66 C146.87 112.4, 160.55 101.11, 166.67 93.21 M138.46 125.66 C148.46 113.57, 158.82 101.17, 166.67 93.21 M144.1 125.26 C147.58 119.91, 153 114.72, 167.06 98.85 M144.1 125.26 C152.3 117.45, 159.98 107.52, 167.06 98.85 M151.05 123.36 C152.69 118.97, 157.62 115.42, 165.49 106.76 M151.05 123.36 C153.95 120.16, 157.4 117.19, 165.49 106.76" stroke="#a5d8ff" stroke-width="0.5" fill="none"></path><path d="M31 0 M31 0 C72.67 1.31, 111.27 0.25, 136 0 M31 0 C64.28 -1.25, 95.91 0.21, 136 0 M136 0 C157.65 -1.61, 168.55 11.05, 167 31 M136 0 C157.23 0.11, 164.95 9.15, 167 31 M167 31 C166.29 46.09, 168.97 59.58, 167 93 M167 31 C166.71 46.43, 167.02 61.65, 167 93 M167 93 C166.97 114.26, 156.56 123.19, 136 124 M167 93 C167.76 114.5, 157.95 125.63, 136 124 M136 124 C112.66 124, 89.05 125.29, 31 124 M136 124 C110.57 122.65, 83.96 124.49, 31 124 M31 124 C11.72 123.41, -1.96 114.92, 0 93 M31 124 C11.48 125.18, 0.43 115.77, 0 93 M0 93 C-0.65 77.22, 0.05 61.34, 0 31 M0 93 C-0.59 80.08, -1.25 64.92, 0 31 M0 31 C0.31 11.62, 10.24 -0.76, 31 0 M0 31 C-0.17 9.83, 8.55 1.59, 31 0" stroke="#1e1e1e" stroke-width="1" fill="none"></path></g><g transform="translate(484.5 333.75) rotate(0 40 12.5)"><text x="0" y="0" font-family="Virgil, Segoe UI Emoji" font-size="20px" fill="#1e1e1e" text-anchor="start" style="white-space: pre;" direction="ltr" dominant-baseline="text-before-edge">缓存服务</text></g><g stroke-linecap="round" transform="translate(50.749996185302734 427.25) rotate(0 83.5 62)"><path d="M7.6 7.93 C7.6 7.93, 7.6 7.93, 7.6 7.93 M7.6 7.93 C7.6 7.93, 7.6 7.93, 7.6 7.93 M7.33 14.33 C8.97 10.91, 12.67 6.8, 17.83 2.25 M7.33 14.33 C11.27 9.92, 15.22 5.52, 17.83 2.25 M2.48 26.01 C12.02 17.19, 17.84 6.29, 24.13 1.1 M2.48 26.01 C8.68 18.47, 15.39 11.59, 24.13 1.1 M2.87 31.65 C8.57 22.88, 17.05 15.7, 29.77 0.71 M2.87 31.65 C12.96 21.8, 21.08 9.91, 29.77 0.71 M2.61 38.05 C13.28 28.43, 23.11 18.59, 33.45 2.58 M2.61 38.05 C12.36 28.67, 21.13 18.16, 33.45 2.58 M3.01 43.69 C12.83 31.78, 22.72 22.87, 39.09 2.18 M3.01 43.69 C17.23 27.77, 29.58 14.22, 39.09 2.18 M2.75 50.09 C13.22 37.74, 25.23 24.23, 44.08 2.54 M2.75 50.09 C17.07 34.63, 31.87 17.87, 44.08 2.54 M2.49 56.49 C15.91 41.22, 29.08 25.76, 49.72 2.15 M2.49 56.49 C17.63 38.41, 33.61 21.92, 49.72 2.15 M2.88 62.13 C22.97 39.77, 41.85 18, 54.71 2.51 M2.88 62.13 C19.26 43.32, 34.87 26.16, 54.71 2.51 M2.62 68.53 C16.99 50.27, 35.57 31.25, 60.35 2.11 M2.62 68.53 C17.61 51.85, 32.82 35.48, 60.35 2.11 M3.01 74.17 C26.23 47.97, 47.25 24.2, 65.34 2.47 M3.01 74.17 C27.05 46.59, 50.69 18.92, 65.34 2.47 M2.75 80.57 C21.57 57.67, 42.03 34.66, 70.98 2.08 M2.75 80.57 C19.64 60.2, 35.63 40.29, 70.98 2.08 M2.49 86.97 C29.32 56.35, 53.75 29, 75.97 2.44 M2.49 86.97 C23.02 62.94, 42.09 39.96, 75.97 2.44 M2.88 92.61 C30.29 58.55, 60.33 22.89, 81.61 2.04 M2.88 92.61 C29.07 62.89, 57.3 31.55, 81.61 2.04 M1.31 100.52 C20.54 79.76, 39.24 55.22, 86.6 2.4 M1.31 100.52 C33.94 63.76, 66.91 27.26, 86.6 2.4 M2.36 105.4 C27.02 76.29, 50.36 45.57, 92.24 2.01 M2.36 105.4 C23.88 81.23, 47.18 54.73, 92.24 2.01 M4.07 109.54 C25.95 87.3, 47.4 62.78, 97.23 2.37 M4.07 109.54 C36.37 72.66, 69.58 32.98, 97.23 2.37 M5.77 113.67 C41.02 77.05, 74.7 39.27, 102.87 1.97 M5.77 113.67 C44.09 70.77, 82.42 27.26, 102.87 1.97 M8.14 117.05 C36.81 82.37, 64.67 52, 107.86 2.33 M8.14 117.05 C35.94 85.9, 61.34 55.59, 107.86 2.33 M11.81 118.92 C32.9 94.39, 53.44 70.15, 112.85 2.69 M11.81 118.92 C42.32 83.87, 73.03 50.89, 112.85 2.69 M15.49 120.79 C52.38 77.73, 91.97 37.99, 118.49 2.3 M15.49 120.79 C53.43 78.7, 89.53 38.23, 118.49 2.3 M18.51 123.41 C50.5 87.07, 84.86 47.73, 123.48 2.66 M18.51 123.41 C39.19 98.91, 60.07 74.48, 123.48 2.66 M23.49 123.77 C52.77 91.1, 81.43 60.89, 129.12 2.27 M23.49 123.77 C53.62 89.83, 81.94 54, 129.12 2.27 M27.82 124.89 C51.91 98.34, 75.95 68.65, 136.07 0.36 M27.82 124.89 C53.2 95.54, 79.59 66.24, 136.07 0.36 M32.81 125.25 C62.32 90.69, 89.47 60.25, 141.06 0.72 M32.81 125.25 C64.82 85.59, 99.62 48.6, 141.06 0.72 M37.8 125.61 C60.95 98.15, 82.29 69.85, 145.39 1.84 M37.8 125.61 C63.38 96.09, 91.1 64.88, 145.39 1.84 M43.44 125.21 C70.83 94.58, 98.39 62.79, 150.38 2.2 M43.44 125.21 C74.59 88.88, 107.28 52.38, 150.38 2.2 M48.43 125.57 C88.46 80.07, 127.07 35.15, 153.4 4.82 M48.43 125.57 C86.42 81.48, 123.61 37.02, 153.4 4.82 M54.07 125.18 C91.6 80.37, 134.86 33.78, 157.07 6.69 M54.07 125.18 C84.99 88.67, 118.09 50.33, 157.07 6.69 M59.06 125.54 C87.99 95.84, 114.29 63.61, 160.75 8.56 M59.06 125.54 C82.97 98.98, 104.85 72.6, 160.75 8.56 M64.7 125.14 C94.39 91.92, 118.76 60.65, 162.45 12.69 M64.7 125.14 C88.85 96.76, 110.79 70.49, 162.45 12.69 M69.69 125.51 C95.84 95.49, 126.34 61.28, 164.82 16.07 M69.69 125.51 C106.01 81.68, 144.08 38.45, 164.82 16.07 M75.33 125.11 C108.91 86.94, 142.41 47.2, 167.18 19.45 M75.33 125.11 C106.9 90.13, 136.73 55.41, 167.18 19.45 M80.32 125.47 C108.41 94.82, 133.52 67.09, 168.23 24.34 M80.32 125.47 C108.63 94.85, 134.88 63.65, 168.23 24.34 M85.96 125.08 C114.67 94.35, 141.45 62.36, 167.31 31.49 M85.96 125.08 C108.35 98.73, 131.86 73.36, 167.31 31.49 M90.95 125.44 C117.52 97.5, 139.98 67.6, 167.05 37.89 M90.95 125.44 C115.1 97.74, 137.28 69.04, 167.05 37.89 M95.94 125.8 C121.11 98.71, 141.55 71.72, 167.45 43.53 M95.94 125.8 C120.7 97.52, 145.17 68.18, 167.45 43.53 M101.58 125.4 C116.91 110.17, 130.25 96.15, 167.18 49.93 M101.58 125.4 C119.26 103.58, 138.57 82.24, 167.18 49.93 M106.57 125.76 C127.31 101.29, 146.71 79.48, 166.92 56.33 M106.57 125.76 C120.86 110.03, 134.31 94.49, 166.92 56.33 M112.21 125.37 C124.32 110.99, 139.84 93.09, 167.32 61.97 M112.21 125.37 C132.11 100.93, 152.63 77.73, 167.32 61.97 M117.2 125.73 C134.74 104.63, 157.49 80.29, 167.06 68.37 M117.2 125.73 C127.91 112.65, 138.88 101.28, 167.06 68.37 M122.84 125.33 C135.57 107.66, 150.18 93.62, 166.8 74.77 M122.84 125.33 C134.23 112.47, 143.29 100.02, 166.8 74.77 M127.83 125.69 C142.82 110.21, 158.09 91.33, 167.19 80.41 M127.83 125.69 C141.67 109.77, 155.56 92.28, 167.19 80.41 M133.47 125.3 C144.19 114.1, 150.22 104.76, 166.93 86.81 M133.47 125.3 C142.21 115.85, 150.06 107.14, 166.93 86.81 M138.46 125.66 C146.25 118.61, 152.43 111.46, 166.67 93.21 M138.46 125.66 C144.12 118.73, 151.33 111.2, 166.67 93.21 M144.1 125.26 C150.06 118.18, 155.89 108.65, 167.06 98.85 M144.1 125.26 C149.63 119.29, 156.84 110.37, 167.06 98.85 M151.05 123.36 C154.54 119.13, 159.86 114.04, 165.49 106.76 M151.05 123.36 C154.01 119.21, 158.36 115.72, 165.49 106.76" stroke="#ffec99" stroke-width="0.5" fill="none"></path><path d="M31 0 M31 0 C58.12 1, 88.3 -1.57, 136 0 M31 0 C59.68 0.57, 88.23 1.3, 136 0 M136 0 C155.32 -1.14, 167.15 8.77, 167 31 M136 0 C156.14 -0.69, 166.35 10.53, 167 31 M167 31 C166.84 55.05, 168.02 76.64, 167 93 M167 31 C167.32 54.9, 166.8 80.53, 167 93 M167 93 C168.02 115.21, 157.31 122.82, 136 124 M167 93 C165.78 114, 156.29 124.07, 136 124 M136 124 C101.07 126.12, 64.66 124.28, 31 124 M136 124 C105.43 124.75, 74.96 123.56, 31 124 M31 124 C10.82 125.21, -1.32 111.68, 0 93 M31 124 C8.67 122.34, -2.15 115.35, 0 93 M0 93 C1.19 72.33, 1.98 50.52, 0 31 M0 93 C-0.3 69.95, -0.5 47.47, 0 31 M0 31 C1.47 8.43, 11.27 0.34, 31 0 M0 31 C-0.39 10.55, 9.27 1.98, 31 0" stroke="#1e1e1e" stroke-width="1" fill="none"></path></g><g transform="translate(76.74999618530273 478.25) rotate(0 60 12.5)"><text x="0" y="0" font-family="Virgil, Segoe UI Emoji" font-size="20px" fill="#1e1e1e" text-anchor="start" style="white-space: pre;" direction="ltr" dominant-baseline="text-before-edge">锁与队列服务</text></g><g transform="translate(287.75000381469727 479.75) rotate(0 60 12.5)"><text x="0" y="0" font-family="Virgil, Segoe UI Emoji" font-size="20px" fill="#1e1e1e" text-anchor="start" style="white-space: pre;" direction="ltr" dominant-baseline="text-before-edge">数据存储服务</text></g><g stroke-linecap="round" transform="translate(261.75000381469727 428.75) rotate(0 83.5 62)"><path d="M31 0 M31 0 C54.6 -0.43, 82.87 0.93, 136 0 M31 0 C72.29 -0.53, 114.64 -0.11, 136 0 M136 0 C158.2 1.26, 166.64 9.24, 167 31 M136 0 C158.37 -0.12, 165.2 9.88, 167 31 M167 31 C168.64 51.87, 166.79 70.09, 167 93 M167 31 C166.97 48.98, 167.01 66.45, 167 93 M167 93 C168.9 113.6, 155.1 123.83, 136 124 M167 93 C166.11 112.19, 157.46 125.98, 136 124 M136 124 C97.52 122.36, 62.63 125.06, 31 124 M136 124 C99.66 122.88, 62.4 124.2, 31 124 M31 124 C10.79 124.86, -1.72 112.28, 0 93 M31 124 C12.33 122.93, 1.61 111.43, 0 93 M0 93 C-1.18 70.34, -1.07 48.25, 0 31 M0 93 C-0.18 79.93, 0.79 65.61, 0 31 M0 31 C0.62 11.69, 12.04 1.77, 31 0 M0 31 C-1.1 8.42, 8.53 -1.84, 31 0" stroke="#1e1e1e" stroke-width="1" fill="none"></path></g><g stroke-linecap="round" transform="translate(11 241) rotate(0 328 173)"><path d="M32 0 M32 0 C170 0.97, 309.73 2.16, 624 0 M624 0 C643.48 -0.93, 656.62 12.09, 656 32 M656 32 C657.53 137.8, 657.18 240.73, 656 314 M656 314 C654.77 336.26, 646.8 344.1, 624 346 M624 346 C418.86 345.23, 214.25 346.27, 32 346 M32 346 C11.04 347.11, -1.18 335.71, 0 314 M0 314 C-0.81 243.45, -2.67 175.33, 0 32 M0 32 C0.04 9.05, 12.32 -1.35, 32 0" stroke="#1e1e1e" stroke-width="1.5" fill="none" stroke-dasharray="8 9"></path></g><g transform="translate(527.2499961853027 482.25) rotate(0 8.219993591308594 12.5)"><text x="0" y="0" font-family="Virgil, Segoe UI Emoji" font-size="20px" fill="#1e1e1e" text-anchor="start" style="white-space: pre;" direction="ltr" dominant-baseline="text-before-edge">...</text></g><g stroke-linecap="round" transform="translate(484.24999618530273 434.25) rotate(0 51.5 62)"><path d="M25.75 0 M25.75 0 C37.25 2, 45.76 -1.6, 77.25 0 M25.75 0 C43.77 0.64, 59.17 0.41, 77.25 0 M77.25 0 C95.24 0.72, 104.13 7.6, 103 25.75 M77.25 0 C95.25 1.24, 103.32 6.33, 103 25.75 M103 25.75 C100.37 53.95, 102.23 81.15, 103 98.25 M103 25.75 C102.25 39.73, 103.29 55.08, 103 98.25 M103 98.25 C101 114.9, 95.38 123.88, 77.25 124 M103 98.25 C103.01 116.67, 94.94 122.18, 77.25 124 M77.25 124 C61.33 124.47, 45.9 123.69, 25.75 124 M77.25 124 C63.53 123.89, 49.29 123.7, 25.75 124 M25.75 124 C9.05 125.01, -0.8 116.83, 0 98.25 M25.75 124 C8.06 126.19, 0.66 114.06, 0 98.25 M0 98.25 C-1.09 68.97, 1.1 43.73, 0 25.75 M0 98.25 C0.4 69.93, 0.03 40.76, 0 25.75 M0 25.75 C1.54 9.49, 7.5 -0.2, 25.75 0 M0 25.75 C0.58 10.76, 8.91 1.67, 25.75 0" stroke="#1e1e1e" stroke-width="1" fill="none"></path></g></svg>