<!--?xml version="1.0" standalone="no"?-->
              <svg id="sw-js-blob-svg" viewBox="0 0 100 100" xmlns="http://www.w3.org/2000/svg" version="1.1">
                    <defs> 
                        <linearGradient id="sw-gradient" x1="0" x2="1" y1="1" y2="0">
                            <stop id="stop1" stop-color="rgba(248, 241.735, 55, 1)" offset="0%"></stop>
                            <stop id="stop2" stop-color="rgba(31, 236.095, 251, 1)" offset="100%"></stop>
                        </linearGradient>
                    </defs>
                <path fill="url(#sw-gradient)" d="M20.2,-21.5C27.7,-17.8,36.3,-12.9,39.4,-5.5C42.5,1.9,40,11.8,34.6,18.8C29.2,25.7,20.7,29.8,12.5,31.5C4.3,33.2,-3.7,32.6,-11.1,30.1C-18.6,27.6,-25.5,23.2,-29.5,16.8C-33.6,10.4,-34.7,2,-33.2,-5.8C-31.8,-13.7,-27.8,-21,-21.8,-25C-15.9,-28.9,-7.9,-29.5,-0.8,-28.5C6.4,-27.6,12.7,-25.2,20.2,-21.5Z" width="100%" height="100%" transform="translate(50 50)" stroke-width="0" style="transition: all 0.3s ease 0s;" stroke="url(#sw-gradient)"></path>
              </svg>