<!--?xml version="1.0" standalone="no"?-->
              <svg id="sw-js-blob-svg" viewBox="0 0 100 100" xmlns="http://www.w3.org/2000/svg" version="1.1">
                    <defs> 
                        <linearGradient id="sw-gradient" x1="0" x2="1" y1="1" y2="0">
                            <stop id="stop1" stop-color="rgba(251, 50, 31, 1)" offset="0%"></stop>
                            <stop id="stop2" stop-color="rgba(248, 242, 55, 1)" offset="100%"></stop>
                        </linearGradient>
                    </defs>
                <path fill="url(#sw-gradient)" d="M22.6,-24.2C30.7,-20.1,39.8,-14.3,42.9,-6.2C45.9,1.9,42.8,12.4,37.4,21.4C32,30.4,24.2,37.9,15.8,39C7.4,40.2,-1.8,35.1,-10.1,30.7C-18.4,26.4,-25.8,22.8,-30.3,16.7C-34.7,10.6,-36.2,2,-35.3,-6.8C-34.4,-15.5,-31.2,-24.5,-24.9,-28.9C-18.7,-33.4,-9.3,-33.4,-1.1,-32.2C7.2,-30.9,14.4,-28.3,22.6,-24.2Z" width="100%" height="100%" transform="translate(50 50)" stroke-width="0" style="transition: all 0.3s ease 0s;" stroke="url(#sw-gradient)"></path>
              </svg>