<svg xmlns="http://www.w3.org/2000/svg" viewBox="0 0 272.53 272.48"><path d="M116.85 168.84v-13.15H90.7l.14.15v-12.72H77.7v12.72l.14-.15H51.9v12.8H39.02v-12.81h-13.3l.14.14V142.7l-.15.14h25.72V129.7H25.71l.15.14c0-4.38 0-8.75.01-13.13l-.14.14h12.95v-12.82h12.88v12.63h13.05v12.72h25.84v-12.44H78.18v-13.26h25.66v12.75h12.59v-12.61H103.7V51.85h13.15l-.14-.14v38.66h12.9V77.68h13.24v12.75h12.59V77.82h-12.73V65h12.99V51.88l-.14.16h12.83v51.47h-25.43v13.19h-12.92v12.85h12.68v13.28l.15-.14h-12.72v13.14h12.72l-.14-.14c.05 4.38.09 8.76.14 13.15l-26.14-.15.15.14Z"/><path d="M.13 0h90.38v90.38H.13V0Zm77.3 77.55V13.17H13.04v64.38h64.39ZM182 90.42V.04h90.38v90.38H182Zm77.56-77.29h-64.38v64.38h64.38V13.13ZM0 272.42v-90.38h90.38v90.38H0Zm12.99-13h64.38v-64.38H12.99v64.38ZM155.7 246.7v12.95h12.8v12.72h-25.58v-12.32h-12.88v12.37h-25.97v-25.53h12.34v-13.05h-12.39v-12.87h12.44v-26.04h-12.31v-26.09h12.7l-.15-.14v13.28h13.31v64.86h25.83l-.15-.14Zm65.01-103.85h12.86v25.75h13.13v13.24l.15-.14h-13.14v26.14l.14-.14h-13.31v12.79h-12.88v-38.65h-25.95l.15-26.14-.14.14h13.14l-.14-.14v12.72h26.14V142.7l-.14.15Z"/><path d="M181.85 129.84v-25.72h38.85v38.73l.14-.15h-13.25v13H194.7l.14.14-.15-26.13h12.75v-12.59h-12.61v12.73c-4.38-.05-8.75-.1-13.13-.16l.15.14Zm64.85 52h12.93v12.88h12.9v12.84H259.7v13.28l.15-.14h-13.14v26.14l.14-.14h-13.14l.14.14V207.7l-.14.14h13.14V181.7l-.15.14ZM116.83 51.86V38.89h-12.78V13.01h12.61V.04h12.73v51.67h-12.7l.14.14Zm104.01 194.83h-12.93v25.78h-13.02v-12.51h-13.05V233.7l-.15.14h39v13l.14-.15Z"/><path d="M259.7 220.84h12.74v38.86h-12.53v12.7h-26.06v-12.69l-.15.14h13.14v-13.14l-.14.14h13.14v-26.14l-.15.14Zm-12.98-90.98h12.95v12.75h12.72v25.83h-12.44v-12.43h-13.09v-26.29l-.14.14ZM155.83 25.69h-12.72V.07h25.41v12.49h-12.83v13.28l.14-.14Zm91.03 104.02h-12.75v-25.64h25.41v12.49h-12.8v13.29l.14-.14Zm-91.01 13.13v-13h26l-.15-.14v26.14l.14-.14-13.14.15V142.7h-13l.15.14ZM25.72 155.68v12.74H.11v-12.59h25.75l-.14-.14Zm.13-12.98H.13v-12.86h25.72l-.15-.14v13.14l.15-.14Zm156 91c-4.38 0-8.76 0-13.15-.01l.14.15-.15-26.14h13.15l-.15 26.14.15-.14ZM25.86 116.71H.15V104.1h25.57v12.75l.14-.14Z"/><path d="M155.69 25.83h12.73v12.85h-12.7l.14.14c0-4.38-.02-8.76-.03-13.14l-.14.14Z"/><path d="M155.72 38.68c-.06 4.45-.11 8.9-.17 13.36 0 0 .14-.16.13-.15h-12.59V38.82h12.77l-.14-.14ZM90.71 155.69v12.73H77.85v-12.73l-.14.15h13.14l-.14-.15Zm51.99-12.85h13.16l-.15-.14c.05 4.38.09 8.76.14 13.15l-13.14-.15.14.14V142.7l-.15.14Zm26.01 90.85v13.01H155.7l.15.14v-13h13l-.14-.15Zm65.14 26.01h-13.01v-13.01l-.14.15h13.14l-.14-.14v13.14l.15-.14Zm-65.01-65v13.14h-12.96v12.66h-12.73v-25.8h25.68Z"/><path d="M155.71 155.7h13.14v13.14h-13.14V155.7Z"/><path d="M142.71 168.7h13.14v12.72h-13.14V168.7Zm39.13 26.14H168.7V181.7h13.14v13.14ZM64.42 64.55H26.04V26.17h38.38v38.38Zm182 0h-38.38V26.17h38.38v38.38ZM64.44 246.53H26.02v-38.38h38.42v38.38Z"/><path d="M181.71 207.84V194.7h12.72v13.14h-12.72Z"/></svg>