<svg xmlns="http://www.w3.org/2000/svg" viewBox="0 0 512 76" fill="#cccccc"><path d="M15.5 26.6H23c1.2-5.5 2.5-9.7 4-12.5 1.8-2.8 3.8-4.8 6.2-6.5 2.5-1.5 5-2.2 7.2-2.2 1.2 0 2 .3 2.8.8.8.5 1 1.2 1 2 0 .5-.3 1.2-.8 1.5-.5.5-1 .7-1.8.7s-2-.3-4-.7c-1-.3-1.8-.3-2.2-.3-1.5 0-2.8 1-3.8 2.8-1.2 1.7-2 4.3-2.7 7.5l-1.5 7h8.3l-.5 2.5H27l-5 21.5c-1.5 6.5-4 11.5-7.2 15-3.3 3.3-7 5-10.7 5-1.2 0-2.2-.3-3-.7-.7-.7-1-1.2-1-2.2 0-.5.2-1.2.7-1.5.5-.5 1-.7 2-.7.5 0 1 .3 1.7.3 1.5.3 3 .3 4.2.3 2 0 3.5-.5 4.5-1.5S15 61 16 56.9l6.2-27.5h-7.3l.6-2.8zM46.5 26.1c0 .3 0 .5-.5.5-.8.5-2 1.5-3.5 3.3-1.8 1.7-3.3 3.7-4.2 5.7-1.3 2.2-2 4.7-2.8 7.5-.8 2.8-1 5.3-1 7.8 0 1.7 0 3 .3 4.3.2 1.2.5 2.5.8 3.5.5 1.7 1 2.8 1.5 3.5v.5c0 .3 0 .3-.3.3 0 0-.2 0-.5-.5-1-1.2-1.8-3.3-2.5-5.5-.8-2.5-1-5-1-7.3 0-3.2.5-6.2 1.5-9s2.2-5.2 4-7.7c1.5-2.5 3.5-4.5 5.8-6 1.2-.7 2-1.2 2.3-1.2.1-.2.1.1.1.3zM42 50.4h1c1.3 0 2.3-.3 3-1.2 1-1 2-2.5 3-4.7v-.8c-.8-3.3-1.5-4.7-2-4.7-.3 0-.5 0-.8.5-.2.3-.5.5-.8 1l-.8-.5c1-1.5 1.8-2.8 2.5-3.5.8-1 1.5-1.2 2-1.2.8 0 1.5 1.5 2 5 .2 1 .2 1.7.5 2.2 1.5-2.8 2.5-4.7 3.3-5.7 1-1 1.8-1.5 2.2-1.5.5 0 .8 0 1.2.5.2.5.2 1 .2 1.5v.8h-.8c-1 0-2 .5-3 1.2-1 1-2 2.5-3 4.5.5 2.5 1 4.2 1.3 5 .2.5.8 1 1.2 1 0 0 .2-.3.5-.5.2-.3.5-.5.8-1l.8.5c-1 1.5-1.8 2.5-2.5 3.5-.8.7-1.2 1-2 1s-1.5-2-2.5-6.5c0-.5 0-.7-.2-1-1.3 3-2.2 5-3.2 6-.8 1-1.5 1.5-2.3 1.5-.5 0-1 0-1.2-.5-.4-.4-.4-.9-.4-1.7v-.7zM55.8 62.6c0-.3 0-.5.5-.7.8-.3 2-1.3 3.5-3 1.8-1.7 3.2-3.7 4.2-6 1.2-2 2-4.5 2.8-7.3s1-5.5 1-8c0-1.5 0-3-.2-4.3-.3-1.2-.5-2.2-.8-3.3-.5-1.7-1-3-1.5-3.5V26c0-.3 0-.5.2-.5l.5.5c1 1.5 1.8 3.3 2.5 5.7.8 2.5 1 5 1 7.2 0 3.3-.5 6.2-1.5 9s-2.2 5.3-4 7.8c-1.5 2.2-3.5 4.3-5.7 6-1.3.7-2 1-2.3 1-.2.2-.2.2-.2-.1zM98.2 34.6v2.5H80v-2.5h18.2zm0 7.8v2.5H80v-2.5h18.2zM128.5 13.1l-.2 1c-2.2.3-3.8.7-4.7 2-1.2 1.7-2.2 5-3.3 10.3-1 4.5-1.5 7-1.7 7.7-.5 1.3-1 2.2-1.5 3-.5.5-1.2.7-2 1 1 1 1.8 2 1.8 3.3 0 .8 0 1.2-.3 2 0 .5-.5 2.5-1.2 5.7-1 3.8-1.5 6-1.8 7v2.5c0 1 .3 1.7 1 2.5.8.8 1.7 1 3.2 1l-.2 1.2c-2.8 0-4.5-.5-5.8-1.5-1-.8-1.5-1.7-1.5-3.3 0-1.7.8-5.2 2-10.5 1-3.7 1.5-6 1.5-6.8 0-1-.3-1.5-.8-2-.3-.5-1-1-2-1.3 1.2 0 2-.5 2.8-1 .5-.5 1-1.3 1.2-2 .3-.5.8-2.8 1.8-7 1-5.3 2-8.3 2.2-9.5.8-1.7 1.8-3.3 3-4 1.5-.8 3.5-1.3 6.5-1.3z"/><path d="m138.2 20.6.3-1.5c3-.3 5.5-.8 7.8-1.5-.5 1.7-1 3.8-1.8 6.2l-2.2 9.5 2.7.3c1.5 0 2.8-.3 4.5-1 1.5-1 2.8-2.2 4-4.3 1.2-2 2-4 2-6.5 0-2.2-.8-4-2.2-5.3-1.5-1.5-3.8-2-7-2-3.5 0-7 1-10.2 2.8-3.5 2-6 4.5-7.8 7.2-2 3-2.8 6-2.8 8.8 0 1.5.3 2.8.8 3.8s1.2 2 2.5 3.2c1 .8 1.5 1.5 1.5 2.2 0 .5-.3 1-.5 1.3-.2.3-.8.5-1.2.5-1.2 0-2.5-1-3.5-2.8-1.2-1.7-1.8-4-1.8-7 0-5 1.8-9.7 5.5-14 4.8-5.5 11-8.2 19-8.2 3 0 5.5.5 7.3 1.2 2 1 3.5 2 4.5 3.5s1.5 3.3 1.5 5c0 2.2-.8 4.3-2.2 6.5-1.2 2-3.3 3.7-5.8 5-2.8 1.5-5.8 2-8.8 2h-2.5L139.3 46c-.3 1.7-.8 3.5-1.2 5.2 1.5.5 3 .5 4.3.5 1.5 0 3-.3 4.7-.7l-.3 1.7c-1.8.5-3 .7-4.3.7-1 0-2.5 0-4.7-.3-1.5-.3-3-.5-4-.5-2 0-4 .3-6.2.7l.5-1.7c2.3-.3 3.5-1 4.5-1.5 1-1.3 2-3.3 2.5-6.3l4.8-20.2c.3-1 .3-1.5.3-2 0-.3 0-.7-.3-1-.2-.3-.8-.3-1-.3s-.4.3-.7.3zM164.3 52.9h-4.8l2.2-9c1-4.5 2-8.8 2.8-12.8.3-1 .3-1.5.3-1.7 0-.7-.3-1-.7-1-.3 0-.8.3-1.5.7-.5.5-1.8 1.8-3.2 3.5l-1-1.3c2-2.2 4-4 5.8-5.2 2-1 3.5-1.7 4.8-1.7.3 0 .5.3.7.3.3.3.3.5.3.8 0 .5 0 1.2-.3 2.5l-1.5 6c2.2-3.5 4.5-6.7 7.2-9.3 1.2-1.2 2.2-1.7 3.2-1.7.5 0 1 .3 1.5.5.3.5.5 1 .5 1.7 0 .5-.3 1-.5 1.5-.5.5-1.5 1-3 1.5s-2.8 1.2-3.7 2c-1 .8-2 2-3.2 3.5-1.2 1.8-2 3.3-2.5 4.3-.3 1.2-1 4-2 8.5l-1.4 6.4z"/><path d="m178.5 32.4-1.5-1.2c2.2-2.5 4-4.3 5.8-5.2 1.8-1 3.2-1.5 4.2-1.5.8 0 1.2.3 1.5.5.5.3.8.7.8 1.2 0 .7-.8 3.5-2 8.3-2.2 8-3.5 12.7-3.5 14.5 0 .3.3.5.3.7.3.3.3.3.5.3.8 0 2.5-1.2 5-4l1.2 1.2c-2.7 2.8-4.7 4.7-6.2 5.5-1.2.7-2.2 1.2-3 1.2-.7 0-1.2-.3-1.8-.7-.5-.5-.7-1.3-.7-2 0-2.8 1.5-9.7 4.7-20.8 0-.5.3-1 .3-1.2 0-.5-.3-.7-.5-.7-.5 0-1 .3-1.5.5-.6.4-1.8 1.4-3.6 3.4zm12.3-22.3c.5 0 1 0 1.5.5s.5 1.2.5 1.7c0 1-.3 2-.7 2.8-.7.7-1.5 1-2.2 1-.5 0-1-.3-1.5-.5-.5-.5-.8-1.2-.8-2 0-1 .5-1.7 1-2.5.4-.7 1.2-1 2.2-1zM209.8 45.6l.7 2c-5 4.3-9.3 6.2-12.5 6.2-2 0-3.2-.7-4-2-.8-1.5-1.3-3.3-1.3-5.5 0-3.5 1-7 2.5-10.8 1.8-4 4-6.7 6.5-8.8 2-1.5 4-2.2 6.5-2.2 1.5 0 2.8.3 3.5.8.7.7 1.2 1.5 1.2 2.5 0 .5-.3 1.2-.7 1.5-.3.5-1 .7-1.8.7-.7 0-1.5-.3-2.8-1-1.2-.7-2-1.2-3-1.2s-2 .5-3 1.5-2 3-2.8 5.7c-1 3-1.5 5.7-1.5 8.8 0 2.3.5 3.7 1.2 5 .5.7 1.2 1.2 2.2 1.2 2.8.1 5.8-1.4 9.1-4.4zM230.5 44.4l1 1.5c-5 5.3-9.2 8-13 8-1.5 0-2.5-.5-3.3-1.7-.7-1-1.2-2.8-1.2-5.2 0-4.7 1.5-9.5 4-14.2 3-5.5 6.8-8.3 11-8.3 1.2 0 2.5.5 3.3 1.2.7.8 1.2 2 1.2 3.3 0 1.5-.5 3-1.5 4.5-1 1.2-2.5 2.8-5 4.3-1.2.7-3.7 2.2-7.8 4 0 1.2-.3 2.5-.3 3.5 0 1.7.3 2.8.8 3.5.5.5 1.2.7 2 .7 1 0 1.8-.3 2.8-.7 1.5-.7 3.5-2.2 6-4.4zm-10.7-4.8c3.2-1.7 5.8-3.5 7.5-5.2 1-1.2 1.8-2.8 1.8-4 0-1-.3-1.7-.8-2.2-.5-.5-1-.8-1.8-.8s-1.5.3-2.2.8c-1 1-1.8 2.2-2.5 3.7-1 2.5-1.8 5-2 7.7zM228 65.1l.3-1.2c2.8-.3 4.8-1 5.8-2.5 1.3-1.7 2.8-5.7 3.8-12 1-5 1.8-8 2-8.7.5-1.5 1-2.8 1.8-3.5.7-.8 1.5-1 2.5-1.5-1.5-.7-2.2-2-2.2-3.8 0-.5.3-1.5.3-2.2.3-.5.7-2.8 1.8-6.8 1-4.2 1.5-7 1.8-8 .3-1.2.3-2.2.3-3 0-1.2-.5-2.2-1.2-3-1-.7-2.3-1-3.8-1.2l.3-1.2c3 .3 5.2.7 6.5 1.5 1.3 1 1.8 2.5 1.8 4 0 2-.7 6-2.2 12.3-1 4.5-1.5 7-1.5 8s0 1.7.5 2.2c.5.5 1.2 1 2.2 1.2-1 .3-2 .5-2.8 1.2-1 .8-1.5 1.5-1.8 2.2-.3.8-1 3.5-2 8.5-1.2 5.8-2 9.5-2.5 11-.8 2-2 3.8-3.5 4.7-2.2 1.1-4.7 1.6-8.2 1.8zM269.2 37.4c-3.7-1.2-6-2.2-6.8-3-1-1-1.2-1.8-.5-2.5.3-1 1.3-1.2 2.2-.7 1.2.7 3 2.2 5.8 4.7-1-3.7-1.2-6.5-1-7.5.3-1.2 1-2 1.8-2s1.5.7 1.8 2c.3 1 0 3.8-.7 7.5 2.5-2.7 4.5-4.5 5.8-4.7 1-.5 1.8-.3 2 .5.5 1 .3 1.7-.5 2.5-.8 1-3 2-6.8 3.3 4 1.2 6.3 2.2 7 3 .8.8 1 1.8.5 2.8-.5.8-1.2 1-2.2.5-1-.5-3-2-5.8-4.7.7 4.2 1 7 .7 8-.2 1-1 1.2-1.8 1.2s-1.5-.3-1.8-1.2c-.3-1 0-3.8 1-8-2.7 3-4.8 4.5-5.5 5-1 .5-2 .3-2.5-.8-.5-1-.3-1.7.5-2.8.8-.9 3.1-1.9 6.8-3.1zM321.8 6.4l-.3 1.2c-2.8.3-4.8 1-5.8 2.5-1.2 1.7-2.5 5.7-3.7 12-1 5-1.8 8-2 8.8-.5 1.5-1 2.7-1.8 3.5-.8.5-1.5 1-2.5 1.5 1.5.8 2.2 2 2.2 3.8 0 .5-.3 1.2-.3 2.2-.3.5-.8 2.8-1.8 6.8-1 4.3-1.5 7-1.8 8 0 1.3-.3 2-.3 3 0 1.2.5 2.2 1.2 3 1 .7 2.2 1 4 1.2l-.3 1.2c-3.2-.3-5.5-.7-6.7-1.5-1.2-1-1.8-2.5-1.8-4 0-2 .8-6 2.2-12.3 1-4.5 1.5-7.3 1.5-8 0-1 0-1.8-.5-2.2-.5-.8-1.2-1-2.5-1.3 1.2-.3 2.2-.7 3-1.2 1-.7 1.5-1.5 1.8-2.5.2-.5 1-3.3 2-8.3 1.2-6 2.2-9.5 2.7-11 .5-2 1.8-3.8 3.2-4.8 2.2-.9 4.7-1.6 8.3-1.6z"/><path d="m350.5 51.4-.3 2h-5c-2-.3-3-.5-3.8-.5-.7 0-2 .3-4 .5.8-1.8 1.2-3.5 1.8-5.5.2-1.5.5-3.8 1-7.3-2.5 0-6.2.3-11.2.3-5.2 8.7-9.2 14.2-11.5 16.5-2.5 2.2-5 3.3-7 3.3-1.2 0-2.2-.3-2.8-.7-.5-.3-.8-1-.8-1.8 0-.5 0-1 .5-1.5.2-.3.7-.5 1.2-.5.2 0 .5 0 1 .3 1.2.3 2.2.3 2.5.3 1.5 0 3-.7 4.8-2.5 2.7-2.7 6.8-8.5 12-17.5 6-10 11-17.5 14.7-22-5.2.5-8.2 1-9.5 1.5-1.8.5-3.3 1.5-4 2.5-.8 1.3-1.2 2.5-1.2 3.8 0 .5 0 1 .3 1.7.5.7.5 1.5.5 1.7 0 .5-.3 1-.5 1.2-.3.5-.8.8-1.2.8-.8 0-1.2-.3-1.8-1-.5-.5-.5-1.2-.5-2.5 0-1.8.3-3.3 1-4.8s2-2.8 3.5-3.8c1.2-1 3.3-1.7 5.2-2.5 1.3-.3 3.2-.5 6-.7 2.5-.3 4-.3 4.5-.5 1-.3 2-1 3-1.7-.8 2.8-1.2 5.2-1.5 7.3l-2.2 19.5-1.5 14c1.5.5 3 .5 4 .5 1.1-.2 1.8-.2 2.8-.4zm-10-13.3c1-9 2-15.8 3-20-2.8 4-4.3 6.2-5 7.3l-7.8 12.7c1.5.3 4 .3 7.2.3.9 0 1.6 0 2.6-.3zM355.8 32.4l-.8-1.5c2-2.2 4-3.8 5.8-4.8 1.8-1.2 3.3-1.7 4.3-1.7.5 0 1 .3 1 .3.2.3.5.5.5 1s-.2 1.2-.5 2.5c-.5 2-1 3.5-1 4.5 5-5.5 8.8-8.3 11.2-8.3.8 0 1.2.3 1.5.7.5.3.5 1 .5 1.7 0 1-.2 2.8-.8 5 2.2-2.8 4.3-4.7 6-5.7 1.7-1.2 3.2-1.7 4.2-1.7.8 0 1.5.3 2 .7.5.8.8 1.5.8 2.5 0 .7-.2 1.5-.5 2.5 0 1-.8 3.8-2.2 8.5-1.5 5.8-2.5 9.3-2.5 10.5 0 .7.5 1 1 1s.8 0 1.2-.5c1-.7 2.2-2 3.8-3.5l1 1.2-2.5 2.5c-1.8 1.5-2.8 2.5-3.5 3-1.2.7-2.2 1.2-3 1.2-.5 0-1.2-.5-1.7-1-.2-.7-.5-1.7-.5-2.8 0-1.2 0-2.5.2-4 .2-1.2 1.2-4.7 2.8-9.7 1-3.8 1.5-6 1.5-6.7 0-1-.2-1.2-1-1.2-.5 0-1.3.3-2 .7-1.7 1.2-3.2 2.8-4.5 4.2-.8 1.3-1.5 3.3-2.2 5.8-1.2 5.5-2.2 10-3 13.5h-4.5l4.8-20.5c.2-1.5.5-2.5.5-2.8 0-.3-.2-.5-.2-.7-.2-.3-.5-.3-.8-.3-.5 0-1.5.5-2.8 1.5-2 1.5-3.5 3-4.2 4.5-1 1.5-1.7 3.8-2.5 7L361 52.7h-4.5l3.5-16c1-4.7 1.5-7.3 1.5-7.8s0-.7-.5-.7c-1 .2-2.7 1.4-5.2 4.2zM409.8 24.6c2 0 3.8.8 5.3 2.5 1.2 1.7 2 4.2 2 7.3 0 5-1.7 9.5-5 13.5-3.2 4-6.5 6-10.2 6-2.2 0-4-.7-5.2-2.3-1.5-1.7-2-3.7-2-6.5 0-4.8 1.3-9.3 3.8-13.3 2.8-4.7 6.7-7.2 11.3-7.2zm-2.6 2.5c-1.8 0-3.5 1.2-5.2 4-1.5 2.8-2.5 6.5-2.5 11.2 0 3 .8 5.2 1.7 7 .8 1.3 1.8 2 2.8 2 1.8 0 3.5-1.2 5-3.5 1.8-3.3 2.5-7 2.5-11.5 0-3.2-.2-5.7-1.3-7.3-.7-1.1-1.7-1.9-3-1.9zM440.8 25.4h4.5l-3 11.8c-1.5 7-2.5 10.7-2.5 11.8 0 .5 0 .7.3 1 .2.3.5.3.8.3s.8 0 1.2-.5c.5-.5 2-1.7 3.7-3.7l1 1.2c-4 4.7-7.3 7-9 7-.8 0-1.2-.3-1.7-.7-.5-.7-.8-1.5-.8-2.5s.2-2.8.8-4.8c-2 2.5-4.2 4.5-7 6.2-1.8 1-3.3 1.7-4.5 1.7-.8 0-1.5-.5-1.7-1-.5-.5-.8-1.3-.8-2.3 0-1 .3-2 .3-3 .2-1.5 1-4.2 2.2-8.5 1.2-5.5 2-8.7 2-9.7 0-.7-.2-1-.8-1-.2 0-.8.3-1.5.7-.5.3-1.8 1.3-3.3 3l-1.2-1.2c2.8-2.8 4.8-4.5 6.3-5.3 1.5-1 2.8-1.2 3.5-1.2.5 0 1 0 1.2.5.2.5.5 1 .5 1.7 0 1.7-.8 5.5-2.2 11.5-1.3 5.5-2 8.8-2 9.5 0 .5.2.8.5 1.3.2.3.5.5.8.5 1.3 0 3-1.2 5-3.2 2.2-2 3.5-4.5 4.3-7l3.1-14.1zM450 32.4l-1-1c2.8-2.7 4.8-4.7 6.3-5.5 1.7-1 3-1.5 4.2-1.5.3 0 .8.3 1 .3.2.3.2.5.2.8 0 .3 0 .7-.2 1.2l-1.3 6.7c2-2.5 4.8-5 8-7.3 1.5-1 3-1.7 4-1.7s1.5.3 2 1c.5.5.8 1.2.8 2.2 0 .7-.2 1.5-.2 2.5-.5 1.5-1.2 4.5-2.8 9.5-1.2 4.5-2 7.8-2 9.3 0 .5 0 .7.2 1 0 .3.3.3.5.3.5 0 1.5-.5 2.8-1.7 1-1 2-1.7 2.8-2.5l.8 1.2c-1.7 2.3-3.7 4-5.8 5.5-1.5.7-2.5 1.2-3.2 1.2-.8 0-1.5-.3-2-1-.2-.5-.5-1.5-.5-3 0-2 1-7 3.5-15 .5-2.8 1-4.5 1-5s-.5-1-1.2-1c-.8 0-1.8.5-3.3 1.5-1.7 1.5-3.5 3-4.8 5-.8 1.2-1.5 3-2 5.7l-2.5 11.8h-4.8c1-3.3 1.8-6.5 2.2-9.7l2.8-12.8c.2-.5.2-1 .2-1 0-.7-.2-1-.8-1-.2 0-.8.3-1.2.7-1.4.8-2.4 2-3.7 3.3zM487 19.4l5-2-2.2 9.2h6.5l-.5 2.5h-6.5l-2.8 11.3c-.8 3.5-1.2 5.8-1.2 7.3 0 .5.2 1 .2 1.3.2.3.8.3 1 .3.8 0 1.8-.3 3-1.3 1.8-1 3.5-2.3 5-3.7l1.2 1.7c-4.5 3.7-7.5 6-9.2 6.8-1.5.7-2.8 1.2-3.5 1.2-.8 0-1.5-.3-2-1-.2-.5-.5-1.5-.5-3s.2-4 1-7.3l3.2-13.5h-5l.5-2.5h5l1.8-7.3z"/><path d="M491 65.1v-1.2c2.8-.3 4.7-1 5.8-2.5 1.5-1.7 2.8-5.7 3.8-12 1-5 1.8-8 2-8.7.5-1.5 1.2-2.8 2-3.5.5-.8 1.2-1 2.2-1.5-1.5-.7-2-2-2-3.8v-2.2c.3-.5.8-2.8 1.8-6.8 1-4.2 1.5-7 1.8-8 .2-1.2.2-2.2.2-3 0-1.2-.5-2.2-1.2-3-.8-.7-2-1-3.8-1.2l.2-1.2c3.2.3 5.2.7 6.5 1.5 1.2 1 1.8 2.5 1.8 4 0 2-.8 6-2.2 12.3-1 4.5-1.5 7-1.5 8s.2 1.7.5 2.2c.5.5 1.2 1 2.5 1.2-1.2.3-2.2.5-3 1.2-.8.8-1.5 1.5-1.8 2.2-.2.8-.8 3.5-2 8.5-1.2 5.8-2 9.5-2.5 11-.8 2-2 3.8-3.5 4.7-1.9 1.1-4.4 1.6-7.6 1.8z"/></svg>
