<svg xmlns="http://www.w3.org/2000/svg" viewBox="0 0 1715 155"><path d="M1050.3 34h12.4c.4 0 .6-.2.7-.5 2.6-11.1 4.6-22 6.1-32.5.1-.4.3-.6.6-.6h29c.2 0 .3.1.3.3v.1l-6.1 32.7c-.1.3.1.5.4.5h124.8c.3 0 .5.2.5.5v20.3c0 .4-.2.6-.6.6h-129.9c-.4 0-.7.3-.8.7-8.1 33.8-19.3 66.3-33.5 97.5-.1.3-.4.5-.7.5h-33.7c-.5 0-.6-.2-.4-.6 16.3-31.7 29.2-64.1 38.5-97.4.1-.2-.1-.5-.3-.5h-46.8c-.2 0-.4-.2-.4-.4v-.1l7.1-45.4c.1-.4.3-.6.7-.6h36.3c.2 0 .4.2.4.4v.1l-5 23.9c-.2.3 0 .5.4.5z"/><path d="M1156.1.4h41.7c.1 0 .3.1.3.2l7.8 28.2c0 .2 0 .3-.2.4h-36.9c-.1 0-.2-.1-.3-.2L1155.8.8c-.1-.2 0-.3.2-.4h.1zm412.5 51h90c.2 0 .3-.1.3-.3V51l-13.7-30.7c-.1-.2 0-.4.2-.4h36.8c.1 0 .2.1.3.2l31.9 61c.1.2 0 .3-.1.4h-41.8c-.1 0-.2-.1-.3-.2l-3.6-8.4c-.1-.1-.2-.2-.3-.2h-152.4c-.2 0-.3-.1-.3-.3v-.2L1558.9.6c.1-.1.2-.1.3-.2h39.1c.2 0 .3.1.3.3v.2l-30.2 50c-.1.1 0 .3.1.4 0 .1.1.1.1.1zm-972.8 70c2.5-15.6 4.1-31.4 4.8-47.5.9-21.3 1.2-42.7 1-64.3 0-.4.2-.6.6-.6h120.1c.2 0 .4.2.4.4V30c0 .3-.2.5-.5.5h-26.6c-.2 0-.5.1-.6.3l-10 12.5c-.1.1-.1.3 0 .4.1 0 .1.1.2.1h34.5c.4 0 .6.2.6.6v47.7c0 2.4-.4 4.7-1.2 6.9-2.3 6.2-7 8.1-13.5 8.1-12.1-.1-23.9-.1-35.3 0-.4 0-.6-.2-.6-.6V91.2c0-.3.2-.5.5-.5h15c2 0 3.4-.9 4.4-2.6.1-.2.3-.5.5-.8 1-1.7.5-2.6-1.5-2.6H672c-.4 0-.6-.2-.6-.6V69.2c0-.4.2-.5.5-.5h18.3c.2 0 .4-.2.4-.4v-7.6c0-.3-.2-.5-.5-.5h-25c-.4 0-.5.2-.5.5v45.8c0 .3-.2.5-.5.5h-28.8c-.4 0-.6-.2-.6-.6V44.5c0-.5.2-.7.7-.7h14.2c.4 0 .6-.2.8-.5l7.2-12.5c.1-.1 0-.3-.1-.4h-28c-.4 0-.5.2-.5.6.1 28.7-.3 56.5-2.4 82.1-1.1 13.5-3.2 27-6.3 40.4-.1.3-.3.5-.6.5h-31.3c-.4 0-.5-.2-.4-.6l1.9-6.4c.1-.4 0-.6-.4-.6h-13.9c-.4 0-.6-.2-.6-.6l-.6-7.6c0-.4-.2-.6-.6-.5l-64.4 6.1c-.4 0-.6-.1-.6-.5v-17.8c0-.3.2-.5.5-.5l34-3.4c.4 0 .5-.2.5-.6V38.5c0-.2-.1-.3-.3-.3H539c-.2 0-.3.1-.3.3v57c0 .3-.2.5-.5.5H514c-.1 0-.3-.1-.3-.3V20c0-.4.2-.6.6-.6h28.8c.3 0 .6-.3.6-.6V.8c0-.2.2-.3.4-.3h.1L566 7.7c.3.1.4.3.4.6V19c0 .3.2.5.5.5h28.8c.4 0 .7.2.7.7v60.3c0 12.8-7.7 15.9-18.7 15.7-3.7-.1-7.2-.1-10.8 0-.3 0-.5.2-.5.5v22.7c0 .2.1.3.3.3l6.3-.8c.1 0 .1-.1.1-.2l-.6-9.1c0-.5.2-.7.6-.7h18.7c.3 0 .5.2.5.4l2.6 12.2c.5 1.1.7 1.1.9-.1zM569.5 76c1.4-.9 2.1-2.2 2.1-3.9V38.5c0-.1-.1-.2-.2-.2h-4.7c-.2 0-.3.1-.3.3v37c0 1.7.7 2 2.1 1.1.4-.3.7-.5 1-.7zM44.7 54.8h43.1c.4 0 .7.2.7.7v82.3c0 3.8-2.6 6.7-6.6 6.7-19 0-38.2.1-57.6 0-.1 0-.2-.1-.2-.2v-36.4c0-.5-.2-.7-.7-.7H.8c-.2 0-.3-.1-.3-.3v-.1c9.7-24 16.8-49 21.4-75 0-.3-.1-.5-.4-.5h-12c-.3-.3-.5-.5-.5-.8V10.2c0-.4.2-.6.6-.6h80.9c.4 0 .5.2.6.6v20.3c0 .3-.2.5-.5.5H50c-.4 0-.6.2-.7.6-1.4 7.7-3.1 15.2-5.2 22.4-.1.5.1.8.6.8zm13.1 67.8c2.1-.6 3.2-1.9 3.2-4.1v-42c0-.2-.1-.3-.3-.3h-9c-.2 0-.3.1-.3.3V122c0 .6.3 1 1 1 2.1.2 3.9 0 5.4-.4zM169 65V31.8c0-.4-.3-.7-.7-.7H96.7c-.2 0-.3-.1-.3-.3V10.2c0-.4.2-.6.6-.6h111.4c.4 0 .6.2.6.6v55.2c0 .2.2.4.4.4h11.4c.4 0 .6.2.6.6.1 25.3.1 49.7 0 73.2 0 7.6-4 14.8-12.5 14.8h-69c-.2 0-.4-.1-.5-.3l-7.2-20.6c-.1-.2 0-.4.2-.5h43.7c3.7 0 5.5-1.9 5.5-5.6V87.9c0-.4-.2-.6-.6-.7H96.9c-.3 0-.5-.2-.5-.5v-47c0-.4.2-.6.6-.5l38.8 7.3c.3.1.4.2.4.5v18.2c0 .4.2.5.5.5h31.4c.6.1.9-.2.9-.7zm174.5 68c5.2 0 5.3-3.3 5.3-7.4V10c0-.3.2-.5.5-.4l38.8 7.3c.4.1.6.3.5.7v121.9c0 7.6-3.9 14.9-12.4 14.9-16.9 0-34.1.1-51.5.1-.4 0-.6-.2-.7-.5l-7.1-20.2c-.2-.5 0-.7.5-.7 8.8-.1 17.4-.1 26.1-.1zM791 95.7h-36.5c-.3 0-.6-.3-.6-.6v-20c0-.4.2-.6.6-.6h39.9c.2 0 .3-.1.3-.3 1.7-14.3 2.9-28.5 3.7-42.5 0-.4-.2-.6-.5-.6h-33.5c-.3 0-.5-.2-.5-.5V9.9c0-.2.1-.3.3-.3h199.4c.2 0 .3.1.3.3v20.5c0 .3-.2.5-.5.5h-28.9c-.3 0-.6.3-.6.6V74c0 .3.1.4.5.4h39c.3 0 .5.2.5.6v20.2c0 .3-.2.5-.5.5h-39c-.3 0-.5.2-.5.5v57.6c0 .4-.2.6-.6.6h-38.8c-.4 0-.6-.2-.6-.6V96c0-.2-.1-.3-.3-.3h-64.5c-.4 0-.6.2-.7.6-.8 5.7-1.6 11.6-2.5 17.7-2.1 13.9-5.5 27.3-10.2 40-.1.3-.3.4-.6.4H774c-.5 0-.6-.2-.4-.6 1.9-4 3.7-8.1 5.7-12.6 6.3-14.5 10.4-29.4 12.3-44.9.1-.4-.1-.6-.6-.6zM835.8 31c-.2 0-.4.1-.4.3L831.5 74c0 .2.1.4.3.4h61.8c.2 0 .4-.2.4-.4V31.4c0-.2-.2-.4-.4-.4h-57.8zM1344 82.3V31.4c0-.2-.2-.4-.4-.4h-79.2c-.2 0-.4-.2-.4-.4V10c0-.2.2-.4.4-.4h199.3c.2 0 .4.2.4.4v20.6c0 .2-.2.4-.4.4h-79.3c-.2 0-.4.2-.4.4v50.9c0 .2.2.4.4.4h89.3c.2 0 .4.2.4.4v20.6c0 .2-.2.4-.4.4h-89.3c-.2 0-.4.2-.4.4v49.7c0 .2-.2.4-.4.4h-39.3c-.2 0-.4-.2-.4-.4v-49.7c0-.2-.2-.4-.4-.4h-89.3c-.2 0-.4-.2-.4-.4V83c0-.2.2-.4.4-.4h89.3c.3.1.5-.1.5-.3zM251.9 154.2c6.3-30.1 10.8-59.9 13.4-89.5 1-11.4 1.6-22.8 1.8-34.3 0-.3.2-.5.5-.5h33.8c.5 0 .7.2.7.7-.4 41.3-3 82.3-7.8 123.1 0 .4-.3.6-.7.6H252c-.1.1-.2.1-.1-.1-.1.1-.1.1 0 0zM452.8 30.6c6.9 31.9 13 64 17 96.6 1.1 8.8 1.9 17.7 2.6 26.6 0 .4-.2.6-.5.6h-41.3c-.3 0-.5-.2-.5-.5-1.2-41-5.8-82.5-12.2-123.5 0-.2.1-.4.4-.5H452c.4.1.8.4.8.7z"/><path d="M1454.9 35.4c-.9 14.4-4.3 28-9.8 41.4-.1.3-.3.4-.7.4h-28.7c-.5 0-.6-.2-.5-.7 4.3-13.6 6.3-27.3 4.7-41.5 0-.1.1-.3.2-.3h34c.6.1.8.3.8.7zM1277.5 77l-4.9-40.6c0-.2.1-.3.3-.3h29.3c.1 0 .3.1.3.2l9.8 40.6c0 .2-.1.3-.2.4h-34.3c-.1-.1-.3-.2-.3-.3zm-99.3 11H1091c-.4 0-.6-.2-.6-.6V67.2c0-.4.2-.6.6-.6h122.6c.3 0 .4.1.4.4v19.7c0 1.2-.7 2-1.5 2.9-11.4 12.4-24.7 23.5-39.8 33.5-.2.1-.3.4-.1.6 0 .1.1.1.2.1l54 29.7c.6.4.6.5-.1.5h-38c-.4 0-.8-.1-1.2-.3l-33-19.1c-.3-.2-.6-.2-.9 0-12.8 7.1-25.9 13.2-39.4 18.3-1.9.7-3.8 1.1-5.7 1.1h-36.3c-.5 0-.5-.1-.1-.3 19.5-10.2 38.8-21.1 57.8-32.7.2-.1.2-.3.1-.5 0-.1-.1-.1-.1-.1l-39.4-22.7c-.4-.2-.3-.3.1-.3h33.5c.4 0 .8.1 1.2.3l21.9 12.1c.2.1.4.1.6 0 10.6-6.8 20.9-13.9 30.7-21.3.4-.3.4-.5-.3-.5zm493.5 19.8c0-.2-.2-.4-.4-.4h-114.5c-.2 0-.4.1-.4.4v45.8c0 .2-.1.4-.3.4h-36.8c-.1 0-.3-.1-.3-.3V86.2c0-.1.1-.2.2-.2h189.2c.3 0 .5.2.5.5V128c0 2.8-.4 5.7-.9 8.6-1.3 7.4-5.5 12.2-12.9 14.4-6.4 1.9-13.7 2.9-22 2.9-36.4.1-72.7.2-108.7.1-.4 0-.5-.2-.5-.5v-17.9c0-.4.2-.6.6-.6h95.9c8.3 0 11.3-6.2 11.2-13.9 0-4.6 0-9 .1-13.3zM96.7 97.7h67.8c.1 0 .3.1.3.3v20.8c0 .1-.1.3-.3.3H96.7c-.1 0-.3-.1-.3-.3V97.9c0-.1.1-.2.3-.2zm555 46.3c-.3-.7-.6-.6-.8 0-.8 2.4-1.9 4.6-3.2 6.8-.2.3-.4.4-.7.4h-21.2c-.5 0-.6-.2-.5-.7 4.6-11.4 5.6-23.7 4.7-36.1 0-.5.2-.7.6-.7h26.3c.3 0 .4.1.4.4-.2 7.8-1.6 15.4-4.1 23-.1.2 0 .4.2.4h.1c4.1.3 9.7.5 9.8-5.3.1-7.8.1-15.7 0-23.8 0-.4.3-.7.7-.7h.2l28.5 7.1c.4.1.5.3.5.7v22.4c0 5.6-1.9 12.2-7.2 14.7-1.9.9-4.7 1.3-8.3 1.3-7-.1-13.9-.1-20.8 0-.4 0-.7-.2-.8-.5l-4.4-9.4zm66-29.7c6 10.8 9.1 24.1 9.7 36.3 0 .4-.2.6-.6.6h-26.3c-.4 0-.5-.2-.5-.5.9-12.3-.1-24.8-4.6-36.1-.2-.5 0-.8.5-.8h20.9c.4 0 .7.2.9.5z"/></svg>