<svg xmlns="http://www.w3.org/2000/svg" viewBox="0 0 726.59 154.25"><path d="M664.71 106.67h-29.76V43.68c3.4 0 6.72-.32 9.96.08 3.97.49 6.18-1.12 7.76-4.56 1.3-2.82 3.01-5.44 4.85-8.72h-28.66c0 1.99.06 3.9 0 5.81-1.01 27.99-1.7 55.99-3.23 83.95-.56 10.25-3.07 20.4-4.92 30.55-.21 1.17-1.89 2.94-2.92 2.96-9.8.23-19.6.13-29.68.13.56-2.64 1.02-4.86 1.61-7.64h-14.6c-.29-2.88-.54-5.3-.87-8.65-21.77 2.04-43.38 4.07-65.27 6.12v-18.74c11.49-1.19 22.84-2.37 34.45-3.58v-83.1c-1.28-.12-2.65-.26-4.49-.43v57.61h-24.91V19.28h29.44V0c7.61 2.55 14.47 4.75 21.23 7.25.77.28 1.22 2.19 1.31 3.39.19 2.61.06 5.25.06 8.44h30.01v5.41c0 18.02.04 36.03-.01 54.05-.03 12.9-4.55 17.29-17.6 17.32h-11.93v23.42c2-.2 3.9-.39 6.02-.61v-9.88c6.04 0 11.96-.1 17.86.12.81.03 1.97 1.54 2.27 2.57.89 2.99 1.42 6.09 2.51 9.11 6.59-36.87 5.87-74.12 6.39-111.55h120.55v21.1c-6.62 0-13.24.39-19.79-.12-5.45-.42-9.21 1.21-11.98 5.89-1.42 2.41-3.44 4.46-5.83 7.49h35.06c.21 1.86.48 3.12.48 4.38.03 14.18.1 28.36 0 42.54-.09 12.39-4.34 16.55-16.54 16.55h-33.63v-15.4c6.55-.92 12.85-1.7 19.1-2.81.65-.12.95-2.18 1.7-4.08h-19.3V68.65h18.69v-8.28h-25.38v46.32Zm-98.23-68.46v38.22c.44.22.87.44 1.31.66 1.18-1.66 3.33-3.3 3.38-4.99.3-11.24.16-22.48.16-33.9h-4.84Zm-434.71 94.65h41.07c7.57 0 8.53-.99 8.54-8.71.02-12.14 0-24.29 0-36.99H96.35V39.01c12.57 2.32 24.83 4.51 37.02 6.97 1 .2 2.24 2.26 2.3 3.51.26 5.14.11 10.29.11 15.83h32.47V30.78H96.29V9.74H208.5v55.8h12.19c.13 2.09.31 3.68.32 5.28.02 22.02.06 44.03-.04 66.05-.01 3.12-.36 6.36-1.25 9.33-1.55 5.15-5.26 7.98-10.79 7.99-22.17.03-44.33.07-66.5-.03-1.31 0-3.39-.99-3.8-2.03-2.44-6.15-4.49-12.46-6.86-19.24ZM49.32 30.55c-1.91 8.31-3.65 15.89-5.51 23.98h43.92c.1 2.21.26 3.96.26 5.71.05 24.83.08 49.67.1 74.5 0 7.74-1.62 9.43-9.34 9.45-18.14.05-36.28.01-54.88.01V107H0c9.92-25.06 17.08-50.02 21.61-76.16H8.99V9.89h81.35v20.67H49.33Zm1.98 91.94c8.22.79 9.33-.15 9.34-7.63.01-9.14 0-18.28 0-27.42V76.23H51.3v46.27Zm265.26 10.37h22.33c9.25 0 9.7-.44 9.7-9.47V9.38c13.47 2.53 26.34 4.95 39.86 7.49v5.42c0 37.85.01 75.71-.03 113.56 0 2.65-.18 5.35-.67 7.95-1.27 6.84-5.14 10.3-12.02 10.36-16.16.15-32.33.12-48.49-.04-1.39-.01-3.54-1.23-4.02-2.42-2.4-5.99-4.36-12.16-6.67-18.83ZM452.44 30.08c8.81 41 16.52 81.8 19.59 123.77h-40.82c-4.14-41.23-8.27-82.4-12.43-123.77zm-185.65-.09h34.9c-.39 41.46-2.94 82.68-7.88 123.97h-42.17c8.34-40.96 14.14-81.89 15.14-123.97Z"/><path d="M626.62 151.01c1.5-12.61 2.92-24.56 4.39-36.94h26.46c-1.27 7.79-2.5 15.36-3.74 22.92 7.11 1.38 9.27-.2 9.33-7.1.06-7.26.01-14.52.01-22.44 10.36 2.6 19.95 5 29.69 7.44 0 8.99.34 17.64-.1 26.26-.42 8.34-5.38 12.63-13.65 12.73-5.49.07-11.01-.34-16.46.12-4.83.41-7.94-.82-9.16-5.79-.35-1.41-1.29-2.68-1.96-4.02-.37.18-.82.27-.86.45-1.41 5.92-5.5 6.91-10.86 6.46-4.61-.39-9.27-.08-13.09-.08ZM164.11 97.92v20.71H96.32V97.92zm532.5 15.84c5.66 0 12.27-.07 18.88.08.89.02 2.04.93 2.59 1.75 4.65 6.84 9.36 26.67 8.37 35.14h-25.46c-1.47-12.38-2.9-24.49-4.38-36.97"/></svg>