<svg version="1.1" id="图层_1" xmlns="http://www.w3.org/2000/svg" xmlns:xlink="http://www.w3.org/1999/xlink" x="0" y="0" viewBox="0 0 373.1 291.7" style="enable-background:new 0 0 373.1 291.7" xml:space="preserve"><style>.st0{fill:#42e8e0}.st4{fill:#fff}.st9{fill:#24126a}.st19{opacity:.8}.st20,.st22,.st37{opacity:.4;fill:#42e8e0;enable-background:new}.st22,.st37{opacity:.3;fill:#0f054c}.st37{opacity:.8;fill:#42e8e0}</style><g id="_图层_2"><g id="_央铋_1"><path class="st0" d="m283.9 240.6-.2-.3 87.5-50.5c1-.6 1.6-1.4 1.6-2.1s-.6-1.6-1.6-2.1l-15.4-8.9.2-.3 15.4 8.9c1.1.6 1.7 1.5 1.7 2.4s-.6 1.8-1.7 2.4l-87.5 50.5zM169.7 253c-.8 0-1.6-.2-2.2-.6L65.6 193.6c-.6-.4-1-.9-1-1.4 0-.4.3-.8.7-1.1l60.8-35.1c1-.6 2.8-.5 3.9.2L232 215c.6.4 1 .9 1 1.4 0 .4-.3.8-.7 1.1l-60.8 35.1c-.5.3-1.1.4-1.8.4zm-104-59.7 101.9 58.9c1.1.6 2.7.7 3.6.2l60.8-35.1c.4-.2.6-.5.6-.8 0-.4-.3-.8-.8-1.1l-101.9-58.9c-1.1-.6-2.7-.7-3.6-.2l-60.8 35.1c-.4.2-.6.5-.6.8 0 .4.3.8.8 1.1z"/><linearGradient id="SVGID_1_" gradientUnits="userSpaceOnUse" x1="229.69" y1="95.98" x2="61.56" y2="95.98" gradientTransform="matrix(1 0 0 -1 0 294)"><stop offset="0" style="stop-color:#5761d7"/><stop offset=".18" style="stop-color:#5b65d8"/><stop offset=".39" style="stop-color:#6a72de"/><stop offset=".61" style="stop-color:#8188e8"/><stop offset=".85" style="stop-color:#a2a6f5"/><stop offset="1" style="stop-color:#bcbeff"/></linearGradient><path d="m232.9 206.2-5.6-.8-97.3-56.2c-1.1-.6-2.8-.7-3.8-.2l-57.9 33.4-3.6-.5v4.7c0 .4.3.9.9 1.2l101.9 58.9c1.1.6 2.8.7 3.8.2l60.8-35.1c.4-.3.6-.6.6-1l.2-4.6z" style="fill:url(#SVGID_1_)"/><linearGradient id="SVGID_00000144297005782006151100000009789788164887450036_" gradientUnits="userSpaceOnUse" x1="-1426.77" y1="99.89" x2="-1258.629" y2="99.89" gradientTransform="rotate(180 -625.21 147)"><stop offset="0" style="stop-color:#c0bff6"/><stop offset=".29" style="stop-color:#c4c3f6"/><stop offset=".64" style="stop-color:#d2d2f9"/><stop offset="1" style="stop-color:#e9e9fd"/></linearGradient><path style="fill:url(#SVGID_00000144297005782006151100000009789788164887450036_)" d="m65.6 183.2 101.9 58.9c1.1.6 2.8.7 3.8.2l60.8-35.1c1-.6.9-1.5-.3-2.2L130 146.1c-1.1-.6-2.8-.7-3.8-.2L65.4 181c-1 .6-.9 1.6.2 2.2z"/><path d="m74.5 184.4 91.1 52.6c1 .6 2.5.6 3.4.1l54.4-31.4c.9-.5.8-1.4-.2-1.9L132 151.2c-1-.6-2.5-.6-3.4-.1l-54.4 31.4c-.8.4-.7 1.3.3 1.9z" style="opacity:.3;fill:#24126a;enable-background:new"/><path class="st4" d="m232.2 206.6-60.8 35.1c-1 .6-2.6.5-3.8-.2l-102-58.8c-.5-.3-.8-.6-.9-1-.2.5.1 1.1.9 1.5l101.9 58.9c1.1.6 2.8.7 3.8.2l60.8-35.1c.5-.3.7-.8.6-1.2 0 .2-.2.4-.5.6z"/><path class="st0" d="m166.1 153.8-.2-.3 32.4-18.7-85.1-49.1c-2.4-1.4-5.4-1.4-7.8 0l-27.7 16-.2-.3 27.7-16c2.5-1.4 5.6-1.4 8.1 0l85.6 49.4-.2.1-32.6 18.9zm183.5 26.4-16.5-9.2c-3.7-2.1-6.9-6.6-8.1-11.3l-14.3-58.9c-.9-3.7-2.9-6.9-5.2-9.1l-2 6.1c-.5 1.5-1.4 2.6-2.7 3.1-1.5.6-3.5.3-5.4-.8l-2.3-1.3-2.1 6.3c-.5 1.5-1.4 2.6-2.7 3.1-1.5.6-3.5.3-5.4-.8l-3-1.7c-3.4-2-6.6-6.3-7.8-10.7-1.1-4-3.4-7.2-5.9-9.2l-1.4 2.9c-.6 1.2-1.5 2.1-2.6 2.4-1.5.5-3.3.1-5.2-.9l-1.6-.9-3.1 6.6c-.6 1.2-1.5 2.1-2.6 2.4-1.5.5-3.3.1-5.2-.9l-3.4-2c-3.7-2.2-6.9-6.8-8-11.5L219 20c-.9-4-3.1-7.3-5.5-9.6L193 66.5c-.5 1.4-1.4 2.4-2.7 2.9-1.5.6-3.4.2-5.4-.9l-2.1-1.2-2.4 6.4c-.5 1.4-1.4 2.4-2.7 2.9-1.5.6-3.4.2-5.4-.9l-11.9-6.9 12.8-7.4h.1l9.3 5.3 20.7-56.5c.8-2.2 2.4-3.3 4.5-3.2 1.7.1 3.7 1.1 5.5 2.6l2.4-6.7c.8-2.2 2.4-3.3 4.5-3.2 4.2.3 9.9 5.6 11.5 12.7L246 76.3c1 4.6 4.2 9.2 7.9 11.3l1.6.9 1.4-3.1c.9-1.9 2.5-2.8 4.5-2.6 1.5.1 3.2.9 4.9 2.2l3.2-6.7c.9-1.9 2.5-2.8 4.5-2.6 3.9.3 9.2 4.9 11.2 11.8 1.2 4.3 4.3 8.6 7.6 10.5l.3.2 2.1-6.5c.7-2.3 2.3-3.5 4.5-3.4 1.8.1 4 1.1 5.9 2.8l2.1-6.6c.7-2.3 2.3-3.5 4.5-3.4 4.2.2 9.8 5.2 11.6 12.4l14.3 58.9c1.1 4.6 4.3 9.1 7.9 11.1l16.5 9.2-.2.3-16.5-9.2c-3.7-2.1-6.9-6.6-8.1-11.3l-14.3-58.9c-1.7-7-7.3-12-11.3-12.2h-.2c-1.9 0-3.3 1.1-3.9 3.2l-2.2 6.7c2.4 2.2 4.5 5.5 5.4 9.4l14.3 58.9c1.1 4.6 4.3 9.1 7.9 11.1l16.5 9.2-.3.3zm-83.1-95c2.5 2.1 4.9 5.4 6 9.5 1.2 4.3 4.3 8.6 7.6 10.5l3 1.7c1.9 1.1 3.7 1.4 5.1.8 1.2-.4 2-1.4 2.5-2.9l2.1-6.4-.4-.2c-3.4-2-6.6-6.3-7.8-10.7-1.9-6.8-7.1-11.3-10.9-11.6-1.9-.2-3.3.7-4.1 2.4l-3.1 6.9zm26.7 13.1 2.4 1.4c1.9 1.1 3.7 1.4 5.1.8 1.2-.4 2-1.4 2.5-2.9l2-6.2c-1.9-1.7-4-2.8-5.8-2.8-2-.1-3.4 1-4.1 3.2l-2.1 6.5zm-79.6-88.2c2.6 2.3 4.8 5.7 5.7 9.8l14.2 63.6c1 4.6 4.2 9.2 7.9 11.3l3.4 2c1.8 1 3.5 1.3 4.9.9 1.1-.3 1.9-1.1 2.4-2.2l3.1-6.6-1.6-.9c-3.7-2.2-6.9-6.8-8-11.5l-14.2-63.6c-1.6-7-7.2-12.2-11.2-12.4-2-.1-3.4.9-4.2 2.9l-2.4 6.7zm42.1 78.6 1.6.9c1.8 1 3.5 1.3 4.9.9 1.1-.3 1.9-1.1 2.5-2.2l1.4-3c-1.6-1.3-3.3-2-4.8-2.2-1.9-.2-3.3.7-4.1 2.4l-1.5 3.2zm-94.6-19.9 11.5 6.6c1.9 1.1 3.7 1.4 5.1.9 1.1-.4 2-1.3 2.5-2.7l2.4-6.5-9.2-5.3-12.3 7zm21.8-1.8 2.2 1.2c1.9 1.1 3.7 1.4 5.1.9 1.1-.4 2-1.3 2.5-2.7l20.6-56.2c-1.8-1.6-3.8-2.5-5.4-2.6-2-.1-3.4.9-4.2 2.9L182.9 67z"/><path class="st0" d="m205.4 8-.2-.3L217.8.5l.2.3L205.4 8zM258.4 83.6l12.7-7.4.2.3-12.7 7.4-.2-.3zM296.8 89l13.3-7.6.2.3-13.3 7.6-.2-.3z"/><path class="st0" d="m349.6 180.2-16.5-9.2c-3.7-2.1-6.9-6.6-8.1-11.3l-14.3-58.9c-.9-3.7-2.9-6.9-5.2-9.1l-2 6.1c-.5 1.5-1.4 2.6-2.7 3.1-1.5.6-3.5.3-5.4-.8l-2.3-1.3-2.1 6.3c-.5 1.5-1.4 2.6-2.7 3.1-1.5.6-3.5.3-5.4-.8l-3-1.7c-3.4-2-6.6-6.3-7.8-10.7-1.1-4-3.4-7.2-5.9-9.2l-1.4 2.9c-.6 1.2-1.5 2.1-2.6 2.4-1.5.5-3.3.1-5.2-.9l-1.6-.9-3.1 6.6c-.6 1.2-1.5 2.1-2.6 2.4-1.5.5-3.3.1-5.2-.9l-3.4-2c-3.7-2.2-6.9-6.8-8-11.5L219 20c-.9-4-3.1-7.3-5.5-9.6L193 66.5c-.5 1.4-1.4 2.4-2.7 2.9-1.5.6-3.4.2-5.4-.9l-2.1-1.2-2.4 6.4c-.5 1.4-1.4 2.4-2.7 2.9-1.5.6-3.4.2-5.4-.9l-11.9-6.9 12.8-7.4h.1l9.3 5.3 20.7-56.5c.8-2.2 2.4-3.3 4.5-3.2 1.7.1 3.7 1.1 5.5 2.6l2.4-6.7c.8-2.2 2.4-3.3 4.5-3.2 4.2.3 9.9 5.6 11.5 12.7L246 76.3c1 4.6 4.2 9.2 7.9 11.3l1.6.9 1.4-3.1c.9-1.9 2.5-2.8 4.5-2.6 1.5.1 3.2.9 4.9 2.2l3.2-6.7c.9-1.9 2.5-2.8 4.5-2.6 3.9.3 9.2 4.9 11.2 11.8 1.2 4.3 4.3 8.6 7.6 10.5l.3.2 2.1-6.5c.7-2.3 2.3-3.5 4.5-3.4 1.8.1 4 1.1 5.9 2.8l2.1-6.6c.7-2.3 2.3-3.5 4.5-3.4 4.2.2 9.8 5.2 11.6 12.4l14.3 58.9c1.1 4.6 4.3 9.1 7.9 11.1l16.5 9.2-.2.3-16.5-9.2c-3.7-2.1-6.9-6.6-8.1-11.3l-14.3-58.9c-1.7-7-7.3-12-11.3-12.2h-.2c-1.9 0-3.3 1.1-3.9 3.2l-2.2 6.7c2.4 2.2 4.5 5.5 5.4 9.4l14.3 58.9c1.1 4.6 4.3 9.1 7.9 11.1l16.5 9.2-.3.3zm-83.1-95c2.5 2.1 4.9 5.4 6 9.5 1.2 4.3 4.3 8.6 7.6 10.5l3 1.7c1.9 1.1 3.7 1.4 5.1.8 1.2-.4 2-1.4 2.5-2.9l2.1-6.4-.4-.2c-3.4-2-6.6-6.3-7.8-10.7-1.9-6.8-7.1-11.3-10.9-11.6-1.9-.2-3.3.7-4.1 2.4l-3.1 6.9zm26.7 13.1 2.4 1.4c1.9 1.1 3.7 1.4 5.1.8 1.2-.4 2-1.4 2.5-2.9l2-6.2c-1.9-1.7-4-2.8-5.8-2.8-2-.1-3.4 1-4.1 3.2l-2.1 6.5zm-79.6-88.2c2.6 2.3 4.8 5.7 5.7 9.8l14.2 63.6c1 4.6 4.2 9.2 7.9 11.3l3.4 2c1.8 1 3.5 1.3 4.9.9 1.1-.3 1.9-1.1 2.4-2.2l3.1-6.6-1.6-.9c-3.7-2.2-6.9-6.8-8-11.5l-14.2-63.6c-1.6-7-7.2-12.2-11.2-12.4-2-.1-3.4.9-4.2 2.9l-2.4 6.7zm42.1 78.6 1.6.9c1.8 1 3.5 1.3 4.9.9 1.1-.3 1.9-1.1 2.5-2.2l1.4-3c-1.6-1.3-3.3-2-4.8-2.2-1.9-.2-3.3.7-4.1 2.4l-1.5 3.2zm-94.6-19.9 11.5 6.6c1.9 1.1 3.7 1.4 5.1.9 1.1-.4 2-1.3 2.5-2.7l2.4-6.5-9.2-5.3-12.3 7zm21.8-1.8 2.2 1.2c1.9 1.1 3.7 1.4 5.1.9 1.1-.4 2-1.3 2.5-2.7l20.6-56.2c-1.8-1.6-3.8-2.5-5.4-2.6-2-.1-3.4.9-4.2 2.9L182.9 67z"/><linearGradient id="SVGID_00000114775221791848000740000001529721503803520690_" gradientUnits="userSpaceOnUse" x1="173.26" y1="207.474" x2="362.17" y2="207.474" gradientTransform="matrix(1 0 0 -1 0 294)"><stop offset="0" style="stop-color:#42e8e0"/><stop offset=".11" style="stop-color:#36b5bf"/><stop offset=".22" style="stop-color:#2c87a0"/><stop offset=".34" style="stop-color:#235f86"/><stop offset=".46" style="stop-color:#1b3e71"/><stop offset=".58" style="stop-color:#162560"/><stop offset=".71" style="stop-color:#121355"/><stop offset=".85" style="stop-color:#0f084e"/><stop offset="1" style="stop-color:#0f054c"/></linearGradient><path style="opacity:.5;fill:url(#SVGID_00000114775221791848000740000001529721503803520690_);enable-background:new" d="m173.3 61.6 11.7 6.8c3.5 2 6.6 1.3 7.8-1.9l23.1-63.2c2.6-7.2 13.4-.7 15.7 9.5l14.2 63.6c1 4.7 4.3 9.3 7.9 11.4l3.4 2c3.3 1.9 6.3 1.4 7.6-1.4l4.7-10c2.9-6.2 12.7-.3 15.3 9.2 1.2 4.4 4.3 8.6 7.7 10.6l3 1.7c3.6 2.1 6.8 1.2 7.9-2.1l4.3-13.2c2.4-7.4 13.3-1.2 15.7 9l14.3 58.9c1.1 4.6 4.4 9.2 8 11.2l16.5 9.2L173.3 61.6z"/><linearGradient id="SVGID_00000001621992384786234650000003204236077566265745_" gradientUnits="userSpaceOnUse" x1="160.76" y1="200.464" x2="349.67" y2="200.464" gradientTransform="matrix(1 0 0 -1 0 294)"><stop offset="0" style="stop-color:#42e8e0"/><stop offset=".11" style="stop-color:#36b5bf"/><stop offset=".22" style="stop-color:#2c87a0"/><stop offset=".34" style="stop-color:#235f86"/><stop offset=".46" style="stop-color:#1b3e71"/><stop offset=".58" style="stop-color:#162560"/><stop offset=".71" style="stop-color:#121355"/><stop offset=".85" style="stop-color:#0f084e"/><stop offset="1" style="stop-color:#0f054c"/></linearGradient><path style="opacity:.5;fill:url(#SVGID_00000001621992384786234650000003204236077566265745_);enable-background:new" d="m160.8 68.6 11.7 6.8c3.5 2 6.6 1.3 7.8-1.9l23.1-63.2c2.6-7.2 13.4-.7 15.7 9.5l14.2 63.6c1 4.7 4.3 9.3 7.9 11.4l3.4 2c3.3 1.9 6.3 1.4 7.6-1.4l4.7-10c2.9-6.2 12.7-.3 15.3 9.2 1.2 4.4 4.3 8.6 7.7 10.6l3 1.7c3.6 2.1 6.8 1.2 7.9-2.1l4.3-13.2c2.4-7.4 13.3-1.2 15.7 9l14.3 58.9c1.1 4.6 4.4 9.2 8 11.2l16.5 9.2L160.8 68.6z"/><path class="st0" d="M70.4 163.4c-1.6 0-3.1-.3-4.3-1L46.3 151c-1.2-.7-1.8-1.6-1.8-2.6s.7-1.9 1.8-2.6l19.8-11.4c2.4-1.4 6.2-1.4 8.6 0l19.8 11.4c1.2.7 1.8 1.6 1.8 2.6s-.7 1.9-1.8 2.6l-19.8 11.4c-1.2.6-2.7 1-4.3 1zm-4.1-1.3c2.3 1.3 6 1.3 8.2 0l19.8-11.4c1.1-.6 1.7-1.4 1.7-2.3s-.6-1.7-1.7-2.3l-19.8-11.4c-2.3-1.3-6-1.3-8.2 0l-19.8 11.4c-1.1.6-1.7 1.4-1.7 2.3s.6 1.7 1.7 2.3l19.8 11.4z"/><linearGradient id="SVGID_00000030477445868231698960000005887432278166154163_" gradientUnits="userSpaceOnUse" x1="-1499.192" y1="173.655" x2="-1380.218" y2="173.655" gradientTransform="rotate(180 -625.21 147)"><stop offset="0" style="stop-color:#c0bff6"/><stop offset=".29" style="stop-color:#c4c3f6"/><stop offset=".64" style="stop-color:#d2d2f9"/><stop offset="1" style="stop-color:#e9e9fd"/></linearGradient><path style="fill:url(#SVGID_00000030477445868231698960000005887432278166154163_)" d="m129.8 127.8 12.9-76.5-1-.4 1.6-.9c.3-.2.7-.2 1.2.1l103 59.5c.9.5 1.5 1.7 1.3 2.6l-13 77.1c-.1.4-.3.7-.5.8s-1.5.9-1.5.9l-.3-1.4h.1l-102.4-59.1c-.9-.6-1.5-1.9-1.4-2.7z"/><linearGradient id="SVGID_00000085967904845614367560000001636424164648704429_" gradientUnits="userSpaceOnUse" x1="-1499.168" y1="143.14" x2="-1478.75" y2="143.14" gradientTransform="rotate(180 -625.21 147)"><stop offset="0" style="stop-color:#5761d7"/><stop offset=".18" style="stop-color:#5b65d8"/><stop offset=".39" style="stop-color:#6a72de"/><stop offset=".61" style="stop-color:#8188e8"/><stop offset=".85" style="stop-color:#a2a6f5"/><stop offset="1" style="stop-color:#bcbeff"/></linearGradient><path style="fill:url(#SVGID_00000085967904845614367560000001636424164648704429_)" d="m246.8 111.6 1.7-.8c.2.4.3.9.2 1.3l-13 77.1c-.1.4-.3.7-.5.8s-1.5.9-1.5.9l-.3-1.4h.1l-5.2-3 18.5-74.9z"/><path class="st9" d="m129.5 131.3 103 59.5c.8.5 1.5.2 1.6-.6l13-77.1c.1-.9-.5-2.1-1.3-2.6L142.8 51c-.8-.5-1.5-.2-1.6.6l-13 77.1c-.2.9.5 2.1 1.3 2.6z"/><g style="opacity:.51"><path d="m142.4 52.4 103.5 59.7-13.1 77.3-103.4-59.7 13-77.3z" style="fill:#453c9e"/></g><linearGradient id="SVGID_00000071561257040417818830000006483438341145569441_" gradientUnits="userSpaceOnUse" x1="-1483.23" y1="109.84" x2="-1315.19" y2="109.84" gradientTransform="rotate(180 -625.21 147)"><stop offset="0" style="stop-color:#5761d7"/><stop offset=".18" style="stop-color:#5b65d8"/><stop offset=".39" style="stop-color:#6a72de"/><stop offset=".61" style="stop-color:#8188e8"/><stop offset=".85" style="stop-color:#a2a6f5"/><stop offset="1" style="stop-color:#bcbeff"/></linearGradient><path style="fill:url(#SVGID_00000071561257040417818830000006483438341145569441_)" d="m64.8 167.8 5.6 2.9 56.4-32.5c.9-.5 2.6-.5 3.7.1l97.2 56.1c.9-.5 5.2-2.6 5.2-2.6l-2.1 3.3c-.1.2-.3.5-.6.6L170.8 230c-.9.5-2.6.5-3.7-.1l-99.5-57.4c-.4-.3-.7-.6-.8-.9s-2-3.8-2-3.8z"/><linearGradient id="SVGID_00000161595517366216600180000006554490473231853444_" gradientUnits="userSpaceOnUse" x1="-1426.77" y1="114.43" x2="-1258.629" y2="114.43" gradientTransform="rotate(180 -625.21 147)"><stop offset="0" style="stop-color:#c0bff6"/><stop offset=".29" style="stop-color:#c4c3f6"/><stop offset=".64" style="stop-color:#d2d2f9"/><stop offset="1" style="stop-color:#e9e9fd"/></linearGradient><path style="fill:url(#SVGID_00000161595517366216600180000006554490473231853444_)" d="m65.6 168.7 101.9 58.9c1.1.6 2.8.7 3.8.2l60.8-35.1c1-.6.9-1.5-.3-2.2L130 131.6c-1.1-.6-2.8-.7-3.8-.2l-60.8 35.1c-1 .6-.9 1.6.2 2.2z"/><path class="st4" d="m65.6 168.2 101.9 58.9c1.1.6 2.8.7 3.8.2l60.8-35.1c.3-.2.5-.4.6-.7.1.4-.1.9-.6 1.2l-60.8 35.1c-1 .6-2.6.5-3.8-.2L65.6 168.7c-.7-.4-1-1-.9-1.5.1.4.4.8.9 1z"/><g style="opacity:.15"><defs><path id="SVGID_00000177449098701715606370000001001840301907174559_" d="M245.9 112.1 142.4 52.4l-13 77.3 103.5 59.7 13-77.3z"/></defs><clipPath id="SVGID_00000160881053495882949290000002385298643129481405_"><use xlink:href="#SVGID_00000177449098701715606370000001001840301907174559_" style="overflow:visible"/></clipPath><g style="clip-path:url(#SVGID_00000160881053495882949290000002385298643129481405_)"><linearGradient id="SVGID_00000173162766268914188740000002372198530140591530_" gradientUnits="userSpaceOnUse" x1="-1547.85" y1="146.82" x2="-1379.81" y2="146.82" gradientTransform="rotate(180 -625.21 147)"><stop offset="0" style="stop-color:#5761d7"/><stop offset=".18" style="stop-color:#5b65d8"/><stop offset=".39" style="stop-color:#6a72de"/><stop offset=".61" style="stop-color:#8188e8"/><stop offset=".85" style="stop-color:#a2a6f5"/><stop offset="1" style="stop-color:#bcbeff"/></linearGradient><path style="fill:url(#SVGID_00000173162766268914188740000002372198530140591530_)" d="m129.4 130.8 5.6 2.9 56.4-32.5c.9-.5 2.6-.5 3.7.2l97.2 56.1c.9-.5 5.2-2.6 5.2-2.6l-2.1 3.3c-.1.2-.3.5-.6.6l-59.4 34.3c-.9.5-2.6.5-3.7-.1l-99.5-57.4c-.4-.3-.7-.6-.8-.9s-2-3.9-2-3.9z"/><linearGradient id="SVGID_00000016057198221856255190000004715909117149110958_" gradientUnits="userSpaceOnUse" x1="-1491.39" y1="151.42" x2="-1323.249" y2="151.42" gradientTransform="rotate(180 -625.21 147)"><stop offset="0" style="stop-color:#c0bff6"/><stop offset=".29" style="stop-color:#c4c3f6"/><stop offset=".64" style="stop-color:#d2d2f9"/><stop offset="1" style="stop-color:#e9e9fd"/></linearGradient><path style="fill:url(#SVGID_00000016057198221856255190000004715909117149110958_)" d="m130.3 131.7 101.9 58.9c1.1.6 2.8.7 3.8.2l60.8-35.1c1-.6.9-1.5-.3-2.2l-102-58.9c-1.1-.6-2.8-.7-3.8-.2L130 129.5c-1 .6-.9 1.6.3 2.2z"/><path class="st4" d="m296.5 153.4-102-58.9c-.7-.4-1.7-.6-2.5-.5.6.1 1.3.2 1.8.5l101.9 58.9c1.1.6 1.2 1.6.3 2.2l-60.8 35.1c-.3.2-.8.3-1.2.4.7.1 1.5-.1 2-.4l60.8-35.1c1-.5.9-1.5-.3-2.2z"/><g style="opacity:.5"><path class="st9" d="m183.7 121.6-3.3-1.9c-.3-.2-.7-.1-1 0l-3.6 2.1c-.3.2-.3.4 0 .6l3.3 1.9c.3.2.7.1 1 0l3.6-2.1c.2-.2.2-.4 0-.6zm5 2.9-3.3-1.9c-.3-.2-.7-.1-1 0l-3.6 2.1c-.3.2-.3.4 0 .6l3.3 1.9c.3.2.7.1 1 0l3.6-2.1c.3-.2.3-.4 0-.6zm5.1 2.9-3.3-1.9c-.3-.2-.7-.1-1 0l-3.6 2.1c-.3.2-.3.4 0 .6l3.3 1.9c.3.1.7.1 1 0l3.6-2.1c.2-.2.2-.4 0-.6zm-3.9 3.9-3.3-1.9c-.3-.1-.7-.1-1 0l-3.1 1.8c-.3.2-.3.4 0 .6l3.3 1.9c.3.1.7.1 1 0l3.1-1.8c.3-.2.3-.4 0-.6zm5.1 2.9-3.3-1.9c-.3-.1-.7-.1-1 0l-3.1 1.8c-.3.2-.3.4 0 .6l3.3 1.9c.3.1.7.1 1 0l3.1-1.8c.2-.2.2-.4 0-.6zm5 2.9-3.3-1.9c-.3-.1-.7-.1-1 0l-3.1 1.8c-.3.2-.3.4 0 .6l3.3 1.9c.3.1.7.1 1 0l3.1-1.8c.3-.2.3-.4 0-.6zm5.1 2.9-3.3-1.9c-.3-.1-.7-.1-1 0l-3.1 1.8c-.3.2-.3.4 0 .6l3.3 1.9c.3.1.7.1 1 0l3.1-1.8c.2-.2.2-.4 0-.6zm5 2.9-3.3-1.9c-.3-.1-.7-.1-1 0l-3.1 1.8c-.3.2-.3.4 0 .6l3.3 1.9c.3.1.7.1 1 0l3.1-1.8c.3-.1.3-.4 0-.6zm5 3-3.3-1.9c-.3-.1-.7-.1-1 0l-3.1 1.8c-.3.2-.3.4 0 .6l3.3 1.9c.3.1.7.1 1 0l3.1-1.8c.3-.2.3-.5 0-.6zm5.1 2.9-3.3-1.9c-.3-.1-.7-.1-1 0l-3.1 1.8c-.3.2-.3.4 0 .6l3.3 1.9c.3.1.7.1 1 0l3.1-1.8c.2-.2.3-.5 0-.6zm5 2.9-3.3-1.9c-.3-.1-.7-.1-1 0l-3.1 1.8c-.3.2-.3.4 0 .6l3.3 1.9c.3.1.7.1 1 0l3.1-1.8c.3-.2.3-.4 0-.6zm5.1 2.9-3.3-1.9c-.3-.1-.7-.1-1 0l-3.1 1.8c-.3.2-.3.4 0 .6l3.3 1.9c.3.1.7.1 1 0l3.1-1.8c.2-.2.2-.4 0-.6zm5 2.9-3.3-1.9c-.3-.1-.7-.1-1 0l-3.1 1.8c-.3.2-.3.4 0 .6l3.3 1.9c.3.1.7.1 1 0l3.1-1.8c.3-.2.3-.4 0-.6zm-47.5-22-3.3-1.9c-.3-.1-.7-.1-1 0l-3.1 1.8c-.3.2-.3.4 0 .6l3.3 1.9c.3.1.7.1 1 0l3.1-1.8c.3-.2.3-.5 0-.6zm-5.1-3-3.3-1.9c-.3-.1-.7-.1-1 0l-3.1 1.8c-.3.2-.3.4 0 .6l3.3 1.9c.3.1.7.1 1 0l3.1-1.8c.2-.2.3-.4 0-.6zm-5.1-3-7-4.1c-.3-.2-.7-.1-1 0l-3.1 1.8c-.3.2-.3.4 0 .6l7 4.1c.3.1.7.1 1 0l3.1-1.8c.2-.2.2-.4 0-.6zm-6 2-5.7-3.3c-.3-.1-.7-.1-1 0l-3.1 1.8c-.3.2-.3.4 0 .6l5.7 3.3c.3.1.7.1 1 0l3.1-1.8c.3-.2.3-.5 0-.6zm21.3 6.9-3.3-1.9c-.3-.1-.7-.1-1 0l-3.1 1.8c-.3.2-.3.4 0 .6l3.3 1.9c.3.1.7.1 1 0l3.1-1.8c.2-.2.2-.5 0-.6zm5 2.9-3.3-1.9c-.3-.1-.7-.1-1 0l-3.1 1.8c-.3.2-.3.4 0 .6l3.3 1.9c.3.1.7.1 1 0l3.1-1.8c.2-.2.3-.5 0-.6zm5 2.9-3.3-1.9c-.3-.1-.7-.1-1 0l-3.1 1.8c-.3.2-.3.4 0 .6l3.3 1.9c.3.1.7.1 1 0l3.1-1.8c.3-.2.3-.4 0-.6zm5.1 2.9-3.3-1.9c-.3-.1-.7-.1-1 0l-3.1 1.8c-.3.2-.3.4 0 .6l3.3 1.9c.3.1.7.1 1 0l3.1-1.8c.2-.2.3-.4 0-.6zm5 2.9-3.3-1.9c-.3-.1-.7-.1-1 0l-3.1 1.8c-.3.2-.3.4 0 .6l3.3 1.9c.3.1.7.1 1 0l3.1-1.8c.3-.2.3-.4 0-.6zm5.1 2.9-3.3-1.9c-.3-.1-.7-.1-1 0l-3.1 1.8c-.3.2-.3.4 0 .6l3.3 1.9c.3.1.7.1 1 0l3.1-1.8c.2-.1.3-.4 0-.6zm5 3-3.3-1.9c-.3-.1-.7-.1-1 0l-3.1 1.8c-.3.2-.3.4 0 .6l3.3 1.9c.3.1.7.1 1 0l3.1-1.8c.3-.2.3-.5 0-.6zm5.1 2.9-3.3-1.9c-.3-.1-.7-.1-1 0l-3.1 1.8c-.3.2-.3.4 0 .6l3.3 1.9c.3.1.7.1 1 0l3.1-1.8c.2-.2.2-.5 0-.6zm5 2.9-3.3-1.9c-.3-.1-.7-.1-1 0l-3.1 1.8c-.3.2-.3.4 0 .6l3.3 1.9c.3.1.7.1 1 0l3.1-1.8c.3-.2.3-.5 0-.6zm9 5.2-7.1-4.1c-.3-.1-.7-.1-1 0l-3.1 1.8c-.3.2-.3.4 0 .6l7.1 4.1c.3.1.7.1 1 0l3.1-1.8c.2-.2.3-.5 0-.6zm-9.3 5.4-6-3.5c-.3-.1-.7-.1-1 0l-3.1 1.8c-.3.2-.3.4 0 .6l6 3.5c.3.1.7.1 1 0l3.1-1.8c.3-.2.3-.5 0-.6zm-40.7-29-3.3-1.9c-.3-.1-.7-.1-1 0l-3.1 1.8c-.3.2-.3.4 0 .6l3.3 1.9c.3.1.7.1 1 0l3.1-1.8c.2-.1.2-.4 0-.6zm-5.2-2.9-3.3-1.9c-.3-.1-.7-.1-1 0l-3.1 1.8c-.3.2-.3.4 0 .6l3.3 1.9c.3.1.7.1 1 0l3.1-1.8c.2-.2.2-.5 0-.6zm-5.2-3-3.3-1.9c-.3-.1-.7-.1-1 0l-3.1 1.8c-.3.2-.3.4 0 .6l3.3 1.9c.3.1.7.1 1 0l3.1-1.8c.3-.2.3-.5 0-.6zm-5.2-3-3.3-1.9c-.3-.1-.7-.1-1 0l-3.1 1.8c-.3.2-.3.4 0 .6l3.3 1.9c.3.1.7.1 1 0l3.1-1.8c.3-.2.3-.5 0-.6zm20.6 11.8-3.3-1.9c-.3-.1-.7-.1-1 0l-3.1 1.8c-.3.2-.3.4 0 .6l3.3 1.9c.3.1.7.1 1 0l3.1-1.8c.2-.1.3-.4 0-.6zm5 3-3.3-1.9c-.3-.1-.7-.1-1 0l-3.1 1.8c-.3.2-.3.4 0 .6l3.3 1.9c.3.1.7.1 1 0l3.1-1.8c.3-.2.3-.5 0-.6zm5.1 2.9-3.3-1.9c-.3-.1-.7-.1-1 0l-3 1.8c-.3.2-.3.4 0 .6l3.3 1.9c.3.1.7.1 1 0l3.1-1.8c.2-.2.2-.5-.1-.6zm5 2.9-3.3-1.9c-.3-.1-.7-.1-1 0l-3.1 1.8c-.3.2-.3.4 0 .6l3.3 1.9c.3.1.7.1 1 0l3.1-1.8c.3-.2.3-.4 0-.6zm5.1 2.9-3.3-1.9c-.3-.1-.7-.1-1 0l-3.1 1.8c-.3.2-.3.4 0 .6l3.3 1.9c.3.1.7.1 1 0l3.1-1.8c.2-.2.3-.4 0-.6zm5 2.9-3.3-1.9c-.3-.1-.7-.1-1 0l-3.1 1.8c-.3.2-.3.4 0 .6l3.3 1.9c.3.1.7.1 1 0l3.1-1.8c.3-.2.3-.4 0-.6zm5.1 2.9-3.3-1.9c-.3-.1-.7-.1-1 0l-3.1 1.8c-.3.2-.3.4 0 .6l3.3 1.9c.3.1.7.1 1 0l3.1-1.8c.2-.2.2-.4 0-.6zm5 2.9-3.3-1.9c-.3-.1-.7-.1-1 0l-3.1 1.8c-.3.2-.3.4 0 .6l3.3 1.9c.3.1.7.1 1 0l3.1-1.8c.3-.1.3-.4 0-.6zm5.1 3-3.3-1.9c-.3-.1-.7-.1-1 0l-3.1 1.8c-.3.2-.3.4 0 .6l3.3 1.9c.3.1.7.1 1 0l3.1-1.8c.2-.2.2-.5 0-.6zM180 141.7l-3.3-1.9c-.3-.1-.7-.1-1 0l-3.1 1.8c-.3.2-.3.4 0 .6l3.3 1.9c.3.1.7.1 1 0l3.1-1.8c.2-.2.2-.5 0-.6zm-5.1-2.9-3.3-1.9c-.3-.1-.7-.1-1 0l-3.1 1.8c-.3.2-.3.4 0 .6l3.3 1.9c.3.1.7.1 1 0l3.1-1.8c.3-.2.3-.5 0-.6zm-5-2.9-3.3-1.9c-.3-.1-.7-.1-1 0l-3.1 1.8c-.3.2-.3.4 0 .6l3.3 1.9c.3.1.7.1 1 0l3.1-1.8c.3-.2.3-.5 0-.6zm-5-2.9-3.3-1.9c-.3-.1-.7-.1-1 0l-3.1 1.8c-.3.2-.3.4 0 .6l3.3 1.9c.3.1.7.1 1 0l3.1-1.8c.2-.2.3-.5 0-.6zm-4.9 2.8-3.3-1.9c-.3-.1-.7-.1-1 0l-1 .6c-.3.2-.3.4 0 .6l3.3 1.9c.3.1.7.1 1 0l1-.6c.3-.2.3-.4 0-.6zm6.6 3.8-3.3-1.9c-.3-.1-.7-.1-1 0l-1 .6c-.3.2-.3.4 0 .6l3.3 1.9c.3.1.7.1 1 0l1-.6c.2-.2.3-.4 0-.6zm5 2.9-3.3-1.9c-.3-.1-.7-.1-1 0l-1 .6c-.3.2-.3.4 0 .6l3.3 1.9c.3.1.7.1 1 0l1-.6c.2-.2.3-.5 0-.6zm5 2.9-3.3-1.9c-.3-.1-.7-.1-1 0l-1 .6c-.3.2-.3.4 0 .6l3.3 1.9c.3.1.7.1 1 0l1-.6c.2-.2.3-.5 0-.6zm5 2.9-3.3-1.9c-.3-.1-.7-.1-1 0l-1 .6c-.3.2-.3.4 0 .6l3.3 1.9c.3.1.7.1 1 0l1-.6c.2-.2.3-.5 0-.6zm27.9 16.1-3.3-1.9c-.3-.1-.7-.1-1 0l-1 .6c-.3.2-.3.4 0 .6l3.3 1.9c.3.1.7.1 1 0l1-.6c.3-.2.3-.5 0-.6zm5 2.9-3.3-1.9c-.3-.1-.7-.1-1 0l-1 .6c-.3.2-.3.4 0 .6l3.3 1.9c.3.1.7.1 1 0l1-.6c.3-.2.3-.5 0-.6zm5 2.8-3.3-1.9c-.3-.1-.7-.1-1 0l-1 .6c-.3.2-.3.4 0 .6l3.3 1.9c.3.1.7.1 1 0l1-.6c.3-.1.3-.4 0-.6zm5 2.9-3.3-1.9c-.3-.1-.7-.1-1 0l-1 .6c-.3.2-.3.4 0 .6l3.3 1.9c.3.1.7.1 1 0l1-.6c.3-.2.3-.4 0-.6zM185 144.6l-3.3-1.9c-.3-.1-.7-.1-1 0l-3.1 1.8c-.3.2-.3.4 0 .6l3.3 1.9c.3.1.7.1 1 0l3.1-1.8c.3-.2.3-.5 0-.6zm5.1 2.9-3.3-1.9c-.3-.1-.7-.1-1 0l-3.1 1.8c-.3.2-.3.4 0 .6l3.3 1.9c.3.1.7.1 1 0l3.1-1.8c.2-.2.2-.4 0-.6zm5 2.9-3.3-1.9c-.3-.1-.7-.1-1 0l-3.1 1.8c-.3.2-.3.4 0 .6l3.3 1.9c.3.1.7.1 1 0l3.1-1.8c.3-.2.3-.4 0-.6zm5 2.9-3.3-1.9c-.3-.1-.7-.1-1 0l-3.1 1.8c-.3.2-.3.4 0 .6l3.3 1.9c.3.1.7.1 1 0l3.1-1.8c.3-.2.3-.4 0-.6zm5.1 2.9-3.3-1.9c-.3-.1-.7-.1-1 0l-3.1 1.8c-.3.2-.3.4 0 .6l3.3 1.9c.3.1.7.1 1 0l3.1-1.8c.2-.1.3-.4 0-.6zm5 2.9-3.3-1.9c-.3-.1-.7-.1-1 0l-3.1 1.8c-.3.2-.3.4 0 .6l3.3 1.9c.3.1.7.1 1 0l3.1-1.8c.3-.1.3-.4 0-.6zm5.1 3-3.3-1.9c-.3-.1-.7-.1-1 0l-3 1.8c-.3.2-.3.4 0 .6l3.3 1.9c.3.1.7.1 1 0l3.1-1.8c.1-.2.2-.5-.1-.6zm5 2.9-3.3-1.9c-.3-.1-.7-.1-1 0l-3.1 1.8c-.3.2-.3.4 0 .6l3.3 1.9c.3.1.7.1 1 0l3.1-1.8c.3-.2.3-.5 0-.6zm5.1 2.9-3.3-1.9c-.3-.1-.7-.1-1 0l-3.1 1.8c-.3.2-.3.4 0 .6l3.3 1.9c.3.1.7.1 1 0l3.1-1.8c.2-.2.2-.4 0-.6zm-40.6-39.6-9.6-5.6c-.3-.2-.7-.1-1 0l-3.1 1.8c-.3.2-.3.4 0 .6l9.6 5.6c.3.1.7.1 1 0l3.1-1.8c.2-.2.2-.4 0-.6zm62 35.8-9.6-5.6c-.3-.1-.7-.1-1 0l-3.1 1.8c-.3.2-.3.4 0 .6l9.6 5.6c.3.1.7.1 1 0l3.1-1.8c.2-.2.2-.4 0-.6zm-9.4-11.5-3.3-1.9c-.3-.1-.7-.1-1 0l-3.6 2.1c-.3.2-.3.4 0 .6l3.3 1.9c.3.1.7.1 1 0l3.6-2.1c.3-.2.3-.4 0-.6zm-36.6-21.1-5.2-3c-.3-.1-.7-.1-1 0l-3.6 2.1c-.3.2-.3.4 0 .6l5.2 3c.3.1.7.1 1 0l3.6-2.1c.2-.2.2-.5 0-.6zm31.8 18.3-5.2-3c-.3-.1-.7-.1-1 0l-3.6 2.1c-.3.2-.3.4 0 .6l5.2 3c.3.1.7.1 1 0l3.6-2.1c.2-.2.2-.4 0-.6zM208 135.7l-5.2-3c-.3-.1-.7-.1-1 0l-3.6 2.1c-.3.2-.3.4 0 .6l5.2 3c.3.1.7.1 1 0l3.6-2.1c.3-.2.3-.5 0-.6z"/><path class="st9" d="m198.2 135.4 22.7 13.1c.3.2.7.2 1 0l3.7-2.2c.3-.2.2-.4 0-.6l-22.7-13.1-4.7 2.8zm48.5 25.3 3.6 2.1c.2.1.6.1.8 0l1.5-.9c.2-.1.2-.4 0-.5l-3.6-2.1c-.2-.1-.6-.1-.8 0l-1.5.9c-.2.2-.2.4 0 .5zm-5.1-2.9 3.6 2.1c.2.1.6.1.8 0l1.5-.9c.2-.1.2-.4 0-.5l-3.6-2.1c-.2-.1-.6-.1-.8 0l-1.5.9c-.2.1-.2.3 0 .5zm-5-2.9 3.6 2.1c.2.1.6.1.8 0l1.5-.9c.2-.1.2-.4 0-.5l-3.6-2.1c-.2-.1-.6-.1-.8 0l-1.5.9c-.2.1-.2.3 0 .5zm2.4 4.4 3.6 2.1c.2.1.6.1.8 0l1.5-.9c.2-.1.2-.4 0-.5l-3.6-2.1c-.2-.1-.6-.1-.8 0l-1.5.9c-.2.2-.2.4 0 .5z"/></g></g></g><g class="st19"><path class="st9" d="m112.5 162.2-3.2-1.9c-.3-.1-.2-.4.1-.6l3.8-2.2c.3-.2.8-.2 1 0l3.2 1.9c.3.1.2.4-.1.6l-3.8 2.2c-.3.1-.7.1-1 0zm5 2.9-3.2-1.9c-.3-.1-.2-.4.1-.6l3.8-2.2c.3-.2.8-.2 1 0l3.2 1.9c.3.1.2.4-.1.6l-3.8 2.2c-.3.1-.7.1-1 0zm5 2.9-3.2-1.9c-.3-.1-.2-.4.1-.6l3.8-2.2c.3-.2.8-.2 1 0l3.2 1.9c.3.1.2.4-.1.6l-3.8 2.2c-.3.1-.7.1-1 0zm6.9-2.4-3.2-1.9c-.3-.1-.2-.4.1-.6l3.2-1.9c.3-.2.8-.2 1 0l3.2 1.9c.3.1.2.4-.1.6l-3.2 1.9c-.2.1-.7.1-1 0zm5 2.9-3.2-1.9c-.3-.1-.2-.4.1-.6l3.2-1.9c.3-.2.8-.2 1 0l3.2 1.9c.3.1.2.4-.1.6l-3.2 1.9c-.3.1-.7.1-1 0zm5 2.9-3.2-1.9c-.3-.1-.2-.4.1-.6l3.2-1.9c.3-.2.8-.2 1 0l3.2 1.9c.3.1.2.4-.1.6l-3.2 1.9c-.3.1-.7.1-1 0zm5 2.8-3.2-1.9c-.3-.1-.2-.4.1-.6l3.2-1.9c.3-.2.8-.2 1 0l3.2 1.9c.3.1.2.4-.1.6l-3.2 1.9c-.3.2-.7.2-1 0zm5 2.9-3.2-1.9c-.3-.1-.2-.4.1-.6l3.2-1.9c.3-.2.8-.2 1 0l3.2 1.9c.3.1.2.4-.1.6l-3.2 1.9c-.3.1-.7.2-1 0zm5 2.9-3.2-1.9c-.3-.1-.2-.4.1-.6l3.2-1.9c.3-.2.8-.2 1 0l3.2 1.9c.3.1.2.4-.1.6l-3.2 1.9c-.3.1-.7.2-1 0zm5 2.9-3.2-1.9c-.3-.1-.2-.4.1-.6l3.2-1.9c.3-.2.8-.2 1 0l3.2 1.9c.3.1.2.4-.1.6l-3.2 1.9c-.3.1-.7.1-1 0zm5 2.9-3.2-1.9c-.3-.1-.2-.4.1-.6l3.2-1.9c.3-.2.8-.2 1 0l3.2 1.9c.3.1.2.4-.1.6l-3.2 1.9c-.3.1-.7.1-1 0zm5 2.9-3.2-1.9c-.3-.1-.2-.4.1-.6l3.2-1.9c.3-.2.8-.2 1 0l3.2 1.9c.3.1.2.4-.1.6l-3.2 1.9c-.3.1-.7.1-1 0zm5 2.9-3.2-1.9c-.3-.1-.2-.4.1-.6l3.2-1.9c.3-.2.8-.2 1 0l3.2 1.9c.3.1.2.4-.1.6l-3.2 1.9c-.3.1-.7.1-1 0zm-37.6-27.4-3.2-1.9c-.3-.1-.2-.4.1-.6l3.2-1.9c.3-.2.8-.2 1 0l3.2 1.9c.3.1.2.4-.1.6l-3.2 1.9c-.3.1-.7.2-1 0zm-5.1-2.9-3.2-1.9c-.3-.1-.2-.4.1-.6l3.2-1.9c.3-.2.8-.2 1 0l3.2 1.9c.3.1.2.4-.1.6l-3.2 1.9c-.3.1-.7.1-1 0zm-5-2.9-7-4c-.3-.1-.2-.4.1-.6l3.2-1.9c.3-.2.8-.2 1 0l7 4c.3.1.2.4-.1.6l-3.2 1.9c-.3.1-.8.1-1 0zm3.5-3.6-5.7-3.3c-.3-.1-.2-.4.1-.6l3.2-1.9c.3-.2.8-.2 1 0l5.7 3.3c.3.1.2.4-.1.6l-3.2 1.9c-.3.1-.7.1-1 0zm11.6 12.3-3.2-1.9c-.3-.1-.2-.4.1-.6l3.2-1.9c.3-.2.8-.2 1 0l3.2 1.9c.3.1.2.4-.1.6l-3.2 1.9c-.3.1-.7.2-1 0zm5 2.9-3.2-1.9c-.3-.1-.2-.4.1-.6l3.2-1.9c.3-.2.8-.2 1 0l3.2 1.9c.3.1.2.4-.1.6l-3.2 1.9c-.3.1-.7.1-1 0zm5 2.9-3.2-1.9c-.3-.1-.2-.4.1-.6l3.2-1.9c.3-.2.8-.2 1 0l3.2 1.9c.3.1.2.4-.1.6l-3.2 1.9c-.3.1-.7.1-1 0zm5 2.9-3.2-1.9c-.3-.1-.2-.4.1-.6l3.2-1.9c.3-.2.8-.2 1 0l3.2 1.9c.3.1.2.4-.1.6l-3.2 1.9c-.3.1-.7.1-1 0zm5 2.8-3.2-1.9c-.3-.1-.2-.4.1-.6l3.2-1.9c.3-.2.8-.2 1 0l3.2 1.9c.3.1.2.4-.1.6l-3.2 1.9c-.3.2-.7.2-1 0zm5 2.9-3.2-1.9c-.3-.1-.2-.4.1-.6l3.2-1.9c.3-.2.8-.2 1 0l3.2 1.9c.3.1.2.4-.1.6l-3.2 1.9c-.3.2-.7.2-1 0zm5 2.9-3.2-1.9c-.3-.1-.2-.4.1-.6l3.2-1.9c.3-.2.8-.2 1 0l3.2 1.9c.3.1.2.4-.1.6l-3.2 1.9c-.3.1-.7.2-1 0zm5 2.9-3.2-1.9c-.3-.1-.2-.4.1-.6l3.2-1.9c.3-.2.8-.2 1 0l3.2 1.9c.3.1.2.4-.1.6l-3.2 1.9c-.3.1-.8.2-1 0zm5 2.9-3.2-1.9c-.3-.1-.2-.4.1-.6l3.2-1.9c.3-.2.8-.2 1 0l3.2 1.9c.3.1.2.4-.1.6l-3.2 1.9c-.3.1-.8.1-1 0zm8.9 5.1-7.1-4.1c-.3-.1-.2-.4.1-.6l3.2-1.9c.3-.2.8-.2 1 0l7.1 4.1c.3.1.2.4-.1.6l-3.2 1.9c-.3.1-.8.2-1 0zm9.7-5.6-6-3.4c-.3-.1-.2-.4.1-.6l3.2-1.9c.3-.2.8-.2 1 0l6 3.4c.3.1.2.4-.1.6l-3.2 1.9c-.3.1-.7.1-1 0zm-49.8-23.2-3.2-1.9c-.3-.1-.2-.4.1-.6l3.2-1.9c.3-.2.8-.2 1 0l3.2 1.9c.3.1.2.4-.1.6l-3.2 1.9c-.3.2-.8.2-1 0zm-5.2-2.9-3.2-1.9c-.3-.1-.2-.4.1-.6l3.2-1.9c.3-.2.8-.2 1 0l3.2 1.9c.3.1.2.4-.1.6l-3.2 1.9c-.3.1-.7.1-1 0zm-5.1-3-3.2-1.9c-.3-.1-.2-.4.1-.6l3.2-1.9c.3-.2.8-.2 1 0l3.2 1.9c.3.1.2.4-.1.6l-3.2 1.9c-.3.2-.7.2-1 0zm-5.1-2.9-3.2-1.9c-.3-.1-.2-.4.1-.6l3.2-1.9c.3-.2.8-.2 1 0l3.2 1.9c.3.1.2.4-.1.6l-3.2 1.9c-.3.1-.8.1-1 0zm20.4 11.7-3.2-1.9c-.3-.1-.2-.4.1-.6l3.2-1.9c.3-.2.8-.2 1 0l3.2 1.9c.3.1.2.4-.1.6l-3.2 1.9c-.3.2-.8.2-1 0zm5 2.9-3.2-1.9c-.3-.1-.2-.4.1-.6l3.2-1.9c.3-.2.8-.2 1 0l3.2 1.9c.3.1.2.4-.1.6l-3.2 1.9c-.3.1-.8.2-1 0zm5 2.9-3.2-1.9c-.3-.1-.2-.4.1-.6l3.2-1.9c.3-.2.8-.2 1 0l3.2 1.9c.3.1.2.4-.1.6l-3.2 1.9c-.3.1-.8.1-1 0zm5 2.9-3.2-1.9c-.3-.1-.2-.4.1-.6l3.2-1.9c.3-.2.8-.2 1 0l3.2 1.9c.3.1.2.4-.1.6l-3.2 1.9c-.3.1-.8.1-1 0zm5 2.9-3.2-1.9c-.3-.1-.2-.4.1-.6l3.2-1.9c.3-.2.8-.2 1 0l3.2 1.9c.3.1.2.4-.1.6l-3.2 1.9c-.3.1-.8.1-1 0zm5 2.9-3.2-1.9c-.3-.1-.2-.4.1-.6l3.2-1.9c.3-.2.8-.2 1 0l3.2 1.9c.3.1.2.4-.1.6l-3.2 1.9c-.3.1-.8.1-1 0zm5 2.8-3.2-1.9c-.3-.1-.2-.4.1-.6l3.2-1.9c.3-.2.8-.2 1 0l3.2 1.9c.3.1.2.4-.1.6l-3.2 1.9c-.3.2-.8.2-1 0zm5 2.9-3.2-1.9c-.3-.1-.2-.4.1-.6l3.2-1.9c.3-.2.8-.2 1 0l3.2 1.9c.3.1.2.4-.1.6l-3.2 1.9c-.3.2-.8.2-1 0zm4.9 2.9-3.2-1.9c-.3-.1-.2-.4.1-.6l3.2-1.9c.3-.2.8-.2 1 0l3.2 1.9c.3.1.2.4-.1.6l-3.2 1.9c-.3.1-.7.2-1 0zm-47.6-33.1-3.2-1.9c-.3-.1-.2-.4.1-.6l3.2-1.9c.3-.2.8-.2 1 0l3.2 1.9c.3.1.2.4-.1.6l-3.2 1.9c-.3.1-.7.1-1 0zm-4.9-2.9-3.2-1.9c-.3-.1-.2-.4.1-.6l3.2-1.9c.3-.2.8-.2 1 0l3.2 1.9c.3.1.2.4-.1.6l-3.2 1.9c-.3.2-.8.2-1 0zm-5-2.9-3.2-1.9c-.3-.1-.2-.4.1-.6l3.2-1.9c.3-.2.8-.2 1 0l3.2 1.9c.3.1.2.4-.1.6l-3.2 1.9c-.3.2-.8.2-1 0zm-5-2.8-3.2-1.9c-.3-.1-.2-.4.1-.6l3.2-1.9c.3-.2.8-.2 1 0l3.2 1.9c.3.1.2.4-.1.6l-3.2 1.9c-.3.1-.7.1-1 0zm5.1-3-3.2-1.9c-.3-.1-.2-.4.1-.6l1.1-.6c.3-.2.8-.2 1 0l3.2 1.9c.3.1.2.4-.1.6l-1.1.6c-.3.2-.7.2-1 0zm6.5 3.8-3.2-1.9c-.3-.1-.2-.4.1-.6l1.1-.6c.3-.2.8-.2 1 0l3.2 1.9c.3.1.2.4-.1.6l-1.1.6c-.3.1-.7.1-1 0zm5 2.8-3.2-1.9c-.3-.1-.2-.4.1-.6l1.1-.6c.3-.2.8-.2 1 0l3.2 1.9c.3.1.2.4-.1.6l-1.1.6c-.3.2-.8.2-1 0zm4.9 2.9-3.2-1.9c-.3-.1-.2-.4.1-.6l1.1-.6c.3-.2.8-.2 1 0l3.2 1.9c.3.1.2.4-.1.6l-1.1.6c-.3.1-.7.1-1 0zm5 2.8-3.2-1.9c-.3-.1-.2-.4.1-.6l1.1-.6c.3-.2.8-.2 1 0l3.2 1.9c.3.1.2.4-.1.6l-1.1.6c-.3.2-.8.2-1 0zm27.6 16-3.2-1.9c-.3-.1-.2-.4.1-.6l1.1-.6c.3-.2.8-.2 1 0l3.2 1.9c.3.1.2.4-.1.6l-1.1.6c-.3.1-.7.2-1 0zm5 2.9-3.2-1.9c-.3-.1-.2-.4.1-.6l1.1-.6c.3-.2.8-.2 1 0l3.2 1.9c.3.1.2.4-.1.6l-1.1.6c-.3.1-.8.1-1 0zm4.9 2.8-3.2-1.9c-.3-.1-.2-.4.1-.6l1.1-.6c.3-.2.8-.2 1 0l3.2 1.9c.3.1.2.4-.1.6l-1.1.6c-.3.2-.7.2-1 0zm5 2.9-3.2-1.9c-.3-.1-.2-.4.1-.6l1.1-.6c.3-.2.8-.2 1 0l3.2 1.9c.3.1.2.4-.1.6l-1.1.6c-.3.1-.8.1-1 0zm-49.1-22.4-3.2-1.9c-.3-.1-.2-.4.1-.6l3.2-1.9c.3-.2.8-.2 1 0l3.2 1.9c.3.1.2.4-.1.6l-3.2 1.9c-.3.1-.7.1-1 0zm5 2.9-3.2-1.9c-.3-.1-.2-.4.1-.6l3.2-1.9c.3-.2.8-.2 1 0l3.2 1.9c.3.1.2.4-.1.6l-3.2 1.9c-.3.1-.7.1-1 0zm5 2.9-3.2-1.9c-.3-.1-.2-.4.1-.6l3.2-1.9c.3-.2.8-.2 1 0l3.2 1.9c.3.1.2.4-.1.6l-3.2 1.9c-.3.1-.7.1-1 0zm5 2.8-3.2-1.9c-.3-.1-.2-.4.1-.6l3.2-1.9c.3-.2.8-.2 1 0l3.2 1.9c.3.1.2.4-.1.6l-3.2 1.9c-.3.2-.7.2-1 0zm5 2.9-3.2-1.9c-.3-.1-.2-.4.1-.6l3.2-1.9c.3-.2.8-.2 1 0l3.2 1.9c.3.1.2.4-.1.6l-3.2 1.9c-.3.2-.7.2-1 0zm5 2.9-3.2-1.9c-.3-.1-.2-.4.1-.6l3.2-1.9c.3-.2.8-.2 1 0l3.2 1.9c.3.1.2.4-.1.6l-3.2 1.9c-.3.1-.7.2-1 0zm5 2.9-3.2-1.9c-.3-.1-.2-.4.1-.6l3.2-1.9c.3-.2.8-.2 1 0l3.2 1.9c.3.1.2.4-.1.6l-3.2 1.9c-.3.1-.7.1-1 0zm5 2.9-3.2-1.9c-.3-.1-.2-.4.1-.6l3.2-1.9c.3-.2.8-.2 1 0l3.2 1.9c.3.1.2.4-.1.6l-3.2 1.9c-.3.1-.7.1-1 0zm5 2.9-3.2-1.9c-.3-.1-.2-.4.1-.6l3.2-1.9c.3-.2.8-.2 1 0l3.2 1.9c.3.1.2.4-.1.6l-3.2 1.9c-.3.1-.7.1-1 0zm-68.6-22.8-9.5-5.5c-.3-.1-.2-.4.1-.6l3.2-1.9c.3-.2.8-.2 1 0l9.5 5.5c.3.1.2.4-.1.6l-3.2 1.9c-.2.2-.7.2-1 0zm61.5 35.5-9.5-5.5c-.3-.1-.2-.4.1-.6l3.2-1.9c.3-.2.8-.2 1 0l9.5 5.5c.3.1.2.4-.1.6l-3.2 1.9c-.3.1-.8.1-1 0zm-20-5.2-3.2-1.9c-.3-.1-.2-.4.1-.6l3.8-2.2c.3-.2.8-.2 1 0l3.2 1.9c.3.1.2.4-.1.6l-3.8 2.2c-.3.2-.8.2-1 0zM129.5 172l-5.2-3c-.3-.1-.2-.4.1-.6l3.8-2.2c.3-.2.8-.2 1 0l5.2 3c.3.1.2.4-.1.6l-3.8 2.2c-.3.1-.8.1-1 0zm31.4 18.1-5.2-3c-.3-.1-.2-.4.1-.6l3.8-2.2c.3-.2.8-.2 1 0l5.2 3c.3.1.2.4-.1.6l-3.8 2.2c-.2.2-.7.2-1 0zm-24.2-14-5.2-3c-.3-.1-.2-.4.1-.6l3.8-2.2c.3-.2.8-.2 1 0l5.2 3c.3.1.2.4-.1.6l-3.8 2.2c-.3.2-.8.2-1 0z"/><path class="st9" d="m136.4 170.3 22.5 13c.3.2.3.4 0 .6l-3.9 2.2c-.3.2-.7.2-1 0l-22.5-13 4.9-2.8zm43.3 27.8 3.6 2.1c.2.1.2.3-.1.5l-1.6.9c-.2.1-.6.2-.8 0l-3.6-2.1c-.2-.1-.2-.3.1-.5l1.6-.9c.3-.1.6-.1.8 0zm-5-2.9 3.6 2.1c.2.1.2.3-.1.5l-1.6.9c-.2.1-.6.2-.8 0l-3.6-2.1c-.2-.1-.2-.3.1-.5l1.6-.9c.2-.1.6-.1.8 0zm-5-2.8 3.6 2.1c.2.1.2.3-.1.5l-1.6.9c-.2.1-.6.2-.8 0l-3.6-2.1c-.2-.1-.2-.3.1-.5l1.6-.9c.2-.2.6-.2.8 0zm7.8 1.2 3.6 2.1c.2.1.2.3-.1.5l-1.6.9c-.2.1-.6.2-.8 0L175 195c-.2-.1-.2-.3.1-.5l1.6-.9c.2-.1.5-.1.8 0z"/></g><path class="st0" d="M228.4 115.9c-.2 0-.5-.1-.8-.2-.8-.4-1.2-1.4-1.1-2.2.1-.4.3-.7.6-.8.4-.2.8-.1 1.2.1.8.4 1.2 1.4 1.1 2.2-.1.4-.3.7-.6.8 0 .1-.2.1-.4.1zm-.7-3c-.1 0-.2 0-.3.1-.2.1-.4.3-.4.6-.1.7.2 1.5.9 1.8.3.2.6.2.9.1.2-.1.4-.3.4-.6.1-.7-.2-1.5-.9-1.8-.2-.2-.4-.2-.6-.2zm4.9 5.4c-.2 0-.5-.1-.8-.2-.8-.4-1.2-1.4-1.1-2.2.1-.4.3-.7.6-.8.4-.2.8-.1 1.2.1.8.4 1.2 1.4 1.1 2.2-.1.4-.3.7-.6.8-.1 0-.3.1-.4.1zm-.8-3c-.1 0-.2 0-.3.1-.2.1-.4.3-.4.6-.1.7.2 1.5.9 1.8.3.2.6.2.9.1.2-.1.4-.3.4-.6.1-.7-.2-1.5-.9-1.8-.2-.2-.4-.2-.6-.2zm5.8 4.4c-.2.7-.9 1-1.6.6-.7-.4-1.1-1.3-1-2s.9-1 1.6-.6c.7.4 1.2 1.3 1 2zm-79-45.5-2.2-1.3.2-1 2.2 1.3-.2 1zm3.2 1.9-2.2-1.3.2-1 2.2 1.3-.2 1zm-6.4-3.7-4.8-2.8.2-1 4.8 2.8-.2 1zm116.2 191.1c-1.4 0-2.7-.3-3.7-.9l-19.8-11.4c-1-.6-1.6-1.4-1.6-2.2s.6-1.7 1.6-2.2l19.8-11.4c2.1-1.2 5.4-1.2 7.5 0l19.8 11.4c1 .6 1.6 1.4 1.6 2.2s-.6 1.7-1.6 2.2l-19.8 11.4c-1.1.6-2.4.9-3.8.9zm-3.5-1.1c2 1.1 5.1 1.1 7.1 0L295 251c.9-.5 1.4-1.2 1.4-1.9s-.5-1.4-1.4-1.9l-19.8-11.4c-2-1.1-5.1-1.1-7.1 0L248.3 247c-.9.5-1.4 1.2-1.4 1.9s.5 1.4 1.4 1.9l19.8 11.6z"/><path class="st20" d="M297.4 244.6v-6.8l-1.2-.7c-.4 2.1-2.8 3.5-4.9 3.8l-14.2 8.3-6.2 2.2-19.7-10.2.5-.3c-1.7-.8-2.6-2.6-3.5-4.2l-1.3.8-.8.2v6.9c0 .9.6 1.8 1.7 2.4l19.8 11.4c2.3 1.3 6.1 1.3 8.4 0l19.8-11.4c1.1-.7 1.7-1.5 1.7-2.4h-.1z"/><linearGradient id="SVGID_00000066507141112722063760000010925461279692397455_" gradientUnits="userSpaceOnUse" x1="251.039" y1="68.813" x2="291.843" y2="45.246" gradientTransform="matrix(1 0 0 -1 0 294)"><stop offset="0" style="stop-color:#bcbeff"/><stop offset=".23" style="stop-color:#aaadf7"/><stop offset=".68" style="stop-color:#7b82e5"/><stop offset="1" style="stop-color:#5761d7"/></linearGradient><path style="fill:url(#SVGID_00000066507141112722063760000010925461279692397455_)" d="M297.4 238.6v-4.5l-1.2-.7c-.4 2.1-2.8 3.5-4.9 3.8l-14.2 8.3-6.2 2.2-19.7-10.2.5-.3c-1.7-.8-2.6-2.6-3.5-4.2l-1.3.8-.8.2v4.6c0 .9.6 1.8 1.7 2.4l19.8 11.4c2.3 1.3 6.1 1.3 8.4 0l19.8-11.4c1.1-.7 1.7-1.5 1.7-2.4h-.1z"/><path class="st22" d="m291.2 237.2-14.2 8.3-5.4 1.9v6.1c1.5 0 3-.3 4.2-1l19.8-11.4c1.1-.7 1.7-1.5 1.7-2.4v-4.6l-1.1-.6h-.1c-.4 2.1-2.8 3.4-4.9 3.7z"/><linearGradient id="SVGID_00000052793564248601518030000007611077228630177412_" gradientUnits="userSpaceOnUse" x1="253.487" y1="70.394" x2="289.885" y2="49.38" gradientTransform="matrix(1 0 0 -1 0 294)"><stop offset=".24" style="stop-color:#5761d7"/><stop offset=".39" style="stop-color:#7a81e5"/><stop offset=".55" style="stop-color:#979bf0"/><stop offset=".7" style="stop-color:#abaef8"/><stop offset=".85" style="stop-color:#b7bafd"/><stop offset="1" style="stop-color:#bcbeff"/></linearGradient><path style="fill:url(#SVGID_00000052793564248601518030000007611077228630177412_)" d="m251.6 237.3 18.7-10.8c.7-.4 2-.4 2.7 0l18.4 10.6-.2.1c2.1-.3 4.6-1.7 4.9-3.8l-20.7-11.5-6-1.6-4.9 2.9L248 233c1 1.7 1.9 3.5 3.6 4.3z"/><path class="st22" d="m271.6 220.9-2.2-.6-4.9 2.9L248 233c.9 1.6 1.8 3.4 3.5 4.2l18.7-10.8c.4-.2.9-.3 1.4-.3v-5.2z"/><linearGradient id="SVGID_00000143602903249580985630000006972284544804004533_" gradientUnits="userSpaceOnUse" x1="245.92" y1="59.895" x2="297.36" y2="59.895" gradientTransform="matrix(1 0 0 -1 0 294)"><stop offset="0" style="stop-color:#e9e9fd"/><stop offset=".36" style="stop-color:#d2d2f9"/><stop offset=".71" style="stop-color:#c4c3f6"/><stop offset="1" style="stop-color:#c0bff6"/></linearGradient><path style="fill:url(#SVGID_00000143602903249580985630000006972284544804004533_)" d="m267.4 247.9-19.8-11.4c-2.3-1.3-2.3-3.5 0-4.9l19.8-11.4c2.3-1.3 6.1-1.3 8.4 0l19.8 11.4c2.3 1.3 2.3 3.5 0 4.9l-19.8 11.4c-2.3 1.4-6 1.4-8.4 0zm5.6-26c-.7-.4-2-.4-2.7 0l-19.8 11.4c-.7.4-.7 1.1 0 1.6l19.8 11.4c.7.4 2 .4 2.7 0l19.8-11.4c.7-.4.7-1.1 0-1.6L273 221.9z"/><path class="st4" d="M292.8 233.3 273 221.9c-.7-.4-2-.4-2.7 0l-19.8 11.4c-.5.3-.7.7-.5 1.1.1-.2.2-.4.5-.5l19.8-11.4c.7-.4 2-.4 2.7 0l19.8 11.4c.2.1.4.3.5.5.1-.4-.1-.8-.5-1.1zm2.8 3.2-19.8 11.4c-2.3 1.3-6.1 1.3-8.4 0l-19.8-11.4c-1-.6-1.6-1.4-1.7-2.1-.1 1 .4 2 1.7 2.7l19.8 11.4c2.3 1.3 6.1 1.3 8.4 0l19.8-11.4c1.3-.7 1.9-1.7 1.7-2.7-.1.8-.6 1.5-1.7 2.1z"/><linearGradient id="SVGID_00000180365020282338410730000016504971275691574459_" gradientUnits="userSpaceOnUse" x1="246.713" y1="59.91" x2="296.567" y2="59.91" gradientTransform="matrix(1 0 0 -1 0 294)"><stop offset="0" style="stop-color:#e9e9fd"/><stop offset=".36" style="stop-color:#d2d2f9"/><stop offset=".71" style="stop-color:#c4c3f6"/><stop offset="1" style="stop-color:#c0bff6"/></linearGradient><path style="fill:url(#SVGID_00000180365020282338410730000016504971275691574459_)" d="m268 247.6-19.8-11.4c-2-1.2-2-3.1 0-4.2l19.8-11.4c2-1.2 5.3-1.2 7.3 0l19.8 11.4c2 1.2 2 3.1 0 4.2l-19.8 11.4c-2 1.2-5.3 1.2-7.3 0zm5.5-26c-1-.6-2.8-.6-3.8 0L249.9 233c-1.1.6-1.1 1.6 0 2.2l19.8 11.4c1 .6 2.8.6 3.8 0l19.8-11.4c1-.6 1-1.6 0-2.2l-19.8-11.4z"/><path class="st20" d="M273 221.9c-.7-.4-2-.4-2.7 0l-19.8 11.4c-.7.4-.7 1.1 0 1.6l19.8 11.4c.7.4 2 .4 2.7 0l19.8-11.4c.7-.4.7-1.1 0-1.6L273 221.9z"/><linearGradient id="SVGID_00000027582724942213038590000016146425428349723826_" gradientUnits="userSpaceOnUse" x1="271.64" y1="47.377" x2="271.64" y2="130.46" gradientTransform="matrix(1 0 0 -1 0 294)"><stop offset="0" style="stop-color:#42e8e0"/><stop offset="1" style="stop-color:#fff;stop-opacity:0"/></linearGradient><path style="opacity:.5;fill:url(#SVGID_00000027582724942213038590000016146425428349723826_);enable-background:new" d="M293.3 234.1v-70.6H250v70.6c0 .3.2.6.6.8l19.8 11.4c.7.4 2 .4 2.7 0l19.8-11.4c.3-.2.4-.5.4-.8z"/><path class="st0" d="M70.4 119.1c-1.3 0-2.7-.3-3.7-.9l-19.8-11.4c-1-.6-1.6-1.4-1.6-2.2s.6-1.7 1.6-2.2L66.7 91c2.1-1.2 5.4-1.2 7.5 0L94 102.4c1 .6 1.6 1.4 1.6 2.2s-.6 1.7-1.6 2.2l-19.8 11.4c-1.1.6-2.4.9-3.8.9zm-3.5-1.2c2 1.1 5.2 1.1 7.1 0l19.8-11.4c.9-.5 1.4-1.2 1.4-1.9s-.5-1.4-1.4-1.9L74 91.1c-2-1.1-5.2-1.1-7.1 0l-19.8 11.4c-.9.5-1.4 1.2-1.4 1.9s.5 1.4 1.4 1.9c0 .2 19.8 11.6 19.8 11.6z"/><path class="st20" d="M96.2 100.1v-6.8l-1.2-.7c-.3 2.1-2.8 3.5-4.9 3.8l-14.2 8.3-6.2 2.2-19.8-10.1.5-.3c-1.7-.8-2.6-2.6-3.5-4.2l-1.3.8-.8.2v6.9c0 .9.6 1.8 1.7 2.4L66.2 114c2.3 1.3 6.1 1.3 8.4 0l19.8-11.4c1.1-.7 1.7-1.5 1.7-2.4l.1-.1z"/><linearGradient id="SVGID_00000101797071591144590500000002340384328803716798_" gradientUnits="userSpaceOnUse" x1="49.835" y1="213.29" x2="90.647" y2="189.728" gradientTransform="matrix(1 0 0 -1 0 294)"><stop offset="0" style="stop-color:#bcbeff"/><stop offset=".23" style="stop-color:#aaadf7"/><stop offset=".68" style="stop-color:#7b82e5"/><stop offset="1" style="stop-color:#5761d7"/></linearGradient><path style="fill:url(#SVGID_00000101797071591144590500000002340384328803716798_)" d="M96.2 94.1v-4.5l-1.2-.7c-.3 2.1-2.8 3.5-4.9 3.8L75.8 101l-6.2 2.2-19.7-10.1.5-.3c-1.7-.8-2.6-2.6-3.5-4.2l-1.3.8-.8.2v4.6c0 .9.6 1.8 1.7 2.4L66.2 108c2.3 1.3 6.1 1.3 8.4 0l19.8-11.4c1.1-.7 1.7-1.5 1.7-2.4l.1-.1z"/><path class="st22" d="M90 92.7 75.8 101l-5.4 1.9v6.1c1.5 0 3-.3 4.2-1l19.8-11.4c1.1-.7 1.7-1.5 1.7-2.4v-4.6L95 89h-.1c-.4 2.1-2.8 3.4-4.9 3.7z"/><linearGradient id="SVGID_00000148656829025456493140000013990722419471496871_" gradientUnits="userSpaceOnUse" x1="44.71" y1="204.385" x2="96.15" y2="204.385" gradientTransform="matrix(1 0 0 -1 0 294)"><stop offset="0" style="stop-color:#e9e9fd"/><stop offset=".36" style="stop-color:#d2d2f9"/><stop offset=".71" style="stop-color:#c4c3f6"/><stop offset="1" style="stop-color:#c0bff6"/></linearGradient><path style="fill:url(#SVGID_00000148656829025456493140000013990722419471496871_)" d="M66.2 103.5 46.5 92c-2.3-1.3-2.3-3.5 0-4.8l19.8-11.4c2.3-1.3 6.1-1.3 8.4 0l19.8 11.4c2.3 1.3 2.3 3.5 0 4.8l-19.8 11.4c-2.4 1.4-6.1 1.4-8.5.1z"/><path class="st4" d="m94.4 92-19.8 11.4c-2.3 1.3-6.1 1.3-8.4 0L46.5 92c-1-.6-1.6-1.4-1.7-2.2-.1 1 .4 2 1.7 2.7L66.2 104c2.3 1.3 6.1 1.3 8.4 0l19.8-11.4c1.3-.7 1.8-1.7 1.7-2.7-.1.8-.6 1.5-1.7 2.1z"/><path class="st0" d="M195.6 291.7c-1.6 0-3.3-.4-4.6-1.1l-79.5-45.9c-1.2-.7-1.9-1.7-1.9-2.7s.7-2 1.9-2.7l16.8-9.7.2.3-16.8 9.7c-1.1.7-1.8 1.5-1.8 2.4s.6 1.8 1.8 2.4l79.5 45.9c2.4 1.4 6.4 1.4 8.8 0l58.2-33.5.2.3-58.2 33.5c-1.3.7-3 1-4.6 1.1z"/><path d="M33.9 141.4c-1.6 0-3.2-.4-4.4-1L9.7 128.9c-1.2-.7-1.9-1.7-1.9-2.7s.7-2 1.9-2.7L29.5 112c2.4-1.4 6.3-1.4 8.8 0L58 123.4c1.2.7 1.9 1.7 1.9 2.7s-.7 2-1.9 2.7l-19.8 11.4c-1.1.8-2.7 1.1-4.3 1.2zm-4-1.7c2.2 1.3 5.8 1.3 8.1 0l19.8-11.4c1-.6 1.6-1.3 1.6-2.1s-.5-1.5-1.6-2.1L38 112.7c-2.2-1.3-5.8-1.3-8 0L10.1 124c-1 .6-1.6 1.3-1.6 2.1s.6 1.5 1.6 2.1c0 .1 19.8 11.5 19.8 11.5z" style="fill:#0f054c"/><path d="M99.4 278.6c-1.6 0-3.2-.4-4.4-1l-19.8-11.4c-1.2-.7-1.9-1.7-1.9-2.7s.7-2 1.9-2.7L95 249.2c2.4-1.4 6.3-1.4 8.8 0l19.8 11.4c1.2.7 1.9 1.7 1.9 2.7s-.7 2-1.9 2.7l-19.8 11.4c-1.3.8-2.9 1.2-4.4 1.2zm-4.1-1.7c2.2 1.3 5.8 1.3 8.1 0l19.8-11.4c1-.6 1.6-1.3 1.6-2.1s-.6-1.5-1.6-2.1l-19.8-11.4c-2.2-1.3-5.8-1.3-8.1 0l-19.8 11.4c-1 .6-1.6 1.3-1.6 2.1s.6 1.5 1.6 2.1l19.8 11.4z" style="fill:#03002d"/><path class="st0" d="M68.9 241.1c-1 0-1.9-.2-2.8-.7l-26.2-15.2.2-.3L66.3 240c1.6.9 3.6.9 5.2 0l37.5-21.7.2.3-37.5 21.7c-.9.5-1.8.8-2.8.8z"/><circle class="st20" cx="292.9" cy="74.9" r="3.3"/><circle class="st20" cx="292.9" cy="74.9" r="1.4"/><circle class="st20" cx="242.6" cy="17.1" r="3.3"/><circle class="st20" cx="242.6" cy="17.1" r="1.4"/><circle class="st20" cx="336.7" cy="86.5" r="3.3"/><circle class="st20" cx="336.7" cy="86.5" r="1.4"/><path class="st0" d="M24 228.8c-6.1 0-12.3-1.4-16.9-4-4.6-2.6-7.1-6.1-7.1-9.9s2.5-7.2 7.1-9.9c9.3-5.4 24.5-5.4 33.9 0 4.6 2.6 7.1 6.1 7.1 9.9s-2.5 7.2-7.1 9.9c-4.7 2.7-10.8 4-17 4zm0-27.5c-6.1 0-12.1 1.3-16.8 4-4.4 2.6-6.9 6-6.9 9.6s2.5 7 6.9 9.6c9.2 5.3 24.3 5.3 33.5 0 4.5-2.6 6.9-6 6.9-9.6s-2.5-7-6.9-9.6c-4.6-2.7-10.6-4-16.7-4z"/><path d="M14.6 205.1c5.3-3.1 13.9-3.1 19.2 0 .9.5 1.6 1.1 2.2 1.6 3-3 2.3-6.9-2.2-9.5-5.3-3.1-13.9-3.1-19.2 0-4.4 2.6-5.2 6.5-2.2 9.5.6-.6 1.3-1.1 2.2-1.6z" style="fill:#5351af"/><linearGradient id="SVGID_00000057861010207552496170000013085993056227802517_" gradientUnits="userSpaceOnUse" x1=".09" y1="83.274" x2="48.27" y2="83.274" gradientTransform="matrix(1 0 0 -1 0 294)"><stop offset="0" style="stop-color:#bcbeff"/><stop offset=".15" style="stop-color:#a2a6f5"/><stop offset=".39" style="stop-color:#8188e8"/><stop offset=".61" style="stop-color:#6a72de"/><stop offset=".82" style="stop-color:#5b65d8"/><stop offset="1" style="stop-color:#5761d7"/></linearGradient><path style="fill:url(#SVGID_00000057861010207552496170000013085993056227802517_)" d="M44.7 202.8c-1-.9-2.1-1.8-3.5-2.5-2.1-1.2-4.5-2.2-7.1-2.8 5 3.1 4.8 8-.5 11.1-5.4 3.1-14.2 3.1-19.6 0-5.1-2.9-5.4-7.6-.9-10.7-2.1.6-4.1 1.5-5.9 2.5-1.4.8-2.5 1.6-3.5 2.5H.1v7.3c0 3.6 2.3 7.1 7.1 9.8 9.4 5.4 24.7 5.4 34.1 0 4.7-2.7 7-6.3 7-9.8v-7.3h-3.6z"/><path class="st22" d="M41.2 200.3c-2.1-1.2-4.5-2.2-7.1-2.8 5 3.1 4.8 8-.5 11.1-2.6 1.5-6 2.3-9.5 2.3V224c6.2 0 12.3-1.4 17-4.1 4.7-2.7 7-6.3 7-9.8v-7.3h-3.6c-.8-.9-1.9-1.7-3.3-2.5z"/><radialGradient id="SVGID_00000111172410716591738250000003488012768075967930_" cx="47.05" cy="75.91" r="28" gradientTransform="matrix(1 0 0 -1 0 294)" gradientUnits="userSpaceOnUse"><stop offset="0" style="stop-color:#42e8e0"/><stop offset=".03" style="stop-color:#3fdcd8"/><stop offset=".24" style="stop-color:#309bae"/><stop offset=".43" style="stop-color:#24658b"/><stop offset=".61" style="stop-color:#1b3b6f"/><stop offset=".77" style="stop-color:#141d5c"/><stop offset=".9" style="stop-color:#100b50"/><stop offset="1" style="stop-color:#0f054c"/></radialGradient><path style="opacity:.5;fill:url(#SVGID_00000111172410716591738250000003488012768075967930_);enable-background:new" d="M41.2 200.3c-2.1-1.2-4.5-2.2-7.1-2.8 5 3.1 4.8 8-.5 11.1-2.6 1.5-6 2.3-9.5 2.3V224c6.2 0 12.3-1.4 17-4.1 4.7-2.7 7-6.3 7-9.8v-7.3h-3.6c-.8-.9-1.9-1.7-3.3-2.5z"/><linearGradient id="SVGID_00000066476685032001095940000012854594365452275132_" gradientUnits="userSpaceOnUse" x1="-1543.91" y1="90.575" x2="-1495.725" y2="90.575" gradientTransform="rotate(180 -625.21 147)"><stop offset="0" style="stop-color:#c0bff6"/><stop offset=".29" style="stop-color:#c4c3f6"/><stop offset=".64" style="stop-color:#d2d2f9"/><stop offset="1" style="stop-color:#e9e9fd"/></linearGradient><path style="fill:url(#SVGID_00000066476685032001095940000012854594365452275132_)" d="M41.2 193.6c-9.4-5.4-24.7-5.4-34.1 0s-9.4 14.2 0 19.7 24.7 5.4 34.1 0 9.4-14.3 0-19.7zm-7.4 15.5c-5.4 3.1-14.2 3.1-19.6 0-5.4-3.1-5.4-8.2 0-11.3s14.2-3.1 19.6 0c5.4 3.1 5.4 8.2 0 11.3z"/><path class="st4" d="M41.2 212.5c-9.4 5.4-24.7 5.4-34.1 0-4.5-2.6-6.9-6-7.1-9.5-.2 3.7 2.2 7.4 7.1 10.2 9.4 5.4 24.7 5.4 34.1 0 4.9-2.8 7.2-6.5 7-10.2-.1 3.5-2.4 6.9-7 9.5zM33.8 197c-5.4-3.1-14.2-3.1-19.6 0-2.9 1.7-4.2 3.9-4.1 6 .2-1.9 1.5-3.8 4.1-5.3 5.4-3.1 14.2-3.1 19.6 0 2.5 1.5 3.9 3.4 4 5.3.2-2.1-1.1-4.3-4-6z"/><linearGradient id="SVGID_00000027573492485520087550000017320162146048602298_" gradientUnits="userSpaceOnUse" x1="-1542.16" y1="91.265" x2="-1497.31" y2="91.265" gradientTransform="rotate(180 -625.21 147)"><stop offset="0" style="stop-color:#c0bff6"/><stop offset=".29" style="stop-color:#c4c3f6"/><stop offset=".64" style="stop-color:#d2d2f9"/><stop offset="1" style="stop-color:#e9e9fd"/></linearGradient><path style="fill:url(#SVGID_00000027573492485520087550000017320162146048602298_)" d="M40.1 193.6c-8.8-5.1-23-5.1-31.7 0s-8.8 13.2 0 18.3 23 5.1 31.7 0 8.8-13.3 0-18.3zm-6.4 14.6c-5.2 3-13.7 3-18.9 0s-5.2-7.9 0-10.9 13.7-3 18.9 0 5.3 7.9 0 10.9z"/><ellipse class="st20" cx="24.3" cy="202.7" rx="13.4" ry="7.7"/><linearGradient id="SVGID_00000071529811648616095610000012060677890519948439_" gradientUnits="userSpaceOnUse" x1="24.26" y1="161.25" x2="24.26" y2="83.535" gradientTransform="matrix(1 0 0 -1 0 294)"><stop offset="0" style="stop-color:#fff;stop-opacity:0"/><stop offset="1" style="stop-color:#42e8e0"/></linearGradient><path style="opacity:.5;fill:url(#SVGID_00000071529811648616095610000012060677890519948439_);enable-background:new" d="M37.7 202.6v-69.8H10.9v69.9c0 2 1.3 4 3.9 5.5 5.2 3 13.7 3 18.9 0 2.7-1.6 4-3.6 4-5.6z"/><path class="st20" d="M34.1 174.6c0 .4-.4.8-.8.8s-.8-.4-.8-.8.4-.8.8-.8.8.4.8.8zm-14-36.6c0 .4-.4.8-.8.8s-.8-.4-.8-.8.4-.8.8-.8.8.4.8.8zm1.6 27.4c0 .6-.5 1.2-1.2 1.2s-1.2-.5-1.2-1.2.5-1.2 1.2-1.2 1.2.5 1.2 1.2z"/><path class="st37" d="M19.6 185.5c0 .5-.4.8-.8.8s-.8-.4-.8-.8.4-.8.8-.8.8.4.8.8zm11.9-33.7c0 .7-.6 1.3-1.3 1.3s-1.3-.6-1.3-1.3.6-1.3 1.3-1.3 1.3.6 1.3 1.3zm-1 4.1c0 .5-.4.9-.9.9s-.9-.4-.9-.9.4-.9.9-.9.9.4.9.9z"/><g class="st19"><defs><path id="SVGID_00000078756776683010249400000002035215398498391982_" d="m77.5 367.5.3-.1c.1 0 .1 0 .2.1s0 .1-.1.2l-.3.1-.1-.3z"/></defs><clipPath id="SVGID_00000142874111253618096600000003963380837043117969_"><use xlink:href="#SVGID_00000078756776683010249400000002035215398498391982_" style="overflow:visible"/></clipPath><g style="clip-path:url(#SVGID_00000142874111253618096600000003963380837043117969_);enable-background:new"><image style="overflow:visible" width="2" height="2" xlink:href="F57F6F08.png" transform="translate(38.21 183.36)"/></g><defs><path id="SVGID_00000070081330975437052050000015402812497573936256_" d="m81.8 365.5-.3.2h-.2v-.2c.1 0 .3-.2.3-.2l.2.2z"/></defs><clipPath id="SVGID_00000168088670506919425060000000028135733421504186_"><use xlink:href="#SVGID_00000070081330975437052050000015402812497573936256_" style="overflow:visible"/></clipPath><g style="clip-path:url(#SVGID_00000168088670506919425060000000028135733421504186_);enable-background:new"><image style="overflow:visible" width="2" height="2" xlink:href="F57F6F09.png" transform="translate(40.21 182.36)"/></g></g><g class="st19"><defs><path id="SVGID_00000069383916355936543940000000232091282251835298_" d="M12.8 300.9c.1.1.1.1.1.2s-.1.1-.2 0h-.1l.2-.2z"/></defs><clipPath id="SVGID_00000042722470391251936240000017529725537457630396_"><use xlink:href="#SVGID_00000069383916355936543940000000232091282251835298_" style="overflow:visible"/></clipPath><g style="clip-path:url(#SVGID_00000042722470391251936240000017529725537457630396_);enable-background:new"><image style="overflow:visible" width="2" height="2" xlink:href="F57F6F0F.png" transform="translate(6.21 150.36)"/></g><defs><path id="SVGID_00000049183711471495907730000008504198067054713756_" d="m81.8 301.4-.3.2h-.2v-.2c.1 0 .3-.2.3-.2l.2.2z"/></defs><clipPath id="SVGID_00000123435058068973628490000014558045816162017710_"><use xlink:href="#SVGID_00000049183711471495907730000008504198067054713756_" style="overflow:visible"/></clipPath><g style="clip-path:url(#SVGID_00000123435058068973628490000014558045816162017710_);enable-background:new"><image style="overflow:visible" width="2" height="2" xlink:href="F57F6F0A.png" transform="translate(40.21 150.36)"/></g></g><g class="st19"><defs><path id="SVGID_00000009567259258843852920000005920565192002412205_" d="m77.5 303.4.3-.1c.1 0 .1 0 .2.1s0 .1-.1.2l-.3.1-.1-.3z"/></defs><clipPath id="SVGID_00000163035019632040830970000015744770970500025269_"><use xlink:href="#SVGID_00000009567259258843852920000005920565192002412205_" style="overflow:visible"/></clipPath><g style="clip-path:url(#SVGID_00000163035019632040830970000015744770970500025269_);enable-background:new"><image style="overflow:visible" width="2" height="2" xlink:href="F57F6F0B.png" transform="translate(38.21 151.36)"/></g><defs><path id="SVGID_00000136404445816808599890000012157380647383502003_" d="M45.4 309.7h-.3c-.1 0-.1-.1-.1-.1 0-.1.1-.1.1-.1h.3v.2z"/></defs><clipPath id="SVGID_00000148640329992758216310000000894076549218767019_"><use xlink:href="#SVGID_00000136404445816808599890000012157380647383502003_" style="overflow:visible"/></clipPath><g style="clip-path:url(#SVGID_00000148640329992758216310000000894076549218767019_);enable-background:new"><image style="overflow:visible" width="2" height="1" xlink:href="F57F6F06.png" transform="translate(22.21 154.36)"/></g></g><g class="st19"><defs><path id="SVGID_00000163037884564865244180000005544639548820225178_" d="m81.1 336 .3-.2c.1 0 .1 0 .2.1s0 .1-.1.2l-.3.1-.1-.2z"/></defs><clipPath id="SVGID_00000083783869150966669190000009283085575353437353_"><use xlink:href="#SVGID_00000163037884564865244180000005544639548820225178_" style="overflow:visible"/></clipPath><g style="clip-path:url(#SVGID_00000083783869150966669190000009283085575353437353_);enable-background:new"><image style="overflow:visible" width="2" height="2" xlink:href="F57F6F07.png" transform="translate(40.21 167.36)"/></g><defs><path id="SVGID_00000160886053601899631940000006505016282865595312_" d="m13.1 297.4.3-.2h.2v.2c0 .1-.3.2-.3.2l-.2-.2z"/></defs><clipPath id="SVGID_00000131343712245292497860000011601072950118676394_"><use xlink:href="#SVGID_00000160886053601899631940000006505016282865595312_" style="overflow:visible"/></clipPath><g style="clip-path:url(#SVGID_00000131343712245292497860000011601072950118676394_);enable-background:new"><image style="overflow:visible" width="2" height="2" xlink:href="F57F6F18.png" transform="translate(6.21 148.36)"/></g></g><path class="st37" d="M42.6 183.3c0 .7-.6 1.3-1.3 1.3s-1.3-.6-1.3-1.3.6-1.3 1.3-1.3 1.3.6 1.3 1.3zm.5-3.6c0 .5-.4 1-1 1s-1-.4-1-1c0-.5.4-1 1-1 .6.1 1 .5 1 1z"/><circle class="st37" cx="44.9" cy="179.3" r=".6"/><path class="st37" d="M47.9 178c.2.1.2.4.1.6-.1.2-.4.2-.6.1-.2-.1-.2-.4-.1-.6.1-.1.4-.2.6-.1zm1.1-1.7c.3.2.3.5.2.8s-.5.3-.8.1-.3-.5-.2-.8.6-.3.8-.1zm-1-1.3c.3.2.4.6.2.9-.2.3-.6.4-1 .2-.3-.2-.4-.6-.2-.9.2-.3.6-.4 1-.2z"/><circle class="st37" cx="7.2" cy="148.9" r="1.3"/><circle class="st37" cx="3.3" cy="149.2" r=".9"/><path class="st37" d="M4.6 151.8c0 .4-.3.8-.8.8-.4 0-.8-.3-.8-.8 0-.4.3-.8.8-.8s.8.4.8.8z"/><circle class="st37" cx="3.2" cy="153.6" r=".5"/><path class="st37" d="M.9 153.6c.2.1.3.3.3.5s-.3.3-.5.3c-.2-.1-.3-.3-.3-.5.1-.2.4-.3.5-.3zm41.7-2.5c0 .7-.6 1.3-1.3 1.3s-1.3-.6-1.3-1.3.6-1.3 1.3-1.3 1.3.6 1.3 1.3zm.9-3.4c0 .5-.4.9-.9.9s-.9-.4-.9-.9.4-.9.9-.9c.4-.1.9.3.9.9z"/><circle class="st37" cx="45.2" cy="146.5" r=".7"/><circle class="st37" cx="47.3" cy="146.7" r=".5"/><path class="st37" d="M48.6 145.3c0 .1-.1.2-.2.2s-.2-.1-.2-.2.1-.2.2-.2.2.1.2.2z"/><path class="st0" d="m155.6 82.4-5.3-3.1.2-1.2 5.3 3-.2 1.3zm4.5 2.6-2.6-1.5.2-1.2 2.6 1.5-.2 1.2zm-3.4 1.2-2.2-1.3.2-1.2 2.2 1.3-.2 1.2zm3.8 2.1-2.6-1.5.2-1.2 2.6 1.5-.2 1.2zm3.8 5.4-10.4-6 .2-1.2 10.4 6-.2 1.2zm-8.9 23.9-10.4-6 .2-1.2 10.4 6-.2 1.2zm3.9 2.3-2.6-1.5.2-1.2 2.6 1.5-.2 1.2zm-3.5-28-2.2-1.3.2-1.2 2.2 1.3-.2 1.2zm3.7 2.2-2.6-1.5.2-1.2 2.6 1.5-.2 1.2zm-.8 2.6-5.7-3.3.2-1.2 5.7 3.3-.2 1.2zm3.8 2.2-2.6-1.5.2-1.2 2.6 1.5-.2 1.2zm3.9 2.2-2.6-1.5.2-1.2 2.6 1.5-.2 1.2zm6.1 3.6-5-2.9.2-1.2 5 2.9-.2 1.2zm-3.9 4-2.6-1.5.2-1.2 2.6 1.5-.2 1.2zm6.2 3.6-5-2.9.2-1.2 5 2.9c0-.1-.2 1.2-.2 1.2zm-20.1-11.6-2.6-1.5.2-1.2 2.6 1.5-.2 1.2zm3.8 2.2-2.6-1.5.2-1.2 2.6 1.5-.2 1.2zm6.2 3.6-5-2.9.2-1.2 5 2.9-.2 1.2zm8.1 1.5-2.6-1.5.2-1.2 2.6 1.5-.2 1.2zm3.8 2.2-2.6-1.5.2-1.2 2.6 1.5-.2 1.2zm6.2 3.6-5-2.9.2-1.2 5 2.9-.2 1.2zm-19.3 8.5-2.6-1.5.2-1.2 2.6 1.5-.2 1.2zm6.1 3.6-5-2.9.2-1.2 5 2.9c.1-.1-.2 1.2-.2 1.2zm-15.8-19.5-2.6-1.5.2-1.2 2.6 1.5-.2 1.2zm6.1 3.6-5-2.9.2-1.2 5 2.9-.2 1.2zm6.4 17.1-2.6-1.5.2-1.2 2.6 1.5-.2 1.2zm6.2 3.5-5-2.9.2-1.2 5 2.9-.2 1.2zm-.3-32.3-2.6-1.5.2-1.2 2.6 1.5-.2 1.2zm-4-2.3-2.6-1.5.2-1.2 2.6 1.5-.2 1.2zm10.2 5.8-5-2.9.2-1.2 5 2.9-.2 1.2zm-23.5-4.1-2.4-1.4.2-1.2 2.4 1.4-.2 1.2zm7.1 4-5.8-3.3.2-1.2 5.8 3.3-.2 1.2zm7 4.1-5.8-3.3.2-1.2 5.8 3.3-.2 1.2zm13.1-1.9-2.4-1.4.2-1.2 2.4 1.4-.2 1.2zm7 4.1-5.8-3.3.2-1.2 5.8 3.3-.2 1.2zm7 4.1-5.8-3.3.2-1.2 5.8 3.3-.2 1.2zm-38.7-6.7-5.8-3.3.2-1.2 5.8 3.3-.2 1.2zm3.1 1.7-1.8-1 .2-1.2 1.8 1-.2 1.2zm3 1.8-1.8-1 .2-1.2 1.8 1-.2 1.2zm5.7 3.3-4.4-2.5.2-1.2 4.4 2.5-.2 1.2zm6.3-5.8-1.8-1 .2-1.2 1.8 1-.2 1.2zm5.6 3.3-4.4-2.5.2-1.2 4.4 2.5-.2 1.2z"/><path class="st0" d="m182.3 110.3-4.4-2.5.2-1.2 4.4 2.5-.2 1.2zM159.1 126l-5.7-3.3.2-1.2 5.7 3.3-.2 1.2zm3.8 2.2-2.6-1.5.2-1.2 2.6 1.5-.2 1.2zm3.8 2.2-2.6-1.5.2-1.2 2.6 1.5-.2 1.2zm6.2 3.6-5-2.9.2-1.2 5 2.9-.2 1.2zm3.9 2.3-2.6-1.5.2-1.2 2.6 1.5-.2 1.2zm6.2 3.6-5-2.9.2-1.2 5 2.9-.2 1.2zm-18.9-4.7-2.6-1.5.2-1.2 2.6 1.5-.2 1.2zm6.1 3.5-5-2.9.2-1.2 5 2.9-.2 1.2zm-19.9-11.5-2.6-1.5.2-1.2 2.6 1.5-.2 1.2zm3.8 2.2-2.6-1.5.2-1.2 2.6 1.5-.2 1.2zm6.2 3.6-5-2.9.2-1.2 5 2.9-.2 1.2zm-5-6-2.4-1.4.2-1.2 2.4 1.4-.2 1.2zm7 4-5.8-3.3.2-1.2 5.8 3.3-.2 1.2zm7.1 4.1-5.8-3.3.2-1.2 5.8 3.3-.2 1.2zm-21-5.9-5.8-3.3.2-1.2 5.8 3.3-.2 1.2zm3 1.8-1.8-1 .2-1.2 1.8 1-.2 1.2zm3.1 1.8-1.8-1 .2-1.2 1.8 1-.2 1.2zm5.6 3.2-4.4-2.5.2-1.2 4.4 2.5-.2 1.2z"/><path class="st0" d="m161.3 136.7-4.4-2.5.2-1.2 4.4 2.5-.2 1.2zM151 118.2l-1.8-1 .2-1.2 1.8 1-.2 1.2zm5.6 3.3-4.4-2.5.2-1.2 4.4 2.5-.2 1.2zm5.8 3.3-4.4-2.5.2-1.2 4.4 2.5-.2 1.2zm22.2 19.1-2.6-1.5.2-1.2 2.6 1.5-.2 1.2zm6.2 3.5-5-2.9.2-1.2 5 2.9-.2 1.2zm-15.9-9.1-4.4-2.5.2-1.2 4.4 2.5-.2 1.2zm5.7 3.3-4.4-2.5.2-1.2 4.4 2.5-.2 1.2zm-32.7-35.5-1.8-1 .2-1.2 1.8 1-.2 1.2zm5.6 3.3-4.4-2.5.2-1.2 4.4 2.5-.2 1.2zm5.8 3.3-4.4-2.5.2-1.2 4.4 2.5-.2 1.2z"/><path class="st20" d="M261.5 185.8c0-.4.4-.8.8-.8s.8.4.8.8-.4.8-.8.8-.8-.4-.8-.8zm14 36.6c0-.4.4-.8.8-.8s.8.4.8.8-.4.8-.8.8-.8-.4-.8-.8z"/><circle class="st20" cx="275.1" cy="195" r="1.2"/><circle class="st37" cx="276.9" cy="174.8" r=".8"/><path class="st37" d="M264.2 208.6c0-.7.6-1.3 1.3-1.3s1.3.6 1.3 1.3-.6 1.3-1.3 1.3-1.3-.6-1.3-1.3z"/><circle class="st37" cx="266" cy="204.4" r=".9"/><path class="st0" d="M226.7 144.4c-.3 0-.6-.1-.9-.2l-24.1-13.9c-1-.6-1.6-2-1.4-3.2l1.5-9.2c.1-.6.4-1.1.9-1.3.4-.2.9-.2 1.4.1l24.1 13.9c1 .6 1.6 2 1.4 3.2l-1.5 9.2c-.1.6-.4 1.1-.9 1.4h-.5zm-23.5-27.7c-.1 0-.3 0-.4.1-.3.2-.6.5-.7 1.1l-1.5 9.2c-.2 1.1.4 2.3 1.2 2.8l24.1 13.9c.4.2.7.2 1.1.1.3-.2.6-.5.7-1.1l1.5-9.2c.2-1.1-.4-2.3-1.2-2.8l-24.1-13.9c-.2-.1-.4-.2-.7-.2zm20.8 43.5c-.3 0-.6-.1-.9-.2L199 146.1c-1-.6-1.6-2-1.4-3.2l1.5-9.2c.1-.6.4-1.1.9-1.4.4-.2.9-.2 1.4.1l24.1 13.9c1 .6 1.6 2 1.4 3.2l-1.5 9.2c-.1.6-.4 1.1-.9 1.4-.1.1-.3.1-.5.1zm-23.4-27.7c-.1 0-.3 0-.4.1-.3.2-.6.5-.7 1.1l-1.5 9.2c-.2 1.1.4 2.3 1.2 2.8l24.1 13.9c.4.2.7.2 1.1.1.3-.2.6-.5.7-1.1l1.5-9.2c.2-1.1-.4-2.3-1.2-2.8l-24.1-13.9c-.3-.1-.5-.2-.7-.2z"/><linearGradient id="SVGID_00000106116912271806494310000013515013946199840131_" gradientUnits="userSpaceOnUse" x1="205.707" y1="167.472" x2="240.397" y2="152.632" gradientTransform="matrix(1 0 0 -1 0 294)"><stop offset="0" style="stop-color:#42e8e0"/><stop offset=".11" style="stop-color:#36b5bf"/><stop offset=".22" style="stop-color:#2c87a0"/><stop offset=".34" style="stop-color:#235f86"/><stop offset=".46" style="stop-color:#1b3e71"/><stop offset=".58" style="stop-color:#162560"/><stop offset=".71" style="stop-color:#121355"/><stop offset=".85" style="stop-color:#0f084e"/><stop offset="1" style="stop-color:#0f054c"/></linearGradient><path style="opacity:.5;fill:url(#SVGID_00000106116912271806494310000013515013946199840131_);enable-background:new" d="M203.9 129.2c.4.2.8.1.9-.2l2.8-7.7c.3-.9 1.6-.1 1.9 1.2l1.7 7.7c.1.6.5 1.1 1 1.4l.4.2c.4.2.8.2.9-.2l.6-1.2c.4-.8 1.5 0 1.9 1.1.1.5.5 1.1.9 1.3l.4.2c.4.2.8.1 1-.3l.5-1.6c.3-.9 1.6-.1 1.9 1.1l1.7 7.2c.1.6.5 1.1 1 1.4l-19.5-11.6z"/><path class="st0" d="M220.3 156.6c-.5-.3-.9-.9-1.1-1.5l-1.7-7.2c-.2-.8-.8-1.3-1.2-1.3-.1 0-.2 0-.3.3l-.5 1.6c-.1.2-.2.4-.4.5-.2.1-.5.1-.8-.1l-.4-.2c-.5-.3-.9-.8-1-1.4-.2-.7-.8-1.2-1.2-1.3-.2 0-.2.1-.3.2l-.6 1.2c-.1.2-.2.3-.4.4-.2.1-.5 0-.8-.1l-.4-.2c-.5-.3-.9-.9-1.1-1.5l-1.7-7.7c-.2-.8-.8-1.3-1.2-1.4-.2 0-.3.1-.3.2l-2.8 7.7c-.1.2-.2.4-.4.5-.2.1-.5 0-.8-.1l.2-.4c.2.1.3.1.5.1.1 0 .1-.1.2-.2l2.8-7.7c.1-.3.4-.5.7-.5.6 0 1.4.7 1.6 1.7l1.7 7.7c.1.5.5 1 .9 1.2l.4.2c.2.1.3.1.4.1.1 0 .1-.1.2-.2l.6-1.2c.1-.3.4-.4.7-.4.6.1 1.3.8 1.5 1.6.1.5.5.9.8 1.2l.4.2c.2.1.4.1.5.1.1 0 .1-.1.2-.2l.5-1.6c.1-.4.4-.5.7-.5.6 0 1.4.7 1.6 1.6l1.7 7.2c.1.5.5 1 .9 1.2l-.3.2z"/></g></g></svg>