<svg fill="#ffffffcf" xmlns="http://www.w3.org/2000/svg" xml:space="preserve" viewBox="0 0 200 150">
  <g transform='translate(20,60)'>
    <path d="M73 46.9c-.5 1.9-1.7 3.4-3.7 3.7s-4.2.5-6.2.2c-3.3-.3-6.5-.1-9.6.8-5.9 1.8-11.9 2.5-18.1 2-.6 0-1.2-.1-1.8 0-.4.1-.8.4-1 .7C30.7 58.5 28 62 24 64.4c-.6.4-1.3.6-1.9.9h-1.2c-2.6-1.5-4.5-3.7-5.3-6.6-.9-3.6-.7-7.2.3-10.7.1-.4 0-.9 0-1.5.4.1.9.1 1.2.3 2.2 1.4 4.5 2.9 6.7 4.3.7.4 1.3.8 2.3 1.4-3.5.2-5.8-2.1-8.5-3-1.2 4.2-1.1 10.4 2.4 13.2 1 .8 1.9 1 3 .3 3.6-2.1 6.1-5.1 8.2-8.7.3-.5 1.4-.8 2.1-.9 1.5-.2 3-.2 4.5-.1 5.6.2 10.9-.9 16.1-2.8 4.6-1.7 8.7-4.2 11.9-7.8 2.3-2.5 4-5.5 4.8-8.8.3-1.4.2-2.7-.3-4.1-1.3-4.1-3.4-7.6-6.4-10.8-3.3-3.5-7-6.6-11.2-8.9-4.7-2.6-9.8-4.3-15.3-4.6-3.3-.2-6.5-.1-9.7.9-2.7.7-5.3 1.6-8 2.4 0 .1-.1.3-.1.4.5.4 1 .9 1.6 1.3.5.4 1.2.7.8 1.5-.5.8-1.1.1-1.5-.1C15.2 9.4 9.6 8 3.7 8.2c-.4 0-.8.1-1.4.1.4 1.4.6 2.6 1 3.9 1.5 4.7 4.2 8.7 7.7 12.1.7.6.9 1.8 2.1 2 .1 0 .3.7.1.9-.3.5-.7 1-1.2 1.3-2.7 1.5-4.6 3.7-6.4 6-.5.6-.7 1.5-1.3 2.6 1.7.2 3.2.5 4.7.6 1.8 0 3.7-.2 5.5-.4.7-.1 1 .1 1.2.8.1.6.4 1.2-.5 1.4-1.1.2-2.1.4-3.2.5-2.3.3-2.4.3-2.4 2.5-.1 1.4 0 2.8 0 4.3 1.7-.3 3-1.1 4.2-2 .5-.3 1.1-.5 1.6-.7-.1.6 0 1.3-.3 1.9-1 2-4.5 3.5-6.6 2.8-.5-.2-.9-1.1-1-1.7-.2-2-.2-4 .6-6 .3-.8.2-1.1-.8-1.3-1.7-.3-3.5-.3-5.1-1.4-.8-.5-1.1-1.1-.8-1.9.4-1.2.9-2.4 1.7-3.4 1.6-1.8 3.3-3.5 5-5.2.7-.7 1.4-1.3 2.2-1.9-3.4-3-6.1-6.4-8-10.3C1.4 14 .8 12 0 10.1v-2c.3-.6.5-1.5.9-1.6 1.2-.4 2.6-.8 3.9-.7 2.6.2 5.1.7 7.6 1.2 1.1.2 2.2.6 3.4.7.9.1 2 .2 2.6-.3 2.7-2 5.9-2.5 9.1-3.1 2.5-.5 5.1-1.1 7.7-1.1 3.8.1 7.7.5 11.3 2.1 2.6 1.1 2.6 1.1 3.2-1.8.3-1.3.5-2.7 1.9-3.4.3-.2.8-.2 1.1-.1 2.1.8 3.7 2.1 5.1 3.8.7.9 1.6 1.7 2.3 2.6 2.1 2.7 3.2 5.8 4.4 8.9.4 1 1 2 1.7 2.8 3.6 4.5 6.4 9.4 6.1 15.5-.1 2-1.1 3.6-2.1 5.3-.7 1.1-.3 1.8.4 2.7 1 1.3 1.7 2.8 2.5 4.3zm-14.2 2.7v.2c1.1.1 2.2.2 3.3.2 2.5-.2 5.1-.4 7.6-.9 1.7-.3 2.4-1.9 1.8-3.3-.5-1.1-1.2-2.1-1.9-3.1-.5-.7-1-.7-1.7 0-1.6 1.6-3.3 3.2-5.2 4.6-1.1.9-2.6 1.5-3.9 2.3m3.3-35.1c-.3-.6-.5-1.2-.8-1.8-1.7-4.4-4.4-8-8.5-10.5-.6-.4-1-.4-1.3.3-.6 1.6-.2 3.1.2 4.7 0 .2.4.4.6.5 3.8 1.5 6.7 4.2 9.8 6.8"/>
    <path
      d="M50.4 45c1.4-2.2 3.7-3.8 2.9-6.6-.7-.4-1.5-.9-2.3-1.4-1-.8-1.7-.5-2.4.3l-1.2 1.5c-1.1 1.4-1.3 1.4-2.9.8-1-.4-1.6 0-1.4 1.2.2 1.7 1.2 3 2.6 4 .3.2.6.4.8.6-1.6 0-2.9-.7-3.8-1.9-1.6-2-1.2-4.3-.8-6.6 0-.1.5-.3.7-.3.8.2 1.6.5 2.3.9.9.5 1.4.1 1.6-.7.2-.6.3-1 1.1-.9h.1c1.5-1.4 2.8-.7 4.3 0 .3.2 1 0 1.4-.2.3-.2.4-.7.8-.9.5-.2 1-.1 1.5-.2 0 .4.2.9 0 1.2-.6.8-.6 1.6-.5 2.5.4 2.6-1.7 6-4.8 6.7M33.6 32.6c0 1.8-.7 3.2-2.3 4-1.3.7-2.7.4-3.7-.7-1.8-2.2-1.7-6.1.2-8.2.8-.9 1.7-1.1 2.8-.6 1.9.8 3 2.9 3 5.5m-2.9-1.4c.8 0 1.1-.7 1-1.3s-.6-1.1-1.2-1.1-1 .4-1 1.1.4 1.4 1.2 1.3m33.6-3.3c0 .3 0 .7-.1 1-.9 2.3-2.2 3.2-4.1 1.4-1.5-1.4-2.5-3.2-2.4-5.4 0-1 .3-2.2 1.3-2.4.8-.2 2 0 2.7.5 1.7 1 2.6 2.7 2.6 4.9m-3.9-4.3c-.7.1-.9.7-.8 1.3s.4 1.1 1 1 .9-.6.9-1.1-.4-1.3-1.1-1.2"/>
  </g>
</svg>
