<svg version="1.1" x="0" y="0" viewBox="0 0 558 372" style="enable-background:new 0 0 558 372" xml:space="preserve" xmlns="http://www.w3.org/2000/svg"><style type="text/css" id="style1">.st0{fill:#1f1c32}.st1{fill:#5e8ff3}.st2{fill:#173245}.st5{fill:#0f192a}.st6{fill:#1b4b5b}.st9{fill:#517bcb}.st10{fill:#11416a}.st11{fill:#f2f4fa;fill-opacity:.996}.st13{fill:#000709}</style><g id="g6"><path id="path1" class="st0" d="M362.3 116.9c1.5 2.5 2.4 5 2.8 7.6 0 .1-.1.3-.2.3h-.3c-.3 0-.4-.1-.5-.3-.4-2.5-1.2-5-2.2-7.5 0-.1 0-.1.1-.2.1 0 .2 0 .3.1z"/><ellipse id="ellipse1" transform="matrix(.9972 -.07498 .07498 .9972 -8.395 27.399)" class="st0" cx="360.7" cy="125.5" rx=".7" ry="1.2"/></g><g id="g18"><path id="path7" class="st1" d="M400.5 84.6c-4.8 2.5-7.4 2.5-8-.1 2-.2 3.8-.6 5.5-1 1.4-.5 2.2-.1 2.5 1.1z"/><path id="path8" class="st1" d="m383.5 84.8 2.5.3 9.2 10.8c.5.6.6 1.4.3 2.1l-7.4 17.1c0 1.5-.2 2-.8 1.5-2.3-6.9-4.8-13.8-7.7-20.5-.9-2-1.2-4.3-1.8-6.4-.1-.4.1-.9.5-1h.2c1.8-.2 3.1-1.2 3.7-3.1.5-.7.9-.9 1.3-.8z"/><path id="path9" class="st1" d="M400.8 85.2c5 3 9.1 6.9 12.3 11.8.4 2 1.1 4.3 2.3 6.8.6 1.4 1.4 4.8 2.2 10.3.3 2.3.8 4.7 1.3 7.2.1.3.2.4.5.4s.6-.2.8-.5c.6 1.2.5 2.2-.2 2.9-.8 1-2.2.8-2.7-.3-.3-.7-1.1-.9-1.8-.6h-.1c-3.1 1.8-6.1 4.3-9 7.5-4.4-3.2-8.1-7-11.1-11.4 2.2-8.3 3.7-14.7 4.5-19.2.9-4.3 1.2-9.2 1-14.9z"/><path id="path11" class="st1" d="m417.1 101 4.4 22.8c.1.4-.1.7-.4.9-1.2.7-2.4 1.6-3.6 2.6-2.5 2.2-5.7 3.7-8.9 5.1l.1.2c.1.1.2.2.3.1 4.9-1.6 10-2.6 14.7 0 .7.4 1 1.1.9 1.9-.7 4.4-1.1 8.9-1.1 13.4 0 1.1.2 1.1.6.1 2.3-6.3 5.1-12.4 8.4-18.4.7-1.3 1.6-2.2 2.8-2.9.3-.1.5-.2.8-.2.9-.1 1.8.6 1.8 1.6.2 4.5-.3 9.1-1.7 13.8.1.4.3.6.5.6.6 0 1.1-.3 1.2-.9.8-3.4 3.5-15.5 7.6-16.1.6-.1 1 0 1.2.4-1.2.8-2.4 1.9-3.7 4.1l.8 4.1c-1.7 2.6-3.2 5.2-4.5 8-1.5 3.4-3 6.8-4.4 10.2-.1.1-.1.2-.1.3 0 .6.4 1.1.9 1.1.4 0 .6.2.6.6 0 .4-.1.7-.3.9-.7.8-1.2 1.7-1.7 2.5-.5.9-.4 1.6.1 2.2 5-2.5 9.8-5.1 14.3-7.6 4.7-2.6 8.3-.3 12.6 2.4 4.9 3.1-1 9.6-4 12.2-3.3 2.9-6.2 5.7-8.9 8.4-.3.3-.3.7-.2 1.1.7 1.9 1.9 3.2 3.8 4.1 4.1 1.8 8.5 3.5 13.2 5.1 2.5.8 4.8 2.2 6.7 4l.1.1c.2.3.1.7-.2.9l-4.4 2.6c1.1 1 2.5 1.9 4.1 2.5.3.2.5.4.6.7s.3.5.8.4c.2-.1.3-.1.5 0l5.7 1.9c.1.1.2.1.3.1.7.1 1.4-.5 1.5-1.2l1.6-13.7c-.4-3.1-1.5-6-2-9-.6-4-1.5-7.8-2.9-11.4-1.3-2.6-3.6-12-3.6-12-.1-.4-2.2-5.8-2.2-5.8s-2.8-10.7-5-17.4c-.9-2.9-2-8.8-5.1-9.3.3 0 .6-.1.9-.1.2 0 .3 0 .3-.2v-.3c0-.2-.2-.4-.4-.6-.4.1-.7.1-1.1.1-4.5-2.1-9.4-3.7-13.5-5.6-8.3-3.8-15.8-7-22.3-9.4-2.2-.8-5-1.5-8.5-2zm26.3 41.1c.3.2-.4 2.1-1.5 4.4-1.1 2.3-2.2 4-2.5 3.9s.4-2.1 1.5-4.4c1.1-2.3 2.2-4 2.5-3.9z"/><path id="path12" class="st1" d="m404.8 136.5 7.6 4.2c.6.3.9 1.1.7 1.7-1.2 3.8-2.8 7.3-4.8 10.7-2.7 4.6-5 8.9-6.9 12.9-2.4 5.2-5.1 10.6-8 16.1.4-2.6 1.4-5.1 3-7.6.7-1.1 1.3-2.2 1.8-3.4.7-2 1.2-3.1 1.4-3.6l8.4-17.4c1.2-2.5 2.2-4.9 3-7.3.2-.5-.1-1-.5-1.1-2.9-1.1-5.6-2.7-8.1-4.8-.3-.3-.3-.5 0-.8.4-.3.8-.3 1.2 0 .4.2.8.3 1.2.4z"/><path id="path13" class="st1" d="M425.2 205.8c.8.4.9 1 .3 1.7-.8.9-2.4 1.1-3.4 1.7-.3.2-.5.4-.4.8 0 .3.2.6.5.7 4.2 1.6 8.4 3.3 12.7 5.3.7.3 1.1.5 1.1.6.6 1.2.2 1.7-1.1 1.4-3.7-.9-7.1-1.6-10.8-3-3.4-1.4-7.8-2.8-13.1-4.2-2.6-.7-5.1-1.6-7.5-2.6-.5-.2-.5-.4 0-.7.1 0 .2-.2.3-.5l21.4-1.2z"/><path id="path14" class="st1" d="M354 210.2c-1 0-1.8.6-2.2 1.8-1.9 1.9-4.4 1.3-6.4 2.6-1.9 1.2-4 2.5-6.3 3.8-.2.1-.4.1-.6-.1l-.2-.2c-.1-.1-.1-.3 0-.4 2.5-1.7 4.9-3.4 7.1-5.1.6-.4 1.1-1 1.5-1.6.2-.3.4-.4.7-.5 2.9-1 5.8-1.7 8.7-2 .3 0 .6.1.9.3.3.3.2.6-.2.7l-3 .7z"/><path id="path15" class="st1" d="M386.5 212.8c-.4.8-1.5 1-3.3.4-.3-.1-.6-.1-.9 0l-12.4 4.6c-2.1-3-6.5-6.6-10.4-4.2-2.2 1.4-4.5 2.6-6.8 3.6-1.1.5-2 1.4-2.5 2.4-.4.6-.9.9-1.6.8-.2 0-.3-.1-.5-.2-.5-.3-.5-.6-.1-1 1.4-1.6 2.4-3.2 4.2-4.3 3.3-2 6.7-3.5 10.1-4.4 2.7-.7 10.8-.9 12.6 1.9.2.4.7.5 1.1.3.1 0 .1-.1.1-.1l2.4-2.4c.6-.6 1.3-.8 2-.5 2 .8 4 1.8 6 3.1z"/><path id="path16" class="st1" d="m360.8 219.3.5.6c-.2.7-.6 1.2-1.1 1.5-.3.2-.5.4-.5.7-.1.4-.1.9.1 1.3.1.4-.4.7-1.4.9-16.1.9-27.2 1.4-33.2 1.6-.4 0-1.3-.2-2.5-.6l-.7-.7c-.1-.6.2-.9.9-1.1 8.5.4 16.8 0 25.1-1.1l8.4.3c1.5.1 2.7-1.1 2.9-2.6l.1-1.2c0-.5.3-.7.8-.6.3.4.5.6.6 1z"/><path id="path17" class="st1" d="M354 219.4c.2.2.3.5.3.8s-.1.6-.5.7l-1.5.4c-.2.1-.5-.1-.5-.3v-.2c.2-.8.6-1.3 1.3-1.6.3-.1.6 0 .9.2z"/><ellipse id="ellipse17" transform="rotate(-55.103 357.117 220.54)" class="st1" cx="357.1" cy="220.5" rx=".7" ry="1"/><path id="path18" class="st1" d="M342.9 221.3c-1.1.7-2.4.9-3.9.8-1.9-.2-3.1-.3-3.8-.3-3.8.2-7.7.1-11.5-.2-.4 0-.6-.1-.7-.3s-.1-.6 0-1c3.8-.1 7.5.1 11.3.6 2.2.3 3.8-.4 6-.6 1.3-.3 2.2.1 2.6 1z"/></g><path id="path20" d="M348.5 29.6c-2.6.8-5.3 1.4-8.1 1.6-.6.1-1.1.2-1.7.4-.8.3-1.3.5-1.5.8-1.7 2-4.1 4.2-7.3 6.7-3.9 3.1-7.8 5.9-11.6 8.4-.6.4-.9 1.1-.8 1.9 1.6 8.4 2.6 17 2.9 25.9.1 2.5 2.7 2.7 4.6 2.7h.1c.9.1 1.6.9 1.5 1.8-.3 4-.2 8 .3 11.9.1.9.8 1.5 1.7 1.5l4-.1c.5 0 .9.3 1 .7l2.2 7.1c.1.5.4.8.9.9.6.1 1.1.1 1.7-.1.7-.2 1.5.2 1.8.9l4.2 10.8c.3.6.1 1.3-.4 1.7l-12.1 10.4c-.2.2-.3.4-.4.6-.3.8.1 1.6.8 1.9l2.2.9c.4.2.6.4.8.8.5 1.2.2 2.3-.8 3.2-4.7 4.2-9.3 8.2-13.9 11.7-2.9 2.3-3.6 4.4-3.8 8-.3 5.3-.6 10.3-.9 15.1-.1 1.9-.6 3.8-.8 5.7.2 1.3.2 2.5 0 3.5-.1 1-.5 1.1-1.1.3 0 0 0-.4.1-1.1-.4-.2-.7-.7-1-1.5l.5 5.7c0 .1 0 .1.1.2 0 .1.1.1.2.2s.1.1.1.2c.3 2.4.7 4.9 1.1 7.3 1 6.1 2.5 15.3 4.4 27.6.3 1.9.9 3.4 1.7 4.5l1 5.1c-.2-.1-.5-.2-.8-.1-4.2.7-7.5.9-9.9.6-2.3-.3-4.5-.4-6.5-.4-5 .1-9.9 0-14.8-.2-11.8-.5-22.3-.9-31.4-1-7.6-.2-15.6-.7-23.4-.8-2.3 0-4.6-.3-6.8-.9-3-.8-6.2-1.1-9.6-.9l-85.7-1s-13.8.1-14.9.5l-23.3-11.8-.6-27.3c-.2-1.4-.5-1.5.2-3.1-.4-.2-.7-.3-.6-.4-6.7.1-14 .2-22 .4-1.7.1-3.3.4-5 .5-.5 0-.8.3-.8.8v41.4c0 .7-.6 1.3-1.3 1.3-8 0-15.8 0-23.3.1-2.4.1-4.8.3-7.2.6-.5 0-.8.4-.8.9 0 11.3.3 22.1.9 32.4.1 1 .8 1.8 1.8 1.9 4.5.6 8.9 1.7 13.5 1.9 3.7.1 7.7.6 11.9 1.2 4.4.7 8.3 1.2 11.8 1.5 7.1.7 14.2 1.5 21.3 2.4.1 0 4.7.6 13.9 1.6 6 .7 12 1.6 18 2.8l60.9 6.5 50.4 6c14.2 1.5 28.5 2.9 42.9 4.3 6.1.6 12.1 1.3 18.2 2.2 3.4.5 5.2 0 5.4-1.5-1-4.6-.6-9.4-.8-13.8-.2-2.4-.2-4.7-.1-7 .1-2.2.1-4.5.1-7-.1-.8 1.3-26.9 1.3-26.9l92.261-3.196c.8-.5.54-4.204 1.04-4.804l78.5-2.5 2.798-23.2v-.1c0 3.3-3.898-6.2-7.398-8.8l.1-.1c.3-.3.3-.7 0-.9-2-1.8-4.202-3.2-6.702-4-4.7-1.5-9.099-3.2-13.199-5.1-1.9-.8-3.2-2.2-3.8-4.1-.2-.4-.1-.8.2-1.1 2.6-2.8 5.6-5.6 8.9-8.4 3-2.6 8.9-9.1 4-12.2-4.3-2.7-7.9-5-12.6-2.4-4.5 2.5-9.3 5-14.3 7.6-.8-.9-.8-2 0-3.5.2-.3.2-.7.1-1-.3-1.1-.3-2.2.1-3.3.6-1.9 1.1-4.2 1.4-6.6.1-.3 0-.6-.1-.9-.4-.9-.5-1.8-.1-2.6 1.4-4.8 1.9-9.3 1.7-13.8 0-.3-.1-.6-.2-.8-.5-.8-1.6-1.1-2.4-.6-1.2.7-2.1 1.6-2.8 2.9-3.3 6-6.1 12.2-8.4 18.4-.4 1-.6 1-.6-.1 0-4.6.3-9 1.1-13.4.2-.8-.2-1.5-.9-1.9-4.7-2.6-9.7-1.6-14.7 0-.1.1-.2 0-.3-.1l-.1-.2c3.1-1.3 6.3-2.9 8.9-5.1 1.1-1 2.3-1.9 3.6-2.6.3-.2.5-.5.4-.9l-4.4-22.8c-.2-.7-.6-1.1-1.1-1.3-.3-.1-.5 0-.4.4l4.6 21.3c.5 1.1.5 2.1-.2 2.9-.8 1-2.2.8-2.7-.3v-.1c-.4-.6-1.2-.9-1.8-.5-3.1 1.8-6.1 4.3-9 7.5-1.6 2.1-2.2 4.1-1.7 5.9l7.6 4.2c.6.3.9 1 .7 1.7-1.3 3.7-2.8 7.3-4.8 10.7-2.7 4.6-5 8.9-6.9 12.9-2.4 5.2-5.1 10.6-8 16.1-1.5 2.6-3.1 2.3-5-.8-.2-.4-.3-.9-.2-1.3.4-2.5.3-5-.4-7.5-.6-2.2-1-4.5-1.2-6.9-.3-4.3.7-8.5.9-12.7.5-8.6 1.6-16.5 3.5-23.6.9-3.7 2.4-7.1 4.4-10.3 2.2-8.2 3.7-14.6 4.5-19.2.8-4.2 1-9.1.9-14.8.3.2.2-.1-.3-.7-4.8 2.5-7.5 2.5-8-.1l-6.6.6 9.2 10.8c.5.6.6 1.4.3 2.1l-7.4 17.1.1 3c0 .5-.2.6-.5.2-.3-.4-.5-.9-.4-1.7-2.2-6.9-4.8-13.8-7.7-20.5-.8-2-1.2-4.3-1.8-6.4v-.2c-.1-.5.3-.9.7-.9 1.8-.1 3-1.2 3.7-3.1-2-1.5-1.1-3-1.4-4.6-.3 0-1.1-1.8-1.5-3.3l.7-9.4c-.2-9.4-1-18.7-2.5-28.1-.1-.5-.3-.8-.7-1-1.9-1-3.9-2.3-5.4-3.9-1.1-1.1-2.3-1.9-3.7-2.2-2.3-.6-4.3-1.5-6.1-2.8-.4-.2-.8-.4-1.2-.5-.4-.1-.8-.1-1.2 0-3.3.6-6.3 1.4-9.6 0-.3-.1-.7-.1-1.1 0zm25.1 58.5c1.7.1 2.8.9 3.1 2.4.7 3.1 1.7 7.1-1.3 9.4-1.7 1.3-3.6 2.5-5.7 3.6-.2.1-.3.1-.4.1-.4 0-.6-.3-.6-.7.1-1.8.9-3.3 1.1-5.1.3-2.4.6-4.8.9-7.4.1-1.7 1.2-2.4 2.9-2.3z"/><path id="ellipse4" class="st0" d="M483.2 222.4c-6.4 1.2-20.1 2-20.1 2l-58.6.7c-.3.3-4.6.2-6.6.2-.5.6-1.1 1.1-2 1.6-.6.4-1.4.6-2.4.6-1.4 0-2.9.4-4.3.3-4.1-.2-8.3 0-12.4.6-.6 0-1.2.2-1.8.3-1.6.4-3.3.5-5.1.1-2.5-.5-5.3-.4-8.5.1-2.9.5-5.6.7-7.9.7-7.1-.1-14.5.1-22 .4-2.5.1-5.3.4-8.5.9-5.4.8-10.8.5-16.1-.9-1.8-.5-3.4-.7-4.9-.8-4.9-.1-10.1-.4-15.7-.8-3.1-.3-5.9.6-9 .1-2.7-.4-5.3 0-8-.5-1.4-.2-2.8-.1-4.3.2-.1 0-.2 0-.2-.1l-.2-.2c-.1-.1-.2-.1-.3-.1-5.7.1-11.4.1-17.2.1-1.9 0-3.8-.1-5.7-.3-1.9-.2-3.8-.4-5.7-.5 1.6.3 3.1.5 4.7.8 1.4.2 3 .3 4.7.3 8.4-.2 17 .1 25.8.8 6.8.5 1.2.3 32.7 4.4h.2l-1.1 33.6 1.9 53.8s168.3-35.5 251.7-52.8c.9-.2 1.5-1 1.6-1.9l.3-3.3v-36.4c-.7-1.4-3.1-2.2-6.6-2-21.4-.2-42.8-.3-64.2-.3-1 0-2 0-3 .1-.3.1-.6-.1-.7-.4-.4-.6-.5-1.1-.5-1.4z"/><g id="g23"><path id="path21" class="st2" d="M104.8 202.5c8.9-.2 17.9-.3 26.9-.4 1.8 0 3.4.2 4.6.6.9.3 1.5 1.1 1.5 2v15.1c-.4.1-.8.1-1.2-.1-.3-.1-.4 0-.2.2.1.1.2.2.3.2.4.1.5.3.2.6-.2.2-.4.4-.8.5-6-.2-11.9-.3-17.9-.1-3.2.1-7.7-.4-13.3-1.4-.3-.1-.6 0-.9.1-.6.2-1.2.3-1.9.2-.7 0-1.3.5-1.5 1.2l-.8 4.8c-.1.7-.5 1-1.2 1h-1.2c-.8 0-1.2-.4-1.3-1.2L95 209.3c.5.9.9.7 1.1-.4.1-.3.2-.5.6-.6 1.3-.4 2.3-.6 3.2-.5h3.2c.9 0 1.5-.7 1.5-1.5v-.1c-.1-1.5 0-2.7.2-3.7z"/><path id="path22" class="st2" d="M321.1 220.4c.4.1 1.1.1 1.9-.1-.2.4-.2.7 0 1 .1.2.3.3.7.3 3.9.4 7.7.4 11.5.2.6 0 1.9.1 3.8.3 1.5.2 2.8-.1 3.9-.8 3-.4 4.7 0 5.1 1.3-8.2 1.1-16.6 1.5-25.1 1.1-.8-.1-1.4-1.2-1.8-3.3z"/><path id="path23" class="st2" d="m54.4 276.5 132.5.2 50.7 5.8 2.9 8.6-165.9.2s-51.3-8.5-74-10.6c-.2 0-.3-.1-.3-.3v-.8c0-.2.1-.3.4-.3.2-.1 53.7-2.8 53.7-2.8z"/></g><path id="path24" d="M311.8 180.8c.5.1 6.6 36.4 6.6 36.4L208.2 205l-9-35.8 112.6 11.6z" style="fill:#042623"/><path id="path25" d="M103.7 182.6c.2 6.8-.3 13.3 1.1 19.9-.3.9-.3 2.2-.2 3.6.1.8-.6 1.6-1.4 1.6h-3.3l-.6-24.5c0-.3.1-.5.5-.5l3.9-.1z" style="fill:#95f3ff"/><g id="g30"><path id="path26" class="st5" d="M369.8 97.8c.3-2.3.6-4.8.8-7.4.1-1.7 1.2-2.4 2.9-2.3 1.8.1 2.8.9 3.1 2.4.7 3.2 1.7 7.2-1.3 9.4-1.7 1.2-3.6 2.4-5.7 3.6-.3.2-.7.1-.9-.3-.1-.1-.1-.2-.1-.4.2-1.7 1-3.3 1.2-5z"/><path id="path27" class="st5" d="M395.5 119.2c3 4.4 6.6 8.2 11.1 11.4-1.6 2.1-2.2 4.1-1.7 5.9-.5-.1-.8-.2-1-.4-.4-.3-.8-.3-1.2 0-.3.3-.3.5 0 .8 2.5 2.1 5.2 3.6 8.1 4.8.5.2.7.7.5 1.1-.8 2.4-1.8 4.8-3 7.3l-8.4 17.4c-.2.4-.7 1.6-1.4 3.6-.5 1.2-1.1 2.3-1.8 3.4-1.6 2.4-2.7 5-3 7.6-1.5 2.6-3.2 2.3-5-.8-.2-.4-.3-.8-.2-1.3.4-2.5.3-5-.4-7.5-.6-2.2-1-4.5-1.2-6.9-.3-4.3.7-8.4.9-12.7.4-8.6 1.6-16.5 3.5-23.6.7-3.4 2.2-6.9 4.2-10.1z"/><path id="path28" class="st5" d="M342.9 145.6c3.7-2.9 5.1-6.7 4.2-11.4-.3-1.7-1.8-2.5-2.5-3.8-1.6-2.7-1.2-3 1.1-.9 1.8 1.7 3 3.4 3 6 0 6.5-.8 12.8-.9 19s-.3 12.4-.3 18.6c-.1 6.3-.2 12.5-.5 18.8-.1 1.8.6 3.3-.1 5.1-.2.6-.9.8-1.4.6-.2-.1-.3-.2-.4-.3-.7-.8-.9-1.9-.7-3.3.1-.3 0-.6-.1-.9-2.3-5.8-4.5-11.4-6.8-16.8-1-2.3-2.7-7.9-5.2-16.6-.2-.5-.2-1.4-.2-2.6 0-1.6.7-2.4 2.1-2.5.3 0 .6.1.8.4l2.1 3.9c1.1 2.1 1.8 1.9 2-.4.2-1.9.8-4.9-1.8-5.4-.4-.1-.7-.5-.6-.9 0-.1.1-.2.2-.3 1.6-2.5 3.7-4.5 6-6.3z"/><path id="path29" class="st5" d="M382.5 224.4c0 .1-.1.2-.2.2l-1.1-.1c-5.1-.3-9.3-1.2-9.2-2.1v-.1c0-.8 4.2-1.2 9.4-.9h.1l1.1.1c.1 0 .2.1.2.2l-.3 2.7z"/><path id="path30" class="st5" d="M237.6 282.7c14.2 1.5 28.5 2.9 42.9 4.3 6.1.6 12.2 1.3 18.2 2.2 3.4.5 5.2 0 5.4-1.5l.5 3c0 .2.2.3.4.3.1 0 .2 0 .2.1.1.1.1.2.1.3 0 1.3-.1 3.9-.4 7.6-.6 6.7-.2 13.9 1.1 21.5-1.6.4-3.6.9-5.9 1.5-3.4.9-6.2.5-9.6.1-9.1-1.1-18-2.3-26.7-3.6-28.1-4.1-54.4-7.8-78.8-11.1-5.2-.7-10.2-1.4-15-2.1-27.2-3.9-51.6-7.5-73.4-10.8-4.1-.6-8-1.2-11.8-1.7-4-.5-7.9-1.1-11.7-1.8 6.4-1.7 12.8-2.4 19.5-2.1 2 .1 4.5.2 7.3.3 2.6.1 5 .2 7.3.4 4.3.4 9-.2 13.4-.1 6.5.1 13 0 19.6-.2 3-.1 5.8.4 8.8.4 5.1 0 9.8.1 14.2.2 11.9.3 26.5-.4 43.7-1.9 2.8-.3 5.7 0 8.4-.7h.3c.1 0 .2.1.2.1.1 0 .1.1.2 0 1.9-.3 3.8-.6 5.7-.6 1.8-.1 3.6-.3 5.4-.6 1.9-.3 3.7-.6 5.6-.7 1.2-.1 1.9-.9 3-1.1 1.6-.2 2.2-.8 1.9-1.7z"/></g><g id="g32"><path id="path31" class="st6" d="m211.4 218.3 1.4 1.9c.2.3.3.6.2.9 0 .7.1 1.2.5 1.6.9 1.5 2.2 2.3 3.9 2.2 2.2 0 3.4-.1 3.7 0 4.9.7 9.8 1.5 14.7 2.2 1.5.3 3.1.6 4.7.8 1.4.2 3 .3 4.7.3 19.6-.8 39.1 2.7 58.5 5.2.4.1.7.4.6.8v.1c-.5 1.3-.5 2.7-.2 3.9-.3-.1-.4.1-.4.5 0 .1-.1.2-.2.2h-.1c-.2-.1-.4-.5-.6-1.2.1-1 0-1.8-.3-2.5-.2-.3-.4-.5-.7-.5-22.9-.8-46.8-1.6-71.7-2.3-9.4-.3-18.7-.5-28-.9-3.7-.1-7.3-.3-10.8-.4-19.9-.8-38.8-1.7-56.8-2.9-7-.4-14.1-.8-21.3-1-1.1 0-1.9-.6-2.3-1.6-.1-.1-.1-.3-.1-.4-.1-1 .4-1.5 1.4-1.4 6.5.5 13 .6 19.5.4.3 0 .6.1.9.2.5.3 1.1.4 1.7.4.4 0 .7-.2.8-.6.3-.9.7-1.7 1.4-2.3.2-.2.2-.4-.1-.6l-.3-.3c.4-.1.6-.2.8-.5s.1-.5-.2-.6c-.1 0-.2-.1-.3-.2-.2-.3-.1-.3.2-.2.4.2.9.2 1.2.1.4.4.9.7 1.7.6 3.1-.1 6.4-.5 9.3-.5 20.6 0 41.5-.5 62.6-1.4z"/><path id="path32" class="st6" d="m126.4 270.2 60.9 6.5c0 .2.1.4.3.6.1.1.1.1.2 0 0-.1.1-.1.2 0s.2.2.1.3c-.4.5-1 .7-1.7.6-1.1-.2-1.8.2-2.7.6-.3.2-.3.2.1.2.1 0 .2 0 .2.2.1.3 0 .4-.3.5-1.6.3-3.2.2-4.9.6-3.3.9-6.6 1.3-10.1 1.2-1.5 0-3.1.1-4.8.4-1.4.2-2.8.4-4.2.4-13.8 0-27.8.4-41.5-.2-3.3-.2-6.5-.3-9.7-.4-1.9-.1-3.9-.2-5.8-.4s-3.9-.3-5.9-.2c-2.7.1-5.5 0-8.5-.3-6.2-.6-12.2-.8-18.1-.8-1.8 0-3.7-.2-5.6-.6-1.8-.4-3.7-.7-5.5-1-.8-.1-1.6-.1-2.4.1-2.5.5-3.2-.1-2.2-1.8 5.3-.5 9.2-.8 11.6-1 15.9-.8 31.8-1.8 47.8-3.1 4-.5 8.2-1.2 12.5-2.4z"/></g><path id="path33" d="M318.1 214.5c.5 3.2 1.4 6.2 2.8 9.1.1.2.5.6 1.2 1.1l.7.7c-.2.1-.6.1-1 0-.3-.1-.5-.1-.8-.1-4.2.8-7.5 1-9.9.6-2.4-.3-4.6-.5-6.5-.4-5 .1-9.9 0-14.8-.2-11.8-.5-22.3-.8-31.4-1-7.6-.1-15.6-.6-23.4-.8-2.3 0-4.5-.4-6.8-.9-3-.8-6.1-1.1-9.6-.9-.8 0-1.6-.1-2.6-.3-1.9-.5-2.7-.1-2.5 1.1-.3-.4-.5-.9-.5-1.6 0-.3-.1-.6-.2-.9l-1.4-1.9-3.5-14c.1-.1.1-.2.1-.3s0-.1.1-.2c.1-.2.2-.2.4 0 .1.1.2.3.2.4 0 .2.1.3.3.3 1 0 2.1.1 3.1.4 1.2.3 2.4.4 3.4.4 6.6.1 13 .4 19.3 1 .7.1 1.4.1 2.1 0 .3 0 .5 0 .8.1 1.5.5 3.2.9 5.1 1.2 11.2 1.7 22.1 3 32.7 3.8 2.6.2 5.4.7 8.1.8 1.1.1 2.1.2 3.2.4 3.2.7 6.4 1 9.7.9 3.8-.1 7.3.6 11 .8.7 0 1.7.2 2.8.5.9.2 1.9.4 2.9.4 1.1 0 1.8.3 2.7.8.3.2.7 0 .9-.3.2-.3.4-.6.7-.8.1-.1.2-.1.3-.1l.1.1c0 .4.1.4.3 0-.2 0-.1-.1-.1-.2z" style="fill:#064138"/><path id="path34" d="M359 142.7c-.2.6-.3 1.2-.2 1.8.3 1.8.5 3.8.5 5.9.1 4.4 1.1 7.6 4 10.9 2.7 3.1 6.4 2.9 9.5.7 3.9-2.7 6.7-7.3 8.9-11.5 0-.1.1-.1.1 0v.1c-2.8 6.6-6.4 13.3-13.9 14.8-3.2.7-6.4-2.4-8.1-4.8-.2-.3-.7-.4-1-.2-.2.1-.3.3-.3.5-.2 1.5.8 2.5.4 3.8-.1.2-.1.4-.1.6.5 14.8.6 29.6.3 44.3 0 .4-.2.5-.5.3l-.3-.1c-.1 0-.2-.1-.2-.3.2-14 .1-28-.3-42.3 0-1.6-.2-3.2-.4-4.9-.3-2.3.4-4.2-.1-6.5-1.4-8.1-1.4-18.6 1.7-26.8.4-1 1-1.4 2-1.3.5.1.8.3.8.8v.4c0 .2-.2.4-.4.5h-.1c-1.1-.2-1.7.3-1.9 1.3-.6 3-1.6 8.4.9 10.7 3.4 3.3 7.4 3.4 11.7 1.7 3.4-1.4 6.4-3.1 8.9-5.2 1.8-1.5 3.6-3.7 5.2-6.4h.1l.2.1c.2.1.2.2.1.4-1.8 3.2-4.5 6.2-7.9 8.9-4.5 3.6-16.2 9.1-19.5 1.7.2-.3.1-.3-.1.1z" style="fill:#b8e277"/><g id="g40"><path id="path35" class="st9" d="m308.4 160.2 4.6 14.5.5 5.7c0 .1 0 .1.1.2l.2.2c.1.1.1.1.1.2.4 2.4.7 4.9 1.1 7.3 1 6.1 2.4 15.3 4.4 27.6.3 1.9.9 3.4 1.7 4.5.4 2.1 1.1 3.2 1.8 3.3-.6.2-.9.5-.9 1.1-.7-.5-1.1-.9-1.2-1.1-1.4-2.9-2.3-5.9-2.8-9.1-.4-2.2-1.1-6.2-1.9-12-.8-5.5-2.2-12.8-4.3-21.9l-3.4-20.5z"/><path id="path36" class="st9" d="M315.1 173.6c.1 1.3.1 2.5 0 3.5-.2 1-.5 1.1-1.1.3 0-.1 0-.4.1-1.1l1-2.7z"/><path id="path37" class="st9" d="M482.5 183.9c1.4 6.2 3.2 12.7 3.5 19.1.3 7.3-1.3 12.6-2.9 19.5-6.4 1.2-13.1 1.9-20.1 2-14 .3-26.2.5-41.7.4-5.9 0-11.5.1-16.9.3-2.3.1-4.5.2-6.6.2-1.3-2.5-2.5-4.9-4.3-7.1-1.7-2.1-3.3-4.1-4.8-6-2.2-2.7-5-3.1-8.1-4.1-.2-.1-.3-.3-.2-.5 0-.1 0-.1.1-.1l.2-.2c.3-.4.8-.5 1.2-.4 1.9.5 3.6.7 5.2.7 4.9 0 10.4-.2 16.5-.8-.1.3-.2.5-.3.5-.5.2-.5.4 0 .7 2.4 1 5 1.9 7.5 2.6 5.3 1.4 9.7 2.9 13.1 4.2 3.7 1.5 7.1 2.2 10.8 3 1.3.3 1.7-.2 1.1-1.4 0-.1-.4-.3-1.1-.6-4.3-2-8.6-3.7-12.7-5.3-.3-.1-.5-.4-.5-.7 0-.4.1-.6.4-.8 1.1-.6 2.7-.8 3.4-1.7.6-.7.5-1.2-.3-1.7 2.2-.5 2.9-2.4 4.2-4.1.2-.3.7-.5 1.1-.4 2.8.7 5.3 2.8 7.8-.2.3-.3.8-.4 1.1-.1l.2.2c2.7 4.9 8.6 5.1 12 8.9 2.1 2.3 4.8 3 6 6.2.1.3.4.5.7.5.2 0 .4-.1.6-.3.1-.1.2-.3.2-.5.1-1.3.4-2.5.9-3.5.3-.6 1-.8 1.6-.5.1 0 .2.1.2.2 3.1 2.6 6.7 5.8 10.6 6.8.9.2 1.8-.3 2.1-1.2.4-1.4.6-2.9.4-4.7 0-.3-.2-.6-.6-.7l-7.4-2.6c-.5-.2-.8-.7-.8-1.2.1-1.3-.3-2.3-1.3-3.1-2.9-2.3-6-4.3-9.3-6.1-.3-.2-.4-.6-.3-.9.1-.2.2-.3.4-.3 5.9-1.3 14.2 5.5 17.5 9.6.5.7 1.5.7 2.2.2.1-.1.2-.2.2-.3 1.8-2.4 3-5.1 3.5-7.9.1-.4-.2-.8-.6-.8h-.1c-8.1-.4-16.2-1.6-24.2-3.6-2.4-.6-4.7-.8-6.8-.7-2.3.1-4.6.3-7 .4 0 0-.1 0-.1-.1v-.3c0-.2.1-.3.3-.3 2.6-.1 5.1-.8 7.7-.6 3.9.2 7.7.3 11.5.3 2.8 0 5.3-.2 7.5-.6 1.1 1 2.5 1.9 4.1 2.5.3.1.5.3.6.7.1.3.3.5.8.4h.5l5.7 1.9c.7.2 1.5-.2 1.7-.9 0-.1 0-.2.1-.3l2-13.8zm-45.6 20.2-2.6 4.2c-.1.1 0 .2.1.3l.7.4c10.2 6.3 19.1 10.4 19.9 9.2v-.1c.8-1.2-6.9-7.3-17.1-13.7l-.6-.4c-.2 0-.4 0-.4.1z"/><path id="path38" class="st9" d="M341.6 210.6c-3.8-.7-3.7 4-5.5 6.2-.5.6-.6.5-.5-.2l1.1-4.8c.2-.9.8-1.6 1.7-1.8 2-.6 4.2-.9 6.5-1.1.5 0 .9.1 1.3.6l.2.2c.1.1.1.3-.1.4l-.1.1c-2.5.5-4.4 1.9-5.8 4.2-.1.1-.2.2-.3.1l-.2-.1c-.1 0-.1-.1-.1-.2.4-1.2 1.1-2.3 2.1-3.2 0-.3 0-.4-.3-.4z"/><path id="path39" class="st9" d="M364.9 221.2c.5.2.8.4 1 .8.2.3.1.6-.2.8-2.2 1.5-4.6 2-7.2 1.7 1-.3 1.4-.6 1.4-.9 2.6.3 2.8-2.8 5-2.4z"/><path id="path40" class="st9" d="M486.7 231.9c-3.8.1-10.5.6-20 1.2-4.2.3-13.6.8-28.2 1.6-17.9 1-46.6 1.7-86.2 2.2-15.7.2-31.3 1-47 2.2l.3-2.1c.1-.4.3-.5.6-.5 6.1.1 12.2.1 18.2-.1 6.3-.2 12.4-.4 18.2-.5 10.9-.2 21.9-.5 33-.8 12.3-.4 24.1-.1 36.2-.5 11.2-.4 22.6-.7 34.4-1.1 9.7-.3 19.5-1.2 29-1.2 2.1 0 3.9-.5 6-.5 7.5-.2 15-.4 22.4-.5.1 0 .2.1.2.2s-.1.2-.2.1c-5.6-.1-11.2 0-16.9.3z"/></g><g id="g47"><path id="path41" class="st10" d="M380 68.1c.6 6 1.8 11.5 3.5 16.7-.4-.1-.8.2-1.2.7-2-1.5-3.1-3-3.4-4.6-1-5.8-1-12.8-8.5-13.7-1.1-.1-2.2.7-2.3 1.8l-.3 2.5c0 .3-.3.6-.7.5h-.2c-1.9-.8-3.7-1.4-5.5-1.9s-2.8-1.8-3-4c-.2-2.6-.5-5.1-.6-7.5-.1-1.5-.6-3.2-1.8-4.2-2.2-1.7-3.7-3.9-4.5-6.4-.3-1-1.4-1.5-2.3-1.2-.1 0-.2.1-.3.1-2.4 1.4-5 2.4-7.9 2.9-1.4.3-2.3-.2-2.7-1.4-.1-.4-.4-.5-.8-.5-4.3.4-8.9.1-13.7-.7-.4-.1-.7-.5-.7-.9.2-.8.6-1.5 1.3-1.9 3-2.1 6-4.4 9.1-6.7 2-1.5 3.6-3.7 6-4.4 4-1.2 7.8-1.7 11.4-1.5 2.3.1 4.6-.1 6.8-.6 1.2-.3 2.8-.3 3.9.4 2.6 1.7 6 1.8 8.3 3.9 1.8 1.6 3.7 3.1 5.8 4.4.9.5 1.4 1.4 1.5 2.4l2.8 25.8z"/><path id="path42" class="st10" d="M372.7 73.9c-.5 1.4-.9 2.8-1.2 4.1-.6 2.3-.2 4.7-.5 7.1 0 .4-.2.6-.6.7-.3.1-.6.1-1 0s-.5-.3-.4-.7c1.2-2.9 1.5-6.3 1-10.3-.1-.5 0-1 .2-1.4.2-.6.7-.9 1.4-.9.6 0 1.1.6 1 1.2.1 0 .1.1.1.2z"/><path id="path43" class="st10" d="m388.1 115 .1 3c0 .5-.1.6-.5.2-.3-.3-.5-.9-.4-1.7.6.5.9 0 .8-1.5z"/><ellipse id="ellipse43" transform="rotate(-64.101 441.315 146.18)" class="st10" cx="441.3" cy="146.2" rx="4.6" ry=".5"/><path id="path44" class="st10" d="M448.4 199.3c0-.1.1-.1.2 0l12.4 6.3c1.9 1 3.3 2 3.1 2.3l-.3.6c-.2.3-1.8-.3-3.6-1.2l-12.4-6.3c-.1 0-.1-.1-.1-.2l.7-1.5z"/><path id="path45" class="st10" d="M354 210.2c-.5.8-1.2 1.4-2.2 1.8.4-1.2 1.2-1.8 2.2-1.8z"/><path id="path46" class="st10" d="M386.5 212.8c1.2 3.3-.2 5.2-4.3 5.9-4.3.7-7.4 1-9.5.9-1.5-.1-2.4-.6-2.8-1.7l12.4-4.6c.3-.1.6-.1.9 0 1.8.5 2.9.3 3.3-.5z"/><path id="path47" class="st10" d="M360.8 219.3c1.3-.4 2.2-.1 2.8.8-.5.4-1.3.4-2.3-.2l-.5-.6z"/></g><g id="g52"><path id="path48" class="st11" d="M413.1 97c3.6 1.8 7.5 3.4 11.6 4.9 5.4 1.9 9.4 3.3 11.8 4.4 7.6 3.3 15.3 6.6 22.9 9.9 1.1.5 2.2 1.1 3.1 1.8-.4.1-.8 0-1.1-.1-4.4-2.1-9.4-3.7-13.5-5.6-8.3-3.8-15.8-7-22.3-9.4-2.2-.8-5-1.5-8.5-2-.2-.7-.6-1.2-1.1-1.3-.3-.1-.5 0-.4.4l4.6 21.3c-.3.3-.5.5-.8.5s-.5-.1-.5-.4c-.5-2.5-1-4.9-1.3-7.2-.8-5.5-1.5-8.9-2.2-10.3-1.1-2.7-1.9-4.9-2.3-6.9z"/><path id="path49" class="st11" d="M462.9 118.5c.9 1.2 1.5 2.2 1.8 3 5.1 13.7 9.4 27.7 12.9 42-1.3-2.6-2.3-5.3-3.1-8.2-1.5-5.1-2.2-7.7-2.2-7.8-2.5-7.5-4.8-14.7-7-21.4-1.1-3.4-2.4-7-7-5.1-2.3 1-4.2 2.3-5.5 3.8-2.4 2.8-4.9 6.5-7.3 11-.2.4-.5.6-.9.7-.4.1-.6-.1-.5-.5l.2-2.1 1.1-1.8c1.4-1.5 2.6-3.2 3.7-4.9.8-1.3 2.1-2.9 3.4-3.6 3.4-2 5.9-4.8 10.2-4.9.2 0 .3-.1.3-.2-.1.2-.1.1-.1 0z"/><path id="path50" class="st11" d="m252.1 176 1 3.1c.1.5 0 .7-.5.6-.4 0-.8-.3-1-.7-1.4-2.3-2.4-4.8-3-7.4l-.3-.9c-.1-.4 0-.7.3-1 .2-.2.6-.2.9 0l3.9 4.3c.2.2.3.5.2.8-.2.5-.5.7-1 .6-.4.1-.6.2-.5.6z"/><path id="path51" class="st11" d="M249.2 174.2c.1.1.1.2 0 .3l-.1.1c-.9 1-2.5 1.1-3.5.1l-.2-.2c-1-.9-1.1-2.5-.2-3.5l.1-.1c.1-.1.2-.1.3 0l3.6 3.3z"/><path id="path52" class="st11" d="M248.5 179.8c-1.7.5-3.8-1.1-2.3-2.8.4-.2.9-.4 1.4-.4.3 0 .6.1.8.4.5.8.6 1.7.1 2.8z"/></g><path id="path53" d="M95.4 179.3c6.7-1 9.5.1 8.4 3.3l-4 .2c-.3 0-.5.2-.5.5l.6 24.5c-.8-.1-1.9 0-3.2.5-.3.1-.5.3-.6.6-.2 1.2-.6 1.3-1.1.4l-.5-27.3c.1-1.2.4-2.1.9-2.7z" style="fill:#49b4d0"/><g id="g57"><path id="path54" class="st13" d="m308.4 160.2 3.7 20.4c-1.9 1.4-4.4 1.8-7.7 1.2-2.5-.5-4.2-.7-5.1-.8-1.7-.1-3.4-.1-5.1-.2-.3 0-.6-.1-.9-.2-.3-.2-.6-.2-.9-.1-.3.1-.5.3-.6.6-.1.6-.5.8-1 .8-4.3-.1-8.6-.2-12.7-.4-2 0-4.3-.2-6.9-.6-1.5-.2-2.7 0-4.2.1-1 .1-2 0-3-.3-1.9-.5-3.9-.4-6 .3-.3.1-.5.1-.8 0-1.1-.3-2.1-.2-3.1.2-.3.2-.6.2-.9 0-.5-.2-1.1-.3-1.6-.3-.1 0-.2-.1-.3-.2v-.4c0-.3-.2-.5-.5-.4-.7.1-1.4 0-2.1-.3.4-1 .4-1.9-.1-2.7-.2-.3-.5-.4-.8-.4-.5 0-1 .1-1.4.4l-.9.3c-.4.1-.5.4-.4.8v.4c-.2.4-.5.4-.8.1-.3-.3-.7-.4-1.1-.5-.1 0-.1 0 0-.1 0 0 .1 0 .1-.1s-.1-.2-.2-.2c-4.2-1.5-8.4-2.3-12.8-2.4-.2 0-.3.1-.4.3 0 .1-.1.2-.2.1-.6-.3-1.1-.3-1.7-.1-.2.1-.3 0-.4-.1-.2-.3-.4-.4-.7-.5-3.1-.3-6.1-.7-9.1-1-1.3-.2-2.7-.2-4.1 0-1.3.1-2.5.3-3.7.4-1.1.1-2.5 0-4-.5-3.3-1-5-.3-5.1 2-3.6-14.1-7.3-28.3-11.3-42.6-.3-1.1-.5-2.4-.5-3.8 0-.3.1-.6.3-.9.7-.9 1.6-1.3 2.5-1.4 18-2 36.2-4 54.6-6.3 5.4-.7 12-1.4 19.9-2.1 9.4-.9 18.1-2 26.4-3.3 2.4-.4 5.5-.6 7 1.9 1.3 2.1 2.1 4.4 2.4 6.8 1 6.7 1.8 13.3 3.3 20.1.8 5.4 1.9 10.7 2.9 16zm-55.9 15.3c.5.1.8-.1 1-.6.1-.3.1-.6-.2-.8l-3.9-4.3c-.2-.3-.6-.3-.9 0-.3.3-.4.6-.3 1l.3.9c.7 2.7 1.7 5.1 3 7.4.2.4.6.6 1 .7.5 0 .7-.2.5-.6l-1-3.1c0-.5.2-.6.5-.6zm-3.3-1.3-3.6-3.3c-.1-.1-.2-.1-.3 0l-.1.1c-.9 1-.8 2.5.2 3.5l.2.2c1 .9 2.6.9 3.5-.1l.1-.1c.1-.1 0-.2 0-.3z"/><path id="path55" class="st13" d="m445.3 132.3-1.1 1.8c-1.7 2.6-3.2 5.3-4.5 8-1.6 3.4-3 6.8-4.4 10.2-.2.5 0 1.1.5 1.3.1 0 .2.1.3.1.4 0 .6.2.6.6 0 .4-.1.7-.3.9-.7.8-1.3 1.6-1.7 2.5-.5.9-.5 1.6.1 2.2-.8-.9-.8-2 0-3.5.2-.3.2-.6.1-1-.3-1.1-.3-2.2.1-3.3.6-2 1.1-4.2 1.4-6.6 0-.3 0-.6-.1-.9-.4-.9-.4-1.7-.1-2.6.1.4.3.6.5.6.6 0 1.1-.4 1.2-.9.8-3.4 3.4-15.5 7.6-16.1 1.1-.2 1.5.3 1.2 1.4l-1.4 5.3z"/><path id="path56" class="st13" d="M436.9 204.1c.1-.1.2-.1.3-.1l.6.4c10.2 6.3 17.9 12.4 17.2 13.7v.1c-.8 1.2-9.7-2.9-19.9-9.2l-.7-.4c-.1-.1-.1-.2-.1-.3l2.6-4.2z"/><path id="path57" class="st13" d="M361.3 219.9c1.1.5 1.8.6 2.3.2l1.3 1.1c-2.2-.4-2.5 2.7-5.1 2.3-.1-.4-.2-.9-.1-1.3.1-.3.2-.6.5-.7.6-.4.9-.9 1.1-1.6z"/></g></svg>
