<svg xmlns="http://www.w3.org/2000/svg" viewBox="0 0 270 156.3" style="enable-background:new 0 0 270 156.3"
     xml:space="preserve"><path d="m242.6 148.4-83.2.2H25.3c-1.4-2.3-2-4-2-5.2-.1-43.5-.1-88-.1-133.3 0-2.9.3-4.9.8-6 1.3-2.8 4.1-4 7.1-4 70-.1 138.8-.1 206.3 0 2.9 0 5.9 1.9 6.7 4.6.3 1.1.5 2.6.5 4.4-.1 44.7-.1 89.4-.1 134.1 0 1.3-.6 3-1.9 5.2zM238.4 6.6c0-.1-.1-.3-.3-.3H29.6c-.1 0-.3.1-.3.3v136.5c0 .1.1.3.3.3h208.5c.1 0 .3-.1.3-.3V6.6z" style="fill:#00AEE17f"/>
  <path
    d="m242.6 148.4 26.5.3c.5 0 .9.4.9.9l-.1 3.5c0 .3-.2.6-.5.8l-.8.4c-.2-.1-.3-.2-.5-.3-.2-.1-.4-.1-.6-.1-88.5-.1-265.7.1-265.7.1-.9-.1-1.4-2.4-1.3-4.8 0 0 .3-.5.6-.5l24.2-.1h85.4l.5 2.2c.1.4.4.7.8.7l45.8.1c.5 0 .9-.4.9-.9s.2-1.2.6-2l83.3-.3z"
    style="fill:#00AEE17f"/>
  <path
    d="M110.7 148.5h48.7c-.4.8-.6 1.5-.6 2s-.4.9-.9.9l-45.8-.1c-.4 0-.7-.3-.8-.7l-.6-2.1zm157.9 5.8c-1.7 1.3-3.4 1.9-5 1.9-99.9-.1-164.4-.2-193.5-.1-27.7.1-48 0-61-.2-3 0-5.5-.7-7.3-2 88.6-.1 177.2-.1 265.7-.1.2 0 .4 0 .6.1.2.2.4.3.5.4z"
    style="fill:#00295C7f"/></svg>
