<svg width="1400" height="500" fill="#E8F3F1" xmlns="http://www.w3.org/2000/svg"><path d="m1016 123.5 61.9 35.7v71.6l-61.9 35.7-61.9-35.7v-71.6ZM405 196l35.5 20.5v41L405 278l-35.5-20.5v-41Zm906 148 42.4 24.5v49L1311 442l-42.4-24.5v-49ZM310 75l45.9 26.5v53L310 181l-45.9-26.5v-53Zm458 317 32 18.5v37L768 466l-32-18.5v-37ZM591 207l24.2 14v28L591 263l-24.2-14v-28ZM363 452l39 22.5v45L363 542l-39-22.5v-45Zm-202-38 23.4 13.5v27L161 468l-23.4-13.5v-27ZM139 37l51.1 29.5v59L139 155l-51.1-29.5v-59Zm577-66 39 22.5v45L716 61l-39-22.5v-45Z"/></svg>
