<svg version="1.1" width="162" height="162" xmlns="http://www.w3.org/2000/svg" viewBox="0 0 156 156">
  <rect width="100%" height="100%" fill="#ffffff"></rect>
  <path d="M4 4L32 4L32 32L4 32ZM40 4L48 4L48 8L44 8L44 16L40 16L40 20L56 20L56 24L52 24L52 28L48 28L48 32L44 32L44 24L40 24L40 32L44 32L44 36L36 36L36 12L40 12ZM64 4L68 4L68 8L64 8ZM104 4L108 4L108 8L104 8ZM112 4L120 4L120 8L112 8ZM124 4L152 4L152 32L124 32ZM8 8L8 28L28 28L28 8ZM56 8L64 8L64 12L72 12L72 16L68 16L68 20L64 20L64 16L60 16L60 12L56 12ZM84 8L88 8L88 12L84 12ZM92 8L104 8L104 12L100 12L100 16L108 16L108 12L120 12L120 16L112 16L112 24L116 24L116 20L120 20L120 36L116 36L116 40L120 40L120 44L104 44L104 48L100 48L100 36L92 36L92 40L88 40L88 36L84 36L84 28L88 28L88 32L92 32L92 28L96 28L96 32L100 32L100 28L104 28L104 32L108 32L108 36L104 36L104 40L108 40L108 36L112 36L112 32L116 32L116 28L112 28L112 32L108 32L108 20L100 20L100 24L96 24L96 20L92 20L92 16L88 16L88 12L92 12ZM128 8L128 28L148 28L148 8ZM12 12L24 12L24 24L12 24ZM48 12L52 12L52 16L48 16ZM132 12L144 12L144 24L132 24ZM56 16L60 16L60 20L56 20ZM72 16L80 16L80 20L76 20L76 28L72 28ZM80 20L92 20L92 28L88 28L88 24L80 24ZM60 24L68 24L68 28L64 28L64 40L68 40L68 44L76 44L76 48L68 48L68 56L60 56L60 52L64 52L64 44L60 44L60 48L56 48L56 40L60 40L60 36L56 36L56 40L48 40L48 44L44 44L44 48L40 48L40 40L44 40L44 36L48 36L48 32L52 32L52 28L56 28L56 32L60 32ZM68 28L72 28L72 32L68 32ZM76 28L80 28L80 36L72 36L72 32L76 32ZM4 36L8 36L8 40L4 40ZM12 36L32 36L32 40L20 40L20 44L16 44L16 48L12 48ZM68 36L72 36L72 40L68 40ZM124 36L144 36L144 40L140 40L140 44L132 44L132 40L128 40L128 44L132 44L132 48L140 48L140 52L136 52L136 56L132 56L132 60L140 60L140 64L136 64L136 72L128 72L128 68L116 68L116 64L108 64L108 60L116 60L116 56L120 56L120 60L128 60L128 56L120 56L120 44L124 44ZM32 40L36 40L36 44L32 44ZM76 40L80 40L80 44L76 44ZM84 40L88 40L88 44L84 44ZM92 40L96 40L96 52L84 52L84 56L88 56L88 64L84 64L84 60L80 60L80 56L72 56L72 52L76 52L76 48L80 48L80 44L84 44L84 48L88 48L88 44L92 44ZM144 40L148 40L148 44L152 44L152 56L144 56L144 52L148 52L148 48L144 48ZM4 44L8 44L8 48L4 48ZM20 44L24 44L24 48L20 48ZM28 44L32 44L32 48L28 48ZM48 44L52 44L52 48L48 48ZM8 48L12 48L12 52L20 52L20 56L24 56L24 60L32 60L32 64L28 64L28 68L24 68L24 72L20 72L20 60L16 60L16 56L8 56L8 60L4 60L4 52L8 52ZM24 48L28 48L28 52L32 52L32 56L24 56ZM36 48L40 48L40 52L44 52L44 48L48 48L48 52L52 52L52 56L48 56L48 64L44 64L44 68L36 68L36 76L32 76L32 72L28 72L28 68L32 68L32 64L36 64ZM112 48L116 48L116 56L108 56L108 60L104 60L104 56L100 56L100 52L112 52ZM124 48L124 52L128 52L128 48ZM40 56L40 60L44 60L44 56ZM56 56L60 56L60 60L68 60L68 64L56 64ZM68 56L72 56L72 60L68 60ZM96 56L100 56L100 60L96 60ZM8 60L16 60L16 64L8 64ZM76 60L80 60L80 64L76 64ZM92 60L96 60L96 64L92 64ZM100 60L104 60L104 64L100 64ZM144 60L152 60L152 64L144 64ZM4 64L8 64L8 68L12 68L12 72L4 72ZM52 64L56 64L56 68L68 68L68 72L76 72L76 76L64 76L64 72L56 72L56 84L44 84L44 80L52 80L52 72L48 72L48 68L52 68ZM68 64L72 64L72 68L68 68ZM80 64L84 64L84 68L80 68ZM96 64L100 64L100 68L104 68L104 72L84 72L84 68L96 68ZM104 64L108 64L108 68L104 68ZM76 68L80 68L80 72L76 72ZM108 68L116 68L116 72L112 72L112 76L104 76L104 72L108 72ZM140 68L144 68L144 72L140 72ZM148 68L152 68L152 72L148 72ZM12 72L20 72L20 76L24 76L24 72L28 72L28 76L32 76L32 80L28 80L28 84L32 84L32 88L28 88L28 92L24 92L24 80L16 80L16 76L12 76ZM44 72L48 72L48 76L44 76ZM116 72L120 72L120 76L116 76ZM124 72L128 72L128 76L124 76ZM136 72L140 72L140 84L136 84ZM144 72L148 72L148 76L152 76L152 84L148 84L148 80L144 80ZM36 76L44 76L44 80L40 80L40 84L32 84L32 80L36 80ZM76 76L80 76L80 80L76 80ZM84 76L88 76L88 80L84 80ZM92 76L104 76L104 80L96 80L96 84L108 84L108 80L120 80L120 76L124 76L124 84L128 84L128 88L124 88L124 92L136 92L136 88L140 88L140 96L136 96L136 100L132 100L132 104L128 104L128 100L124 100L124 96L120 96L120 92L116 92L116 88L104 88L104 92L96 92L96 88L92 88L92 84L88 84L88 80L92 80ZM8 80L12 80L12 88L8 88ZM68 80L72 80L72 84L68 84ZM16 84L20 84L20 92L24 92L24 96L12 96L12 88L16 88ZM40 84L44 84L44 88L40 88ZM56 84L60 84L60 92L68 92L68 96L72 96L72 92L68 92L68 88L72 88L72 84L76 84L76 88L92 88L92 96L96 96L96 100L92 100L92 104L96 104L96 108L84 108L84 104L88 104L88 100L72 100L72 104L68 104L68 108L76 108L76 112L68 112L68 120L60 120L60 108L64 108L64 100L56 100L56 96L52 96L52 92L56 92ZM132 84L136 84L136 88L132 88ZM4 88L8 88L8 92L4 92ZM32 88L36 88L36 92L44 92L44 100L48 100L48 96L52 96L52 104L56 104L56 112L52 112L52 108L48 108L48 104L40 104L40 100L36 100L36 96L28 96L28 92L32 92ZM44 88L48 88L48 92L44 92ZM76 92L76 96L84 96L84 92ZM108 92L116 92L116 96L112 96L112 100L104 100L104 104L116 104L116 108L112 108L112 112L104 112L104 108L100 108L100 96L108 96ZM144 92L152 92L152 104L148 104L148 100L144 100ZM8 96L12 96L12 104L8 104L8 120L4 120L4 100L8 100ZM24 96L28 96L28 100L24 100ZM116 96L120 96L120 100L124 100L124 104L116 104ZM16 100L24 100L24 104L16 104ZM28 100L36 100L36 104L28 104ZM140 100L144 100L144 108L140 108L140 112L144 112L144 108L152 108L152 116L148 116L148 124L144 124L144 116L140 116L140 124L136 124L136 128L140 128L140 132L136 132L136 136L140 136L140 140L132 140L132 136L128 136L128 140L120 140L120 144L116 144L116 148L120 148L120 144L128 144L128 152L104 152L104 148L112 148L112 144L104 144L104 148L100 148L100 144L92 144L92 148L88 148L88 144L84 144L84 140L88 140L88 136L76 136L76 132L80 132L80 128L84 128L84 124L80 124L80 120L72 120L72 116L76 116L76 112L80 112L80 108L84 108L84 112L96 112L96 120L100 120L100 124L96 124L96 128L92 128L92 116L88 116L88 132L96 132L96 136L92 136L92 140L104 140L104 136L108 136L108 140L116 140L116 136L112 136L112 132L104 132L104 136L100 136L100 128L108 128L108 124L112 124L112 128L116 128L116 124L112 124L112 120L116 120L116 116L128 116L128 112L132 112L132 104L140 104ZM12 104L16 104L16 112L12 112ZM76 104L80 104L80 108L76 108ZM124 104L128 104L128 112L124 112ZM20 108L24 108L24 116L16 116L16 112L20 112ZM28 108L36 108L36 116L32 116L32 112L28 112ZM44 108L48 108L48 112L44 112ZM96 108L100 108L100 112L96 112ZM116 108L120 108L120 112L116 112ZM48 112L52 112L52 128L56 128L56 124L68 124L68 128L64 128L64 132L48 132L48 124L36 124L36 116L40 116L40 120L44 120L44 116L48 116ZM100 112L104 112L104 116L100 116ZM112 112L116 112L116 116L112 116ZM28 116L32 116L32 120L28 120ZM104 116L108 116L108 120L104 120ZM68 120L72 120L72 124L68 124ZM120 120L120 132L132 132L132 120ZM4 124L32 124L32 152L4 152ZM76 124L80 124L80 128L76 128ZM124 124L128 124L128 128L124 128ZM140 124L144 124L144 128L140 128ZM148 124L152 124L152 128L148 128ZM8 128L8 148L28 148L28 128ZM36 128L44 128L44 132L40 132L40 144L36 144ZM68 128L72 128L72 132L68 132ZM144 128L148 128L148 132L144 132ZM12 132L24 132L24 144L12 144ZM44 132L48 132L48 148L52 148L52 152L36 152L36 148L44 148ZM64 132L68 132L68 136L72 136L72 140L64 140ZM140 132L144 132L144 136L140 136ZM148 132L152 132L152 136L148 136ZM52 136L60 136L60 140L52 140ZM72 140L76 140L76 144L72 144ZM148 140L152 140L152 152L140 152L140 148L148 148ZM52 144L56 144L56 148L52 148ZM68 144L72 144L72 148L76 148L76 144L80 144L80 152L68 152ZM132 144L136 144L136 152L132 152ZM56 148L64 148L64 152L56 152ZM96 148L100 148L100 152L96 152Z" fill="#000000" fill-rule="evenodd"></path>
</svg>
