<svg width="1600" height="500" xmlns="http://www.w3.org/2000/svg"><path d="M0 96h145v160h146v-50h145v40h146v5h145V61h146v205h145v95h146V46h145v75h146V86h145v70V49v30h-145v30h-146V19h-145v225h-146v-40H873V9H727v155H582v-35H436v-10H291v40H145V39H0Z" fill="#b9b9b92f"/><path d="M0 181h145v270h146V311h145v45h146v-85h145V131h146v335h145v-85h146V161h145v105h146V151h145v130V84h-145v35h-146V44h-145v315h-146v-95H873V59H727v190H582v-5H436v-40H291v50H145V94H0Z" fill="#7777772f"/><path d="M0 421h145v75h146V396h145v-15h146v80h145v-80h146v90h145v20h146v-55h145v-25h146v60h145V149h-145v115h-146V159h-145v220h-146v85H873V129H727v140H582v85H436v-45H291v140H145V179H0Z" fill="#ffffff7f"/><path d="M0 501h1600v-52 20h-145v-60h-146v25h-145v55h-146v-20H873v-90H727v80H582v-80H436v15H291v100H145v-75H0Z" fill="#0000007f"/></svg>